<?xml version="1.0" encoding="UTF-8"?>
<svg id="Layer_1" data-name="Layer 1" xmlns="http://www.w3.org/2000/svg" viewBox="0 0 30 30">
  <defs>
    <style>
      .cls-1 {
        fill: #01897b;
      }
    </style>
  </defs>
  <path class="cls-1" d="M21.14,11.16h-2.55v-.89c0-.98-.81-1.79-1.79-1.79h-3.61c-.98,0-1.79,.81-1.79,1.79v.89h-2.55c-.94,0-1.69,.76-1.69,1.69v6.99c0,.94,.76,1.69,1.69,1.69h12.3c.94,0,1.69-.76,1.69-1.69v-6.99c0-.94-.76-1.69-1.69-1.69Zm-8.37-.89c0-.24,.19-.44,.44-.44h3.61c.24,0,.44,.19,.44,.44v.86h-4.49v-.86Zm8.7,9.26c0,.36-.29,.65-.65,.65H9.17c-.36,0-.65-.29-.65-.65v-6.36c0-.36,.29-.65,.65-.65h11.67c.36,0,.65,.29,.65,.65v6.36h-.02Z"/>
  <path class="cls-1" d="M28.97,13.64c-.02-1.03-.03-2.1-.08-3.16-.08-1.87-.19-3.78-.36-5.66-.16-1.68-1.65-3.18-3.32-3.32-1.98-.16-3.99-.29-5.95-.37-1.42-.05-2.86-.08-4.26-.08-.9,0-1.81,.02-2.69,.03-2.5,.06-5.02,.21-7.5,.42-1.68,.16-3.18,1.65-3.32,3.32-.18,1.97-.29,3.94-.37,5.86,0,.06,0,.15-.02,.21-.03,1.36-.06,2.73-.06,4.1,0,.9,.02,1.81,.03,2.69v.36c.03,1.5,.11,3,.21,4.49,.06,.87,.13,1.79,.21,2.71,.16,1.68,1.65,3.18,3.32,3.32,2.4,.21,4.82,.36,7.2,.4h6.02c2.37-.06,4.79-.19,7.2-.4,1.68-.16,3.18-1.65,3.32-3.32,.08-.86,.15-1.71,.19-2.52,.02-.31,.03-.56,.05-.81,.02-.23,.03-.44,.03-.63,.03-.6,.06-1.21,.08-1.84,.02-.53,.03-1.1,.05-1.71,.02-.76,.03-1.52,.03-2.26v-.53c.02-.4,0-.82,0-1.29Zm-1.31,1.78c0,.71-.02,1.42-.03,2.13-.02,.53-.03,1.08-.05,1.61-.02,.58-.05,1.16-.08,1.74-.02,.19-.02,.39-.03,.6-.02,.26-.03,.52-.05,.76-.05,.79-.11,1.58-.18,2.37-.11,1.32-1.32,2.52-2.65,2.65-2.26,.19-4.52,.32-6.78,.39h-5.65c-2.26-.06-4.52-.19-6.78-.39-1.32-.13-2.52-1.32-2.65-2.65-.08-.86-.15-1.71-.19-2.55-.1-1.4-.16-2.81-.19-4.23v-.32c-.02-.86-.03-1.69-.03-2.55,0-1.29,.02-2.57,.06-3.86v-.19c.08-1.84,.21-3.68,.37-5.5,.13-1.32,1.32-2.52,2.65-2.65,2.36-.21,4.71-.34,7.07-.39,.84-.02,1.69-.03,2.53-.03h0c1.34,0,2.68,.03,4.02,.08,1.87,.06,3.73,.18,5.58,.36,1.32,.13,2.52,1.32,2.65,2.65,.16,1.78,.27,3.55,.34,5.33,.03,1,.06,1.98,.08,2.99v1.18c-.02,.15-.02,.32-.02,.48Z"/>
</svg>