<svg width="31" height="23" viewBox="0 0 31 23" fill="none" xmlns="http://www.w3.org/2000/svg">
<path fill-rule="evenodd" clip-rule="evenodd" d="M30.3691 6.92751C30.7279 7.76489 30.5501 8.73576 29.9178 9.39154C27.6931 11.6986 22.4045 17.183 18.9355 20.7806C18.0818 21.6658 16.9049 22.1659 15.6752 22.1659C14.4453 22.1659 13.2684 21.6658 12.4148 20.7806C8.9457 17.183 3.65721 11.6986 1.43257 9.39154C0.800238 8.73576 0.622409 7.76489 0.981225 6.92751C1.60357 5.47533 2.57679 3.20453 3.19771 1.75581C3.55459 0.923125 4.37332 0.383219 5.27917 0.383219H26.0711C26.977 0.383219 27.7957 0.923125 28.1526 1.75581C28.7734 3.20453 29.7467 5.47533 30.3691 6.92751Z" fill="url(#paint0_linear_465_49)"/>
<path fill-rule="evenodd" clip-rule="evenodd" d="M30.5509 7.74318C30.571 8.34443 30.3511 8.94202 29.9177 9.39153C27.6931 11.6986 22.4045 17.183 18.9355 20.7806C18.0818 21.6658 16.9048 22.1659 15.6751 22.1659C14.4453 22.1659 13.2684 21.6658 12.4148 20.7806C8.94566 17.183 3.65717 11.6986 1.43253 9.39153C0.999019 8.94202 0.779102 8.34443 0.799382 7.74318H30.5509Z" fill="url(#paint1_linear_465_49)"/>
<path fill-rule="evenodd" clip-rule="evenodd" d="M23.3643 7.47975C23.517 8.01405 23.4677 8.58596 23.2262 9.08642C22.21 11.1914 19.3533 17.1087 17.4597 21.0314C17.129 21.7162 16.4356 22.1515 15.6752 22.1515C14.9146 22.1515 14.2213 21.7162 13.8907 21.0314C11.9969 17.1087 9.14036 11.1914 8.12414 9.08642C7.88252 8.58596 7.8334 8.01405 7.98606 7.47975C8.56683 5.4471 10.0136 0.383219 10.0136 0.383219H21.3367C21.3367 0.383219 22.7835 5.4471 23.3643 7.47975Z" fill="url(#paint2_linear_465_49)"/>
<defs>
<linearGradient id="paint0_linear_465_49" x1="16.2966" y1="-1.97844e-08" x2="15.19" y2="10.8875" gradientUnits="userSpaceOnUse">
<stop stop-color="#A487F6"/>
<stop offset="1" stop-color="#5E2CED"/>
</linearGradient>
<linearGradient id="paint1_linear_465_49" x1="16.2966" y1="8.15183" x2="15.3644" y2="22.0028" gradientUnits="userSpaceOnUse">
<stop stop-color="#A487F6"/>
<stop offset="1" stop-color="#5E2CED"/>
</linearGradient>
<linearGradient id="paint2_linear_465_49" x1="9.03332" y1="-4" x2="10.8779" y2="22.3585" gradientUnits="userSpaceOnUse">
<stop stop-color="#BAA4F8"/>
<stop offset="1" stop-color="#5E2CED"/>
</linearGradient>
</defs>
</svg>
