<svg width="56" height="56" viewBox="0 0 56 56" fill="none" xmlns="http://www.w3.org/2000/svg">
<rect width="56" height="56" rx="28" fill="#F0F4FF"/>
<g clip-path="url(#clip0_1097_369)">
<mask id="mask0_1097_369" style="mask-type:alpha" maskUnits="userSpaceOnUse" x="11" y="11" width="34" height="19">
<path d="M42.5212 26.6701H42.4799L42.4879 26.0944H42.3647V26.0547L42.6539 26.0587V26.0984H42.5307L42.5212 26.6701Z" fill="#ACA199"/>
<path d="M42.9285 26.6764L42.7697 26.1134C42.7697 26.1721 42.7697 26.2095 42.7697 26.2254L42.7633 26.674H42.7236L42.7324 26.0586H42.7935L42.9262 26.5351C42.9367 26.5698 42.9444 26.6054 42.9492 26.6415C42.9563 26.606 42.9656 26.571 42.977 26.5366L43.1223 26.0673H43.1859L43.1771 26.6828H43.1351L43.1422 26.2381C43.1422 26.2206 43.1422 26.1825 43.1478 26.1237L42.9746 26.6796L42.9285 26.6764Z" fill="#ACA199"/>
<path d="M22.0948 16.3516H21.3053L21.067 17.0218C20.8224 17.0954 20.5835 17.1867 20.3522 17.2949L19.7224 16.9773L19.1664 17.5276L19.4841 18.1629C19.3441 18.378 19.249 18.6192 19.2045 18.872L18.5326 19.1103V19.8996L19.2029 20.1378C19.2697 20.371 19.3616 20.5963 19.4769 20.8096L19.1593 21.4401L19.7486 22.0341L20.384 21.7212C20.5966 21.8377 20.8211 21.9312 21.0535 22L21.2918 22.6718H22.0813L22.3195 22.0016C22.5641 21.9279 22.803 21.8366 23.0344 21.7284L23.6642 22.046L24.2202 21.4957L23.9025 20.8604C24.0425 20.6453 24.1376 20.4041 24.1821 20.1513L24.854 19.9171V19.1277L24.1836 18.8895C24.1101 18.6449 24.0188 18.406 23.9104 18.1748L24.2281 17.5443L23.6777 16.9884L23.0423 17.3013C22.827 17.1618 22.5858 17.067 22.3331 17.0226L22.0948 16.3516ZM23.2663 19.5129C23.2652 19.8251 23.1715 20.13 22.997 20.3891C22.8226 20.6481 22.5752 20.8495 22.2863 20.968C21.9973 21.0864 21.6796 21.1165 21.3736 21.0545C21.0675 20.9924 20.7867 20.841 20.5666 20.6193C20.3466 20.3977 20.1973 20.1158 20.1376 19.8093C20.0778 19.5028 20.1103 19.1855 20.2309 18.8975C20.3516 18.6095 20.555 18.3637 20.8153 18.1912C21.0757 18.0188 21.3814 17.9274 21.6937 17.9286C22.1119 17.9316 22.512 18.0998 22.8066 18.3966C23.1013 18.6934 23.2665 19.0947 23.2663 19.5129Z" fill="#ACA199"/>
<path d="M21.6516 18.4805C21.8469 18.4811 22.0376 18.5396 22.1996 18.6486C22.3616 18.7577 22.4876 18.9123 22.5618 19.0929C22.6359 19.2736 22.6547 19.4721 22.616 19.6635C22.5772 19.8549 22.4825 20.0304 22.3439 20.168C22.2053 20.3056 22.0291 20.399 21.8374 20.4363C21.6457 20.4737 21.4472 20.4534 21.2671 20.378C21.087 20.3026 20.9332 20.1755 20.8254 20.0127C20.7175 19.8499 20.6604 19.6588 20.6611 19.4636C20.6616 19.334 20.6875 19.2057 20.7375 19.0862C20.7875 18.9666 20.8606 18.8581 20.9526 18.7668C21.0446 18.6755 21.1536 18.6032 21.2736 18.5541C21.3935 18.505 21.522 18.48 21.6516 18.4805Z" fill="#ACA199"/>
<path d="M23.2536 16.2334L23.468 16.2064C23.5109 16.2016 24.348 16.0968 24.5514 15.4607C24.7102 14.962 25.2439 14.8945 25.2662 14.8921L25.9103 14.8127L25.8523 14.3823L25.2082 14.4617C25.1867 14.4617 24.6522 14.5316 24.3766 14.0861C24.0224 13.5207 23.1853 13.6256 23.1424 13.6303L22.9279 13.6573L22.8739 13.2285L22.3108 13.9527L23.0351 14.5157L22.9811 14.0869L23.1956 14.0599C23.1956 14.0599 23.7968 13.9845 24.0144 14.3283C24.1355 14.5163 24.3051 14.668 24.5053 14.7675C24.33 14.9084 24.2019 15.0996 24.1383 15.3154C24.0121 15.7013 23.4108 15.7768 23.4108 15.7768L23.1964 15.8038L23.1424 15.3742L22.5792 16.0992L23.3107 16.663L23.2536 16.2334Z" fill="#ACA199"/>
<path d="M20.2473 14.212L20.4983 14.2835L20.5706 14.0325L20.9049 14.1286L21.2457 12.9311C21.2567 12.8927 21.26 12.8525 21.2555 12.8128C21.2509 12.7731 21.2386 12.7346 21.2192 12.6997C21.1998 12.6647 21.1737 12.6339 21.1424 12.6091C21.1111 12.5842 21.0752 12.5657 21.0368 12.5547C20.9984 12.5437 20.9581 12.5404 20.9184 12.5449C20.8787 12.5495 20.8403 12.5618 20.8053 12.5812C20.7703 12.6006 20.7395 12.6267 20.7147 12.658C20.6898 12.6893 20.6713 12.7251 20.6603 12.7636L20.2473 14.212ZM21.0789 12.8374C21.1 12.8754 21.1051 12.9203 21.0931 12.962C21.0811 13.0038 21.053 13.0391 21.015 13.0602C20.9769 13.0812 20.9321 13.0863 20.8903 13.0743C20.8485 13.0623 20.8132 13.0343 20.7922 12.9962C20.7817 12.9774 20.7751 12.9567 20.7727 12.9353C20.7703 12.914 20.7721 12.8923 20.778 12.8716C20.79 12.8299 20.8181 12.7946 20.8561 12.7735C20.8749 12.7631 20.8956 12.7565 20.917 12.754C20.9384 12.7516 20.96 12.7534 20.9807 12.7593C21.0225 12.7713 21.0578 12.7994 21.0789 12.8374Z" fill="#ACA199"/>
<path d="M20.878 15.4323L20.681 15.3307L20.2267 15.2306L20.299 14.9797L20.048 14.9082L20.0401 14.936C19.9283 14.9495 19.8203 14.9851 19.7224 15.0408C19.5338 15.1471 19.3947 15.3234 19.3352 15.5315C19.2758 15.7396 19.3007 15.9627 19.4047 16.1526C19.4578 16.2516 19.5301 16.3391 19.6175 16.4098L19.8487 15.6062L20.4332 15.7738L20.2021 16.5814C20.33 16.5659 20.4527 16.5212 20.5605 16.4507C20.6684 16.3802 20.7585 16.2858 20.8239 16.1747C20.8893 16.0637 20.9282 15.9391 20.9376 15.8106C20.9469 15.6822 20.9266 15.5532 20.878 15.4339V15.4323Z" fill="#ACA199"/>
<path d="M20.9424 14.3652L20.7097 14.2858L20.6374 14.5368L19.0489 14.0817L18.8575 13.9062L18.3539 13.9277L18.2983 14.123L18.7042 14.4335L18.9695 14.4034L20.5476 14.8409L20.4754 15.0918L20.7136 15.1458C20.7136 15.1458 20.7422 14.9425 20.9924 15.014C21.1322 15.0545 21.1044 15.257 21.5222 15.3769L22.1067 15.5445C22.1067 15.5445 22.345 15.5532 22.4419 15.2189C22.5388 14.8846 22.3307 14.7647 22.3307 14.7647L21.7454 14.5971C21.3554 14.4851 21.2442 14.6646 21.1322 14.6321C20.8868 14.5606 20.9424 14.3652 20.9424 14.3652ZM21.1807 14.9608L21.2362 14.7655L22.295 15.0688L22.2394 15.2642L21.1807 14.9608Z" fill="#ACA199"/>
<path d="M24.5212 18.2258L27.4115 19.1541L28.4059 16.0619L25.5156 15.1328L24.5212 18.2258ZM27.5251 18.1067L27.2749 18.8873L26.8984 18.7666L27.1494 17.9876L27.5251 18.1067ZM26.9477 17.9209L26.6967 18.7023L26.321 18.5816L26.5712 17.801L26.9477 17.9209ZM26.3694 17.7351L26.1185 18.5157L25.7428 18.395L25.9938 17.6144L26.3694 17.7351ZM25.7912 17.5492L25.5403 18.3298L25.1646 18.2091L25.4156 17.4317L25.7912 17.5492ZM27.8316 17.1522L27.5815 17.9328L27.2026 17.8121L27.456 17.0347L27.8316 17.1522ZM27.2542 16.9664L27.0033 17.7494L26.6276 17.6287L26.8778 16.8481L27.2542 16.9664ZM26.676 16.7806L26.425 17.5612L26.0494 17.4405L26.3003 16.6599L26.676 16.7806ZM26.0978 16.5947L25.8468 17.3753L25.4712 17.2546L25.7221 16.474L26.0978 16.5947ZM28.1382 16.1977L27.888 16.9783L27.5116 16.8576L27.7626 16.0818L28.1382 16.1977ZM27.5608 16.0119L27.3098 16.7964L26.9342 16.6757L27.1843 15.8951L27.5608 16.0119ZM26.9826 15.8261L26.7316 16.6067L26.3559 16.486L26.6069 15.7054L26.9826 15.8261ZM26.4084 15.641L26.1574 16.4216L25.7817 16.3009L26.0327 15.5203L26.4084 15.641Z" fill="#ACA199"/>
<path d="M20.959 11.0127C20.9565 11.0663 20.9629 11.12 20.9781 11.1715H20.5714V11.0127H20.2371L19.801 11.3351L20.5675 11.9116V11.5297H20.8558C20.8183 11.6072 20.7982 11.6921 20.797 11.7782C20.7903 11.8659 20.8061 11.9539 20.843 12.0337C20.8798 12.1136 20.9364 12.1828 21.0074 12.2347C21.0784 12.2866 21.1615 12.3196 21.2488 12.3304C21.3361 12.3413 21.4247 12.3297 21.5063 12.2967C21.5346 12.4554 21.6169 12.5993 21.7392 12.7042C21.8615 12.8091 22.0163 12.8686 22.1774 12.8725C22.5428 12.8725 22.8708 12.589 22.8724 12.2451L22.8795 11.0127H20.959Z" fill="#ACA199"/>
<path d="M23.7944 11.0127L24.8667 13.9755L25.3551 13.7992L25.5791 11.8775L24.6689 11.0127H23.7944Z" fill="#ACA199"/>
<path d="M25.4901 11.0127L25.344 11.3851L25.8126 11.7885L25.7125 12.3968L27.0937 13.1575L26.313 11.0127H25.4901Z" fill="#ACA199"/>
<path d="M25.7078 12.6016L25.5784 13.7061L26.9008 13.2297L25.7078 12.6016Z" fill="#ACA199"/>
<path d="M25.2972 11.0127H24.9779L25.2074 11.2136L25.2972 11.0127Z" fill="#ACA199"/>
<path d="M25.2678 20.4647L25.7126 22.8836L26.5068 21.8965L26.8849 23.6649L27.1939 20.2408L26.2654 21.3883V19.3848L25.2678 20.4647Z" fill="#ACA199"/>
<path d="M19.0862 11.5757C19.1231 11.3904 19.1377 11.2014 19.1299 11.0127H18.2387C18.2297 11.1727 18.2098 11.3319 18.1792 11.4892C18.1299 11.7464 18.0997 11.7798 18.0815 11.8727L17.4175 11.7441L18.2911 13.3656L19.6819 12.1745L18.9948 12.0442C19.0219 11.9267 19.0465 11.7861 19.0862 11.5757Z" fill="#ACA199"/>
<path d="M28.4526 11.0127H27.7696L27.2033 11.1977L27.1429 11.0127H26.9189L27.0675 11.4661L28.4526 11.0127Z" fill="#ACA199"/>
<path d="M15.686 17.2903H16.2666V16.709L15.686 17.2903Z" fill="#ACA199"/>
<path d="M16.4612 16.7129V17.4871H15.6868V18.4551L18.0028 18.4647L18.0091 16.7177L16.4612 16.7129Z" fill="#ACA199"/>
<path d="M16.4636 15.9387H17.045V15.3574L16.4636 15.9387Z" fill="#ACA199"/>
<path d="M16.4636 16.1324V16.5199L18.2054 16.5263V17.1075H18.786L18.7892 15.3677L17.2404 15.3613V16.1356L16.4636 16.1324Z" fill="#ACA199"/>
<path d="M29.4098 11.3965L28.8752 11.5124L28.8133 12.0008C28.6597 12.0871 28.5127 12.1845 28.3733 12.2922L27.8967 12.1707L27.6036 12.6257L27.9094 13.0061C27.8486 13.173 27.8216 13.3504 27.83 13.5278L27.4106 13.7859L27.5258 14.3203L28.0151 14.3823C28.0949 14.5298 28.1905 14.6682 28.3002 14.7952L28.1787 15.2717L28.6663 15.5853L29.0468 15.2788C29.208 15.3261 29.374 15.3556 29.5416 15.367L29.7997 15.7862L30.3343 15.6711L30.3962 15.1819C30.5499 15.0959 30.697 14.9985 30.8362 14.8905L31.3128 15.012L31.6058 14.557L31.2969 14.1758C31.3595 14.0096 31.3879 13.8324 31.3803 13.6549L31.7996 13.3968L31.6837 12.8624L31.1952 12.8004C31.1089 12.6469 31.0114 12.4999 30.9037 12.3605L31.0253 11.8841L30.5701 11.5902L30.1897 11.8968C30.0222 11.8337 29.8435 11.8054 29.6647 11.8134L29.4098 11.3965ZM30.6734 13.3571C30.7191 13.5683 30.7011 13.7883 30.6217 13.9894C30.5424 14.1904 30.4051 14.3633 30.2275 14.4864C30.0498 14.6094 29.8396 14.677 29.6235 14.6806C29.4074 14.6842 29.195 14.6237 29.0133 14.5066C28.8316 14.3896 28.6887 14.2213 28.6027 14.0231C28.5166 13.8248 28.4913 13.6055 28.5299 13.3929C28.5685 13.1803 28.6693 12.9839 28.8196 12.8285C28.9698 12.6732 29.1628 12.5658 29.374 12.5201C29.6572 12.4599 29.9528 12.5141 30.1962 12.6709C30.4396 12.8277 30.6112 13.0744 30.6734 13.3571Z" fill="#ACA199"/>
<path d="M29.4264 12.9001C29.5584 12.8716 29.6959 12.8829 29.8215 12.9326C29.9471 12.9822 30.0552 13.0679 30.1321 13.179C30.209 13.29 30.2512 13.4213 30.2535 13.5563C30.2557 13.6913 30.2179 13.824 30.1447 13.9375C30.0716 14.051 29.9664 14.1403 29.8425 14.1941C29.7186 14.2479 29.5816 14.2637 29.4487 14.2397C29.3158 14.2156 29.193 14.1526 29.0959 14.0588C28.9987 13.965 28.9316 13.8445 28.903 13.7125C28.884 13.6248 28.8824 13.5342 28.8984 13.4459C28.9144 13.3576 28.9477 13.2733 28.9963 13.1979C29.0449 13.1224 29.1079 13.0573 29.1817 13.0062C29.2555 12.9551 29.3386 12.9191 29.4264 12.9001Z" fill="#ACA199"/>
<path d="M28.4424 19.0868L28.3749 19.171C28.3065 19.2557 28.2556 19.3531 28.2249 19.4575C28.1943 19.562 28.1845 19.6715 28.1963 19.7797C28.208 19.8879 28.241 19.9927 28.2933 20.0882C28.3456 20.1836 28.4163 20.2678 28.5012 20.3359C28.5458 20.3753 28.5965 20.4072 28.6513 20.4304L28.3979 20.7481L28.0802 20.4956L28.0516 21.4564L28.9825 21.2182L28.6815 20.98L28.8618 20.7544C28.8992 20.8323 28.9534 20.901 29.0206 20.9553C29.0757 21.0021 29.1396 21.0373 29.2086 21.059C29.2775 21.0806 29.3501 21.0883 29.422 21.0815C29.494 21.0747 29.5638 21.0535 29.6275 21.0193C29.6911 20.9851 29.7473 20.9385 29.7926 20.8823C29.8272 20.8338 29.854 20.7802 29.872 20.7235C30.0143 20.8013 30.1793 20.8274 30.3386 20.7971C30.498 20.7668 30.6419 20.6821 30.7457 20.5575C30.9737 20.2716 30.9522 19.8365 30.6814 19.6205L29.1326 18.3841C28.9213 18.2165 28.6036 18.3046 28.4591 18.4873C28.3913 18.5717 28.3529 18.676 28.3499 18.7843C28.3469 18.8925 28.3794 18.9988 28.4424 19.0868Z" fill="#ACA199"/>
<path d="M30.5122 18.2728C30.5122 18.2728 30.5757 18.2974 30.7147 18.0512L30.8092 18.0886C30.8622 18.1083 30.9207 18.1064 30.9722 18.0834C31.0238 18.0604 31.0642 18.018 31.0848 17.9655L31.2381 17.5748C31.2571 17.5229 31.255 17.4657 31.2323 17.4154C31.2095 17.3651 31.168 17.3257 31.1166 17.3056H31.1111L31.0229 17.2714C31.0523 17.173 31.0523 17.0681 31.0229 16.9697L31.0745 16.8402L30.9498 16.791L30.3351 18.357L30.4598 18.4054L30.5122 18.2728ZM31.0745 17.4326C31.0918 17.4399 31.1056 17.4535 31.113 17.4707C31.1204 17.4879 31.1208 17.5073 31.1142 17.5248L30.9554 17.9218C30.9486 17.9397 30.9351 17.9544 30.9178 17.9626C30.9005 17.9709 30.8807 17.9722 30.8625 17.9663L30.7894 17.9377C30.8153 17.8882 30.8384 17.8373 30.8585 17.7852C30.8648 17.7693 30.8704 17.7543 30.876 17.7384C30.9046 17.6653 30.9832 17.4652 30.9967 17.4033L31.0721 17.4326H31.0745Z" fill="#ACA199"/>
<path d="M30.8084 16.7329L30.6837 16.6836L30.6353 16.8083L29.4503 16.3438C29.2955 16.4812 29.1758 16.6535 29.1008 16.8464L29.0214 17.0457C28.9443 17.2409 28.9152 17.4516 28.9364 17.6604L30.1206 18.117L30.069 18.2488L30.1937 18.2972L30.8084 16.7329ZM29.4312 16.7876C29.4529 16.7477 29.4767 16.709 29.5027 16.6717L30.3883 17.0195L30.339 17.1442L29.4312 16.7876ZM29.2724 17.1974L29.3764 16.9306L30.3001 17.2935L30.1961 17.5603L29.2724 17.1974ZM29.2001 17.4563C29.2056 17.4111 29.2138 17.3663 29.2247 17.3221L30.1325 17.6707L30.0809 17.8017L29.2001 17.4563Z" fill="#ACA199"/>
<path d="M28.1399 23.0156C28.1144 23.0957 28.1144 23.1817 28.1399 23.2618C28.1619 23.3429 28.2109 23.414 28.2789 23.4635C28.6394 23.7433 29.0821 23.8965 29.5385 23.8995C29.746 23.9103 29.9535 23.8779 30.1477 23.8042C29.9619 23.5092 29.7221 23.2519 29.4408 23.0458C29.1716 22.8412 28.84 22.7357 28.502 22.7472C28.4228 22.752 28.3467 22.7796 28.2828 22.8266C28.2188 22.874 28.1702 22.9392 28.1431 23.014L28.1399 23.0156ZM32.5019 26.8082L30.9046 21.298L31.3129 21.1797L32.9101 26.6899L32.5019 26.8082ZM30.7188 26.524L30.1096 26.1888L30.3097 25.8259L30.9213 26.1603L31.2581 25.5488L31.621 25.7481L31.2851 26.3628L31.8744 26.6852L31.6743 27.0457L31.0849 26.728L30.7593 27.3157L30.3963 27.1163L30.7188 26.524ZM30.2923 21.4751L30.467 21.4243L30.5869 21.8285C30.4281 21.8602 30.3487 21.8904 30.3391 21.9214C30.3031 22.0389 30.3913 22.244 30.6036 22.5368L30.6942 22.6631C30.8181 22.8496 30.8881 23.0666 30.8967 23.2904C30.9148 23.5144 30.8454 23.7367 30.7029 23.9106C30.8801 24.3004 31.0181 24.7069 31.1151 25.124L30.6886 25.2478C30.6 24.8823 30.4826 24.5244 30.3375 24.1774C30.081 24.2916 29.8018 24.3459 29.5211 24.3362C29.2166 24.3331 28.9153 24.2739 28.6323 24.1615C28.3654 24.0643 28.1241 23.9079 27.9262 23.7041C27.7007 23.4691 27.6519 23.1779 27.7801 22.8306C27.8377 22.6739 27.9427 22.5389 28.0804 22.4444C28.2182 22.35 28.3819 22.3007 28.5489 22.3033C28.7259 22.3013 28.902 22.33 29.0691 22.3883C29.2588 22.4465 29.4389 22.5321 29.6037 22.6424C29.9326 22.8639 30.2146 23.1481 30.4337 23.4786C30.4866 23.2552 30.4305 23.0376 30.2653 22.8258C30.1833 22.7203 30.111 22.6076 30.0492 22.4892C29.9396 22.2605 29.8867 22.0778 29.8904 21.9412C29.8872 21.8685 29.9027 21.7962 29.9356 21.7313C29.9684 21.6663 30.0174 21.6109 30.0778 21.5704C30.1441 21.53 30.2154 21.4985 30.2899 21.4767L30.2923 21.4751Z" fill="#ACA199"/>
<path d="M31.7338 11.4344C31.7704 11.5406 31.8276 11.6385 31.9021 11.7226L32.2373 11.0127H31.7004C31.6739 11.1537 31.6855 11.2992 31.7338 11.4344Z" fill="#ACA199"/>
<path d="M32.3652 11.0127L32.8092 11.2223L32.4502 11.9823C32.5622 11.9867 32.674 11.9689 32.779 11.9299C32.9607 11.8627 33.1134 11.7345 33.2109 11.5672C33.3085 11.3999 33.3447 11.2038 33.3136 11.0127H32.3652Z" fill="#ACA199"/>
<path d="M34.674 11.0127H33.9592L34.5033 11.27C34.5033 11.27 34.7312 11.3145 34.8806 11.0127H34.674Z" fill="#ACA199"/>
<path d="M32.4016 20.5848L33.7947 19.3873L33.1061 19.2586L33.1959 18.7822C33.5549 16.9002 31.7241 16.5508 31.7241 16.5508C31.7241 16.5508 32.5978 16.9605 32.2896 18.5606L32.1904 19.0784L31.5264 18.9513L32.4016 20.5848Z" fill="#ACA199"/>
<path d="M27.8992 26.3636L28.1065 26.5224L28.2653 26.316L28.5409 26.528L29.301 25.5409C29.3503 25.477 29.3722 25.3961 29.3618 25.3161C29.3515 25.236 29.3097 25.1634 29.2458 25.1141C29.1819 25.0648 29.101 25.0429 29.0209 25.0533C28.9409 25.0636 28.8682 25.1054 28.8189 25.1693L27.8992 26.3636ZM29.1787 25.3916C29.1819 25.4336 29.1688 25.4752 29.1422 25.5078C29.1157 25.5404 29.0776 25.5616 29.0358 25.567C28.9941 25.5724 28.9519 25.5616 28.9179 25.5368C28.8839 25.512 28.8607 25.4751 28.8531 25.4337C28.8499 25.3918 28.8629 25.3502 28.8895 25.3176C28.9161 25.2849 28.9542 25.2637 28.9959 25.2583C29.0377 25.253 29.0799 25.2638 29.1139 25.2886C29.1479 25.3134 29.1711 25.3503 29.1787 25.3916Z" fill="#ACA199"/>
<path d="M28.0357 27.7308L27.8895 27.5633L27.5043 27.3036L27.6632 27.0972L27.4567 26.9383L27.4408 26.9614C27.3321 26.9335 27.219 26.9273 27.108 26.9431C26.8927 26.9716 26.6974 27.0841 26.5648 27.2561C26.4322 27.4281 26.373 27.6456 26.4003 27.8611C26.4134 27.9727 26.4485 28.0807 26.5036 28.1787L27.0166 27.5125L27.4987 27.8841L26.9841 28.5496C27.1087 28.5824 27.2393 28.5861 27.3656 28.5603C27.4919 28.5345 27.6105 28.4799 27.7123 28.4007C27.814 28.3216 27.8961 28.22 27.9522 28.104C28.0083 27.9879 28.0369 27.8605 28.0357 27.7316V27.7308Z" fill="#ACA199"/>
<path d="M28.4884 26.763L28.3018 26.6042L28.1429 26.8106L26.834 25.8029L26.7212 25.5695L26.2447 25.4043L26.1216 25.5631L26.3853 26.0046L26.6426 26.0745L27.9483 27.0616L27.7895 27.2688L27.9936 27.407C27.9936 27.407 28.0945 27.2291 28.301 27.3879C28.4154 27.4761 28.3145 27.6548 28.6592 27.92L29.1413 28.2916C29.1413 28.2916 29.3605 28.3869 29.5726 28.1114C29.7846 27.8358 29.6369 27.6484 29.6369 27.6484L29.154 27.2792C28.8363 27.0314 28.6632 27.1569 28.571 27.0862C28.3645 26.9234 28.4884 26.763 28.4884 26.763ZM28.4884 27.403L28.6123 27.2442L29.486 27.916L29.3621 28.0748L28.4884 27.403Z" fill="#ACA199"/>
<path d="M23.406 24.0376L25.5505 23.4023L25.645 23.724L24.7292 24.5792L23.5013 24.36L23.406 24.0376Z" fill="#ACA199"/>
<path d="M23.8381 25.5015L24.3846 24.643L24.7745 24.7312L25.0533 24.4453L25.9786 24.8702L23.8381 25.5015Z" fill="#ACA199"/>
<path d="M24.2504 24.6321L23.5443 24.5059L23.8009 25.3794L24.2504 24.6321Z" fill="#ACA199"/>
<path d="M25.1598 24.3632L25.6848 23.874L25.9413 24.7428L25.1598 24.3632Z" fill="#ACA199"/>
<path d="M22.3283 25.7512L22.4744 25.5924C22.5038 25.5606 23.0741 24.9388 22.8175 24.3218C22.6134 23.8414 22.9764 23.4428 22.9938 23.4269L23.4331 22.9504L23.1154 22.6582L22.6769 23.1347C22.6618 23.1505 22.2965 23.5484 21.7993 23.3864C21.1639 23.1839 20.5928 23.8049 20.5634 23.8374L20.4173 23.9963L20.0996 23.704L20.1393 24.6204L21.0559 24.5815L20.7382 24.2893L20.8843 24.1305C20.8843 24.1305 21.2942 23.6842 21.6786 23.8057C21.8928 23.8704 22.1204 23.8764 22.3378 23.8231C22.2952 24.0439 22.321 24.2725 22.4117 24.4783C22.5657 24.8539 22.1559 25.3002 22.1559 25.3002L22.0098 25.459L21.6921 25.1668L21.731 26.0831L22.6483 26.0442L22.3283 25.7512Z" fill="#ACA199"/>
<path d="M15.4604 23.3746L17.7304 25.3908L19.8876 22.9617L17.6176 20.9463L15.4604 23.3746ZM18.257 24.4776L17.7129 25.0907L17.4175 24.8286L17.9615 24.2156L18.257 24.4776ZM17.8027 24.0742L17.2586 24.6873L16.9632 24.4252L17.508 23.8122L17.8027 24.0742ZM17.3492 23.6716L16.8043 24.2839L16.5096 24.0234L17.0537 23.4112L17.3492 23.6716ZM16.8949 23.2682L16.3508 23.8813L16.0553 23.6192L16.6002 23.0062L16.8949 23.2682ZM18.9226 23.7288L18.3777 24.341L18.083 24.079L18.6247 23.4675L18.9226 23.7288ZM18.4659 23.3254L17.9218 23.9384L17.6264 23.6764L18.1712 23.0633L18.4659 23.3254ZM18.0124 22.9228L17.4675 23.535L17.1728 23.273L17.7169 22.6599L18.0124 22.9228ZM17.558 22.5194L17.0132 23.1316L16.7185 22.8696L17.2626 22.2573L17.558 22.5194ZM19.5858 22.98L19.0409 23.5922L18.7462 23.3302L19.2903 22.7179L19.5858 22.98ZM19.1314 22.5766L18.5866 23.1896L18.2919 22.9276L18.836 22.3145L19.1314 22.5766ZM18.6771 22.1732L18.1331 22.7862L17.8376 22.5242L18.3864 21.9111L18.6771 22.1732ZM18.2276 21.7706L17.6827 22.3828L17.3865 22.1176L17.9305 21.5053L18.2276 21.7706Z" fill="#ACA199"/>
<path d="M20.6398 27.2458V27.1378C20.6436 27.0291 20.626 26.9206 20.5878 26.8187C20.5497 26.7168 20.4918 26.6234 20.4175 26.5439C20.3432 26.4644 20.254 26.4003 20.1549 26.3553C20.0558 26.3104 19.9488 26.2853 19.84 26.2818C19.7806 26.2767 19.7208 26.2813 19.6629 26.2953L19.6748 25.8895L20.0799 25.9014L19.5239 25.1152L18.9234 25.8672L19.3087 25.8784L19.2999 26.1666C19.2227 26.1272 19.1379 26.105 19.0513 26.1015C18.9792 26.0972 18.907 26.1074 18.8389 26.1314C18.7708 26.1554 18.7081 26.1927 18.6546 26.2412C18.6012 26.2898 18.5579 26.3485 18.5274 26.4139C18.4969 26.4794 18.4798 26.5503 18.4771 26.6224C18.479 26.682 18.4903 26.741 18.5104 26.7971C18.3505 26.8206 18.2037 26.8986 18.0948 27.018C17.9859 27.1375 17.9217 27.2909 17.9132 27.4523C17.902 27.8175 18.1808 28.1527 18.5271 28.163L20.5127 28.2225C20.782 28.2305 20.9821 27.9676 20.9893 27.7365C20.993 27.6277 20.9609 27.5207 20.8977 27.432C20.8345 27.3433 20.7439 27.2778 20.6398 27.2458Z" fill="#ACA199"/>
<path d="M33.6804 20.9258L33.9282 21.6818L34.6375 21.4499L33.6804 20.9258Z" fill="#ACA199"/>
<path d="M34.7201 21.7023L33.7742 22.012L33.4438 21.0059L32.262 21.3934L33.2532 24.4173L35.3833 23.7185L34.7201 21.7023Z" fill="#ACA199"/>
<path d="M35.6653 21.3926L35.9131 22.1486L36.6223 21.9159L35.6653 21.3926Z" fill="#ACA199"/>
<path d="M35.4294 21.4688L34.9529 21.6276L35.7011 23.8923L34.9918 24.1242L35.2396 24.8802L37.369 24.1814L36.7082 22.1652L35.763 22.4757L35.4294 21.4688Z" fill="#ACA199"/>
<path d="M15.4859 24.1674C15.3241 24.0947 15.1409 24.0857 14.9728 24.142C14.6598 24.2293 14.5582 24.4096 14.5582 24.4096L14.6535 24.7542L14.2333 24.516L12.876 26.9221L16.0752 28.7287L17.4333 26.3266L15.8337 25.4205L15.4859 24.1674ZM15.8663 26.9467L15.6789 26.9991L15.493 26.8149L15.9616 26.6847L15.8663 26.9467ZM15.5883 26.5497L15.4001 26.6013L14.9474 24.975C14.9998 24.9456 15.0562 24.9242 15.115 24.9115L15.5883 26.5497ZM14.9712 24.3866L15.0689 24.6796C15.0069 24.6963 14.964 24.7257 14.9013 24.7431L14.8219 24.4612C14.8731 24.4393 14.9229 24.4144 14.9712 24.3866ZM17.1061 26.4147L15.968 28.4246L13.1651 26.8427L14.2993 24.8337L14.7202 25.0719L15.2317 26.9237L15.9283 27.6074L16.1729 26.6593L15.9013 25.7381L17.1061 26.4147Z" fill="#ACA199"/>
<path d="M11.5782 11.0127H11V11.4892C11.1642 11.2986 11.3597 11.1374 11.5782 11.0127Z" fill="#ACA199"/>
<path d="M11 17.0216L12.0595 17.2932L12.6091 16.4792C12.9612 16.4629 13.3116 16.421 13.6575 16.3538L14.3962 16.9946L15.3286 16.4411L15.1229 15.4882C15.3839 15.2474 15.5933 14.9562 15.7385 14.6322L16.7186 14.5448L16.991 13.4879L16.1745 12.9392C16.1581 12.5877 16.1162 12.2379 16.049 11.8926L16.6908 11.1588L16.6058 11.0127H13.6671C14.1351 11.267 14.494 11.6837 14.676 12.1842C14.8581 12.6848 14.8508 13.2346 14.6555 13.7301C14.4602 14.2256 14.0903 14.6326 13.6157 14.8744C13.141 15.1162 12.5943 15.176 12.0786 15.0427C11.6509 14.9394 11.2708 14.6945 11 14.3479" fill="#ACA199"/>
<path d="M12.9205 11.5407C13.1812 11.609 13.4158 11.753 13.5948 11.9545C13.7738 12.156 13.889 12.406 13.926 12.6729C13.9631 12.9399 13.9202 13.2118 13.8028 13.4544C13.6855 13.697 13.4989 13.8994 13.2666 14.0361C13.0343 14.1728 12.7667 14.2376 12.4976 14.2224C12.2285 14.2073 11.9699 14.1127 11.7545 13.9508C11.5391 13.7889 11.3764 13.5668 11.2871 13.3125C11.1978 13.0583 11.1857 12.7833 11.2525 12.5222C11.2971 12.348 11.3757 12.1843 11.4838 12.0405C11.5919 11.8968 11.7273 11.7758 11.8823 11.6846C12.0374 11.5934 12.2089 11.5337 12.387 11.509C12.5652 11.4843 12.7465 11.4951 12.9205 11.5407Z" fill="#ACA199"/>
<path d="M14.3653 18.2762L13.7219 17.6934L11.0024 20.6966L11.0064 22.3618L13.4956 21.3923L14.3653 18.2762Z" fill="#ACA199"/>
<path d="M12.8005 24.6421L12.849 22.0017L13.8315 21.6713L14.0634 20.6613L16.6844 20.3516L12.8005 24.6421Z" fill="#ACA199"/>
<path d="M12.5377 22.1582L11.0024 22.7649V23.0825L12.5465 24.4111L12.5377 22.1582Z" fill="#ACA199"/>
<path d="M14.189 20.3354L14.6893 18.5439L16.4319 20.1226L14.189 20.3354Z" fill="#ACA199"/>
<path d="M11.1073 26.0902L12.7554 25.3438L11.043 25.5597L11.0469 27.1575L12.2423 26.6548L11.1073 26.0902Z" fill="#ACA199"/>
<path d="M34.7288 19.8279L34.8495 20.0074C34.8734 20.0431 35.3436 20.7435 36.0028 20.6427C36.519 20.5577 36.8201 21.0063 36.832 21.0246L37.1941 21.5614L37.5531 21.3232L37.1918 20.784C37.1791 20.7665 36.878 20.3171 37.1528 19.8724C37.4991 19.3014 37.0289 18.6018 37.0051 18.5653L36.8844 18.385L37.2434 18.1468L36.3427 17.9697L36.1656 18.8615L36.5254 18.6233L36.6453 18.8027C36.6453 18.8027 36.9829 19.3062 36.774 19.6548C36.6605 19.8472 36.601 20.0667 36.6016 20.2901C36.397 20.1974 36.1689 20.1697 35.948 20.2107C35.5461 20.2718 35.2085 19.7684 35.2085 19.7684L35.0878 19.5889L35.4476 19.3507L34.5469 19.1736L34.369 20.0733L34.7288 19.8279Z" fill="#ACA199"/>
<path d="M34.8273 29.7327L38.2426 28.6607L37.0957 25.0078L33.6804 26.079L34.8273 29.7327ZM37.6373 27.5751L37.9249 28.4971L37.4809 28.636L37.1918 27.7149L37.6373 27.5751ZM36.9551 27.7895L37.2402 28.7083L36.7962 28.8473L36.5071 27.9261L36.9551 27.7895ZM36.272 28.0039L36.5611 28.9259L36.1172 29.0648L35.8281 28.1437L36.272 28.0039ZM35.589 28.2183L35.8789 29.1403L35.4349 29.2793L35.145 28.3573L35.589 28.2183ZM37.2839 26.4491L37.573 27.371L37.1298 27.51L36.8399 26.5881L37.2839 26.4491ZM36.6009 26.6635L36.8908 27.5847L36.4468 27.7244L36.1537 26.8025L36.6009 26.6635ZM35.9186 26.8779L36.2077 27.7991L35.7637 27.9388L35.4706 27.0169L35.9186 26.8779ZM35.2356 27.0923L35.5247 28.0135L35.0767 28.1524L34.7876 27.2313L35.2356 27.0923ZM36.9305 25.3223L37.2156 26.2466L36.7716 26.3856L36.4825 25.4644L36.9305 25.3223ZM36.2474 25.5367L36.5365 26.4586L36.0933 26.5976L35.8034 25.6764L36.2474 25.5367ZM35.5644 25.7511L35.8543 26.673L35.4103 26.812L35.1212 25.8908L35.5644 25.7511ZM34.8821 25.9655L35.1712 26.8874L34.7272 27.0264L34.4381 26.1045L34.8821 25.9655Z" fill="#ACA199"/>
<path d="M33.3921 13.6428L33.4397 13.846C33.6635 13.7152 33.9249 13.6637 34.1816 13.6999C34.2546 13.8969 34.3952 14.4392 33.987 15.0967C33.9267 15.1905 33.8578 15.2785 33.7813 15.3596L33.8289 15.5621C33.9558 15.4594 34.0634 15.3349 34.1466 15.1944C34.7026 14.3019 34.3055 13.5371 34.3055 13.5371C33.9984 13.4587 33.6731 13.4963 33.3921 13.6428Z" fill="#ACA199"/>
<path d="M33.6025 13.9682C33.5624 13.9382 33.5164 13.9171 33.4675 13.9062L33.7376 15.1141C33.7662 15.0672 33.8114 15.0299 33.84 14.9822C33.9423 14.8161 33.9747 14.6163 33.9302 14.4263C33.8857 14.2364 33.7679 14.0717 33.6025 13.9682Z" fill="#ACA199"/>
<path d="M32.7932 12.6952L33.0592 13.8299C32.9261 13.9561 32.8087 14.0979 32.7098 14.2524C32.0482 15.3196 32.732 16.0296 32.732 16.0296C33.0156 16.0262 33.2932 15.9469 33.5358 15.8001L33.7201 16.6418L33.8312 16.7109L33.9003 16.5997L32.9735 12.6531L32.8623 12.584L32.7932 12.6952ZM33.4834 15.6285C33.2922 15.7579 33.0715 15.8371 32.8416 15.8588C32.682 15.6266 32.611 15.3449 32.6415 15.0647C32.6954 15.1258 32.7574 15.1792 32.8257 15.2236C32.9116 15.2767 33.0076 15.3112 33.1076 15.3249C33.2076 15.3386 33.3094 15.3311 33.4063 15.303L33.4834 15.6285ZM33.1657 14.9536L33.099 15.1291C33.0218 15.1241 32.947 15.1001 32.8813 15.0592C32.8001 15.0063 32.7321 14.9354 32.6828 14.8519C32.6915 14.7694 32.7187 14.6899 32.7622 14.6193C32.8165 14.7151 32.8907 14.7983 32.9798 14.863C33.0313 14.9102 33.0953 14.9416 33.1641 14.9536H33.1657Z" fill="#ACA199"/>
<path d="M37.3506 11.0127C37.1306 11.2382 36.7867 11.4606 36.257 11.6353L35.755 11.7941L35.5421 11.1493L34.5287 12.6978L36.2466 13.3457L36.033 12.6803L36.4952 12.5342C37.4801 12.2165 37.766 11.5559 37.8232 11.0127H37.3506Z" fill="#ACA199"/>
<path d="M40.1536 11.0127C40.1536 11.023 40.1464 11.0318 40.1433 11.0421C40.0178 11.4288 39.4165 11.5042 39.4165 11.5042L39.2021 11.5312L39.1481 11.1016L38.585 11.8258L39.3093 12.3897L39.2553 11.9601L39.4705 11.9331C39.5134 11.9275 40.3506 11.8235 40.5539 11.1874C40.573 11.1261 40.5996 11.0674 40.6333 11.0127H40.1536Z" fill="#ACA199"/>
<path d="M38.6071 21.9759L38.5276 22.1014C38.4434 22.2287 38.3851 22.3714 38.3561 22.5213C38.3271 22.6711 38.328 22.8252 38.3587 22.9748C38.3894 23.1243 38.4493 23.2663 38.535 23.3927C38.6207 23.519 38.7305 23.6272 38.858 23.711C38.9255 23.7606 39.0006 23.7987 39.0804 23.8238L38.7683 24.3003L38.2917 23.989L38.3799 25.3342L39.6507 24.8744L39.1956 24.579L39.4164 24.2407C39.4792 24.344 39.5638 24.4323 39.6642 24.4996C39.7474 24.5574 39.8413 24.598 39.9404 24.619C40.0395 24.6401 40.1418 24.6411 40.2413 24.6221C40.3408 24.6031 40.4355 24.5644 40.5198 24.5083C40.6042 24.4522 40.6765 24.3799 40.7325 24.2955C40.7733 24.2228 40.8028 24.1444 40.8198 24.0628C41.2106 24.2542 41.7626 24.0993 42.0112 23.7158C42.2908 23.287 42.2026 22.6835 41.7967 22.4167L39.4696 20.8968C39.1519 20.6903 38.7214 20.8586 38.5443 21.1294C38.4601 21.2578 38.4207 21.4103 38.432 21.5633C38.4433 21.7164 38.5049 21.8614 38.6071 21.9759Z" fill="#ACA199"/>
<path d="M41.5244 16.6678L41.086 16.3454L40.6801 16.6217C40.5146 16.5635 40.3449 16.5176 40.1726 16.4844L39.951 16.0508L39.4181 16.1302L39.3387 16.6066C39.1733 16.6696 39.0223 16.7652 38.8947 16.8878L38.4253 16.7448L38.1028 17.1832L38.3784 17.5889C38.3213 17.7463 38.2809 17.9092 38.2577 18.0749L37.8217 18.3052L37.9082 18.8754L38.3848 18.9548C38.4557 19.1064 38.5428 19.2499 38.6445 19.3828L38.5015 19.8521L38.9399 20.1745L39.3458 19.899C39.5115 19.9564 39.6811 20.0021 39.8533 20.0356L40.0749 20.4691L40.6079 20.3897L40.6873 19.9133C40.8527 19.85 41.0037 19.7541 41.1313 19.6314L41.6007 19.7743L41.9231 19.336L41.6579 18.9254C41.7154 18.7597 41.7611 18.5902 41.7945 18.418L42.2281 18.1964L42.1487 17.6636L41.6721 17.5842C41.6089 17.4188 41.513 17.2679 41.3902 17.1403L41.5244 16.6678ZM40.889 18.9048C40.7615 19.078 40.5854 19.2096 40.3831 19.2828C40.1808 19.3561 39.9612 19.3677 39.7523 19.3162C39.5434 19.2647 39.3544 19.1524 39.2093 18.9936C39.0642 18.8348 38.9694 18.6365 38.937 18.4238C38.9046 18.2111 38.936 17.9936 39.0272 17.7987C39.1184 17.6039 39.2653 17.4404 39.4494 17.3291C39.6335 17.2177 39.8465 17.1634 40.0615 17.1731C40.2764 17.1827 40.4837 17.2559 40.6571 17.3833C40.8896 17.5543 41.0448 17.8104 41.0887 18.0956C41.1326 18.3808 41.0617 18.6718 40.8914 18.9048H40.889Z" fill="#ACA199"/>
<path d="M40.4117 17.6739C40.5199 17.7538 40.6021 17.8639 40.6478 17.9904C40.6935 18.1169 40.7006 18.2542 40.6684 18.3847C40.6361 18.5153 40.5659 18.6334 40.4665 18.7241C40.3672 18.8148 40.2432 18.874 40.1102 18.8943C39.9772 18.9146 39.8412 18.895 39.7193 18.838C39.5974 18.7811 39.4952 18.6893 39.4255 18.5743C39.3557 18.4592 39.3217 18.3261 39.3276 18.1917C39.3335 18.0573 39.379 17.9277 39.4586 17.8192C39.5115 17.747 39.5782 17.686 39.6548 17.6395C39.7314 17.5931 39.8164 17.5623 39.905 17.5488C39.9935 17.5353 40.0838 17.5394 40.1708 17.5609C40.2577 17.5823 40.3396 17.6208 40.4117 17.6739Z" fill="#ACA199"/>
<path d="M44.1104 23.2223L43.6894 23.5884L43.3225 23.1699L43.0731 23.3875L43.4377 23.806L43.0342 24.1594L43.251 24.4087L43.6577 24.0577L44.0111 24.4587L44.2605 24.2443L43.9063 23.8401L44.3272 23.4717L44.1104 23.2223Z" fill="#ACA199"/>
<path d="M44.5045 19.902C44.4425 19.8981 44.3803 19.9023 44.3194 19.9147C44.263 19.9284 44.211 19.9564 44.1686 19.9961C44.1262 20.0357 44.0947 20.0856 44.0772 20.141C44.031 20.2878 44.0193 20.4432 44.043 20.5952C44.0572 20.701 44.0803 20.8054 44.1121 20.9073C44.1471 20.9942 44.1606 21.0882 44.1514 21.1813C44.1423 21.2745 44.1108 21.3641 44.0597 21.4425C43.9858 21.1345 43.8522 20.8439 43.6665 20.5873C43.5735 20.4595 43.4621 20.3461 43.3361 20.2506C43.2264 20.1611 43.102 20.0913 42.9684 20.0441C42.8724 20.008 42.7694 19.9947 42.6674 20.0052C42.5045 20.0242 42.3548 20.1039 42.248 20.2284C42.0564 20.4523 42.0132 20.6831 42.1186 20.9208C42.2105 21.1281 42.3485 21.3117 42.522 21.4576C42.7034 21.6198 42.9132 21.7471 43.1408 21.8332C43.3485 21.9171 43.5725 21.9529 43.796 21.938C43.8099 22.238 43.7998 22.5386 43.7658 22.837L44.1193 22.8616C44.1612 22.522 44.1695 22.1792 44.1439 21.838C44.2991 21.7468 44.4129 21.5991 44.4616 21.4258C44.5166 21.2558 44.5235 21.0739 44.4814 20.9002L44.4481 20.7802C44.3692 20.5028 44.3594 20.325 44.4187 20.2466C44.4338 20.226 44.5045 20.2252 44.63 20.2466L44.6506 19.9107L44.5061 19.9004L44.5045 19.902ZM43.2718 21.5124C42.9302 21.3846 42.6403 21.148 42.4466 20.839C42.4092 20.7834 42.3919 20.7168 42.3973 20.65C42.4011 20.5829 42.4255 20.5185 42.4672 20.4658C42.5085 20.4175 42.5629 20.3822 42.6237 20.3641C42.6846 20.3459 42.7494 20.3456 42.8104 20.3633C43.0668 20.4476 43.2864 20.6175 43.4322 20.8446C43.5864 21.0763 43.6958 21.3349 43.7547 21.6069C43.5889 21.6097 43.4243 21.5775 43.2718 21.5124Z" fill="#ACA199"/>
<path d="M44.7324 24.5077L44.9961 24.526V20.6738L44.7324 24.5077Z" fill="#ACA199"/>
<path d="M44.9499 15.4642C44.9385 15.4475 44.9306 15.4286 44.9267 15.4088C44.9228 15.3889 44.923 15.3684 44.9274 15.3487C44.9317 15.3289 44.94 15.3102 44.9518 15.2937C44.9636 15.2773 44.9786 15.2634 44.996 15.253V15.0322C44.9537 15.0498 44.9159 15.0769 44.8857 15.1113C44.8554 15.1457 44.8334 15.1865 44.8213 15.2308L44.4059 16.68L44.6569 16.7514L44.7283 16.5005L44.996 16.5799V15.5174C44.9773 15.5029 44.9616 15.4848 44.9499 15.4642Z" fill="#ACA199"/>
<path d="M44.8388 17.7986L44.3853 17.6994L44.4568 17.4484L44.2058 17.377L44.1979 17.4047C44.0864 17.4191 43.9789 17.4555 43.8817 17.5119C43.6929 17.6179 43.5535 17.7942 43.494 18.0024C43.4345 18.2106 43.4597 18.4339 43.5641 18.6237C43.6171 18.7228 43.6895 18.8102 43.7769 18.881L44.008 18.0734L44.5934 18.2409L44.3583 19.0485C44.4702 19.0351 44.5783 18.9992 44.676 18.9429C44.8105 18.8694 44.9208 18.7585 44.9937 18.6237V17.8804L44.8388 17.7986Z" fill="#ACA199"/>
<path d="M44.8673 16.7516L44.7958 17.0026L43.2073 16.5476L43.0167 16.3721L42.5132 16.3935L42.4568 16.5889L42.865 16.9017L43.1295 16.8716L44.7077 17.3091L44.6362 17.56L44.8745 17.6132C44.88 17.5817 44.894 17.5522 44.915 17.528C44.9359 17.5038 44.9631 17.4858 44.9936 17.4759V16.7969L44.8673 16.7516Z" fill="#ACA199"/>
<path d="M34.686 16.5164L35.2547 16.3996L35.1372 15.8311L34.686 16.5164Z" fill="#ACA199"/>
<path d="M35.3269 15.7916L35.4857 16.5491L34.728 16.708L34.9234 17.6553L37.1981 17.1852L36.8455 15.4795L35.3269 15.7916Z" fill="#ACA199"/>
<path d="M35.1704 15.0338L35.7391 14.9162L35.6215 14.3477L35.1704 15.0338Z" fill="#ACA199"/>
<path d="M35.2094 15.2228L35.2888 15.6016L36.9948 15.2498L37.1124 15.8176L37.681 15.7008L37.3284 13.9951L35.8122 14.308L35.971 15.0664L35.2094 15.2228Z" fill="#ACA199"/>
<path d="M38.4808 13.7511C38.4808 13.7511 38.4014 13.8051 38.5825 14.1482L38.4681 14.2276C38.4055 14.2731 38.3633 14.3414 38.3506 14.4178C38.338 14.4942 38.3559 14.5725 38.4006 14.6357L38.7334 15.1082C38.7785 15.1681 38.845 15.2082 38.919 15.2202C38.993 15.2322 39.0688 15.2151 39.1305 15.1726L39.1376 15.167L39.2441 15.0924C39.3339 15.2009 39.4534 15.2809 39.588 15.3226L39.6976 15.4815L39.8485 15.3743L38.5197 13.4883L38.3688 13.5939L38.4808 13.7511ZM39.0201 15.0312C38.9988 15.0458 38.9727 15.0515 38.9473 15.047C38.9219 15.0426 38.8993 15.0283 38.8843 15.0074L38.5467 14.5309C38.5315 14.5095 38.525 14.4831 38.5287 14.4571C38.5324 14.4311 38.546 14.4075 38.5666 14.3912L38.6555 14.3284C38.6924 14.3959 38.7332 14.4612 38.7779 14.5238C38.7914 14.5428 38.8041 14.5611 38.8184 14.5786C38.8803 14.6675 39.0503 14.9089 39.1114 14.9709L39.0209 15.0344L39.0201 15.0312Z" fill="#ACA199"/>
<path d="M40.0233 15.2562L40.1734 15.1506L40.0694 14.9997L41.499 13.992C41.4563 13.7103 41.3474 13.4428 41.1813 13.2114L41.0121 12.9732C40.8466 12.7373 40.6271 12.5442 40.372 12.4102L38.9574 13.4202L38.8454 13.2614L38.6953 13.367L40.0233 15.2562ZM41.0018 13.6347C41.0315 13.6895 41.058 13.7459 41.0812 13.8038L40.0122 14.5566L39.9105 14.4065L41.0018 13.6347ZM40.6531 13.1439L40.8803 13.4615L39.7636 14.2485L39.5364 13.9308L40.6531 13.1439ZM40.4101 12.8652C40.4579 12.9053 40.503 12.9486 40.5451 12.9946L39.4578 13.7728L39.3466 13.614L40.4101 12.8652Z" fill="#ACA199"/>
<path d="M42.0383 14.9979L42.4601 14.8486L42.3116 14.4277L42.0383 14.9979Z" fill="#ACA199"/>
<path d="M42.4521 14.3767L42.6506 14.9389L42.0891 15.1366L42.3361 15.8434L44.0223 15.2486L43.5759 13.9844L42.4521 14.3767Z" fill="#ACA199"/>
<path d="M42.2534 13.8163L42.6744 13.667L42.5258 13.2461L42.2534 13.8163Z" fill="#ACA199"/>
<path d="M42.3027 13.955L42.402 14.2361L43.6665 13.7899L43.815 14.2115L44.2367 14.063L43.7904 12.7988L42.6665 13.1959L42.8651 13.7581L42.3027 13.955Z" fill="#ACA199"/>
<path d="M44.9937 11.0127C44.7395 11.0127 44.4854 11.0175 44.2312 11.0198H44.9937V11.0127Z" fill="#ACA199"/>
<path d="M44.2415 11.0133C44.0755 11.0133 43.8904 11.0133 43.7252 11.0133C43.69 11.1202 43.676 11.233 43.6839 11.3452C43.6846 11.5624 43.7711 11.7705 43.9247 11.924C44.0783 12.0776 44.2864 12.1641 44.5036 12.1647C44.6159 12.166 44.7273 12.1452 44.8316 12.1036L44.2375 11.5088L44.668 11.08L44.969 11.3818L44.996 11.4088V11.0117L44.2415 11.0133Z" fill="#ACA199"/>
<path d="M42.9826 11.0127L42.5084 11.4868L42.2622 11.5694L42.0366 12.0196L42.1804 12.1633L42.6514 11.9585L42.7538 11.7123L43.4416 11.0127H42.9826Z" fill="#ACA199"/>
</mask>
<g mask="url(#mask0_1097_369)">
<rect x="11" y="11" width="34" height="18.735" fill="url(#paint0_linear_1097_369)"/>
</g>
<mask id="mask1_1097_369" style="mask-type:alpha" maskUnits="userSpaceOnUse" x="11" y="26" width="34" height="19">
<path d="M13.4788 29.3125H13.5201L13.5122 29.889H13.6353V29.9287H13.3462V29.889H13.4693L13.4788 29.3125Z" fill="#ACA199"/>
<path d="M13.0753 29.3063L13.2342 29.8694C13.2342 29.8106 13.2342 29.7733 13.2342 29.7574L13.2405 29.3087H13.2802L13.2715 29.9249H13.2103L13.0777 29.4485C13.0671 29.4137 13.0594 29.3781 13.0547 29.3421C13.0475 29.3775 13.0383 29.4125 13.0269 29.4469L12.8815 29.917H12.818L12.8267 29.3008H12.8688L12.8625 29.7463C12.8625 29.7637 12.8625 29.8019 12.8561 29.8606L13.0293 29.3048L13.0753 29.3063Z" fill="#ACA199"/>
<path d="M33.9052 39.6428H34.6947L34.9329 38.9726C35.1775 38.8987 35.4164 38.8072 35.6478 38.6987L36.2776 39.0163L36.8336 38.466L36.5159 37.8307C36.6557 37.617 36.7513 37.3775 36.797 37.1263L37.469 36.8921V36.098L36.7986 35.8598C36.7319 35.6263 36.64 35.4008 36.5246 35.1872L36.8423 34.5519L36.257 33.9627L35.6216 34.2763C35.4088 34.1599 35.1844 34.0662 34.952 33.9968L34.7137 33.3242H33.9243L33.686 33.9944C33.4414 34.0683 33.2025 34.1599 32.9712 34.2684L32.3413 33.9508L31.7854 34.5011L32.0991 35.1363C31.9592 35.3518 31.8641 35.5933 31.8195 35.8463L31.1476 36.0805V36.8746L31.8179 37.1128C31.8918 37.3573 31.9831 37.5961 32.0911 37.8275L31.7734 38.458L32.3239 39.0139L32.9593 38.7002C33.1749 38.8398 33.4164 38.9348 33.6693 38.9798L33.9052 39.6428ZM32.7337 36.4776C32.7356 36.1655 32.8299 35.861 33.0049 35.6025C33.1798 35.344 33.4274 35.1431 33.7165 35.0253C34.0055 34.9075 34.323 34.8779 34.6288 34.9404C34.9347 35.0029 35.2151 35.1547 35.4347 35.3765C35.6543 35.5982 35.8032 35.8801 35.8627 36.1865C35.9221 36.4929 35.8894 36.81 35.7686 37.0978C35.6479 37.3856 35.4445 37.6312 35.1842 37.8034C34.924 37.9757 34.6184 38.067 34.3063 38.0658C33.8878 38.0616 33.4878 37.8924 33.1933 37.595C32.8988 37.2976 32.7337 36.896 32.7337 36.4776Z" fill="#ACA199"/>
<path d="M34.3508 37.5099C34.1553 37.5094 33.9643 37.451 33.8021 37.342C33.6398 37.233 33.5136 37.0783 33.4393 36.8975C33.365 36.7167 33.346 36.518 33.3847 36.3264C33.4234 36.1348 33.5181 35.959 33.6568 35.8213C33.7954 35.6835 33.9719 35.59 34.1637 35.5525C34.3556 35.515 34.5542 35.5353 34.7346 35.6107C34.9149 35.6862 35.0688 35.8134 35.1768 35.9763C35.2847 36.1393 35.342 36.3306 35.3412 36.526C35.3409 36.6557 35.315 36.784 35.265 36.9036C35.2151 37.0233 35.142 37.1319 35.05 37.2233C34.958 37.3146 34.8489 37.387 34.7289 37.4362C34.6089 37.4854 34.4804 37.5104 34.3508 37.5099Z" fill="#ACA199"/>
<path d="M32.7471 39.7599L32.5319 39.7869C32.489 39.7924 31.6519 39.8972 31.4486 40.5341C31.2897 41.0336 30.756 41.1003 30.7337 41.1035L30.0896 41.1829L30.1436 41.6133L30.7877 41.5339C30.8092 41.5339 31.3437 41.464 31.6193 41.9095C31.9735 42.4765 32.8107 42.3716 32.8536 42.3661L33.0688 42.3391L33.122 42.7687L33.6851 42.0437L32.9608 41.4799L33.0148 41.9095L32.8004 41.9365C32.8004 41.9365 32.1991 42.0119 31.9815 41.6681C31.8605 41.4797 31.6909 41.3275 31.4906 41.2274C31.6663 41.0866 31.7947 40.8954 31.8584 40.6794C31.9839 40.2927 32.5851 40.2173 32.5851 40.2173L32.7996 40.1903L32.8536 40.6207L33.4167 39.8949L32.6923 39.3311L32.7471 39.7599Z" fill="#ACA199"/>
<path d="M35.7526 41.7852L35.5016 41.7129L35.4294 41.9638L35.095 41.8677L34.7519 43.0676C34.7409 43.106 34.7375 43.1463 34.7421 43.186C34.7466 43.2257 34.7589 43.2641 34.7783 43.2991C34.7977 43.334 34.8238 43.3648 34.8551 43.3897C34.8864 43.4146 34.9223 43.433 34.9608 43.444C34.9992 43.455 35.0394 43.4583 35.0791 43.4538C35.1189 43.4493 35.1573 43.4369 35.1923 43.4176C35.2272 43.3982 35.258 43.3721 35.2829 43.3408C35.3078 43.3095 35.3262 43.2736 35.3372 43.2352L35.7526 41.7852ZM34.921 43.1605C34.9039 43.1229 34.9016 43.0802 34.9146 43.0409C34.9276 43.0017 34.9549 42.9688 34.991 42.9487C35.0272 42.9287 35.0696 42.923 35.1098 42.9328C35.1499 42.9427 35.1849 42.9672 35.2078 43.0017C35.2249 43.0393 35.2272 43.082 35.2142 43.1213C35.2012 43.1606 35.1739 43.1935 35.1378 43.2135C35.1016 43.2336 35.0592 43.2392 35.019 43.2294C34.9789 43.2196 34.9439 43.195 34.921 43.1605Z" fill="#ACA199"/>
<path d="M35.1219 40.5631L35.3189 40.6648L35.7732 40.7648L35.7009 41.0165L35.9519 41.0888L35.9599 41.061C36.0716 41.0469 36.1796 41.011 36.2776 40.9554C36.4669 40.8488 36.6065 40.6718 36.666 40.4629C36.7254 40.254 36.7 40.03 36.5953 39.8397C36.542 39.7407 36.4696 39.6533 36.3824 39.5824L36.1505 40.3916L35.5667 40.2225L35.7978 39.4141C35.6699 39.4299 35.5474 39.4749 35.4396 39.5456C35.3319 39.6163 35.2419 39.7109 35.1765 39.822C35.1112 39.933 35.0723 40.0577 35.0628 40.1862C35.0534 40.3147 35.0736 40.4437 35.1219 40.5631Z" fill="#ACA199"/>
<path d="M35.0576 41.6315L35.2903 41.7109L35.3626 41.4599L36.9511 41.9157L37.1425 42.0912L37.646 42.069L37.7016 41.8745L37.2942 41.5608L37.0289 41.591L35.4508 41.1534L35.523 40.9017L35.2848 40.8477C35.2848 40.8477 35.2562 41.051 35.006 40.9795C34.8662 40.939 34.894 40.7365 34.4762 40.6166L33.8917 40.4483C33.8917 40.4483 33.6534 40.4403 33.5565 40.7746C33.4596 41.1089 33.6677 41.2296 33.6677 41.2296L34.253 41.3972C34.643 41.5092 34.7542 41.3297 34.8662 41.3615C35.1132 41.4361 35.0576 41.6315 35.0576 41.6315ZM34.8193 41.0351L34.7637 41.2304L33.705 40.9271L33.7606 40.7318L34.8193 41.0351Z" fill="#ACA199"/>
<path d="M31.4788 37.7658L28.5885 36.8359L27.5941 39.9329L30.4844 40.8628L31.4788 37.7658ZM28.4733 37.8849L28.7235 37.1035L29.1 37.2243L28.849 38.0056L28.4733 37.8849ZM29.0516 38.0708L29.3017 37.2894L29.6774 37.4109L29.4264 38.1915L29.0516 38.0708ZM29.629 38.2566L29.88 37.476L30.2556 37.5967L30.0054 38.3781L29.629 38.2566ZM30.2072 38.4424L30.4582 37.6618L30.8338 37.7825L30.5829 38.5639L30.2072 38.4424ZM28.1668 38.8394L28.417 38.0581L28.7934 38.1795L28.5424 38.9601L28.1668 38.8394ZM28.745 39.0253L28.9952 38.2447L29.3708 38.3654L29.1207 39.1468L28.745 39.0253ZM29.3224 39.2119L29.5734 38.4305L29.9506 38.5544L29.7005 39.3358L29.3224 39.2119ZM29.9006 39.3977L30.1516 38.6163L30.5273 38.737L30.2763 39.5184L29.9006 39.3977ZM27.8602 39.7947L28.1104 39.0133L28.4868 39.1341L28.2351 39.9154L27.8602 39.7947ZM28.4384 39.9806L28.6886 39.1992L29.0643 39.3199L28.8141 40.1013L28.4384 39.9806ZM29.0158 40.1664L29.2668 39.385L29.6425 39.5057L29.3923 40.2871L29.0158 40.1664ZM29.594 40.3522L29.845 39.5708L30.2207 39.6923L29.9697 40.4729L29.594 40.3522Z" fill="#ACA199"/>
<path d="M35.041 44.9872C35.0434 44.9336 35.0373 44.88 35.0227 44.8283H35.4286V44.9872H35.7621L36.199 44.664L35.4317 44.0874V44.4694H35.145C35.1824 44.3918 35.2025 44.307 35.2038 44.2209C35.2106 44.1331 35.1949 44.045 35.1581 43.965C35.1214 43.885 35.0648 43.8157 34.9938 43.7637C34.9228 43.7117 34.8396 43.6787 34.7522 43.6678C34.6649 43.6569 34.5762 43.6685 34.4945 43.7015C34.4662 43.5428 34.384 43.3988 34.2617 43.2937C34.1394 43.1887 33.9846 43.1291 33.8234 43.125C33.458 43.125 33.13 43.4093 33.1284 43.7539L33.1205 44.9872H35.041Z" fill="#ACA199"/>
<path d="M32.2063 44.9874L31.1333 42.0215L30.6448 42.1978L30.42 44.1219L31.331 44.9874H32.2063Z" fill="#ACA199"/>
<path d="M30.5106 44.9998L30.656 44.6242L30.1874 44.2184L30.2874 43.6061L28.9062 42.8398L29.687 44.9998H30.5106Z" fill="#ACA199"/>
<path d="M30.2922 43.3991L30.4217 42.293L29.0992 42.7694L30.2922 43.3991Z" fill="#ACA199"/>
<path d="M30.7029 44.9998H31.0222L30.7926 44.7822L30.7029 44.9998Z" fill="#ACA199"/>
<path d="M30.7321 35.5247L30.2874 33.1035L29.4931 34.0921L29.1158 32.3213L28.8069 35.7494L29.7354 34.6003V36.6062L30.7321 35.5247Z" fill="#ACA199"/>
<path d="M36.9139 44.4228C36.877 44.6083 36.8623 44.7976 36.8702 44.9866H37.7613C37.7703 44.8266 37.7902 44.6674 37.8209 44.5101C37.8701 44.252 37.9003 44.2195 37.9186 44.1258L38.5826 44.252L37.7089 42.6289L36.3174 43.82L37.0036 43.9543C36.9806 44.0718 36.9536 44.2123 36.9139 44.4228Z" fill="#ACA199"/>
<path d="M27.5474 44.9866H28.2304L28.7967 44.8008L28.8571 44.9866H29.081L28.9325 44.5332L27.5474 44.9866Z" fill="#ACA199"/>
<path d="M40.3156 38.7021H39.735V39.2826L40.3156 38.7021Z" fill="#ACA199"/>
<path d="M39.5387 39.2801V38.5059H40.3131L40.3171 37.5378L37.9947 37.5283L37.9875 39.2753L39.5387 39.2801Z" fill="#ACA199"/>
<path d="M39.5365 40.0547H38.9551V40.636L39.5365 40.0547Z" fill="#ACA199"/>
<path d="M39.5372 39.8619V39.4743L37.7954 39.468V38.8867H37.2148L37.2076 40.6337L38.7564 40.6393V39.865L39.5372 39.8619Z" fill="#ACA199"/>
<path d="M26.5902 44.6043L27.1247 44.4884L27.1867 43.9992C27.34 43.9128 27.4871 43.8157 27.6267 43.7086L28.1032 43.8293L28.3963 43.3743L28.0905 42.9931C28.1518 42.8263 28.1788 42.6488 28.1699 42.4714L28.5893 42.2125L28.4734 41.6781L27.9841 41.6161C27.9045 41.468 27.8089 41.329 27.699 41.2016L27.8205 40.7251L27.3336 40.4115L26.9524 40.7172C26.791 40.6703 26.6252 40.6408 26.4576 40.6291L26.1994 40.209L25.6649 40.3249L25.603 40.8141C25.4496 40.9004 25.3026 40.9976 25.1629 41.1047L24.6864 40.984L24.3941 41.439L24.6999 41.8202C24.6373 41.9867 24.6089 42.1642 24.6165 42.3419L24.2003 42.6048L24.3163 43.1392L24.8047 43.2011C24.8909 43.355 24.9883 43.5023 25.0962 43.6419L24.9787 44.1136L25.4338 44.4074L25.8142 44.1008C25.9811 44.1621 26.1585 44.1891 26.336 44.1803L26.5902 44.6043ZM25.3266 42.6389C25.2813 42.4277 25.2998 42.2078 25.3795 42.007C25.4592 41.8062 25.5967 41.6336 25.7745 41.5109C25.9524 41.3882 26.1626 41.321 26.3786 41.3177C26.5947 41.3144 26.8068 41.3752 26.9883 41.4924C27.1698 41.6097 27.3124 41.7781 27.3982 41.9763C27.484 42.1746 27.5091 42.3938 27.4704 42.6063C27.4316 42.8189 27.3307 43.0151 27.1804 43.1703C27.0301 43.3255 26.8371 43.4327 26.6259 43.4783C26.3424 43.538 26.0468 43.4833 25.8034 43.3261C25.56 43.1689 25.3886 42.9219 25.3266 42.6389Z" fill="#ACA199"/>
<path d="M26.5719 43.0979C26.4396 43.1267 26.3018 43.1156 26.1758 43.066C26.0498 43.0163 25.9414 42.9304 25.8643 42.8191C25.7871 42.7079 25.7448 42.5762 25.7426 42.4408C25.7405 42.3055 25.7785 42.1725 25.852 42.0588C25.9255 41.9451 26.0311 41.8557 26.1554 41.8021C26.2797 41.7484 26.4172 41.7329 26.5503 41.7574C26.6835 41.782 26.8064 41.8455 26.9034 41.9399C27.0004 42.0343 27.0672 42.1555 27.0953 42.2879C27.1331 42.4647 27.0992 42.6492 27.0011 42.801C26.903 42.9529 26.7486 43.0596 26.5719 43.0979Z" fill="#ACA199"/>
<path d="M27.5576 36.904L27.6251 36.8198C27.6935 36.735 27.7445 36.6375 27.7752 36.5329C27.8058 36.4283 27.8156 36.3187 27.8039 36.2104C27.7921 36.102 27.7592 35.9971 27.7068 35.9015C27.6545 35.8059 27.5838 35.7216 27.4988 35.6533C27.454 35.6139 27.4034 35.5818 27.3487 35.558L27.6021 35.2404L27.9198 35.4937L27.9484 34.5312L27.0175 34.7695L27.3185 35.0077L27.1382 35.234C27.1008 35.1559 27.0466 35.087 26.9794 35.0323C26.9243 34.9856 26.8604 34.9504 26.7914 34.9287C26.7225 34.907 26.6499 34.8994 26.578 34.9062C26.506 34.913 26.4362 34.9341 26.3725 34.9683C26.3089 35.0025 26.2527 35.0491 26.2074 35.1054C26.1729 35.1539 26.1461 35.2075 26.128 35.2642C25.9856 35.1864 25.8206 35.1605 25.6612 35.1909C25.5018 35.2214 25.358 35.3062 25.2543 35.431C25.0263 35.7168 25.0478 36.1528 25.3186 36.3688L26.8682 37.606C27.0787 37.7743 27.3964 37.6854 27.5409 37.5036C27.6086 37.4191 27.6469 37.3148 27.6499 37.2066C27.6529 37.0984 27.6205 36.9921 27.5576 36.904Z" fill="#ACA199"/>
<path d="M25.4878 37.7193C25.4878 37.7193 25.4242 37.6939 25.2853 37.9409L25.1907 37.9036C25.1378 37.8838 25.0793 37.8857 25.0277 37.9087C24.9762 37.9317 24.9357 37.9741 24.9151 38.0267L24.7618 38.4182C24.7429 38.47 24.745 38.5272 24.7677 38.5775C24.7904 38.6278 24.8319 38.6673 24.8834 38.6874H24.8897L24.9771 38.7223C24.9477 38.8207 24.9477 38.9256 24.9771 39.024L24.9255 39.1535L25.051 39.2027L25.6649 37.6352L25.5402 37.5859L25.4878 37.7193ZM24.9255 38.5603C24.9082 38.5531 24.8944 38.5394 24.887 38.5222C24.8796 38.5051 24.8792 38.4857 24.8857 38.4682L25.0446 38.0711C25.0523 38.0539 25.0658 38.0399 25.0829 38.0318C25.0999 38.0236 25.1193 38.0218 25.1375 38.0267L25.2106 38.0552C25.1848 38.105 25.1617 38.1562 25.1415 38.2085C25.1351 38.2236 25.1296 38.2395 25.124 38.2554C25.0954 38.3284 25.0168 38.5285 25.0033 38.5905L24.9278 38.5611L24.9255 38.5603Z" fill="#ACA199"/>
<path d="M25.1915 39.2613L25.3162 39.3105L25.3647 39.1858L26.5497 39.6512C26.7043 39.5133 26.824 39.3407 26.8992 39.1477L26.9786 38.9484C27.0555 38.7529 27.0849 38.542 27.0644 38.333L25.8793 37.8764L25.931 37.7445L25.8063 37.6953L25.1915 39.2613ZM26.5672 39.2065C26.5456 39.2465 26.5217 39.2852 26.4957 39.3224L25.6141 38.9746L25.6633 38.8499L26.5672 39.2065ZM26.726 38.7967L26.622 39.0635L25.6967 38.6998L25.8015 38.433L26.726 38.7967ZM26.7983 38.5371C26.7932 38.5823 26.7849 38.6271 26.7737 38.6713L25.865 38.3219L25.9167 38.1908L26.7983 38.5371Z" fill="#ACA199"/>
<path d="M27.8602 32.9708C27.8856 32.8907 27.8856 32.8047 27.8602 32.7246C27.8382 32.6433 27.7892 32.5719 27.7212 32.5221C27.3606 32.2424 26.9179 32.0892 26.4615 32.0862C26.254 32.0749 26.0465 32.1074 25.8523 32.1815C26.0381 32.4767 26.278 32.7343 26.5592 32.9406C26.8284 33.1454 27.16 33.2511 27.498 33.24C27.5774 33.2344 27.6535 33.206 27.7172 33.1583C27.7809 33.1105 27.8294 33.0454 27.857 32.9708H27.8602ZM23.4982 29.1742L25.0954 34.6908L24.6872 34.8091L23.09 29.2926L23.4982 29.1742ZM25.2813 29.4585L25.8905 29.7936L25.6935 30.1573L25.0819 29.823L24.7404 30.4353L24.3774 30.2351L24.7142 29.6197L24.1241 29.2973L24.3242 28.9368L24.9135 29.2544L25.2392 28.666L25.6022 28.8661L25.2813 29.4585ZM25.7078 34.5129L25.5331 34.5638L25.4131 34.1596C25.572 34.1278 25.6546 34.0968 25.6609 34.0667C25.6964 33.9481 25.6082 33.7427 25.3965 33.4504L25.3059 33.3242C25.182 33.1374 25.112 32.92 25.1034 32.6961C25.0854 32.4719 25.1545 32.2495 25.2964 32.0751C25.1191 31.6847 24.9811 31.2777 24.8842 30.8601L25.3107 30.7362C25.3997 31.1012 25.5173 31.4586 25.6625 31.8051C25.9192 31.6912 26.1983 31.6369 26.479 31.6463C26.7837 31.6498 27.0852 31.709 27.3686 31.821C27.6361 31.9194 27.878 32.0768 28.0762 32.2815C28.3018 32.5198 28.3502 32.8072 28.2224 33.155C28.1647 33.3118 28.0598 33.4467 27.922 33.5412C27.7843 33.6357 27.6206 33.685 27.4535 33.6823C27.2765 33.6844 27.1005 33.6556 26.9333 33.5974C26.7437 33.539 26.5637 33.4534 26.3988 33.3432C26.07 33.1213 25.788 32.8369 25.5688 32.5063C25.5132 32.7291 25.5693 32.9467 25.7372 33.159C25.8192 33.2648 25.8915 33.3778 25.9532 33.4965C26.0628 33.726 26.1121 33.9086 26.1121 34.046C26.1153 34.1187 26.0997 34.191 26.0669 34.256C26.0341 34.3209 25.9851 34.3763 25.9246 34.4169C25.8582 34.4572 25.787 34.4889 25.7126 34.5114L25.7078 34.5129Z" fill="#ACA199"/>
<path d="M24.2639 44.5646C24.2272 44.4584 24.17 44.3604 24.0955 44.2764L23.7627 44.9871H24.2996C24.3253 44.8456 24.313 44.6998 24.2639 44.5646Z" fill="#ACA199"/>
<path d="M23.6332 44.9875L23.1884 44.777L23.5474 44.0163C23.4233 44.0114 23.2997 44.0341 23.1854 44.0829C23.0712 44.1316 22.9692 44.2051 22.8868 44.298C22.8045 44.3909 22.7438 44.5009 22.7091 44.6202C22.6744 44.7394 22.6667 44.8649 22.6864 44.9875H23.6332Z" fill="#ACA199"/>
<path d="M21.3252 44.9872H22.04L21.4967 44.7299C21.4967 44.7299 21.268 44.6847 21.1187 44.9872H21.3252Z" fill="#ACA199"/>
<path d="M23.5983 35.4043L22.2068 36.6034L22.8938 36.7344L22.8041 37.2053C22.4451 39.0897 24.2758 39.4391 24.2758 39.4391C24.2758 39.4391 23.4021 39.0285 23.7103 37.4269L23.8096 36.9091L24.4736 37.0354L23.5983 35.4043Z" fill="#ACA199"/>
<path d="M28.1008 29.6195L27.8943 29.4606L27.7355 29.6679L27.4599 29.4551L26.6998 30.4437C26.6754 30.4754 26.6575 30.5115 26.647 30.5501C26.6366 30.5887 26.6339 30.6289 26.639 30.6686C26.6441 30.7082 26.657 30.7464 26.6769 30.7811C26.6968 30.8158 26.7233 30.8462 26.755 30.8706C26.7867 30.895 26.8228 30.9129 26.8614 30.9233C26.9 30.9338 26.9402 30.9365 26.9799 30.9314C27.0195 30.9262 27.0578 30.9134 27.0924 30.8934C27.1271 30.8735 27.1575 30.847 27.1819 30.8154L28.1008 29.6195ZM26.8213 30.5922C26.8173 30.5703 26.8178 30.5477 26.8227 30.526C26.8277 30.5042 26.837 30.4837 26.8502 30.4656C26.8633 30.4476 26.88 30.4324 26.8993 30.421C26.9185 30.4097 26.9398 30.4023 26.9619 30.3995C26.9841 30.3966 27.0066 30.3983 27.0281 30.4044C27.0495 30.4105 27.0695 30.4209 27.0868 30.435C27.1042 30.4491 27.1184 30.4666 27.1288 30.4864C27.1391 30.5062 27.1453 30.5279 27.147 30.5501C27.1501 30.5921 27.1371 30.6337 27.1105 30.6663C27.0839 30.6989 27.0458 30.7201 27.0041 30.7255C26.9624 30.7309 26.9201 30.7201 26.8861 30.6953C26.8521 30.6705 26.8289 30.6336 26.8213 30.5922Z" fill="#ACA199"/>
<path d="M27.9643 28.2506L28.1104 28.4173L28.4956 28.6778L28.3368 28.8851L28.5433 29.0439L28.5615 29.0208C28.6701 29.0494 28.7832 29.0558 28.8943 29.0399C29.1099 29.0112 29.3053 28.8984 29.4379 28.7261C29.5705 28.5538 29.6295 28.336 29.602 28.1203C29.5889 28.0087 29.5538 27.9007 29.4988 27.8027L28.9857 28.4697L28.5036 28.0981L29.0166 27.4311C28.9077 27.4032 28.7944 27.397 28.6831 27.4128C28.4821 27.4418 28.2985 27.5427 28.1664 27.6968C28.0342 27.8508 27.9624 28.0476 27.9643 28.2506Z" fill="#ACA199"/>
<path d="M27.5115 29.22L27.6982 29.3788L27.857 29.1723L29.1659 30.1808L29.2787 30.4143L29.7553 30.5803L29.8792 30.4214L29.6147 29.9791L29.3581 29.9093L28.0516 28.9206L28.2105 28.7141L28.0063 28.5752C28.0063 28.5752 27.9063 28.7538 27.699 28.5942C27.5846 28.5053 27.6855 28.3274 27.3408 28.0614L26.8587 27.6898C26.8587 27.6898 26.6395 27.5945 26.4274 27.87C26.2153 28.1456 26.3631 28.333 26.3631 28.333L26.846 28.7054C27.1637 28.9532 27.3368 28.8277 27.4289 28.8984C27.6354 29.0588 27.5115 29.22 27.5115 29.22ZM27.5115 28.5791L27.3884 28.738L26.5148 28.0654L26.6387 27.9065L27.5115 28.5791Z" fill="#ACA199"/>
<path d="M32.5939 31.9482L30.4542 32.5835L30.3589 32.2658L31.2707 31.4082L32.4986 31.6274L32.5939 31.9482Z" fill="#ACA199"/>
<path d="M32.1618 30.4824L31.6154 31.3416L31.2254 31.2535L30.9467 31.5394L30.0214 31.1145L32.1618 30.4824Z" fill="#ACA199"/>
<path d="M31.7496 31.3527L32.4557 31.479L32.1992 30.6055L31.7496 31.3527Z" fill="#ACA199"/>
<path d="M30.8401 31.6226L30.3159 32.1118L30.0586 31.2383L30.8401 31.6226Z" fill="#ACA199"/>
<path d="M33.6724 30.2313L33.5255 30.3902C33.4961 30.4219 32.9258 31.0437 33.1824 31.6607C33.3865 32.1419 33.0235 32.5414 33.0061 32.5573L32.5676 33.0337L32.8853 33.3267L33.3237 32.8503C33.3388 32.8344 33.7042 32.4358 34.2014 32.5985C34.8368 32.801 35.4078 32.1793 35.4372 32.1467L35.5834 31.9879L35.9011 32.2801L35.8614 31.3629L34.9448 31.4018L35.2625 31.6949L35.1164 31.8537C35.1164 31.8537 34.7065 32.3 34.3221 32.1785C34.1079 32.1138 33.8802 32.1077 33.6629 32.161C33.7053 31.9399 33.6795 31.7112 33.589 31.5051C33.4349 31.1287 33.8448 30.6824 33.8448 30.6824L33.9909 30.5236L34.3086 30.8158L34.2713 29.8994L33.3539 29.9383L33.6724 30.2313Z" fill="#ACA199"/>
<path d="M40.5395 32.6123L38.2696 30.5938L36.1124 33.0253L38.3824 35.0431L40.5395 32.6123ZM37.743 31.5078L38.2871 30.8939L38.5825 31.1568L38.0385 31.7698L37.743 31.5078ZM38.1973 31.9112L38.7414 31.2981L39.0368 31.5602L38.492 32.174L38.1973 31.9112ZM38.6508 32.3153L39.1957 31.7015L39.4903 31.9636L38.9463 32.5774L38.6508 32.3153ZM39.1051 32.7187L39.6492 32.1049L39.9447 32.3678L39.3998 32.9808L39.1051 32.7187ZM37.0774 32.2574L37.6223 31.6443L37.9169 31.9064L37.3729 32.5202L37.0774 32.2574ZM37.5317 32.6608L38.0758 32.0477L38.3713 32.3098L37.8264 32.9236L37.5317 32.6608ZM37.986 33.065L38.5301 32.4511L38.8256 32.714L38.2807 33.327L37.986 33.065ZM38.4396 33.4684L38.9844 32.8545L39.2791 33.1174L38.735 33.7304L38.4396 33.4684ZM36.4158 33.007L36.9599 32.394L37.2553 32.656L36.7105 33.2699L36.4158 33.007ZM36.8693 33.4112L37.4142 32.7974L37.7089 33.0602L37.1648 33.6733L36.8693 33.4112ZM37.3236 33.8146L37.8677 33.2008L38.1632 33.4636L37.6183 34.0767L37.3236 33.8146ZM37.7772 34.218L38.322 33.605L38.6167 33.867L38.0726 34.4808L37.7772 34.218Z" fill="#ACA199"/>
<path d="M35.3603 28.7376V28.8448C35.3563 28.9536 35.3739 29.0622 35.412 29.1642C35.4501 29.2663 35.5079 29.3598 35.5822 29.4395C35.6565 29.5191 35.7458 29.5833 35.845 29.6285C35.9441 29.6736 36.0512 29.6987 36.1601 29.7024C36.2195 29.7072 36.2793 29.7023 36.3372 29.6881L36.3253 30.0947L35.9202 30.0828L36.4762 30.8697L37.0766 30.1177L36.6914 30.1058L36.7001 29.8175C36.7773 29.8569 36.8621 29.8791 36.9487 29.8827C37.0209 29.8868 37.0931 29.8766 37.1612 29.8525C37.2294 29.8284 37.292 29.791 37.3455 29.7424C37.3989 29.6938 37.4422 29.635 37.4727 29.5695C37.5031 29.504 37.5203 29.4331 37.523 29.3609C37.5211 29.3013 37.5098 29.2424 37.4896 29.1862C37.6495 29.1625 37.7963 29.0842 37.9052 28.9647C38.014 28.8452 38.0782 28.6917 38.0869 28.5303C38.098 28.165 37.8192 27.8291 37.4729 27.8156L35.4857 27.7561C35.2165 27.7473 35.0163 28.011 35.0092 28.2421C35.0047 28.3518 35.0367 28.46 35.1003 28.5496C35.1638 28.6393 35.2552 28.7054 35.3603 28.7376Z" fill="#ACA199"/>
<path d="M22.3196 35.0615L22.0718 34.3047L21.3625 34.5374L22.3196 35.0615Z" fill="#ACA199"/>
<path d="M21.28 34.2854L22.2259 33.9749L22.5563 34.981L23.7381 34.5935L22.7469 31.5664L20.6191 32.2644L21.28 34.2854Z" fill="#ACA199"/>
<path d="M20.3347 34.5966L20.0869 33.8398L19.3777 34.0725L20.3347 34.5966Z" fill="#ACA199"/>
<path d="M20.5706 34.5189L21.0472 34.3641L20.303 32.093L21.0122 31.8603L20.7644 31.1035L18.6343 31.8055L19.2951 33.8241L20.2402 33.5136L20.5706 34.5189Z" fill="#ACA199"/>
<path d="M40.5141 31.819C40.676 31.8912 40.859 31.9002 41.0272 31.8444C41.3402 31.7562 41.4418 31.576 41.4418 31.576L41.3465 31.2306L41.7667 31.4688L43.124 29.0603L39.9248 27.2529L38.5667 29.6614L40.1663 30.5651L40.5141 31.819ZM40.1337 29.0325L40.3211 28.9809L40.5078 29.1651L40.0384 29.2953L40.1337 29.0325ZM40.4117 29.4295L40.5999 29.3771L41.0526 31.005C41.0002 31.0344 40.9438 31.0558 40.885 31.0686L40.4117 29.4295ZM41.0336 31.6006L40.9351 31.3076C40.997 31.2901 41.0399 31.2615 41.1027 31.2441L41.1821 31.526C41.1312 31.5474 41.0816 31.5718 41.0336 31.599V31.6006ZM38.8979 29.5701L40.032 27.5587L42.8349 29.1421L41.7007 31.1535L41.2806 30.9153L40.7683 29.0611L40.0694 28.3758L39.8311 29.3247L40.1027 30.2467L38.8979 29.5701Z" fill="#ACA199"/>
<path d="M44.4219 44.9872H44.9977V44.5107C44.8342 44.7011 44.6395 44.8622 44.4219 44.9872Z" fill="#ACA199"/>
<path d="M45 38.9716L43.9404 38.6992L43.3908 39.5171C43.0388 39.5339 42.6884 39.5758 42.3424 39.6426L41.6038 39.0018L40.6713 39.5521L40.877 40.505C40.6165 40.7468 40.4072 41.0384 40.2615 41.3626L39.279 41.4484L39.0066 42.5069L39.8255 43.0556C39.8418 43.4073 39.8837 43.7574 39.9509 44.103L39.3092 44.8408L39.3942 44.9869H42.3329C41.8661 44.7314 41.5085 44.3144 41.3273 43.8141C41.1461 43.3138 41.1537 42.7646 41.3486 42.2695C41.5435 41.7744 41.9124 41.3674 42.3861 41.1249C42.8597 40.8823 43.4056 40.8209 43.9214 40.9521C44.3468 41.057 44.7244 41.302 44.9936 41.6477" fill="#ACA199"/>
<path d="M43.0795 44.459C42.8183 44.391 42.5831 44.2471 42.4036 44.0455C42.2241 43.8439 42.1084 43.5937 42.071 43.3264C42.0336 43.0591 42.0763 42.7868 42.1936 42.5437C42.311 42.3006 42.4977 42.0978 42.7302 41.9607C42.9627 41.8237 43.2307 41.7586 43.5002 41.7736C43.7697 41.7887 44.0287 41.8832 44.2445 42.0453C44.4603 42.2074 44.6233 42.4298 44.7128 42.6845C44.8023 42.9391 44.8143 43.2145 44.7474 43.476C44.7028 43.6502 44.6242 43.8139 44.5162 43.9577C44.4081 44.1015 44.2727 44.2226 44.1177 44.3139C43.9628 44.4053 43.7913 44.4651 43.6131 44.49C43.4349 44.5149 43.2536 44.5044 43.0795 44.459Z" fill="#ACA199"/>
<path d="M41.6348 37.7156L42.2781 38.2984L44.9976 35.2928L44.9936 33.626L42.5045 34.5956L41.6348 37.7156Z" fill="#ACA199"/>
<path d="M43.1995 31.3438L43.1511 33.9865L42.1686 34.3176L41.9367 35.3285L39.3157 35.6382L43.1995 31.3438Z" fill="#ACA199"/>
<path d="M43.4624 33.8293L44.9976 33.2218V32.9034L43.4536 31.5732L43.4624 33.8293Z" fill="#ACA199"/>
<path d="M41.8111 35.6543L41.3115 37.4482L39.5681 35.8679L41.8111 35.6543Z" fill="#ACA199"/>
<path d="M44.8928 29.8933L43.2448 30.6405L44.9571 30.4237L44.954 28.8252L43.7578 29.3279L44.8928 29.8933Z" fill="#ACA199"/>
<path d="M21.2711 36.1625L21.1504 35.9822C21.1266 35.9465 20.6564 35.2453 19.9971 35.3469C19.4809 35.4327 19.1799 34.9832 19.168 34.965L18.8058 34.4258L18.4468 34.664L18.8082 35.2032C18.8209 35.2215 19.1259 35.6709 18.8471 36.1156C18.5008 36.6874 18.971 37.3862 18.9948 37.4251L19.1155 37.6045L18.7565 37.8428L19.6572 38.0286L19.8343 37.1257L19.4745 37.3639L19.3546 37.1845C19.3546 37.1845 19.017 36.681 19.2259 36.3316C19.3392 36.1391 19.3988 35.9197 19.3983 35.6963C19.6029 35.789 19.8311 35.8167 20.0519 35.7757C20.4538 35.7146 20.7914 36.2181 20.7914 36.2181L20.9121 36.3983L20.5531 36.6365L21.453 36.8144L21.6309 35.9131L21.2711 36.1625Z" fill="#ACA199"/>
<path d="M21.1775 26.2461L17.7622 27.3189L18.9091 30.9718L22.3243 29.8989L21.1775 26.2461ZM18.3666 28.4052L18.0767 27.4825L18.5207 27.3435L18.8106 28.2663L18.3666 28.4052ZM19.0489 28.1908L18.7598 27.2681L19.2038 27.1291L19.4929 28.0519L19.0489 28.1908ZM19.7319 27.9764L19.4428 27.0537L19.8868 26.9147L20.1759 27.8343L19.7319 27.9764ZM20.415 27.762L20.1259 26.8393L20.5691 26.6995L20.859 27.6223L20.415 27.762ZM18.7201 29.5329L18.431 28.6109L18.8749 28.4696L19.164 29.3923L18.7201 29.5329ZM19.4031 29.3184L19.1132 28.3957L19.5572 28.2567L19.8471 29.1795L19.4031 29.3184ZM20.0854 29.104L19.7963 28.1813L20.2402 28.0423L20.5309 28.9643L20.0854 29.104ZM20.7684 28.8896L20.4793 27.9669L20.9233 27.8271L21.2124 28.7499L20.7684 28.8896ZM19.0735 30.6605L18.7836 29.7401L19.2276 29.6004L19.5167 30.5231L19.0735 30.6605ZM19.7566 30.4461L19.4674 29.5233L19.9106 29.3844L20.2005 30.3071L19.7566 30.4461ZM20.4396 30.2317L20.1497 29.3089L20.5937 29.17L20.8828 30.0927L20.4396 30.2317ZM21.1219 30.0173L20.8328 29.0945L21.2767 28.9548L21.5635 29.8775L21.1219 30.0173Z" fill="#ACA199"/>
<path d="M22.6079 42.3537L22.5603 42.1504C22.3367 42.2818 22.0753 42.3339 21.8184 42.2981C21.7454 42.1012 21.6048 41.558 22.013 40.8997C22.0733 40.8059 22.1422 40.7179 22.2187 40.6369L22.1711 40.4336C22.0442 40.5366 21.9366 40.6614 21.8534 40.8021C21.2974 41.6962 21.6945 42.4609 21.6945 42.4609C22.0018 42.5389 22.3271 42.5007 22.6079 42.3537Z" fill="#ACA199"/>
<path d="M22.3982 42.0283C22.4383 42.0582 22.4843 42.0793 22.5332 42.0903L22.2623 40.8809C22.2337 40.9285 22.1885 40.9658 22.1599 41.0127C22.0574 41.1791 22.025 41.3793 22.0696 41.5696C22.1143 41.7599 22.2324 41.9248 22.3982 42.0283Z" fill="#ACA199"/>
<path d="M23.2067 43.3032L22.9406 42.1668C23.074 42.0406 23.1914 41.8984 23.2901 41.7436C23.9517 40.6755 23.2678 39.9648 23.2678 39.9648C22.9841 39.9675 22.7064 40.0468 22.464 40.1943L22.2782 39.3494L22.167 39.2803L22.0979 39.3922L23.0248 43.3429L23.136 43.412L23.2067 43.3032ZM22.5165 40.365C22.7077 40.2355 22.9283 40.1561 23.1582 40.1339C23.3175 40.3663 23.3885 40.6479 23.3584 40.928C23.3042 40.8672 23.2423 40.8138 23.1741 40.7692C23.0883 40.7163 22.9925 40.6819 22.8926 40.6682C22.7927 40.6545 22.6911 40.6619 22.5943 40.6898L22.5165 40.365ZM22.8342 41.04L22.8993 40.8637C22.9765 40.8686 23.0513 40.8927 23.1169 40.9336C23.1975 40.9869 23.2646 41.0581 23.3131 41.1416C23.3044 41.2244 23.2773 41.3042 23.2337 41.3751C23.1794 41.2792 23.1052 41.1961 23.016 41.1313C22.9649 41.0852 22.9019 41.0541 22.8342 41.0416V41.04Z" fill="#ACA199"/>
<path d="M18.6494 44.9874C18.8702 44.7642 19.2133 44.5387 19.747 44.3672L20.2482 44.2083L20.4547 44.8531L21.4682 43.3031L19.7502 42.6543L19.9639 43.3205L19.5072 43.4667C18.5223 43.7843 18.2364 44.4466 18.1792 44.9897L18.6494 44.9874Z" fill="#ACA199"/>
<path d="M15.845 44.9879C15.845 44.9776 15.8521 44.9681 15.8553 44.9577C15.9808 44.571 16.582 44.4956 16.582 44.4956L16.7965 44.4694L16.8505 44.899L17.4136 44.1732L16.6892 43.6094L16.7432 44.039L16.5288 44.066C16.4851 44.0715 15.648 44.1764 15.4447 44.8132C15.4254 44.8745 15.3988 44.9332 15.3652 44.9879H15.845Z" fill="#ACA199"/>
<path d="M17.3929 34.0119L17.4723 33.8856C17.5565 33.7581 17.6147 33.6153 17.6437 33.4654C17.6726 33.3154 17.6717 33.1612 17.6411 33.0115C17.6104 32.8619 17.5505 32.7198 17.4648 32.5933C17.3792 32.4668 17.2695 32.3584 17.1419 32.2744C17.0745 32.2248 16.9993 32.1867 16.9195 32.1616L17.2317 31.6852L17.7082 31.9964L17.62 30.6465L16.3493 31.1071L16.8059 31.408L16.5851 31.7463C16.5217 31.643 16.4366 31.5547 16.3358 31.4874C16.2527 31.4295 16.1588 31.3889 16.0598 31.3678C15.9608 31.3467 15.8585 31.3456 15.759 31.3646C15.6596 31.3836 15.5649 31.4224 15.4806 31.4785C15.3963 31.5346 15.3242 31.6071 15.2683 31.6915C15.227 31.7643 15.1972 31.8431 15.1801 31.925C14.7894 31.7336 14.2374 31.8885 13.9888 32.272C13.7092 32.7016 13.7974 33.3043 14.204 33.5727L16.528 35.0902C16.8457 35.2967 17.2761 35.1284 17.4533 34.8576C17.5376 34.7296 17.5773 34.5774 17.5664 34.4245C17.5555 34.2716 17.4945 34.1266 17.3929 34.0119Z" fill="#ACA199"/>
<path d="M14.4755 39.3248L14.914 39.6472L15.3198 39.3709C15.4854 39.4287 15.6551 39.4744 15.8273 39.5075L16.0489 39.9411L16.5819 39.8616L16.6613 39.3852C16.8265 39.3216 16.9775 39.2258 17.1053 39.1033L17.5747 39.2454L17.8971 38.8071L17.6247 38.3957C17.6819 38.2384 17.7223 38.0755 17.7454 37.9098L18.1783 37.6882L18.0917 37.1173L17.6152 37.0339C17.5433 36.8827 17.4557 36.7395 17.3539 36.6066L17.4968 36.1373L17.0584 35.8141L16.651 36.0929C16.4854 36.0348 16.3158 35.9889 16.1435 35.9555L15.9242 35.5195L15.3913 35.5989L15.3119 36.0794C15.1465 36.1426 14.9955 36.2385 14.8679 36.3613L14.3985 36.2183L14.076 36.6567L14.3516 37.0633C14.2942 37.229 14.2485 37.3985 14.215 37.5707L13.7798 37.7946L13.8592 38.3275L14.3358 38.4108C14.399 38.5762 14.4949 38.7271 14.6177 38.8547L14.4755 39.3248ZM15.1109 37.0847C15.2387 36.9115 15.415 36.78 15.6174 36.707C15.8199 36.6339 16.0395 36.6224 16.2485 36.674C16.4574 36.7257 16.6464 36.8381 16.7915 36.997C16.9367 37.156 17.0314 37.3544 17.0638 37.5672C17.0961 37.78 17.0647 37.9975 16.9735 38.1925C16.8822 38.3874 16.7352 38.5509 16.5511 38.6623C16.3669 38.7738 16.1539 38.8282 15.9388 38.8186C15.7238 38.809 15.5164 38.7359 15.3429 38.6086C15.1097 38.4375 14.954 38.1809 14.9101 37.8951C14.8661 37.6094 14.9375 37.3178 15.1086 37.0847H15.1109Z" fill="#ACA199"/>
<path d="M15.5883 38.3168C15.4801 38.2368 15.398 38.1266 15.3524 38.0001C15.3068 37.8735 15.2998 37.7363 15.3321 37.6057C15.3645 37.4752 15.4348 37.3571 15.5342 37.2665C15.6337 37.1759 15.7577 37.1167 15.8907 37.0966C16.0238 37.0764 16.1598 37.0961 16.2816 37.1532C16.4034 37.2102 16.5056 37.3021 16.5752 37.4172C16.6449 37.5323 16.6788 37.6655 16.6728 37.7999C16.6668 37.9342 16.6211 38.0638 16.5414 38.1722C16.4883 38.2443 16.4216 38.3052 16.345 38.3515C16.2683 38.3978 16.1833 38.4285 16.0948 38.4419C16.0063 38.4553 15.916 38.4512 15.8291 38.4297C15.7422 38.4082 15.6604 38.3699 15.5883 38.3168Z" fill="#ACA199"/>
<path d="M11.8896 32.7644L12.3105 32.3975L12.6774 32.816L12.9268 32.5992L12.5623 32.1799L12.9658 31.8257L12.7489 31.5764L12.3431 31.9282L11.9888 31.5264L11.7394 31.7416L12.0937 32.1458L11.6727 32.515L11.8896 32.7644Z" fill="#ACA199"/>
<path d="M11.4957 36.0872C11.5577 36.0911 11.6199 36.0869 11.6807 36.0745C11.7365 36.0602 11.7876 36.0319 11.8293 35.9923C11.871 35.9527 11.9019 35.9031 11.919 35.8482C11.9652 35.7014 11.9769 35.546 11.9532 35.394C11.939 35.2879 11.9159 35.1833 11.8841 35.0811C11.8493 34.9941 11.8359 34.9 11.845 34.8067C11.8542 34.7135 11.8855 34.6237 11.9365 34.5451C12.0101 34.8535 12.1437 35.1443 12.3296 35.4011C12.4249 35.5292 12.539 35.6422 12.668 35.7362C12.7772 35.8261 12.9014 35.896 13.0349 35.9427C13.1593 35.9911 13.2958 35.9994 13.4251 35.9663C13.5544 35.9333 13.6702 35.8606 13.7561 35.7585C13.9467 35.5345 13.9896 35.3035 13.8848 35.0652C13.7929 34.8577 13.6549 34.6738 13.4813 34.5276C13.3001 34.3652 13.0903 34.2378 12.8626 34.152C12.6551 34.0674 12.4309 34.0316 12.2073 34.0472C12.1935 33.7467 12.2036 33.4456 12.2375 33.1467L11.8841 33.1221C11.8421 33.4622 11.8339 33.8055 11.8594 34.1472C11.7043 34.2384 11.5904 34.3861 11.5418 34.5594C11.4871 34.7298 11.4803 34.9119 11.5219 35.0859L11.556 35.2058C11.6355 35.4837 11.645 35.6616 11.5854 35.7402C11.5703 35.7609 11.4997 35.7616 11.3742 35.7402L11.3535 36.0769L11.4981 36.0864L11.4957 36.0872ZM12.7284 34.476C13.0699 34.6038 13.3599 34.8404 13.5536 35.1494C13.591 35.2053 13.6084 35.2722 13.6028 35.3392C13.599 35.4061 13.5746 35.4702 13.5329 35.5226C13.4918 35.5712 13.4376 35.6067 13.3767 35.6251C13.3158 35.6434 13.2509 35.6437 13.1898 35.6259C12.9328 35.5405 12.7132 35.3691 12.5679 35.1407C12.4136 34.9087 12.3042 34.6499 12.2455 34.3775C12.4116 34.3757 12.5762 34.4092 12.7284 34.476Z" fill="#ACA199"/>
<path d="M11.2676 31.4765L11.0039 31.459V35.3151L11.2676 31.4765Z" fill="#ACA199"/>
<path d="M11.05 40.531C11.0613 40.5477 11.0691 40.5666 11.0729 40.5865C11.0768 40.6063 11.0765 40.6267 11.0722 40.6465C11.0679 40.6662 11.0596 40.6849 11.0479 40.7014C11.0361 40.7178 11.0212 40.7317 11.0039 40.7422V40.963C11.0464 40.9456 11.0842 40.9186 11.1145 40.8842C11.1448 40.8498 11.1668 40.8088 11.1786 40.7645L11.594 39.3137L11.3438 39.2422L11.2716 39.4931L11.0039 39.4137V40.4754C11.0231 40.4904 11.0388 40.5094 11.05 40.531Z" fill="#ACA199"/>
<path d="M11.1588 38.1941L11.6124 38.2941L11.5409 38.545L11.7919 38.6165L11.7998 38.5887C11.9116 38.5753 12.0197 38.5397 12.1175 38.4839C12.3071 38.3776 12.447 38.2006 12.5065 37.9916C12.566 37.7825 12.5404 37.5584 12.4352 37.3682C12.3821 37.2691 12.3097 37.1816 12.2223 37.1109L11.9936 37.9201L11.4082 37.7517L11.6402 36.9434C11.5283 36.9568 11.4203 36.9925 11.3225 37.0482C11.1876 37.1234 11.0773 37.2359 11.0048 37.3722V38.1131L11.1588 38.1941Z" fill="#ACA199"/>
<path d="M11.1326 39.2421L11.2041 38.9912L12.7926 39.4462L12.9832 39.6217L13.4868 39.6002L13.5416 39.4049L13.1333 39.092L12.8688 39.1214L11.2923 38.6838L11.3638 38.4329L11.1255 38.3789C11.12 38.4105 11.106 38.4401 11.085 38.4644C11.064 38.4888 11.0368 38.5069 11.0063 38.5171V39.1968L11.1326 39.2421Z" fill="#ACA199"/>
<path d="M21.314 39.4766L20.7454 39.5941L20.8629 40.1635L21.314 39.4766Z" fill="#ACA199"/>
<path d="M20.6731 40.2032L20.5142 39.4449L21.2727 39.286L21.0765 38.3379L18.8042 38.8096L19.1568 40.5169L20.6731 40.2032Z" fill="#ACA199"/>
<path d="M20.8295 40.9619L20.2609 41.0794L20.3784 41.6488L20.8295 40.9619Z" fill="#ACA199"/>
<path d="M20.7907 40.7723L20.7113 40.3928L19.0053 40.7453L18.8885 40.1768L18.3198 40.2943L18.6717 42.0016L20.1887 41.6879L20.0298 40.9296L20.7907 40.7723Z" fill="#ACA199"/>
<path d="M17.52 42.245C17.52 42.245 17.5995 42.191 17.4184 41.848L17.5327 41.7686C17.5954 41.7231 17.6376 41.6547 17.6502 41.5783C17.6628 41.502 17.6449 41.4237 17.6003 41.3604L17.2675 40.884C17.2225 40.8239 17.1559 40.7837 17.0818 40.7719C17.0077 40.76 16.9318 40.7774 16.8703 40.8204L16.8632 40.8252L16.7576 40.8998C16.6673 40.7915 16.5476 40.7115 16.4129 40.6696L16.3033 40.5107L16.1492 40.6195L17.4803 42.5111L17.6312 42.4047L17.52 42.245ZM16.9807 40.9634C17.0021 40.949 17.0281 40.9434 17.0535 40.9479C17.0788 40.9523 17.1014 40.9664 17.1166 40.9872L17.4541 41.4676C17.4692 41.4892 17.4756 41.5157 17.4719 41.5418C17.4682 41.5679 17.4548 41.5916 17.4343 41.6082L17.3453 41.6701C17.3085 41.6026 17.2676 41.5374 17.223 41.4748C17.2103 41.4557 17.1968 41.4375 17.1825 41.42C17.1205 41.331 16.9506 41.0896 16.8894 41.0269L16.9799 40.9634H16.9807Z" fill="#ACA199"/>
<path d="M15.9767 40.7383L15.8266 40.8439L15.9331 40.9948L14.5034 42.0033C14.5433 42.2847 14.6492 42.5527 14.8124 42.7855L14.9816 43.0237C15.1469 43.2598 15.3664 43.4529 15.6217 43.5867L17.0418 42.5726L17.1538 42.7315L17.3039 42.6251L15.9767 40.7383ZM14.9982 42.3614C14.9685 42.3066 14.942 42.2501 14.9188 42.1923L15.9879 41.4379L16.0935 41.5888L14.9982 42.3614ZM15.3469 42.8553L15.1198 42.5329L16.2365 41.7452L16.4636 42.0676L15.3469 42.8553ZM15.5899 43.1349C15.5425 43.094 15.4975 43.0505 15.4549 43.0046L16.5422 42.2256L16.6542 42.3844L15.5899 43.1349Z" fill="#ACA199"/>
<path d="M13.9617 40.998L13.5415 41.1465L13.6884 41.5722L13.9617 40.998Z" fill="#ACA199"/>
<path d="M13.5488 41.6186L13.3502 41.0564L13.9118 40.8579L13.664 40.1543L11.9778 40.7499L12.4241 42.0157L13.5488 41.6186Z" fill="#ACA199"/>
<path d="M13.7465 42.1807L13.3256 42.33L13.4741 42.7516L13.7465 42.1807Z" fill="#ACA199"/>
<path d="M13.7003 42.0409L13.6011 41.7598L12.3335 42.2084L12.1849 41.786L11.7632 41.9353L12.2095 43.201L13.3334 42.804L13.1348 42.241L13.7003 42.0409Z" fill="#ACA199"/>
<path d="M11.0039 44.9876C11.2581 44.9876 11.5122 44.9829 11.7664 44.9805H11.0039V44.9876Z" fill="#ACA199"/>
<path d="M11.7584 44.9871C11.9244 44.9871 12.1095 44.9871 12.2747 44.9871C12.3099 44.8802 12.3239 44.7674 12.316 44.6551C12.3156 44.4378 12.2291 44.2294 12.0756 44.0756C11.922 43.9217 11.7137 43.8349 11.4963 43.834C11.384 43.8327 11.2724 43.8537 11.1683 43.896L11.7624 44.4908L11.3327 44.9212L11.0309 44.6194L11.0039 44.59V44.9871H11.7584Z" fill="#ACA199"/>
<path d="M13.0174 44.9872L13.4916 44.5123L13.7378 44.4305L13.9634 43.9787L13.8196 43.835L13.3486 44.0406L13.2462 44.2868L12.5583 44.9872H13.0174Z" fill="#ACA199"/>
</mask>
<g mask="url(#mask1_1097_369)">
<rect x="11" y="26.5" width="34" height="18.5" fill="url(#paint1_linear_1097_369)"/>
</g>
<path d="M17.7281 31.3826L16.8306 27.3684C16.8227 27.339 16.8163 27.3081 16.81 27.2755C16.8036 27.243 16.7409 26.8936 16.6217 26.2265H16.6098L16.5256 26.6911L16.3882 27.3684L15.4614 31.3826H14.7855L13.3733 25.457H13.9388L14.7489 28.9082L15.1302 30.7108H15.1659C15.2374 30.1904 15.3531 29.5861 15.513 28.8978L16.3207 25.457H16.9188L17.7321 28.9082C17.7956 29.167 17.9092 29.7679 18.0728 30.7108H18.1094C18.1215 30.5911 18.1803 30.2888 18.2857 29.8039C18.3911 29.319 18.7289 27.87 19.2991 25.457H19.8615L18.3985 31.3826H17.7281Z" fill="#002D5D"/>
<path d="M23.3902 29.8992C23.3902 30.3984 23.2467 30.7891 22.9597 31.0713C22.6727 31.3535 22.2602 31.4938 21.7222 31.4922C21.4593 31.4965 21.1972 31.4615 20.9447 31.3882C20.7609 31.3372 20.5854 31.2599 20.4237 31.1587L20.6731 30.7275C20.8422 30.8307 20.7922 30.8013 21.0098 30.8776C21.2504 30.9607 21.5034 31.0024 21.758 31.0006C22.0932 31.0006 22.3563 30.9003 22.5475 30.6997C22.7386 30.499 22.8342 30.2322 22.8342 29.8992C22.8416 29.6613 22.7689 29.4278 22.6277 29.2362C22.4895 29.0556 22.2271 28.8508 21.8406 28.6215C21.3985 28.3669 21.0964 28.1631 20.9344 28.0101C20.778 27.8637 20.6503 27.6895 20.5579 27.4963C20.4631 27.2833 20.417 27.0519 20.4229 26.8189C20.4188 26.6184 20.4594 26.4195 20.5419 26.2367C20.6243 26.0539 20.7464 25.8917 20.8994 25.762C21.2171 25.4841 21.6179 25.3448 22.1019 25.3443C22.5508 25.3344 22.9923 25.46 23.3687 25.7048L23.1185 26.136C22.8068 25.9402 22.4462 25.8361 22.0781 25.8358C21.7429 25.8358 21.4758 25.9261 21.2767 26.1066C21.1775 26.1966 21.0993 26.3072 21.0475 26.4307C20.9958 26.5542 20.9718 26.6875 20.9772 26.8213C20.9692 27.0573 21.0408 27.2892 21.1806 27.4796C21.3167 27.6564 21.6039 27.8703 22.0423 28.1212C22.4728 28.3801 22.7677 28.5868 22.9271 28.7414C23.08 28.8861 23.2013 29.0608 23.2837 29.2544C23.3611 29.4603 23.3972 29.6794 23.3902 29.8992Z" fill="#002D5D"/>
<path d="M26.4036 25.9156H25.387V31.383H24.8247V25.9156H23.9987L24.0026 25.4654H24.8199L24.8271 24.9492C24.8271 24.1956 24.8985 23.716 25.0979 23.3872C25.3076 23.0418 25.6539 22.8242 26.1368 22.8242H26.7213V23.3007C26.5903 23.3007 26.3393 23.3007 26.1654 23.3078C25.8842 23.3126 25.7579 23.3991 25.6578 23.5048C25.5578 23.6104 25.5061 23.7382 25.4585 23.9749C25.4038 24.2996 25.3799 24.6287 25.387 24.958V25.4551H26.4036V25.9156Z" fill="#ACA199"/>
<path d="M30.7211 28.4062C30.7211 29.4036 30.5487 30.1673 30.204 30.6972C29.8593 31.2271 29.3658 31.4918 28.7236 31.4913C28.0882 31.4913 27.6026 31.2266 27.2669 30.6972C26.9312 30.1678 26.7626 29.4041 26.761 28.4062C26.761 26.3633 27.4229 25.3418 28.7466 25.3418C29.3688 25.3418 29.8532 25.6094 30.2001 26.1446C30.5469 26.6798 30.7206 27.4337 30.7211 28.4062ZM27.3535 28.4062C27.3535 29.2617 27.4652 29.9078 27.6887 30.3446C27.9121 30.7814 28.261 31 28.7355 31.0005C29.6647 31.0005 30.1294 30.1358 30.1294 28.4062C30.1294 26.691 29.6647 25.8333 28.7355 25.8333C28.2483 25.8333 27.8965 26.0483 27.6799 26.4781C27.4634 26.908 27.3546 27.5507 27.3535 28.4062Z" fill="#ACA199"/>
<path d="M31.6258 26.8028C31.6258 26.0842 32.4947 25.3528 33.4176 25.3449C34.0435 25.3393 34.2683 25.5196 34.493 25.622L34.2119 26.0587C34.0157 25.9555 33.8322 25.8713 33.4057 25.8586C33.1492 25.8369 32.8929 25.903 32.679 26.046C32.4836 26.1763 32.266 26.3073 32.2024 26.8727C32.1579 27.2562 32.1865 27.801 32.1865 28.2449V31.3855H31.6187" fill="#ACA199"/>
<path d="M34.5779 26.698C34.6899 25.7221 35.5866 25.3369 36.2085 25.3369C36.5675 25.3369 37.0091 25.4671 37.2251 25.6307C37.4181 25.776 37.5222 25.9015 37.6365 26.2827C37.7954 25.9182 37.9185 25.8062 38.1456 25.6474C38.4019 25.4566 38.7117 25.3513 39.0312 25.3464C39.5213 25.3464 40.0097 25.4989 40.302 25.923C40.5403 26.262 40.6427 26.7528 40.6427 27.5111V31.3832H40.0804V27.3468C40.0955 26.1961 39.7905 25.8261 39.0296 25.8261C38.6508 25.8261 38.3768 25.9206 38.1758 26.2692C37.9749 26.6178 37.8851 27.238 37.8851 27.9153V31.3832H37.3228V27.3468C37.3228 26.8449 37.2452 26.4709 37.0901 26.2247C36.9312 25.9785 36.55 25.8475 36.2228 25.8475C35.7923 25.8475 35.5024 26.0587 35.307 26.4153C35.1116 26.7718 35.1339 27.3269 35.1339 28.1282V31.384H34.5652" fill="#ACA199"/>
<path d="M41.9636 26.3597C42.2461 26.3597 42.4751 26.1307 42.4751 25.8483C42.4751 25.5659 42.2461 25.3369 41.9636 25.3369C41.6812 25.3369 41.4521 25.5659 41.4521 25.8483C41.4521 26.1307 41.6812 26.3597 41.9636 26.3597Z" fill="#ACA199"/>
<path d="M41.9636 28.8607C42.2461 28.8607 42.4751 28.6317 42.4751 28.3493C42.4751 28.0669 42.2461 27.8379 41.9636 27.8379C41.6812 27.8379 41.4521 28.0669 41.4521 28.3493C41.4521 28.6317 41.6812 28.8607 41.9636 28.8607Z" fill="#ACA199"/>
<path d="M41.9636 31.3294C42.2461 31.3294 42.4751 31.1005 42.4751 30.818C42.4751 30.5356 42.2461 30.3066 41.9636 30.3066C41.6812 30.3066 41.4521 30.5356 41.4521 30.818C41.4521 31.1005 41.6812 31.3294 41.9636 31.3294Z" fill="#ACA199"/>
</g>
<defs>
<linearGradient id="paint0_linear_1097_369" x1="28" y1="11" x2="28" y2="29.735" gradientUnits="userSpaceOnUse">
<stop stop-color="#ACA199"/>
<stop offset="0.752455" stop-color="white"/>
</linearGradient>
<linearGradient id="paint1_linear_1097_369" x1="28" y1="26.5" x2="28" y2="45" gradientUnits="userSpaceOnUse">
<stop offset="0.25" stop-color="white"/>
<stop offset="1" stop-color="#ACA199"/>
</linearGradient>
<clipPath id="clip0_1097_369">
<rect width="34" height="34" fill="white" transform="translate(11 11)"/>
</clipPath>
</defs>
</svg>
