<svg width="56" height="56" viewBox="0 0 56 56" fill="none" xmlns="http://www.w3.org/2000/svg">
<rect width="56" height="56" rx="28" fill="#F0F4FF"/>
<g clip-path="url(#clip0_1109_384)">
<path d="M15.5928 14.0917L15.6368 14.1269L19.5904 17.6717C19.7864 17.8477 19.7992 18.1441 19.6184 18.3353C19.1445 18.833 18.8802 19.494 18.8804 20.1813C18.8804 21.6849 20.1256 22.9025 21.66 22.9025C22.045 22.9039 22.4262 22.8257 22.7797 22.6729C23.1331 22.5201 23.4512 22.296 23.714 22.0145C23.8944 21.8209 24.238 22.2365 24.4356 22.4137L27.6616 25.5485C27.6616 25.5485 32.2736 21.6489 33.0376 20.5329C33.1924 20.3065 33.3072 19.9849 33.526 20.1425L33.5684 20.1769L37.2188 23.4765C37.424 23.6617 37.4244 23.9773 37.22 24.1637L37.1224 24.2557C36.7993 24.5726 36.5427 24.9508 36.3676 25.3681C36.1924 25.7855 36.1023 26.2335 36.1024 26.6861C36.1024 28.5841 37.6592 30.1197 39.5752 30.1197C40.6608 30.1197 41.6628 29.6237 42.3176 28.7905C42.3962 28.6921 42.5096 28.6276 42.6343 28.6101C42.759 28.5926 42.8857 28.6235 42.9884 28.6965L43.0316 28.7317L46.674 32.0241C46.846 32.1797 46.878 32.4321 46.7504 32.6241C43.8216 37.0201 36.1784 41.4261 32.0028 41.8257C28.3412 42.1765 25.8228 41.6949 22.9964 39.8953L22.8156 39.7789C20.8916 38.5217 17.3636 35.6909 12.2152 31.2749L11.5572 30.7097C10.0104 29.9305 9.13317 28.3433 9.20557 25.8337C9.31117 22.1725 11.3576 18.0137 14.9496 14.1569C15.0311 14.0706 15.1409 14.0164 15.259 14.0045C15.3771 13.9925 15.4956 14.0235 15.5928 14.0917Z" fill="white"/>
<path fill-rule="evenodd" clip-rule="evenodd" d="M36.7956 40.1979C39.5668 39.0859 44.7756 35.4259 46.832 32.4311L42.68 28.8403C41.96 29.7299 40.8336 30.3027 39.5668 30.3027C37.3916 30.3027 35.6284 28.6143 35.6284 26.5319C35.6284 25.4907 36.782 23.8655 36.782 23.8655L33.2588 20.5771C32.314 21.9159 30.3644 24.1131 27.8748 25.8847C26.7284 26.7003 25.4676 27.4255 24.1376 27.9347" fill="#334AFF"/>
<path fill-rule="evenodd" clip-rule="evenodd" d="M15.752 14.1453L15.7008 14.1045C15.5875 14.025 15.4495 13.989 15.3118 14.0029C15.1742 14.0169 15.0462 14.0799 14.9512 14.1805C11.358 18.0377 9.30958 22.2001 9.20398 25.8709C9.13118 28.3985 10.0188 30.0061 11.5812 30.7981C16.7108 35.2129 20.308 38.1301 22.3908 39.5609L22.6048 39.7061L22.8068 39.8397C25.7148 41.7397 28.2728 42.2517 32.0188 41.8937C36.2048 41.4929 43.8468 37.0881 46.7796 32.6853C46.8516 32.5775 46.8823 32.4474 46.8659 32.3188C46.8495 32.1902 46.7871 32.0719 46.6904 31.9857L43.0596 28.7037L43.0092 28.6629C42.8894 28.5778 42.7417 28.5417 42.5962 28.5621C42.4507 28.5825 42.3185 28.6578 42.2268 28.7725C41.9095 29.1765 41.5043 29.503 41.0421 29.7272C40.5798 29.9513 40.0725 30.0672 39.5588 30.0661C37.694 30.0661 36.1788 28.5709 36.1788 26.7229C36.1788 25.8221 36.5404 24.9797 37.172 24.3557L37.2668 24.2665C37.323 24.2159 37.3679 24.1541 37.3986 24.085C37.4292 24.0159 37.445 23.9411 37.4449 23.8655C37.4447 23.7899 37.4286 23.7152 37.3977 23.6463C37.3667 23.5773 37.3216 23.5156 37.2652 23.4653L33.6268 20.1761L33.5776 20.1361C33.322 19.9525 32.9536 20.0101 32.7728 20.2741C31.6256 21.9501 29.92 23.5341 27.4 25.4545L27.156 25.6313C22.2704 29.1489 17.806 30.8585 13.4312 30.2253C11.4 29.9309 10.2524 28.6657 10.332 25.9013L10.34 25.6981C10.5004 22.5001 12.276 18.8341 15.384 15.3589L15.4092 15.3301L18.5448 18.1413L18.5068 18.1961C18.1001 18.7997 17.8829 19.511 17.8832 20.2389C17.8832 22.2981 19.5912 23.9685 21.7004 23.9685L21.8484 23.9657C22.6695 23.9368 23.4599 23.6464 24.1044 23.1369L24.1104 23.1309L25.7448 24.5965C25.856 24.6952 26.0011 24.7471 26.1497 24.7412C26.2982 24.7354 26.4388 24.6724 26.542 24.5653C26.5921 24.513 26.6311 24.4511 26.6568 24.3834C26.6824 24.3156 26.694 24.2434 26.691 24.1711C26.6881 24.0987 26.6705 24.0277 26.6394 23.9623C26.6083 23.8969 26.5642 23.8385 26.51 23.7905L24.488 21.9781C24.3761 21.8788 24.2299 21.827 24.0805 21.8335C23.931 21.8401 23.79 21.9046 23.6872 22.0133C23.433 22.2855 23.1253 22.5023 22.7834 22.6501C22.4416 22.7979 22.0728 22.8735 21.7004 22.8721C20.2164 22.8721 19.0116 21.6937 19.0116 20.2389C19.0116 19.5669 19.2696 18.9357 19.726 18.4525C19.7759 18.4002 19.8147 18.3383 19.8401 18.2707C19.8656 18.203 19.8771 18.1309 19.874 18.0587C19.871 17.9865 19.8534 17.9156 19.8223 17.8504C19.7912 17.7851 19.7473 17.7268 19.6932 17.6789L15.752 14.1453ZM33.3128 21.4349L33.3324 21.4077L36.0836 23.8949L36.0584 23.9245C35.4066 24.7113 35.05 25.7011 35.0504 26.7229C35.0504 29.1729 37.0668 31.1629 39.5584 31.1629L39.7096 31.1601C40.7931 31.1266 41.8286 30.7055 42.628 29.9733L42.7152 29.8901L45.5668 32.4677L45.466 32.6041C42.4836 36.5533 35.5968 40.4489 31.908 40.8021C28.408 41.1373 26.1108 40.6773 23.436 38.9301C21.8204 37.8741 18.9896 35.6349 14.956 32.2201L13.9844 31.3949C18.5612 31.8149 23.1432 29.9361 28.0876 26.3245L28.3636 26.1133C30.562 24.4193 32.1516 22.9629 33.3128 21.4349Z" fill="#0F1031"/>
<path fill-rule="evenodd" clip-rule="evenodd" d="M37.36 34.8709C37.2477 34.9879 37.1603 35.1263 37.103 35.278C37.0457 35.4296 37.0197 35.5913 37.0266 35.7533C37.0334 35.9152 37.0731 36.0741 37.143 36.2204C37.213 36.3666 37.3118 36.4971 37.4336 36.6041C37.948 37.0629 38.7488 37.0305 39.222 36.5321C39.3343 36.4153 39.4217 36.2769 39.479 36.1254C39.5362 35.9739 39.5622 35.8123 39.5554 35.6504C39.5485 35.4885 39.5089 35.3297 39.4389 35.1836C39.369 35.0375 39.2702 34.907 39.1484 34.8001C38.6344 34.3413 37.8336 34.3729 37.36 34.8709ZM33.5636 31.6013C33.4513 31.7181 33.3639 31.8565 33.3066 32.008C33.2493 32.1595 33.2232 32.3211 33.2301 32.483C33.2369 32.6448 33.2765 32.8037 33.3464 32.9498C33.4163 33.096 33.5151 33.2264 33.6368 33.3333C34.1512 33.7933 34.952 33.7605 35.4256 33.2625C35.5379 33.1456 35.6253 33.0072 35.6826 32.8556C35.7399 32.7039 35.7659 32.5423 35.759 32.3803C35.7521 32.2184 35.7124 32.0595 35.6424 31.9133C35.5724 31.7671 35.4735 31.6366 35.3516 31.5297C34.8372 31.0709 34.0368 31.1029 33.5636 31.6013ZM29.7664 28.3313C29.6542 28.4482 29.5668 28.5866 29.5096 28.7382C29.4523 28.8898 29.4263 29.0514 29.4332 29.2133C29.4401 29.3751 29.4797 29.534 29.5496 29.6801C29.6195 29.8263 29.7183 29.9568 29.84 30.0637C30.354 30.5229 31.1552 30.4905 31.628 29.9921C31.7403 29.8753 31.8278 29.737 31.8852 29.5854C31.9426 29.4338 31.9686 29.2722 31.9618 29.1103C31.9549 28.9484 31.9153 28.7895 31.8454 28.6433C31.7754 28.4972 31.6766 28.3667 31.5548 28.2597C31.0408 27.8009 30.2396 27.8329 29.7664 28.3313Z" fill="white"/>
</g>
<defs>
<clipPath id="clip0_1109_384">
<rect width="38" height="28" fill="white" transform="translate(9 14)"/>
</clipPath>
</defs>
</svg>
