<svg width="56" height="56" viewBox="0 0 56 56" fill="none" xmlns="http://www.w3.org/2000/svg">
<rect width="56" height="56" rx="28" fill="#F0F4FF"/>
<g clip-path="url(#clip0_1094_367)">
<path d="M40.6562 13H15.3438C14.0493 13 13 14.0493 13 15.3438V40.6562C13 41.9507 14.0493 43 15.3438 43H40.6562C41.9507 43 43 41.9507 43 40.6562V15.3438C43 14.0493 41.9507 13 40.6562 13Z" fill="black"/>
<path d="M16.8192 37.0825V35.0798L18.593 34.7365V22.7774L16.8192 22.4341V20.4199H18.593H23.5368L28.0801 32.0357H28.1488L32.5433 20.4199H39.2725V22.4341L37.4872 22.7774V34.7365L39.2725 35.0798V37.0825H32.3717V35.0798L34.237 34.7365V31.5436L34.2943 24.0248L34.2256 24.0134L29.2474 36.8537H26.7183L21.6257 24.1164L21.557 24.1278L21.7515 31.2002V34.7365L23.7199 35.0798V37.0825H16.8192Z" fill="white"/>
</g>
<defs>
<clipPath id="clip0_1094_367">
<rect width="30" height="30" fill="white" transform="translate(13 13)"/>
</clipPath>
</defs>
</svg>
