<svg width="56" height="56" viewBox="0 0 56 56" fill="none" xmlns="http://www.w3.org/2000/svg">
<rect width="56" height="56" rx="28" fill="#F0F4FF"/>
<g clip-path="url(#clip0_1146_375)">
<path fill-rule="evenodd" clip-rule="evenodd" d="M27.8609 43.7217C43.7217 43.7217 43.7217 40.5496 43.7217 27.8609C43.7217 15.1722 43.7217 12 27.8609 12C12 12 12 15.1722 12 27.8609C12 40.5496 12 43.7217 27.8609 43.7217Z" fill="url(#paint0_linear_1146_375)"/>
<g filter="url(#filter0_d_1146_375)">
<path d="M17.3021 25.4211L27.5387 19.29L37.7752 25.4211L27.5387 31.5521L17.3021 25.4211ZM20.9768 25.567L27.5387 29.5084L34.1006 25.567L27.5387 21.6257L20.9768 25.567Z" fill="black"/>
</g>
<path d="M17.3021 25.4211L27.5387 19.29L37.7752 25.4211L27.5387 31.5521L17.3021 25.4211ZM20.9768 25.567L27.5387 29.5084L34.1006 25.567L27.5387 21.6257L20.9768 25.567Z" fill="white"/>
<g opacity="0.75">
<g filter="url(#filter1_d_1146_375)">
<path d="M17.3021 30.5618L19.1357 29.4834L27.5387 34.4201L35.9961 29.5154L37.7752 30.5618L27.5387 36.5825L17.3021 30.5618Z" fill="black"/>
</g>
<path d="M17.3021 30.5618L19.1357 29.4834L27.5387 34.4201L35.9961 29.5154L37.7752 30.5618L27.5387 36.5825L17.3021 30.5618Z" fill="white"/>
</g>
</g>
<defs>
<filter id="filter0_d_1146_375" x="17.3021" y="19.29" width="20.4731" height="13.2617" filterUnits="userSpaceOnUse" color-interpolation-filters="sRGB">
<feFlood flood-opacity="0" result="BackgroundImageFix"/>
<feColorMatrix in="SourceAlpha" type="matrix" values="0 0 0 0 0 0 0 0 0 0 0 0 0 0 0 0 0 0 127 0" result="hardAlpha"/>
<feOffset dy="1"/>
<feColorMatrix type="matrix" values="0 0 0 0 0 0 0 0 0 0 0 0 0 0 0 0 0 0 0.27 0"/>
<feBlend mode="normal" in2="BackgroundImageFix" result="effect1_dropShadow_1146_375"/>
<feBlend mode="normal" in="SourceGraphic" in2="effect1_dropShadow_1146_375" result="shape"/>
</filter>
<filter id="filter1_d_1146_375" x="17.3021" y="29.4834" width="20.4731" height="8.09863" filterUnits="userSpaceOnUse" color-interpolation-filters="sRGB">
<feFlood flood-opacity="0" result="BackgroundImageFix"/>
<feColorMatrix in="SourceAlpha" type="matrix" values="0 0 0 0 0 0 0 0 0 0 0 0 0 0 0 0 0 0 127 0" result="hardAlpha"/>
<feOffset dy="1"/>
<feColorMatrix type="matrix" values="0 0 0 0 0 0 0 0 0 0 0 0 0 0 0 0 0 0 0.29 0"/>
<feBlend mode="normal" in2="BackgroundImageFix" result="effect1_dropShadow_1146_375"/>
<feBlend mode="normal" in="SourceGraphic" in2="effect1_dropShadow_1146_375" result="shape"/>
</filter>
<linearGradient id="paint0_linear_1146_375" x1="31.4228" y1="15.6606" x2="24.1342" y2="45.9523" gradientUnits="userSpaceOnUse">
<stop stop-color="#3D3AC4"/>
<stop offset="0.692628" stop-color="#56C5FD"/>
<stop offset="1" stop-color="#BBF8FF"/>
</linearGradient>
<clipPath id="clip0_1146_375">
<rect width="32" height="32" fill="white" transform="translate(12 12)"/>
</clipPath>
</defs>
</svg>
