<svg width="56" height="56" viewBox="0 0 56 56" fill="none" xmlns="http://www.w3.org/2000/svg">
<rect width="56" height="56" rx="28" fill="#F0F4FF"/>
<path d="M42.5305 17.7452C40.4955 14.8909 37.6559 12.6761 34.3412 11.4082C31.0638 10.1368 27.4709 9.91013 24.0469 10.6827C20.623 11.4552 17.4834 13.2538 15.0915 15.8093C12.6624 18.3682 11.0823 21.5618 10.469 25.0407C9.88936 28.4787 10.337 32.0459 11.7664 35.2578C13.1957 38.4697 15.5556 41.1807 18.5501 43.0426C21.5446 44.9045 24.9803 45.8603 28.5045 45.7551C32.0287 45.6499 35.4176 44.5046 38.3092 42.4662C42.151 39.737 44.7686 35.5813 45.5379 30.96C46.3107 26.3759 45.2224 21.5905 42.5305 17.7452ZM36.1711 13.6802C36.3435 13.5136 36.5496 13.3063 36.6847 13.1433C37.1226 13.4029 37.5605 13.6626 37.9647 13.963C38.0334 14.2949 37.9158 14.6443 37.7167 14.9262C37.5479 15.13 37.3685 15.222 37.2287 14.9344C37.0855 14.6095 36.8548 14.5559 36.5159 14.5502C36.2853 14.4966 36.0512 14.4058 35.9184 14.1927C35.9114 14.1181 36.0698 13.8025 36.1711 13.6802ZM35.1291 16.5977C35.2479 16.6618 35.4005 16.6851 35.546 16.6338C35.9758 16.4055 36.402 16.1399 36.7875 15.8405C36.9563 15.6367 37.2102 15.5377 37.4443 15.6285C37.8309 15.7426 38.2479 15.7786 38.6136 15.6691C38.942 15.5631 39.2226 15.3488 39.3845 15.0704C40.4071 15.9519 41.2912 16.9592 42.0705 18.0516C42.5061 18.6874 42.908 19.364 43.2726 20.0441L43.1235 20.0581C42.8592 20.0453 42.5948 20.0325 42.2151 19.993C42.3164 19.8707 42.4247 19.8229 42.4177 19.7484C42.4783 19.5923 42.5691 19.3582 42.5213 19.2499C42.4293 19.0706 42.2697 18.9728 42.0799 18.953C41.6665 18.9542 41.2565 18.9927 40.8943 19.1395C40.6777 19.235 40.5159 19.5134 40.2795 19.7987C40.0011 19.6369 39.753 19.397 39.5795 19.1501C39.3174 18.7611 38.9132 18.4607 38.452 18.3536C38.2587 18.2966 37.978 18.5109 37.7649 18.6437C37.2047 18.2827 36.5921 18.5658 36.0843 18.7638C35.4683 19.0097 35.1481 19.6037 34.8651 20.1942C34.7743 20.4283 34.6427 20.6286 34.4669 20.7579C34.2946 20.9244 34.0849 21.0945 33.8031 20.8954C33.4909 20.7743 33.2731 20.4564 33.2381 20.0837C33.2532 19.4432 33.2497 19.4059 33.8798 19.3091C33.9916 19.2987 34.0999 19.2509 34.2117 19.2404C34.9093 19.0621 35.1514 18.4379 34.6517 17.9208C34.2814 17.5796 34.0123 17.1161 33.8923 16.6386C33.7757 16.1984 33.4206 16.4197 33.1562 16.407L33.8921 15.4356C33.9806 15.5777 34.0657 15.6825 34.1915 15.821C34.4803 16.0947 34.8065 16.3648 35.1291 16.5977ZM18.0168 24.1442C17.0281 24.425 15.8075 24.2388 15.1939 25.3115C14.7724 26.0278 14.5407 26.7639 14.9158 27.5558C15.2944 28.3849 16.1015 28.5724 16.7944 27.9434L17.2066 27.5287L17.11 28.1017C17.0332 28.4849 17.2545 28.8401 17.6412 28.9542C18.2247 29.1626 18.3133 29.3047 18.1014 29.8509C17.4293 29.5004 16.7165 29.1162 16.0107 28.8065C15.7766 28.7156 15.5087 28.6656 15.2816 28.6493C14.6411 28.6342 14.0203 28.4293 13.5346 28.0614C13.4088 27.9228 13.3168 27.7435 13.2248 27.5641C13.0815 27.2392 12.9382 26.9143 12.7239 26.6336C12.1764 26.0083 11.5614 25.4645 11.0885 24.8321C11.9161 20.4309 14.4091 16.55 18.0378 13.9537C18.4268 13.6916 18.8157 13.4295 19.2082 13.2047C19.1814 13.32 19.1884 13.3945 19.1616 13.5098C19.1348 13.6251 19.1826 13.7334 19.2269 13.8044C19.2676 13.8382 19.4167 13.8242 19.4877 13.78C19.914 13.5144 20.4625 13.3501 20.5148 12.706C20.5416 12.5907 20.7955 12.4917 20.9748 12.3997C21.0634 12.5418 21.1484 12.6466 21.1996 12.7922C21.2544 12.975 21.3837 13.1508 21.513 13.3267C21.7238 13.5701 22.0662 13.6131 22.2723 13.4058C22.553 13.1915 22.4505 12.9003 22.3107 12.6127C22.1814 12.4368 22.1231 12.2167 22.214 11.9826C22.3083 11.7858 22.4841 11.6565 22.7042 11.5982C23.2865 11.3932 23.8758 11.2627 24.4651 11.1322C24.3568 11.1799 24.252 11.265 24.1472 11.35C23.6569 11.7344 23.8177 12.2456 24.4652 12.3352C25.0312 12.3573 25.5134 12.688 25.8198 13.148C25.864 13.219 25.9526 13.3611 25.9188 13.4019C25.6149 13.7688 25.304 14.0611 24.9558 14.357C24.851 14.442 24.5388 14.3209 24.3758 14.1859C24.2977 14.1556 24.307 13.8539 24.4083 13.7316C24.6377 13.3717 24.6808 13.0293 24.2801 12.7662C23.9167 12.4995 23.4695 12.5415 23.1178 12.8001C22.7428 13.2112 22.2048 13.4873 22.0372 14.1046C21.9056 14.3049 21.689 14.4005 21.4654 14.4214C20.4789 14.3261 19.7348 14.8095 19.1199 15.4687C18.9138 15.676 18.8265 15.9474 18.8882 16.2048C18.95 16.4622 19.1573 16.6683 19.4287 16.7556C19.6255 16.8499 19.8596 16.9407 20.053 16.9978C20.3954 17.0408 20.647 17.318 20.7157 17.6499C20.7705 17.8327 20.937 18.0051 21.1269 18.0249C21.3167 18.0446 21.5333 17.9491 21.6276 17.7523C22.0189 17.114 22.6477 16.6038 22.7233 15.8072C22.7256 15.431 23.0365 15.1387 23.4092 15.1037C23.6666 15.0419 23.9415 15.1665 24.0405 15.4204C24.1838 15.7453 24.5402 15.9374 24.9059 15.8279C25.126 15.7697 25.2483 15.871 25.3811 16.0841C25.4801 16.338 25.6501 16.5476 25.854 16.7164C26.0578 16.8853 26.1941 17.1357 26.1848 17.4373C26.2093 17.6982 26.3083 17.9521 26.3666 18.1722L26.4726 18.5006C26.3608 18.5111 26.2187 18.5996 26.1407 18.5693C26.0592 18.5018 26.0114 18.3935 26.0009 18.2817C26.0265 17.7529 25.9007 17.6144 25.3789 17.6633L24.6336 17.7333C24.0745 17.7858 23.8381 18.0711 23.8906 18.6301C23.9151 18.891 24.0246 19.2567 23.9303 19.4535C23.7952 19.6166 23.4191 19.6143 23.1244 19.6796C23.0126 19.6901 22.867 19.7413 22.7622 19.8264C22.0763 20.5299 21.1086 21.0343 20.7221 22.1232C20.601 22.4354 20.4018 22.7172 20.1585 22.9281C19.6007 23.394 18.9578 23.7551 18.9672 24.6565C18.7704 24.5622 18.6108 24.4644 18.414 24.3701C18.322 24.1907 18.1694 24.1675 18.0168 24.1442ZM30.9467 34.9237C30.4134 35.6505 30.2329 36.5322 30.3542 37.4231C30.4614 38.1649 30.225 38.4503 29.5414 38.7777C29.2503 38.8802 29.0069 39.091 28.8043 39.3356C28.6016 39.5802 28.5178 39.8888 28.5085 40.1905C28.4119 40.7635 28.2408 41.3435 27.9916 41.8932C27.9311 42.0493 27.7925 42.1751 27.6504 42.2636C27.329 42.4442 27.1334 42.7633 27.1276 43.1022C27.1078 43.292 27.01 43.4516 26.9087 43.5739C26.4627 44.0293 26.2135 44.5791 26.1204 45.1894C25.4729 45.0997 24.8254 45.0101 24.2081 44.8425C24.0986 44.4768 24.0263 44.1076 23.9203 43.7792C23.9098 43.6674 23.9366 43.5521 23.9261 43.4403C23.9319 43.1014 23.9376 42.7625 23.8689 42.4306C23.7652 41.726 23.5904 41.0657 23.4867 40.3611C23.4214 40.0664 23.3969 39.8056 23.4062 39.5039C23.4015 39.0532 23.285 38.613 23.0264 38.2613C22.7678 37.9096 22.4009 37.6057 21.9735 37.4578C21.6986 37.3332 21.4913 37.1271 21.3177 36.8802C20.8926 36.3562 20.4977 35.7541 20.1436 35.1858C19.9257 34.8679 19.7755 34.4685 19.737 34.0585C19.6985 33.6486 19.7753 33.2654 19.9639 32.8717C20.092 32.6341 20.2166 32.3593 20.3412 32.0844C20.432 31.8503 20.4483 31.6232 20.3865 31.3658C19.9369 30.5809 20.702 30.3211 21.0432 29.9507C21.2121 29.7469 21.4287 29.6514 21.6896 29.6269C21.9504 29.6024 22.1845 29.6932 22.3511 29.8655C22.5107 29.9633 22.7413 30.0169 22.9241 29.9621C23.5844 29.7874 24.0701 30.1553 24.5861 30.4453C24.9833 30.6712 25.4142 30.8563 25.8381 30.9669C26.0652 30.9832 26.2621 31.0775 26.4251 31.2126C26.5882 31.3476 26.7175 31.5235 26.813 31.7401C26.912 31.994 27.0483 32.2443 27.2522 32.4132C27.456 32.582 27.6936 32.7101 27.9987 32.7567C28.623 32.9988 29.2403 33.1665 29.8878 33.2561C30.3118 33.3667 30.6717 33.5961 30.964 33.907C31.2226 34.2587 31.1866 34.6756 30.9467 34.9237ZM29.9334 14.1153C29.768 14.3564 29.6399 14.594 29.294 14.5137C28.9516 14.4707 28.7 14.1935 28.6686 13.8581C28.6126 13.2618 28.5939 12.662 28.6125 12.0587C28.6741 11.1131 28.3374 10.7311 27.4058 10.8185C27.1821 10.8395 26.9958 10.857 26.8025 10.8C29.1573 10.6541 31.5542 10.9555 33.7729 11.7623C33.6308 11.8509 33.448 11.9056 33.3059 11.9942C32.8389 12.226 32.3719 12.4578 31.9049 12.6896C31.7629 12.7781 31.6208 12.8667 31.4752 12.9179C30.8149 13.0927 30.2909 13.5178 29.9334 14.1153ZM41.1261 39.2317C41.0783 39.1234 41.0305 39.0151 41.02 38.9033C40.8313 38.0939 40.5342 37.3322 40.1696 36.6521C39.989 36.3307 39.9506 35.9208 40.0682 35.5714C40.5187 34.3636 40.0446 33.3178 39.3574 32.4048C39.058 32.0194 38.8972 31.5081 38.8518 31.0236C38.8121 30.2002 38.7305 30.1327 37.9234 29.9453C37.8081 29.9185 37.6928 29.8917 37.6113 29.8242C37.0406 29.3514 36.492 29.5157 35.876 29.7615C35.2564 29.97 34.6299 30.104 33.9963 30.1635C33.8472 30.1775 33.7284 30.1135 33.6061 30.0122C33.0249 29.4276 32.4437 28.843 31.93 28.1769C31.76 27.9673 31.7995 27.5876 31.8123 27.3232C31.8181 26.9843 31.8239 26.6454 31.7924 26.31C31.6374 25.4598 31.8958 24.6085 32.5177 24.0237C32.8251 23.6941 33.051 23.2969 33.2361 22.866C33.4748 22.2045 33.7915 21.5732 34.6859 21.4892C35.5804 21.4053 36.3793 21.1047 37.2294 20.9497C37.4158 20.9322 37.5753 21.03 37.6639 21.1721C37.7256 21.4295 37.8619 21.6799 38.0657 21.8487C38.2696 22.0176 38.5444 22.1422 38.8088 22.1549C39.0022 22.212 39.1582 22.2725 39.3178 22.3703C39.6707 22.5252 40.0806 22.4867 40.3543 22.1979C40.5942 21.9498 40.9669 21.9148 41.279 22.0359C41.9743 22.2338 42.7267 22.2383 43.4545 21.982C43.6746 21.9238 43.8842 21.7537 44.0158 21.5534C44.2069 21.9866 44.3607 22.4233 44.4772 22.8636C44.3619 22.8368 44.2093 22.8135 44.0637 22.8648C43.9892 22.8718 43.9799 23.1734 43.9939 23.3225C44.0079 23.4715 44.0964 23.6136 44.1849 23.7557C44.4168 24.2227 44.6858 24.6862 44.9887 25.1089L45.033 25.1799C45.4537 27.6594 45.3154 30.1913 44.6413 32.6232C43.9673 35.055 42.7878 37.3087 41.1261 39.2317Z" fill="#FF8333"/>
<path d="M29.7756 46.916C19.3453 47.895 10.0631 40.2058 9.08403 29.7756C8.10499 19.3453 15.7942 10.0631 26.2244 9.08403C36.6547 8.10499 45.9369 15.7942 46.916 26.2244C47.895 36.6547 40.2058 45.9369 29.7756 46.916ZM26.3873 10.8191C16.9137 11.7083 9.92985 20.1391 10.8191 29.6127C11.7083 39.0863 20.1391 46.0702 29.6127 45.1809C39.0863 44.2917 46.0702 35.8608 45.1809 26.3873C44.2917 16.9138 35.8608 9.92985 26.3873 10.8191Z" fill="#FF8333"/>
</svg>
