<svg width="56" height="56" viewBox="0 0 56 56" fill="none" xmlns="http://www.w3.org/2000/svg">
<rect width="56" height="56" rx="28" fill="#F0F4FF"/>
<g clip-path="url(#clip0_1087_365)">
<path d="M40.1 14H16.9C15.2984 14 14 15.2984 14 16.9V40.1C14 41.7016 15.2984 43 16.9 43H40.1C41.7016 43 43 41.7016 43 40.1V16.9C43 15.2984 41.7016 14 40.1 14Z" fill="#00B36D"/>
<path fill-rule="evenodd" clip-rule="evenodd" d="M37.9415 21.3264V26.8753C37.4485 25.6835 36.3195 24.8771 35.0332 24.7984C34.6675 24.7709 34.299 24.8063 33.9436 24.902L20.7296 28.4448C20.6444 28.4697 20.5565 28.4841 20.4687 28.4881C20.4084 28.4985 20.348 28.5038 20.2877 28.5038C19.6728 28.5064 19.1719 28.0121 19.1654 27.3972C19.1575 27.3447 19.1536 27.2923 19.1536 27.2386V25.3609V25.2363C19.1562 25.2023 19.1588 25.1682 19.1654 25.1354V25.1066C19.1654 25.0974 19.1785 25.0423 19.1863 25.0095C19.189 24.9964 19.1916 24.9833 19.1955 24.9702C19.1955 24.9452 19.2086 24.9191 19.2165 24.8941C19.2244 24.8693 19.2335 24.8417 19.244 24.8154C19.2493 24.805 19.2545 24.7932 19.2571 24.7827C19.4407 24.3172 19.8354 23.9658 20.3192 23.8374L35.8055 19.6901C35.9091 19.6612 36.0166 19.6416 36.1241 19.6311C36.2028 19.614 36.2841 19.6048 36.364 19.5996H36.4349C37.2623 19.5996 37.9323 20.2696 37.9323 21.097C37.9323 21.0996 37.9323 21.1022 37.9323 21.1048V21.1337C37.9375 21.194 37.9415 21.2582 37.9415 21.3264Z" fill="white"/>
<path fill-rule="evenodd" clip-rule="evenodd" d="M34.3657 27.0143H34.1534C33.9475 27.0143 33.743 27.0418 33.5449 27.0943L31.493 27.645L20.4004 30.6201C20.23 30.6462 20.0661 30.7053 19.9166 30.7918H19.8996C19.438 31.0607 19.1548 31.5537 19.1535 32.0873V37.7633C19.1522 37.7975 19.1784 37.8276 19.2125 37.8289C19.2374 37.8289 19.261 37.8158 19.2728 37.7922C19.7947 36.8272 20.542 36.0025 21.4533 35.3888C21.8532 35.1056 22.2898 34.8774 22.7514 34.7109C22.8943 34.6585 23.0385 34.6139 23.1867 34.572L23.9668 34.3609L34.5637 31.5221L34.7828 31.4618C34.8902 31.4435 34.9951 31.4147 35.0974 31.3779C36.2696 30.9662 36.8858 29.6838 36.4741 28.5117C36.1581 27.6122 35.3098 27.0104 34.3579 27.0078L34.3671 27.0117L34.3657 27.0143Z" fill="white"/>
</g>
<defs>
<clipPath id="clip0_1087_365">
<rect width="29" height="29" fill="white" transform="translate(14 14)"/>
</clipPath>
</defs>
</svg>
