<svg width="56" height="56" viewBox="0 0 56 56" fill="none" xmlns="http://www.w3.org/2000/svg">
<rect width="56" height="56" rx="28" fill="#F0F4FF"/>
<g clip-path="url(#clip0_1056_353)">
<path fill-rule="evenodd" clip-rule="evenodd" d="M42 35.4492L38.4241 38.6917L38.053 39.7726C37.6819 40.8534 37.3108 42.0356 36.906 43.2516L33.4988 45.9875L33.3639 45.751L33.2289 45.5146C32.7229 44.5689 32.2169 43.5893 31.7108 42.6436L31.5759 42.4072L31.441 42.1707L31.2048 42.272C29.3494 43.1502 27.494 44.0622 25.6048 44.9404L25.2675 45.1093L24.9301 45.2782L24.5928 45.447L24.2554 45.6159L23.9181 45.7848L23.5807 45.9537L23.2434 46.1226L22.906 46.2915L22.5349 46.4603L22.1639 46.6292L22.0289 46.3252C19.6 40.7521 17.0361 35.179 14.4723 29.6396L14.2361 29.133L14 28.5925L14.7759 23.4585C19.7687 23.4585 23.8843 23.4585 27.359 23.4585H29.3157L28.8434 24.438H27.3928C24.4578 24.438 20.9494 24.438 16.6988 24.438C17.9133 27.0726 19.1614 29.8085 20.4771 32.6457C21.8265 35.5843 23.2434 38.658 24.694 41.833C26.5494 40.9548 28.2361 40.1441 29.7542 39.401C31.1374 38.7255 32.4193 38.1175 33.5663 37.5771C34.2072 38.7931 34.8482 40.009 35.5229 41.2588C35.8602 40.2117 36.1976 39.2322 36.5012 38.2864C36.8048 37.4082 37.0747 36.5638 37.3108 35.7869C37.7831 35.5843 38.2217 35.3478 38.6265 35.1452C39.0313 34.9425 39.4361 34.7736 39.8072 34.571C38.7614 32.7808 37.7494 31.0244 36.7373 29.3018C36.0964 28.1872 35.4217 27.0726 34.7807 25.958L35.5229 24.438C36.4337 25.9917 37.3446 27.613 38.2892 29.2343C39.5711 31.2947 40.7855 33.355 42 35.4492Z" fill="#016AFE"/>
<path fill-rule="evenodd" clip-rule="evenodd" d="M26.88 31.4765L33.6 16.4146L36.2133 18.407L29.0182 33.0975L26.88 31.4765Z" fill="#016AFE"/>
<path opacity="0.402134" fill-rule="evenodd" clip-rule="evenodd" d="M37.2148 10.8848C37.9901 10.9807 38.7008 11.2684 39.3146 11.684C40.0576 12.611 40.4453 13.7937 40.2838 15.0723C39.9607 17.5336 37.6994 19.2917 35.2119 18.9721C34.4366 18.8762 33.7259 18.5885 33.1121 18.1729C32.3691 17.2459 31.9814 16.0632 32.143 14.7846C32.466 12.3233 34.7273 10.5971 37.2148 10.8848Z" fill="#016AFE"/>
<path opacity="0.400112" d="M28.56 33.4681C29.4878 33.4681 30.24 32.6381 30.24 31.6144C30.24 30.5907 29.4878 29.7607 28.56 29.7607C27.6322 29.7607 26.88 30.5907 26.88 31.6144C26.88 32.6381 27.6322 33.4681 28.56 33.4681Z" fill="#016AFE"/>
<path opacity="0.103934" fill-rule="evenodd" clip-rule="evenodd" d="M35.113 19.5659L33.4782 23.1388L32.9437 24.2967L30.24 30.1523C30.6173 30.3838 30.8688 30.8139 30.9316 31.244L34.0755 24.429L34.61 23.2711L36.2133 19.8306C36.1504 19.8306 36.0876 19.8306 36.0247 19.7975C35.7103 19.7313 35.3959 19.6652 35.113 19.5659Z" fill="black"/>
<path fill-rule="evenodd" clip-rule="evenodd" d="M29.8666 34.2505C29.6255 34.3872 29.3844 34.4897 29.1088 34.5238C28.8332 34.5922 28.5577 34.5922 28.3165 34.558C27.6276 34.4897 27.042 34.1139 26.6631 33.6357C26.2842 33.1232 26.0775 32.4742 26.1464 31.8251C26.1809 31.4494 26.3531 31.0736 26.5598 30.732C26.7665 30.4245 27.0765 30.1513 27.4209 29.9463L27.5243 30.1513C27.2143 30.3221 26.9387 30.5612 26.7665 30.8686C26.5598 31.1419 26.4564 31.4835 26.3876 31.8593C26.3187 32.4742 26.4909 33.0549 26.8354 33.499C27.1798 33.9431 27.731 34.2847 28.351 34.353C28.5921 34.3872 28.8332 34.3872 29.0744 34.3189C29.3155 34.2847 29.5566 34.1822 29.7633 34.0456L29.8666 34.2505Z" fill="#016AFE"/>
<path fill-rule="evenodd" clip-rule="evenodd" d="M30.24 13.8685C30.4357 12.9144 30.8272 12.0625 31.3491 11.2788C31.8711 10.4951 32.5561 9.84765 33.339 9.37061L33.6 9.84765C32.8823 10.2906 32.2299 10.904 31.7732 11.6195C31.2839 12.3351 30.925 13.1529 30.7619 14.0048L30.24 13.8685Z" fill="#016AFE"/>
<path fill-rule="evenodd" clip-rule="evenodd" d="M28.5601 12.1646C28.7778 11.5798 29.0267 10.9951 29.3689 10.4791C29.6801 9.96314 30.0534 9.44717 30.4578 9L30.8001 9.37838C30.4267 9.79115 30.0534 10.2727 29.7734 10.7543C29.4623 11.2359 29.2134 11.7862 29.0267 12.3366L28.5601 12.1646Z" fill="#016AFE"/>
<path opacity="0.399693" fill-rule="evenodd" clip-rule="evenodd" d="M33.2267 29.3362C34.5878 32.5341 35.9829 36.6745 35.8809 40.1417L36.4253 38.5259L37.242 36.0349L38.569 35.3953L39.76 34.8231L36.6635 29.5718L34.6899 26.2393L33.2267 29.3362Z" fill="#016AFE"/>
<path d="M36.3999 20.1218C38.9773 20.1218 41.0666 18.047 41.0666 15.4877C41.0666 12.9283 38.9773 10.8535 36.3999 10.8535C33.8226 10.8535 31.7333 12.9283 31.7333 15.4877C31.7333 18.047 33.8226 20.1218 36.3999 20.1218Z" fill="#016AFE"/>
</g>
<defs>
<clipPath id="clip0_1056_353">
<rect width="28" height="38" fill="white" transform="translate(14 9)"/>
</clipPath>
</defs>
</svg>
