<svg width="56" height="56" viewBox="0 0 56 56" fill="none" xmlns="http://www.w3.org/2000/svg">
<rect width="56" height="56" rx="28" fill="#F0F4FF"/>
<g clip-path="url(#clip0_996_329)">
<path d="M27.7727 20.1225C29.92 20.265 32.3151 18.1268 32.1775 15.4757C32.067 12.9957 30.1951 11 27.8002 11C25.3225 11.0286 23.3955 13.0239 23.3955 15.6182C23.3955 18.1272 25.4049 20.1225 27.7727 20.1225Z" fill="#F54EAC"/>
<path d="M16.7455 32.3619C16.7403 32.359 16.8258 32.4168 16.8282 32.419L16.8279 32.4182C23.2321 24.9518 28.2121 28.3868 31.3647 32.8718C32.0251 32.8996 32.6178 32.9512 33.1168 33.0078C30.04 26.7165 23.8939 21.7993 16.7455 32.3619Z" fill="#005AEE"/>
<path d="M35.2146 40.6066L35.2153 40.6063C35.1821 39.418 34.9232 37.9696 34.4669 36.4545L33.4065 36.3306C34.558 38.6262 35.1801 40.5239 35.2146 40.6066Z" fill="#005AEE"/>
<path d="M34.7372 33.2685C34.8168 33.2903 35.9492 33.6053 37.1835 34.1109C36.9266 32.3235 36.4473 30.0345 35.5651 28.2967C34.9955 27.1745 34.4088 25.9874 33.5829 25.0181C32.6469 23.9348 31.6007 22.9656 30.3344 22.3098C29.3157 21.7966 28.2698 21.4831 27.1684 21.4259C25.4065 21.3688 23.7823 21.8534 22.2956 22.766C20.451 23.9063 19.0196 25.5312 17.8081 27.3842C16.7346 29.0377 15.9359 30.8338 15.3028 32.7438C15.1928 33.086 15.11 33.4281 15 33.7702C15.0366 33.7892 15.0641 33.7987 15.0828 33.7987C15.1379 33.7702 15.8811 32.3448 16.239 31.7177C17.2026 30.1212 18.3313 28.6959 19.7627 27.527C21.277 26.3012 22.9288 25.5312 24.8834 25.446C26.6176 25.3606 28.2064 25.8156 29.6185 26.8426C31.7359 28.3831 33.1819 30.8167 34.1533 33.1528C34.4596 33.2042 34.6612 33.2473 34.7344 33.2674L34.7372 33.2685Z" fill="#0059ED"/>
<path d="M35.9767 39.6419C36.1237 40.535 36.2337 41.4281 36.307 42.3215C36.3622 43.2054 36.3622 44.0889 36.3898 44.9442C36.3898 45.4861 36.3898 45.1647 36.3898 45.7061C37.3147 42.5789 37.6507 40.3382 37.4726 37.0671C36.7716 36.8711 36.053 36.7103 35.3129 36.5835C35.7505 38.2069 35.935 39.4118 35.9767 39.6419Z" fill="#0059ED"/>
<path d="M39.2071 36.0075C37.7642 34.8408 34.5613 33.9594 34.5613 33.9594C34.3095 33.8911 32.5964 33.5654 30.3324 33.5654C27.9071 33.5654 24.8493 33.939 22.2764 35.404C21.8767 35.6319 21.4767 35.8597 21.0777 36.1187C20.369 36.6133 19.6538 37.1394 18.932 37.6962C18.5337 37.9861 18.1602 38.3684 17.7854 38.6886C17.7857 38.7094 17.7864 38.73 17.7868 38.7509C17.9202 38.6851 18.0537 38.6193 18.1871 38.554C18.7872 38.2276 19.3872 37.9015 19.9883 37.6061C20.7235 37.2761 21.436 36.9468 22.1743 36.7412C23.2919 36.4012 24.4114 36.1229 25.5097 35.9076C26.5267 35.7357 27.5374 35.6262 28.5423 35.5786C29.1057 35.5483 29.6699 35.5404 30.2315 35.5404C30.8132 35.5404 31.3921 35.5487 31.9653 35.5493L32.2805 35.5411C32.2839 35.5411 32.2877 35.5411 32.2923 35.5411C32.4311 35.5411 33.1147 35.5811 33.1147 35.5811L34.6282 35.758C37.0919 36.0958 39.5196 36.8068 41.9398 38.1075C41.8925 38.0151 39.9861 36.5454 39.2071 36.0075Z" fill="#F54EAC"/>
</g>
<defs>
<clipPath id="clip0_996_329">
<rect width="27" height="35" fill="white" transform="translate(15 11)"/>
</clipPath>
</defs>
</svg>
