<svg width="56" height="56" viewBox="0 0 56 56" fill="none" xmlns="http://www.w3.org/2000/svg">
<rect width="56" height="56" rx="28" fill="#F0F4FF"/>
<g clip-path="url(#clip0_1026_337)">
<path d="M26.1368 30.169L13.7966 18.2788C12.7435 17.2727 12.73 15.6133 13.7831 14.5941L14.5527 13.8493C15.6058 12.8302 17.3205 12.8171 18.3736 13.8363L28.027 23.1394L37.613 13.7709C38.6661 12.7518 40.3673 12.7387 41.4339 13.7579L42.2035 14.4896C43.2566 15.5087 43.2701 17.1551 42.217 18.1873L29.9577 30.156C28.9181 31.1882 27.2035 31.1882 26.1368 30.169C26.1368 30.1821 26.1368 30.1821 26.1368 30.169Z" fill="#239CEF"/>
<path d="M31.1053 33.135C29.4311 34.7813 26.6903 34.7813 24.9892 33.1611L19.0756 27.4512C16.0243 32.2465 17.5499 38.5313 22.5049 41.4843C27.4599 44.4373 33.9406 42.9608 36.9919 38.1655C39.0981 34.8597 39.0846 30.6916 36.9514 27.3989L31.1053 33.135Z" fill="#094168"/>
</g>
<defs>
<clipPath id="clip0_1026_337">
<rect width="30" height="30" fill="white" transform="translate(13 13)"/>
</clipPath>
</defs>
</svg>
