<svg width="56" height="56" viewBox="0 0 56 56" fill="none" xmlns="http://www.w3.org/2000/svg">
<rect width="56" height="56" rx="28" fill="#F0F4FF"/>
<g clip-path="url(#clip0_460_439)">
<path d="M51.8322 21.7627H49.998L53.1657 25.2817L50.0317 28.7737H51.8659L54.9999 25.2817L51.8322 21.7627Z" fill="#E54360"/>
<path d="M8.65927 25.2232C8.65927 25.8172 8.56299 26.3167 8.37523 26.7622C8.18748 27.2077 7.93234 27.5902 7.6146 27.9142C7.29687 28.2112 6.91656 28.4452 6.50736 28.6252C6.09815 28.7737 5.68414 28.8637 5.24124 28.8637C4.79834 28.8637 4.13399 28.7467 3.71998 28.5082C3.30596 28.2697 2.99305 27.9772 2.70901 27.6487V30.8167H1V21.7627H2.70901V22.9147C2.99305 22.5592 3.31078 22.2352 3.71998 21.9967C4.12918 21.7312 4.63948 21.6142 5.24124 21.6142C5.84301 21.6142 6.09815 21.7042 6.50736 21.8527C6.91656 22.0012 7.29687 22.2352 7.6146 22.5637C7.93234 22.8607 8.21637 23.2432 8.40412 23.6887C8.59187 24.1342 8.65927 24.6337 8.65927 25.2277V25.2232ZM6.92137 25.2232C6.92137 24.8677 6.85879 24.5707 6.7625 24.3052C6.63734 24.0397 6.50736 23.8012 6.28591 23.5942C6.09815 23.3872 5.87671 23.2387 5.62156 23.1487C5.36641 23.0317 5.08238 23.0002 4.79834 23.0002C4.51431 23.0002 4.23028 23.0587 3.97513 23.1487C3.71998 23.2657 3.46964 23.4142 3.27708 23.6212C3.08933 23.8282 2.93046 24.0352 2.80048 24.3322C2.67531 24.5977 2.64162 24.9262 2.64162 25.2502C2.64162 25.5742 2.7042 25.9027 2.80048 26.1682C2.92565 26.4337 3.08451 26.6722 3.27708 26.8792C3.46964 27.0862 3.68628 27.2347 3.97513 27.3247C4.23028 27.4417 4.51431 27.4732 4.79834 27.4732C5.08238 27.4732 5.36641 27.4147 5.62156 27.3247C5.87671 27.2077 6.09815 27.0592 6.28591 26.8792C6.47366 26.6722 6.63252 26.4652 6.7625 26.1682C6.88767 25.9027 6.92137 25.5742 6.92137 25.2232ZM16.1597 28.6837H14.4844V27.8242C14.2292 28.0897 13.9163 28.3282 13.5023 28.5352C13.122 28.7422 12.6165 28.8322 12.0773 28.8322C11.5381 28.8322 11.3792 28.7737 11.0663 28.6837C10.7534 28.5937 10.4646 28.4767 10.2094 28.3012C9.98796 28.1257 9.80021 27.8872 9.64135 27.6217C9.51618 27.3562 9.4199 27.0277 9.4199 26.6767C9.4199 26.2627 9.48248 25.9387 9.64135 25.6687C9.80021 25.3987 9.98797 25.1647 10.2768 24.9577C10.5608 24.7822 10.8786 24.6337 11.2252 24.5437C11.6055 24.4537 12.0147 24.3952 12.4287 24.3952C12.8427 24.3952 13.2519 24.3952 13.5697 24.4852C13.8874 24.5437 14.2051 24.6022 14.4892 24.6922V24.5167C14.4892 24.0442 14.3303 23.6572 14.0126 23.4232C13.6948 23.1577 13.2519 23.0407 12.6502 23.0407C12.0484 23.0407 11.8607 23.0722 11.5092 23.1577C11.1915 23.2477 10.8449 23.3332 10.4983 23.4817L10.0217 22.2082C10.4309 22.0327 10.8449 21.8842 11.2878 21.7942C11.7307 21.6772 12.2362 21.6457 12.8379 21.6457C13.9452 21.6457 14.7684 21.9112 15.3076 22.4152C15.8468 22.9192 16.0971 23.6302 16.0971 24.5752V28.6882H16.1597V28.6837ZM14.5181 26.1727V25.7272C14.2966 25.6372 14.0415 25.5787 13.7574 25.5202C13.4734 25.4617 13.1557 25.4302 12.8379 25.4302C12.2987 25.4302 11.8895 25.5202 11.5718 25.7272C11.2878 25.9342 11.1289 26.1997 11.1289 26.5552C11.1289 26.9107 11.2541 27.1762 11.5381 27.3562C11.8221 27.5317 12.1736 27.6217 12.5491 27.6217C12.9246 27.6217 13.0883 27.5902 13.3097 27.5047C13.5649 27.4462 13.7526 27.3292 13.9452 27.2077C14.1377 27.0862 14.2629 26.9107 14.3544 26.7352C14.4458 26.5597 14.5132 26.3527 14.5132 26.1412V26.1727H14.5181ZM24.5507 21.7627L21.6093 28.8952C21.4504 29.2507 21.2915 29.5477 21.1327 29.8132C20.9738 30.0517 20.786 30.2587 20.5935 30.4072C20.4009 30.5557 20.1843 30.6727 19.958 30.7627C19.7366 30.8212 19.4525 30.8797 19.1685 30.8797C18.8845 30.8797 18.5041 30.8482 18.2201 30.7627C17.9361 30.7042 17.6809 30.5872 17.4306 30.4657L17.9987 29.2822C18.1575 29.3722 18.3164 29.4307 18.4753 29.4577C18.6341 29.5162 18.8219 29.5477 18.9807 29.5477C19.1396 29.5477 19.4236 29.4892 19.5825 29.3722C19.7414 29.2552 19.9002 29.0482 20.0254 28.7512L16.9251 21.8257H18.7304L20.8534 26.9737L22.7839 21.8257H24.5555V21.7672L24.5507 21.7627ZM36.8652 28.6837H35.1899V27.8242C34.9347 28.0897 34.6218 28.3282 34.2078 28.5352C33.8275 28.7422 33.322 28.8322 32.7828 28.8322C32.2436 28.8322 32.0848 28.7737 31.7719 28.6837C31.4589 28.5937 31.1701 28.4767 30.915 28.3012C30.6935 28.1257 30.5058 27.8872 30.3469 27.6217C30.2217 27.3562 30.1254 27.0277 30.1254 26.6767C30.1254 26.2627 30.188 25.9387 30.3469 25.6687C30.5058 25.3987 30.6935 25.1647 30.9823 24.9577C31.2664 24.7822 31.5841 24.6337 31.9307 24.5437C32.311 24.4537 32.7202 24.3952 33.1343 24.3952C33.5483 24.3952 33.9575 24.3952 34.2752 24.4852C34.5929 24.5437 34.9107 24.6022 35.1947 24.6922V24.5167C35.1947 24.0442 35.0358 23.6572 34.7181 23.4232C34.4004 23.1577 33.9575 23.0407 33.3557 23.0407C32.7539 23.0407 32.5662 23.0722 32.2148 23.1577C31.897 23.2477 31.5504 23.3332 31.2038 23.4817L30.7272 22.2082C31.1364 22.0327 31.5504 21.8842 31.9933 21.7942C32.4362 21.6772 32.9417 21.6457 33.5435 21.6457C34.6507 21.6457 35.4739 21.9112 36.0131 22.4152C36.5523 22.9192 36.8026 23.6302 36.8026 24.5752V28.6882H36.8652V28.6837ZM35.2188 26.1727V25.7272C34.9973 25.6372 34.7422 25.5787 34.4581 25.5202C34.1741 25.4617 33.8564 25.4302 33.5386 25.4302C32.9995 25.4302 32.5903 25.5202 32.2725 25.7272C31.9548 25.9342 31.8296 26.1997 31.8296 26.5552C31.8296 26.9107 31.9548 27.1762 32.2388 27.3562C32.5229 27.5317 32.8743 27.6217 33.2498 27.6217C33.6253 27.6217 33.789 27.5902 34.0104 27.5047C34.2656 27.4462 34.4533 27.3292 34.6459 27.2077C34.8385 27.0862 34.9636 26.9107 35.0551 26.7352C35.1466 26.5597 35.214 26.3527 35.214 26.1412V26.1727H35.2188ZM43.6387 26.6452C43.6387 27.0007 43.5761 27.3247 43.4172 27.5902C43.2921 27.8557 43.0706 28.0942 42.8155 28.2697C42.5603 28.4452 42.2763 28.5937 41.9297 28.6837C41.583 28.7737 41.2316 28.8007 40.8513 28.8007C40.471 28.8007 39.7729 28.7107 39.2049 28.5352C38.6657 28.3597 38.1602 28.0897 37.6836 27.7657L38.4442 26.6992C38.8534 26.9647 39.2675 27.2032 39.6767 27.3517C40.0859 27.5002 40.4999 27.5587 40.8802 27.5587C41.2605 27.5587 41.5156 27.5002 41.7371 27.3517C41.9585 27.2032 42.0548 27.0277 42.0548 26.7892C42.0548 26.6407 42.0211 26.5237 41.9297 26.4337C41.8334 26.3437 41.7082 26.2582 41.5493 26.1952C41.3905 26.1052 41.2316 26.0467 41.0102 25.9882C40.8224 25.9297 40.601 25.8712 40.3747 25.8127C40.0907 25.7227 39.8355 25.6372 39.5515 25.5472C39.2675 25.4572 39.046 25.3402 38.7909 25.1917C38.5694 25.0432 38.4105 24.8362 38.2517 24.6292C38.1265 24.3907 38.0302 24.1252 38.0302 23.8012C38.0302 23.4457 38.0928 23.1487 38.218 22.8832C38.3431 22.6177 38.5357 22.4107 38.786 22.2037C39.0412 22.0282 39.3252 21.8797 39.643 21.7897C39.9607 21.6997 40.3073 21.6412 40.6876 21.6412C41.0679 21.6412 41.636 21.6997 42.1126 21.8482C42.5892 21.9967 43.0321 22.1722 43.4124 22.4422L42.7481 23.5672C42.4014 23.3602 42.0211 23.2117 41.6697 23.0947C41.2894 22.9777 40.9717 22.9192 40.6587 22.9192C40.3458 22.9192 40.057 22.9777 39.8981 23.1262C39.7104 23.2432 39.643 23.4232 39.643 23.6302C39.643 23.7787 39.6767 23.8957 39.7681 23.9857C39.8644 24.0757 39.9896 24.1612 40.1484 24.2242C40.3073 24.2872 40.4951 24.3727 40.6876 24.4312C40.9091 24.4897 41.0968 24.5482 41.3231 24.6067C41.6071 24.6967 41.8623 24.7822 42.1463 24.8722C42.4303 24.9892 42.6518 25.1107 42.8732 25.2547C43.0947 25.3987 43.2824 25.5787 43.4124 25.8172C43.5376 26.0242 43.6339 26.2897 43.6339 26.6182V26.6497L43.6387 26.6452ZM46.325 23.1217V26.5237C46.325 26.8207 46.4212 27.0547 46.5801 27.2032C46.739 27.3202 46.9604 27.4102 47.2445 27.4102C47.5285 27.4102 47.9714 27.3202 48.2891 27.1717V28.4722C48.0677 28.5892 47.8462 28.6792 47.5911 28.7377C47.3359 28.7962 47.0519 28.8277 46.7342 28.8277C46.4164 28.8277 46.1324 28.7962 45.8772 28.7107C45.6221 28.6522 45.3718 28.5352 45.1792 28.3552C44.9914 28.2067 44.8326 27.9997 44.7363 27.7342C44.64 27.4687 44.5774 27.1402 44.5774 26.7577V23.1172V21.7582V19.8682H46.2864V21.7627H48.2795V23.1217H46.2864H46.3201H46.325Z" fill="#0069B1"/>
<path d="M27.8868 21.7809H29.851V23.0949H27.9157V28.6569H26.2163V23.0949H25.2776V21.7719H26.2163V21.2724C26.2163 20.5029 26.4137 19.9359 26.8037 19.5669C27.1984 19.1889 27.7569 19.0044 28.4886 19.0044C28.7871 19.0044 29.047 19.0224 29.2589 19.0584C29.4755 19.0944 29.6729 19.1349 29.8606 19.1889V20.5254C29.6921 20.4714 29.5285 20.4354 29.3696 20.4084C29.2204 20.3724 29.0519 20.3544 28.8641 20.3544C28.2094 20.3544 27.882 20.7054 27.882 21.4029V21.7854L27.8868 21.7809Z" fill="#0069B1"/>
<path d="M33.4423 34.0523C33.4423 33.9443 33.423 33.8453 33.3845 33.7508C33.3508 33.6563 33.2979 33.5753 33.2305 33.5078C33.1631 33.4403 33.0764 33.3863 32.9753 33.3458C32.8742 33.3053 32.7587 33.2828 32.6191 33.2828C32.4987 33.2828 32.3784 33.3008 32.2725 33.3458C32.1617 33.3863 32.0703 33.4403 31.9884 33.5078C31.9114 33.5753 31.844 33.6563 31.7911 33.7508C31.7381 33.8453 31.7092 33.9443 31.7044 34.0523H33.4327H33.4423ZM34.0296 34.2683V34.3583C34.0296 34.3898 34.0296 34.4213 34.0296 34.4483H31.7188C31.7188 34.5608 31.7477 34.6688 31.8007 34.7723C31.8536 34.8758 31.921 34.9613 32.0077 35.0333C32.0943 35.1053 32.1906 35.1638 32.3062 35.2088C32.4217 35.2493 32.5372 35.2718 32.6624 35.2718C32.8598 35.2718 33.0283 35.2313 33.1727 35.1503C33.3171 35.0693 33.4279 34.9703 33.5097 34.8533L33.9141 35.1548C33.7552 35.3483 33.5771 35.4878 33.3653 35.5823C33.1583 35.6723 32.9176 35.7173 32.6624 35.7173C32.441 35.7173 32.2388 35.6858 32.051 35.6138C31.8633 35.5463 31.7044 35.4518 31.5648 35.3258C31.43 35.2043 31.3241 35.0513 31.2471 34.8758C31.17 34.7003 31.1267 34.5068 31.1267 34.2908C31.1267 34.0748 31.1652 33.8858 31.2422 33.7058C31.3145 33.5258 31.4252 33.3728 31.56 33.2468C31.6948 33.1208 31.8585 33.0218 32.0414 32.9498C32.2243 32.8823 32.4265 32.8418 32.6335 32.8418C32.8405 32.8418 33.0379 32.8733 33.216 32.9408C33.3893 33.0038 33.5386 33.0983 33.6589 33.2243C33.7793 33.3458 33.8756 33.4943 33.9382 33.6698C34.0104 33.8543 34.0393 34.0478 34.0393 34.2638L34.0296 34.2683Z" fill="#0069B1"/>
<path d="M39.8594 32.959L39.1999 35.056L38.4874 32.959H37.8808L37.1828 35.056L36.5184 32.959H35.8926L36.865 35.6815H37.462L38.1745 33.6385H38.1889L38.9062 35.6815H39.508L40.4708 32.959H39.8642H39.8594Z" fill="#0069B1"/>
<path d="M42.9454 34.3134C42.9454 34.1829 42.9261 34.0614 42.878 33.9444C42.8347 33.8229 42.7721 33.7239 42.6902 33.6339C42.6084 33.5439 42.5073 33.4764 42.3821 33.4179C42.2618 33.3639 42.1222 33.3369 41.9681 33.3369C41.8141 33.3369 41.6745 33.3639 41.5541 33.4179C41.4337 33.4719 41.3327 33.5439 41.246 33.6339C41.1642 33.7284 41.1016 33.8274 41.0582 33.9444C41.0149 34.0659 40.9909 34.1874 40.9909 34.3134C40.9909 34.4394 41.0101 34.5654 41.0582 34.6824C41.1016 34.7994 41.1642 34.9074 41.246 34.9974C41.3278 35.0874 41.4289 35.1594 41.5541 35.2134C41.6745 35.2674 41.8141 35.2944 41.9681 35.2944C42.1222 35.2944 42.2618 35.2674 42.3821 35.2134C42.5025 35.1594 42.6036 35.0874 42.6902 34.9974C42.7721 34.9074 42.8347 34.8039 42.878 34.6824C42.9261 34.5654 42.9454 34.4439 42.9454 34.3134ZM43.552 34.3089C43.552 34.5204 43.5134 34.7139 43.4316 34.8894C43.3546 35.0649 43.239 35.2134 43.0994 35.3484C42.9598 35.4744 42.7913 35.5779 42.6036 35.6454C42.411 35.7129 42.2088 35.7534 41.9826 35.7534C41.7563 35.7534 41.5541 35.7174 41.3615 35.6454C41.169 35.5779 41.0053 35.4744 40.8657 35.3484C40.7261 35.2224 40.6153 35.0649 40.5383 34.8894C40.4613 34.7139 40.418 34.5204 40.418 34.3089C40.418 34.0974 40.4565 33.9039 40.5383 33.7329C40.6153 33.5574 40.7261 33.4089 40.8657 33.2829C41.0053 33.1569 41.1738 33.0579 41.3615 32.9859C41.5541 32.9184 41.7563 32.8779 41.9826 32.8779C42.2088 32.8779 42.411 32.9139 42.6036 32.9859C42.7961 33.0534 42.9598 33.1524 43.0994 33.2829C43.239 33.4089 43.3546 33.5619 43.4316 33.7329C43.5134 33.9084 43.552 34.1019 43.552 34.3089Z" fill="#0069B1"/>
<path d="M46.3489 32.1177H45.7712V35.6817H46.3489V32.1177Z" fill="#0069B1"/>
<path d="M35.6567 33.3683V32.9543H34.9298V32.1128H34.3569V34.8713C34.3569 35.1548 34.4291 35.3663 34.5736 35.5103C34.718 35.6543 34.9298 35.7218 35.2042 35.7218C35.2957 35.7218 35.3775 35.7128 35.4642 35.7038C35.5316 35.6903 35.5942 35.6768 35.6519 35.6588V35.2133C35.6086 35.2313 35.5605 35.2403 35.5075 35.2538C35.4449 35.2673 35.3872 35.2718 35.339 35.2718C35.1946 35.2718 35.0887 35.2358 35.0213 35.1638C34.9539 35.0963 34.925 34.9748 34.925 34.8128V33.3683H35.6519H35.6567Z" fill="#0069B1"/>
<path d="M45.2801 32.8824C45.0827 32.8824 44.9094 32.9319 44.7506 33.0309C44.5917 33.1299 44.4521 33.2559 44.375 33.4179V32.9544H43.8311V35.6769H44.4087V34.2459C44.4087 34.1334 44.428 34.0209 44.4569 33.9129C44.4858 33.8049 44.5387 33.7194 44.6061 33.6339C44.6735 33.5529 44.7602 33.4899 44.8613 33.4404C44.9624 33.3909 45.0827 33.3684 45.2223 33.3684C45.3138 33.3684 45.4005 33.3774 45.4823 33.3954V32.8959C45.4245 32.8824 45.3571 32.8779 45.2753 32.8779L45.2801 32.8824Z" fill="#0069B1"/>
<path d="M30.7561 33.5574C30.7128 33.4224 30.6454 33.3099 30.5539 33.2064C30.4624 33.1074 30.3517 33.0264 30.2169 32.9679C30.0821 32.9094 29.9184 32.8779 29.7307 32.8779C29.6248 32.8779 29.5237 32.8914 29.4226 32.9184C29.3263 32.9454 29.2348 32.9814 29.153 33.0309C29.0712 33.0804 28.999 33.1344 28.9364 33.1974C28.869 33.2604 28.8064 33.3279 28.7679 33.3999V32.9544H28.2239V35.6769H28.8016V34.2279C28.8016 33.9579 28.8738 33.7374 29.0182 33.5799C29.1626 33.4179 29.3504 33.3369 29.5766 33.3369C29.7114 33.3369 29.8222 33.3639 29.9088 33.4044C29.9955 33.4494 30.0629 33.5124 30.111 33.5889C30.1592 33.6654 30.1929 33.7509 30.2121 33.8544C30.2314 33.9534 30.241 34.0569 30.241 34.1694V35.6769H30.8235V33.9894C30.8235 33.8319 30.8042 33.6879 30.7561 33.5529V33.5574Z" fill="#0069B1"/>
<path d="M47.5767 32.959H48.2891L47.0615 34.3315L48.2699 35.6815H47.5574L46.3442 34.3315L47.5718 32.959H47.5767Z" fill="#0069B1"/>
<path d="M22.3457 35.254C22.4902 35.254 22.6202 35.2315 22.7357 35.1865C22.8512 35.137 22.9475 35.074 23.0294 34.9975C23.1112 34.9165 23.169 34.8175 23.2171 34.705C23.2604 34.588 23.2845 34.4665 23.2845 34.3315C23.2845 34.1965 23.2604 34.075 23.2171 33.9625C23.1738 33.8455 23.1112 33.751 23.0294 33.67C22.9475 33.589 22.8512 33.526 22.7357 33.481C22.6202 33.4315 22.4902 33.409 22.3457 33.409C22.2013 33.409 22.0713 33.4315 21.9558 33.481C21.8403 33.526 21.744 33.589 21.6621 33.67C21.5803 33.7465 21.5225 33.8455 21.4744 33.9625C21.4311 34.075 21.407 34.1965 21.407 34.3315C21.407 34.4665 21.4311 34.588 21.4744 34.705C21.5177 34.8175 21.5803 34.912 21.6621 34.9975C21.744 35.074 21.8403 35.137 21.9558 35.1865C22.0713 35.2315 22.2013 35.254 22.3457 35.254ZM20.8774 31.438H21.4166V33.391H21.4311C21.5273 33.2515 21.6621 33.148 21.8451 33.067C22.0232 32.986 22.2158 32.9455 22.418 32.9455C22.6346 32.9455 22.832 32.9815 23.0101 33.0535C23.1882 33.1255 23.3423 33.2245 23.4626 33.3505C23.5926 33.472 23.6889 33.6205 23.7563 33.7915C23.8237 33.958 23.8574 34.1425 23.8574 34.3405C23.8574 34.5385 23.8237 34.7185 23.7563 34.8895C23.6889 35.056 23.5926 35.2045 23.4626 35.3305C23.3375 35.4565 23.1882 35.5555 23.0101 35.6275C22.8368 35.6995 22.6394 35.7355 22.418 35.7355C22.2254 35.7355 22.0425 35.695 21.8547 35.6185C21.6766 35.542 21.5322 35.4295 21.4311 35.29H21.4166V35.668H20.8774V31.447V31.438Z" fill="#0069B1"/>
<path d="M23.8911 33.0128H24.5121L25.3546 35.0783H25.369L26.1682 33.0128H26.7459L25.4027 36.2303C25.3546 36.3473 25.3065 36.4508 25.2535 36.5408C25.2006 36.6353 25.138 36.7208 25.0658 36.7838C24.9935 36.8513 24.9069 36.9053 24.8058 36.9413C24.7047 36.9773 24.5843 36.9953 24.4351 36.9953C24.3533 36.9953 24.2762 36.9908 24.1896 36.9773C24.1077 36.9683 24.0307 36.9503 23.9585 36.9233L24.0259 36.4643C24.1318 36.5048 24.2425 36.5273 24.3485 36.5273C24.4303 36.5273 24.5025 36.5138 24.5555 36.4958C24.6132 36.4778 24.6662 36.4463 24.7047 36.4058C24.748 36.3698 24.7865 36.3248 24.8106 36.2708C24.8395 36.2168 24.8684 36.1583 24.8925 36.0908L25.0658 35.6723L23.8911 33.0083V33.0128Z" fill="#0069B1"/>
</g>
<defs>
<clipPath id="clip0_460_439">
<rect width="54" height="18" fill="white" transform="translate(1 19)"/>
</clipPath>
</defs>
</svg>
