<svg width="56" height="56" viewBox="0 0 56 56" fill="none" xmlns="http://www.w3.org/2000/svg">
<rect width="56" height="56" rx="28" fill="#F0F4FF"/>
<g clip-path="url(#clip0_1028_339)">
<path d="M40 13H16C14.3431 13 13 14.3431 13 16V40C13 41.6569 14.3431 43 16 43H40C41.6569 43 43 41.6569 43 40V16C43 14.3431 41.6569 13 40 13Z" fill="#4A5FE0"/>
<path d="M23.7806 31.8629L35.6814 24.9958C36.7816 24.3609 38.1881 24.7382 38.823 25.8384L39.9725 27.8305L30.0638 33.5481C27.8634 34.8178 25.0503 34.0633 23.7806 31.8629Z" fill="white"/>
<path d="M32.4034 24.1484L20.5027 31.0155C19.4024 31.6504 17.9959 31.2731 17.361 30.1729L16.2115 28.1808L26.1202 22.4632C28.3206 21.1935 31.1337 21.948 32.4034 24.1484Z" fill="white"/>
</g>
<defs>
<clipPath id="clip0_1028_339">
<rect width="30" height="30" fill="white" transform="translate(13 13)"/>
</clipPath>
</defs>
</svg>
