<svg width="56" height="56" viewBox="0 0 56 56" fill="none" xmlns="http://www.w3.org/2000/svg">
<rect width="56" height="56" rx="28" fill="#F0F4FF"/>
<g clip-path="url(#clip0_1146_622)">
<path d="M40.8 12H15.2C13.4327 12 12 13.4327 12 15.2V40.8C12 42.5673 13.4327 44 15.2 44H40.8C42.5673 44 44 42.5673 44 40.8V15.2C44 13.4327 42.5673 12 40.8 12Z" fill="#00009F"/>
<path d="M26.5665 33.9669H17.028L18.5249 30.5053C18.9644 29.489 19.9657 28.8311 21.073 28.8311H32.4357L31.6628 30.6184C30.7838 32.651 28.7811 33.9669 26.5665 33.9669Z" fill="white"/>
<path d="M34.4686 27.1935H21.0515L21.8244 25.4062C22.7034 23.3735 24.7062 22.0576 26.9207 22.0576H38.5137L37.0167 25.5192C36.5772 26.5355 35.5758 27.1935 34.4686 27.1935Z" fill="white"/>
</g>
<defs>
<clipPath id="clip0_1146_622">
<rect width="32" height="32" fill="white" transform="translate(12 12)"/>
</clipPath>
</defs>
</svg>
