<svg width="56" height="56" viewBox="0 0 56 56" fill="none" xmlns="http://www.w3.org/2000/svg">
<rect width="56" height="56" rx="28" fill="#F0F4FF"/>
<g clip-path="url(#clip0_1083_391)">
<path fill-rule="evenodd" clip-rule="evenodd" d="M43 16.9C43 15.2995 41.7005 14 40.1 14H16.9C15.2995 14 14 15.2995 14 16.9V40.1C14 41.7005 15.2995 43 16.9 43H40.1C41.7005 43 43 41.7005 43 40.1V16.9Z" fill="#7742E6"/>
<path fill-rule="evenodd" clip-rule="evenodd" d="M38.2589 20.875C38.2589 20.875 25.7495 24.2268 20.76 25.5638C19.5691 25.8829 18.741 26.9621 18.741 28.1951C18.741 29.1324 18.741 30.0307 18.741 30.0307C18.741 30.0307 28.7899 27.3381 34.4668 25.817C36.7036 25.2177 38.2589 23.1906 38.2589 20.875Z" fill="white"/>
<path fill-rule="evenodd" clip-rule="evenodd" d="M30.7678 28.9761C30.7678 28.9761 24.1855 30.7399 20.76 31.6577C19.5691 31.9768 18.741 33.056 18.741 34.289C18.741 35.2263 18.741 36.1246 18.741 36.1246C18.741 36.1246 23.4507 34.8627 26.9755 33.9182C29.2124 33.3188 30.7678 31.2918 30.7678 28.9762V28.9761Z" fill="white"/>
</g>
<defs>
<clipPath id="clip0_1083_391">
<rect width="29" height="29" fill="white" transform="translate(14 14)"/>
</clipPath>
</defs>
</svg>
