<svg width="56" height="56" viewBox="0 0 56 56" fill="none" xmlns="http://www.w3.org/2000/svg">
<rect width="56" height="56" rx="28" fill="#F0F4FF"/>
<g clip-path="url(#clip0_1077_361)">
<path d="M21.8399 13H35.1602C40.0402 13 44 16.9598 44 21.8399V35.1602C44 40.0402 40.0402 44 35.1602 44H21.8399C16.9598 44 13 40.0402 13 35.1602V21.8399C13 16.9598 16.9598 13 21.8399 13Z" fill="url(#paint0_linear_1077_361)"/>
<path d="M38.8344 23.3437C37.4419 21.9512 35.1895 21.9512 33.809 23.3437L32.3923 24.7606L33.6637 26.032L35.0442 24.6395C35.3711 24.3125 35.8071 24.1187 36.2673 24.0945C36.7637 24.0824 37.2481 24.2762 37.5872 24.6395C38.2532 25.3539 38.229 26.4559 37.5266 27.134L36.6184 28.0422C36.1946 28.466 35.5165 28.466 35.0926 28.0422C34.2692 27.2187 30.37 23.3195 30.37 23.3195C29.704 22.6535 28.8079 22.2781 27.8512 22.2781C26.9067 22.2781 26.0106 22.6535 25.3325 23.3195C25.054 23.5981 24.8118 23.925 24.6423 24.2883L24.5696 24.4457L26.0348 25.9109L26.1317 25.4629C26.3376 24.5062 27.27 23.9008 28.2266 24.1066C28.5657 24.1793 28.8684 24.3367 29.1106 24.5789L34.5598 30.0281L32.0653 32.5227L28.4082 28.8777C28.3356 28.8051 28.0329 28.4902 26.4586 26.9039L22.7169 23.1621C21.3243 21.7695 19.0719 21.7695 17.6915 23.1621C16.2989 24.5547 16.2989 26.807 17.6915 28.1875L23.2739 33.7699C23.5766 34.0727 23.9883 34.2422 24.4122 34.2422C24.8481 34.2422 25.2477 34.0727 25.5626 33.7699L27.8876 31.4449L26.6161 30.1734L24.4243 32.3652L18.9751 26.916C18.2969 26.2137 18.3211 25.0996 19.0235 24.4215C19.7016 23.7676 20.7794 23.7676 21.4575 24.4215L25.1508 28.1148C25.2114 28.1875 25.284 28.2723 25.3567 28.3449L30.927 33.9152C31.2298 34.2301 31.6415 34.4117 32.0895 34.4117C32.1016 34.4117 32.1137 34.4117 32.1137 34.4117C32.5497 34.4117 32.9493 34.2422 33.2641 33.9395L38.8344 28.3691C40.227 26.9887 40.227 24.7242 38.8344 23.3437Z" fill="#FFEAEA"/>
</g>
<defs>
<linearGradient id="paint0_linear_1077_361" x1="14.3626" y1="14.8721" x2="45.3633" y2="44.7565" gradientUnits="userSpaceOnUse">
<stop stop-color="#FF6D6F"/>
<stop offset="1" stop-color="#FF6D6F"/>
</linearGradient>
<clipPath id="clip0_1077_361">
<rect width="31" height="31" fill="white" transform="translate(13 13)"/>
</clipPath>
</defs>
</svg>
