<svg width="56" height="56" viewBox="0 0 56 56" fill="none" xmlns="http://www.w3.org/2000/svg">
<rect width="56" height="56" rx="28" fill="#F0F4FF"/>
<g clip-path="url(#clip0_1106_371)">
<path d="M13.6087 23.6507C13.0124 22.037 13.8449 20.2465 15.4629 19.6626L34.5498 12.7747C36.199 12.1797 38.0123 13.0705 38.5498 14.739L42.3744 26.6159C42.439 26.8169 42.4802 27.0239 42.4881 27.2351C42.6306 31.1196 40.7636 36.8052 34.9853 39.5689L29.8228 41.6344L21.7782 44.3161C21.6518 44.3589 21.5142 44.3505 21.3936 44.2927C21.2731 44.2349 21.179 44.132 21.1307 44.0054L13.6083 23.6507H13.6087Z" fill="white"/>
<path fill-rule="evenodd" clip-rule="evenodd" d="M39.6741 17.6257L38.8041 15.0855C38.2012 13.3375 36.2812 12.4242 34.5449 13.0596L16.1108 19.8042C14.4088 20.4264 13.5259 22.3045 14.1321 24.0134L15.0046 26.4019L39.6741 17.6257Z" fill="#334AFF"/>
<path fill-rule="evenodd" clip-rule="evenodd" d="M31.2458 11.3243C31.1808 11.1953 31.072 11.0947 30.9396 11.0416C30.8073 10.9884 30.6605 10.9862 30.5266 11.0353C30.4555 11.0604 30.3899 11.0997 30.3338 11.1509C30.2777 11.2021 30.2322 11.2642 30.1998 11.3336C30.1675 11.4029 30.1491 11.4782 30.1456 11.5549C30.1421 11.6316 30.1537 11.7082 30.1795 11.7804L30.8575 13.6435L18.7513 18.0733L18.0888 16.2526L18.0638 16.1944C17.9988 16.0652 17.8899 15.9646 17.7574 15.9114C17.625 15.8582 17.4781 15.8561 17.3442 15.9054C17.2731 15.9304 17.2076 15.9697 17.1515 16.0209C17.0954 16.0721 17.0499 16.1341 17.0176 16.2034C16.9853 16.2727 16.9668 16.3479 16.9633 16.4246C16.9598 16.5012 16.9713 16.5779 16.9971 16.6499L17.6604 18.4723L15.6446 19.2101L15.5259 19.2556C13.6029 20.0299 12.6196 22.1902 13.3184 24.1588L20.4567 44.2695L20.4858 44.3426C20.7137 44.8654 21.3112 45.1305 21.8575 44.9363L29.7175 42.0608C29.7508 42.0485 29.7825 42.0336 29.8125 42.0162C29.8666 42.0034 29.92 41.9835 29.9708 41.9546C31.8291 40.8959 33.222 39.0093 34.3895 36.4156C34.6475 35.8384 34.8876 35.253 35.1095 34.6604L35.1641 34.5146L35.732 32.9634C35.8312 32.699 35.907 32.5086 35.9724 32.3633L36.0258 32.2498L36.0416 32.2175L36.1841 32.2226C38.4691 32.2847 40.3537 31.7687 41.5549 30.8392C40.7207 34.5473 38.0787 37.7645 34.2474 39.1666C34.1764 39.1918 34.111 39.2312 34.055 39.2824C33.999 39.3337 33.9536 39.3958 33.9214 39.4652C33.8892 39.5345 33.8709 39.6097 33.8675 39.6864C33.8641 39.763 33.8757 39.8396 33.9016 39.9116C33.9566 40.0573 34.0654 40.1752 34.2048 40.2399C34.3441 40.3046 34.5027 40.311 34.6466 40.2576C41.2441 37.8436 44.6357 30.5379 42.2224 23.9395L39.0866 14.8471L39.0441 14.7298C38.2912 12.7515 36.0816 11.7323 34.0791 12.4646L31.9483 13.2445L31.2708 11.383L31.2458 11.3248V11.3243ZM31.2549 14.7353L31.9216 16.5683L31.9466 16.6266C32.0758 16.8892 32.3849 17.0176 32.6662 16.9156C32.7373 16.8905 32.8029 16.8513 32.859 16.8001C32.9151 16.749 32.9607 16.6869 32.993 16.6176C33.0254 16.5483 33.0439 16.4731 33.0474 16.3964C33.051 16.3197 33.0395 16.2431 33.0137 16.171L32.3458 14.3363L34.4783 13.556L34.5833 13.5199C35.9858 13.0694 37.5041 13.8203 37.9883 15.2262L41.1278 24.3283L41.192 24.509C41.5713 25.5967 41.786 26.737 41.8287 27.8906C41.8234 27.9256 41.8213 27.9611 41.8224 27.9965C41.8841 29.8809 39.5582 31.2498 35.8553 31.0462C35.3124 31.0165 35.1616 31.1848 34.7445 32.2864L34.5549 32.7976L34.2445 33.6527L34.0229 34.249C33.8094 34.8194 33.5785 35.3828 33.3304 35.9383C32.2545 38.3285 30.9954 40.0336 29.3958 40.9448L29.3887 40.949C29.3647 40.9546 29.341 40.9617 29.3179 40.9703L21.5296 43.8194L14.4129 23.7699L14.3771 23.6615C13.9513 22.2833 14.6771 20.8009 16.0438 20.3011L18.0579 19.5641L18.7396 21.4384L18.7646 21.4962C18.8938 21.7592 19.2029 21.8876 19.4842 21.7852C19.5553 21.7601 19.6208 21.7208 19.6769 21.6696C19.7329 21.6185 19.7784 21.5564 19.8108 21.4871C19.8431 21.4178 19.8615 21.3426 19.865 21.2659C19.8686 21.1893 19.8571 21.1127 19.8313 21.0406L19.1488 19.1651L31.2549 14.7353Z" fill="#0F1031"/>
<path fill-rule="evenodd" clip-rule="evenodd" d="M34.052 24.9973C34.3228 25.7368 35.1411 26.1167 35.8807 25.8464C36.6199 25.5757 37.0003 24.7571 36.7295 24.0176C36.4595 23.2782 35.6407 22.8978 34.9011 23.1681C34.162 23.4392 33.7816 24.2578 34.052 24.9973ZM27.6666 27.3339C27.9366 28.0734 28.7553 28.4533 29.4949 28.183C30.2341 27.9127 30.6145 27.0942 30.3441 26.3543C30.0732 25.6148 29.2549 25.2344 28.5153 25.5051C27.7762 25.7754 27.3962 26.5944 27.6666 27.3339ZM21.2795 29.6705C21.5504 30.41 22.3687 30.7899 23.1083 30.5196C23.8474 30.2485 24.2278 29.4304 23.957 28.6905C23.6862 27.9514 22.8683 27.571 22.1283 27.8417C21.3891 28.112 21.0091 28.9314 21.2795 29.6705ZM29.9337 32.8631C30.2045 33.6026 31.0228 33.9825 31.762 33.7122C32.5016 33.4415 32.8816 32.6234 32.6107 31.8835C32.3403 31.144 31.522 30.7636 30.7824 31.0343C30.0432 31.305 29.6628 32.124 29.9337 32.8631ZM23.4191 35.2469C23.6899 35.9864 24.5083 36.3667 25.2474 36.0956C25.987 35.8253 26.367 35.0067 26.0962 34.2672C25.8258 33.5278 25.0074 33.1478 24.2678 33.4185C23.5287 33.6888 23.1487 34.5074 23.4191 35.2469Z" fill="#334AFF"/>
</g>
<defs>
<clipPath id="clip0_1106_371">
<rect width="30" height="34" fill="white" transform="translate(13 11)"/>
</clipPath>
</defs>
</svg>
