<svg width="56" height="56" viewBox="0 0 56 56" fill="none" xmlns="http://www.w3.org/2000/svg">
<rect width="56" height="56" rx="28" fill="#F0F4FF"/>
<path d="M39.7126 27.2665L32.5919 34.6487L28.0017 39.4032L25.7527 37.0736L23.4516 34.6903C22.3831 33.5917 21.7209 32.1408 21.5801 30.5898C21.4394 29.0388 21.829 27.4859 22.6812 26.2011C23.5334 24.9162 24.7943 23.9808 26.2446 23.5573C27.695 23.1339 29.243 23.2493 30.6196 23.8834L27.9757 26.6188C26.9327 27.7009 26.3471 29.1661 26.3471 30.6936C26.3471 32.2211 26.9327 33.6864 27.9757 34.7685L34.2284 28.2932L38.471 23.8932C37.0618 21.2844 34.7897 19.2882 32.0716 18.271C30.9292 19.2564 29.4884 19.7961 28.0005 19.7961C26.5126 19.7961 25.0718 19.2564 23.9293 18.271C22.212 18.916 20.6592 19.9565 19.3886 21.3137C18.1179 22.6709 17.1627 24.3092 16.5953 26.1044C16.0279 27.8997 15.8631 29.8049 16.1136 31.6757C16.364 33.5466 17.0231 35.3339 18.0408 36.9025C18.474 37.5684 18.9682 38.1897 19.5165 38.7578L21.8175 41.1412L28.0017 47.5554L36.4869 38.7554C37.915 37.2747 38.9591 35.4459 39.5229 33.4379C40.0867 31.4299 40.1519 29.3075 39.7126 27.2665Z" fill="url(#paint0_linear_996_371)"/>
<path d="M28.0016 17.9532C28.9118 17.9551 29.802 17.6779 30.5597 17.1567C31.3173 16.6354 31.9083 15.8936 32.2579 15.025C32.6075 14.1564 32.7 13.2001 32.5236 12.2772C32.3471 11.3543 31.9098 10.5062 31.2669 9.84034C30.624 9.17444 29.8044 8.72066 28.9119 8.53641C28.0194 8.35217 27.0941 8.44575 26.253 8.80531C25.412 9.16487 24.6931 9.77425 24.1872 10.5563C23.6814 11.3384 23.4114 12.258 23.4114 13.1988C23.4108 13.8225 23.529 14.4402 23.7593 15.0167C23.9897 15.5932 24.3276 16.1171 24.7539 16.5586C25.1801 17.0001 25.6863 17.3505 26.2436 17.5898C26.8008 17.8291 27.3982 17.9526 28.0016 17.9532Z" fill="url(#paint1_linear_996_371)"/>
<defs>
<linearGradient id="paint0_linear_996_371" x1="19.0569" y1="44.8401" x2="37.4227" y2="16.297" gradientUnits="userSpaceOnUse">
<stop offset="0.18" stop-color="#702CE7"/>
<stop offset="0.82" stop-color="#FF4A97"/>
</linearGradient>
<linearGradient id="paint1_linear_996_371" x1="23.2559" y1="20.416" x2="32.6389" y2="6.23581" gradientUnits="userSpaceOnUse">
<stop offset="0.33" stop-color="#702CE7"/>
<stop offset="0.87" stop-color="#FF4A97"/>
</linearGradient>
</defs>
</svg>
