<svg width="56" height="56" viewBox="0 0 56 56" fill="none" xmlns="http://www.w3.org/2000/svg">
<rect width="56" height="56" rx="28" fill="#F0F4FF"/>
<g clip-path="url(#clip0_1042_345)">
<path d="M32.8309 27.8739L42.7464 21.8809V33.867L32.8309 27.8739Z" fill="#3A30E5"/>
<path d="M32.8309 15.9932L42.7464 21.9863L32.8309 27.9793V15.9932Z" fill="#3058E5"/>
<path d="M32.8309 15.9932V27.8742L22.9154 21.8811L32.8309 15.9932Z" fill="#4067EE"/>
<path d="M32.9321 15.9931L23.0166 21.9862V10L32.9321 15.9931Z" fill="#476EF9"/>
<path d="M22.9155 21.9863V33.9725L13 27.9794L22.9155 21.9863Z" fill="#624AF6"/>
<path d="M22.9155 10V21.9862L13 15.9931L22.9155 10Z" fill="#4067EE"/>
<path d="M22.9155 33.8677V45.8538L13 39.8607L22.9155 33.8677Z" fill="#7C3AED"/>
<path d="M32.8309 27.874L42.7464 33.8671L32.8309 39.8602V27.874Z" fill="#4F46E5"/>
<path d="M13 27.874L22.9155 33.8671L13 39.8602V27.874Z" fill="#814AF7"/>
<path d="M13 15.9932L22.9155 21.9863L13 27.9793V15.9932Z" fill="#3058E5"/>
<path d="M32.8309 27.874V39.8602L22.9154 33.8671L32.8309 27.874Z" fill="#624AF6"/>
<path d="M32.8309 27.8739L42.7464 21.8809V33.867L32.8309 27.8739Z" fill="#3A30E5"/>
<path d="M32.8309 15.9932L42.7464 21.9863L32.8309 27.9793V15.9932Z" fill="#3058E5"/>
<path d="M32.8309 15.9932V27.8742L22.9154 21.8811L32.8309 15.9932Z" fill="#4067EE"/>
<path d="M32.9321 15.9931L23.0166 21.9862V10L32.9321 15.9931Z" fill="#476EF9"/>
<path d="M22.9155 21.9863V33.9725L13 27.9794L22.9155 21.9863Z" fill="#624AF6"/>
<path d="M22.9155 10V21.9862L13 15.9931L22.9155 10Z" fill="#4067EE"/>
<path d="M22.9155 33.8677V45.8538L13 39.8607L22.9155 33.8677Z" fill="#7C3AED"/>
<path d="M32.8309 27.874L42.7464 33.8671L32.8309 39.8602V27.874Z" fill="#4F46E5"/>
<path d="M13 27.874L22.9155 33.8671L13 39.8602V27.874Z" fill="#814AF7"/>
<path d="M13 15.9932L22.9155 21.9863L13 27.9793V15.9932Z" fill="#3058E5"/>
<path d="M32.8309 27.874V39.8602L22.9154 33.8671L32.8309 27.874Z" fill="#624AF6"/>
<path d="M32.8309 27.8739L42.7464 21.8809V33.867L32.8309 27.8739Z" fill="#3A30E5"/>
<path d="M32.8309 15.9932L42.7464 21.9863L32.8309 27.9793V15.9932Z" fill="#3058E5"/>
<path d="M32.8309 15.9932V27.8742L22.9154 21.8811L32.8309 15.9932Z" fill="#4067EE"/>
<path d="M32.9321 15.9931L23.0166 21.9862V10L32.9321 15.9931Z" fill="#476EF9"/>
<path d="M22.9155 21.9863V33.9725L13 27.9794L22.9155 21.9863Z" fill="#624AF6"/>
<path d="M22.9155 10V21.9862L13 15.9931L22.9155 10Z" fill="#4067EE"/>
<path d="M22.9155 33.8677V45.8538L13 39.8607L22.9155 33.8677Z" fill="#7C3AED"/>
<path d="M32.8309 27.874L42.7464 33.8671L32.8309 39.8602V27.874Z" fill="#4F46E5"/>
<path d="M13 27.874L22.9155 33.8671L13 39.8602V27.874Z" fill="#814AF7"/>
<path d="M13 15.9932L22.9155 21.9863L13 27.9793V15.9932Z" fill="#3058E5"/>
<path d="M32.8309 27.874V39.8602L22.9154 33.8671L32.8309 27.874Z" fill="#624AF6"/>
</g>
<defs>
<clipPath id="clip0_1042_345">
<rect width="30" height="36" fill="white" transform="translate(13 10)"/>
</clipPath>
</defs>
</svg>
