<svg width="600" height="419" viewBox="0 0 600 419" fill="none" xmlns="http://www.w3.org/2000/svg">
<rect x="573" y="195.081" width="42.3513" height="5.28511" transform="rotate(-11 573 195.081)" fill="#F62584" fill-opacity="0.45"/>
<path d="M552.86 59.3287L565.399 57.7891L570.738 69.2386L561.498 77.8544L550.449 71.7297L552.86 59.3287Z" fill="#4BC8EF" fill-opacity="0.65"/>
<path d="M359.971 15.2416L359.215 8.05816L365.059 3.8126L371.658 6.75045L372.413 13.9339L366.569 18.1794L359.971 15.2416Z" fill="#F62584" fill-opacity="0.65"/>
<path d="M473.527 158.047L472.364 145.665L483.669 150.848L473.527 158.047Z" fill="#E58500" fill-opacity="0.9"/>
<path d="M564.933 354.408L564.933 344.542L573.477 339.61L582.021 344.542L582.021 354.408L573.477 359.341L564.933 354.408Z" fill="#755FFE" fill-opacity="0.65"/>
<path d="M420.913 396.934L415.118 394.584L412.582 400.299L411.72 394.106L405.502 394.768L410.434 390.925L406.753 385.871L412.547 388.22L415.083 382.505L415.946 388.698L422.163 388.036L417.231 391.88L420.913 396.934Z" fill="#C9FCBE" fill-opacity="0.65"/>
<path d="M87.5482 19.7779L91.7105 19.7105L91.7779 15.5481L93.9175 19.1191L97.5558 17.0963L95.5331 20.7347L99.104 22.8742L94.9417 22.9417L94.8743 27.104L92.7347 23.533L89.0964 25.5558L91.1191 21.9174L87.5482 19.7779Z" fill="#FC9E1C" fill-opacity="0.65"/>
<rect width="24.5823" height="6.13025" transform="matrix(0.648279 0.761403 0.761403 -0.648279 -4 362.975)" fill="#D58250"/>
<path d="M39.0228 97.3348L32.3846 104.209L41.6568 106.521L39.0228 97.3348Z" fill="#9DED1A" fill-opacity="0.65"/>
<path d="M38.797 273.545L31.5452 281.888L39.8875 289.14L47.1393 280.797L38.797 273.545Z" fill="#FC9E1C" fill-opacity="0.35"/>
<path d="M158.2 399.17L152.574 402.781L146.17 400.861L149.781 406.487L147.861 412.891L153.487 409.28L159.891 411.2L156.28 405.574L158.2 399.17Z" fill="#F62584" fill-opacity="0.9"/>
</svg>
