<svg width="28" height="28" viewBox="0 0 28 28" fill="none" xmlns="http://www.w3.org/2000/svg">
<path d="M24.1056 13.368H19.0528C18.8371 13.3701 18.6234 13.4094 18.4212 13.4842V10.8416C18.4212 10.339 18.2215 9.85707 17.8662 9.50172C17.5108 9.14638 17.0289 8.94675 16.5264 8.94675H11.4735C10.971 8.94675 10.4891 9.14638 10.1337 9.50172C9.77836 9.85707 9.57873 10.339 9.57873 10.8416V13.4842C9.37646 13.4094 9.16279 13.3701 8.94713 13.368H3.89432C3.39178 13.368 2.90983 13.5676 2.55449 13.9229C2.19914 14.2783 1.99951 14.7602 1.99951 15.2628V25.3684C1.99951 25.5359 2.06606 25.6966 2.1845 25.815C2.30295 25.9335 2.4636 26 2.63111 26H25.3688C25.5363 26 25.6969 25.9335 25.8154 25.815C25.9338 25.6966 26.0004 25.5359 26.0004 25.3684V15.2628C26.0004 14.7602 25.8007 14.2783 25.4454 13.9229C25.0901 13.5676 24.6081 13.368 24.1056 13.368ZM3.26272 15.2628C3.26272 15.0953 3.32926 14.9346 3.44771 14.8162C3.56616 14.6977 3.72681 14.6312 3.89432 14.6312H8.94713C9.11464 14.6312 9.27529 14.6977 9.39374 14.8162C9.51219 14.9346 9.57873 15.0953 9.57873 15.2628V24.7368H3.26272V15.2628ZM10.8419 15.2628V10.8416C10.8419 10.674 10.9085 10.5134 11.0269 10.3949C11.1454 10.2765 11.306 10.21 11.4735 10.21H16.5264C16.6939 10.21 16.8545 10.2765 16.973 10.3949C17.0914 10.5134 17.158 10.674 17.158 10.8416V24.7368H10.8419V15.2628ZM24.7372 24.7368H18.4212V15.2628C18.4212 15.0953 18.4877 14.9346 18.6061 14.8162C18.7246 14.6977 18.8853 14.6312 19.0528 14.6312H24.1056C24.2731 14.6312 24.4337 14.6977 24.5522 14.8162C24.6706 14.9346 24.7372 15.0953 24.7372 15.2628V24.7368Z" fill="#8559FF"/>
<path d="M10.8419 7.68353H17.158C17.493 7.68353 17.8143 7.55044 18.0512 7.31355C18.2881 7.07665 18.4212 6.75535 18.4212 6.42033V3.26232C18.4214 3.15134 18.3924 3.04227 18.337 2.94608C18.2817 2.84989 18.202 2.76998 18.1059 2.7144C18.0099 2.65882 17.9008 2.62952 17.7899 2.62947C17.6789 2.62941 17.5699 2.6586 17.4738 2.71409L15.7249 3.71454L14.485 2.22586C14.4237 2.15802 14.3489 2.10379 14.2653 2.06667C14.1818 2.02955 14.0914 2.01038 13.9999 2.01038C13.9085 2.01038 13.8181 2.02955 13.7346 2.06667C13.651 2.10379 13.5762 2.15802 13.5149 2.22586L12.275 3.71454L10.5261 2.71409C10.43 2.6586 10.321 2.62941 10.21 2.62947C10.0991 2.62952 9.99005 2.65882 9.894 2.7144C9.79794 2.76998 9.71823 2.84989 9.66289 2.94608C9.60754 3.04227 9.57852 3.15134 9.57874 3.26232V6.42033C9.57874 6.75535 9.71182 7.07665 9.94872 7.31355C10.1856 7.55044 10.5069 7.68353 10.8419 7.68353ZM10.8419 4.3512L12.1051 5.07375C12.2339 5.14738 12.3844 5.17337 12.5304 5.14715C12.6763 5.12094 12.8084 5.0442 12.9035 4.93038L13.9999 3.61791L15.0939 4.93038C15.1891 5.04482 15.3216 5.12196 15.4682 5.14819C15.6147 5.17443 15.7658 5.14806 15.8948 5.07375L17.158 4.3512V6.42033H10.8419V4.3512Z" fill="#8559FF"/>
</svg>
