<svg width="683" height="683" viewBox="0 0 683 683" fill="none" xmlns="http://www.w3.org/2000/svg">
<g clip-path="url(#clip0_287_2)">
<mask id="mask0_287_2" style="mask-type:luminance" maskUnits="userSpaceOnUse" x="0" y="0" width="683" height="683">
<path d="M0 0.00012207H682.667V682.667H0V0.00012207Z" fill="white"/>
</mask>
<g mask="url(#mask0_287_2)">
<path d="M244.734 379.664C243.056 379.664 241.355 379.483 239.65 379.104C130.208 354.784 83.391 285.187 63.3884 231.084C42.091 173.483 46.4004 121.76 46.595 119.585C47.667 107.551 57.7524 98.3254 69.835 98.3254H185.248C199.191 98.3254 210.452 109.748 209.283 123.641C208.276 135.6 198.251 144.992 186.034 144.992H103.042C97.5884 144.992 93.3297 149.681 93.8364 155.111C95.403 171.907 99.151 193.764 107.726 216.416C131.188 278.408 178.98 317.816 249.774 333.548C262.352 336.344 270.286 348.807 267.49 361.388C265.072 372.261 255.428 379.663 244.734 379.664Z" fill="#FE9738"/>
<path d="M437.933 379.664C439.61 379.664 441.312 379.483 443.017 379.104C552.458 354.784 599.276 285.187 619.278 231.084C640.576 173.483 636.266 121.76 636.072 119.585C635 107.551 624.914 98.3254 612.832 98.3254H497.418C483.476 98.3254 472.214 109.748 473.384 123.641C474.39 135.6 484.416 144.992 496.633 144.992H579.625C585.078 144.992 589.337 149.681 588.83 155.111C587.264 171.907 583.516 193.764 574.941 216.416C551.478 278.408 503.686 317.816 432.893 333.548C420.314 336.344 412.381 348.807 415.177 361.388C417.594 372.261 427.238 379.663 437.933 379.664Z" fill="#FE9738"/>
<path d="M494.185 672.682H188.482C183.717 672.682 179.854 668.821 179.854 664.056V617.082C179.854 612.317 183.717 608.454 188.482 608.454H494.185C498.95 608.454 502.812 612.317 502.812 617.082V664.056C502.812 668.821 498.95 672.682 494.185 672.682Z" fill="#5A5A5A"/>
<path d="M502.813 617.077V664.05C502.813 668.825 498.947 672.677 494.187 672.677H467.52C472.28 672.677 476.147 668.825 476.147 664.05V617.077C476.147 612.318 472.28 608.45 467.52 608.45H494.187C498.947 608.45 502.813 612.318 502.813 617.077Z" fill="#444444"/>
<path d="M447.79 608.455H234.876V577.507C234.876 559.127 249.776 544.225 268.156 544.225H414.51C432.89 544.225 447.79 559.127 447.79 577.507V608.455Z" fill="#9D9D9D"/>
<path d="M447.786 577.504V608.451H421.56V577.504C421.56 559.131 406.653 544.224 388.28 544.224H414.506C432.893 544.224 447.786 559.131 447.786 577.504Z" fill="#838383"/>
<path d="M384.635 420.313L399.531 395.723H283.135L298.031 420.313C308.427 437.477 314.019 458.065 314.019 479.185C314.019 492.087 311.931 504.869 307.87 516.841L298.577 544.226H384.09L374.798 516.841C370.735 504.869 368.647 492.087 368.647 479.185C368.647 458.065 374.239 437.477 384.635 420.313Z" fill="#FE9738"/>
<path d="M372.747 448.264C370.053 458.198 368.653 468.624 368.653 479.183C368.653 492.091 370.733 504.864 374.8 516.838L384.093 544.224H356.973L347.68 516.838C343.627 504.864 341.533 492.091 341.533 479.183C341.533 468.624 342.933 458.198 345.627 448.264C348.333 438.331 352.32 428.903 357.52 420.318L372.427 395.718H399.533L384.64 420.318C379.44 428.903 375.44 438.331 372.747 448.264Z" fill="#FE860A"/>
<path d="M384.635 420.313L399.531 395.723H283.135L298.031 420.313C308.427 437.477 314.019 458.065 314.019 479.185C314.019 492.087 311.931 504.869 307.87 516.841L298.577 544.226H384.09L374.798 516.841C370.735 504.869 368.647 492.087 368.647 479.185C368.647 458.065 374.239 437.477 384.635 420.313Z" stroke="black" stroke-width="20" stroke-miterlimit="10" stroke-linecap="round" stroke-linejoin="round"/>
<path d="M244.734 379.664C243.056 379.664 241.355 379.483 239.65 379.104C130.208 354.784 83.391 285.187 63.3884 231.084C42.091 173.483 46.4004 121.76 46.595 119.585C47.667 107.551 57.7524 98.3254 69.835 98.3254H185.248C199.191 98.3254 210.452 109.748 209.283 123.641C208.276 135.6 198.251 144.992 186.034 144.992H103.042C97.5884 144.992 93.3297 149.681 93.8364 155.111C95.403 171.907 99.151 193.764 107.726 216.416C131.188 278.408 178.98 317.816 249.774 333.548C262.352 336.344 270.286 348.807 267.49 361.388C265.072 372.261 255.428 379.663 244.734 379.664Z" stroke="black" stroke-width="20" stroke-miterlimit="10" stroke-linecap="round" stroke-linejoin="round"/>
<path d="M415.177 361.388C412.382 348.807 420.314 336.344 432.893 333.548C521.622 313.831 580.479 244.559 588.83 155.111C589.337 149.682 585.078 144.992 579.625 144.992H496.634C484.415 144.992 474.39 135.6 473.383 123.642C472.214 109.748 483.475 98.3258 497.418 98.3258H612.831C624.914 98.3258 634.999 107.551 636.073 119.586C636.266 121.76 640.575 173.483 619.278 231.084C599.275 285.186 552.458 354.784 443.017 379.104C441.311 379.483 439.61 379.664 437.933 379.664C427.238 379.663 417.594 372.262 415.177 361.388Z" stroke="black" stroke-width="20" stroke-miterlimit="10" stroke-linecap="round" stroke-linejoin="round"/>
<path d="M341.333 416.133C244.541 416.133 166.075 337.666 166.075 240.876V65.6156H516.592V240.876C516.592 337.666 438.125 416.133 341.333 416.133Z" fill="#FAC600"/>
<path d="M516.586 65.6108V240.877C516.586 337.664 438.12 416.131 341.333 416.131C336.347 416.131 331.4 415.917 326.52 415.517C416.386 407.997 486.973 332.677 486.973 240.877V65.6108H516.586Z" fill="#E8B801"/>
<path d="M528.271 65.616H154.396C147.584 65.616 142.063 60.0947 142.063 53.284V22.3227C142.063 15.512 147.584 9.99069 154.396 9.99069H528.271C535.081 9.99069 540.604 15.512 540.604 22.3227V53.284C540.604 60.0947 535.081 65.616 528.271 65.616Z" fill="#FE9738"/>
<path d="M540.6 22.3179V53.2779C540.6 60.0912 535.08 65.6112 528.267 65.6112H499.92C506.734 65.6112 512.254 60.0912 512.254 53.2779V22.3179C512.254 15.5165 506.734 9.98454 499.92 9.98454H528.267C535.08 9.98454 540.6 15.5165 540.6 22.3179Z" fill="#FE860A"/>
<path d="M528.271 9.99106H274.445H227.557H154.395C147.585 9.99106 142.063 15.5124 142.063 22.3231V53.2844C142.063 60.0951 147.585 65.6164 154.395 65.6164H528.271C535.082 65.6164 540.603 60.0951 540.603 53.2844V22.3231C540.603 15.5124 535.082 9.99106 528.271 9.99106Z" stroke="black" stroke-width="20" stroke-miterlimit="10" stroke-linecap="round" stroke-linejoin="round"/>
<path d="M341.333 416.133C244.541 416.133 166.075 337.666 166.075 240.876V65.6156H516.592V240.876C516.592 337.666 438.125 416.133 341.333 416.133Z" stroke="black" stroke-width="20" stroke-miterlimit="10" stroke-linecap="round" stroke-linejoin="round"/>
<path d="M447.79 608.455H234.876V577.507C234.876 559.127 249.776 544.225 268.156 544.225H414.51C432.89 544.225 447.79 559.127 447.79 577.507V608.455Z" stroke="black" stroke-width="20" stroke-miterlimit="10" stroke-linecap="round" stroke-linejoin="round"/>
<path d="M494.185 672.682H188.482C183.717 672.682 179.854 668.821 179.854 664.056V617.082C179.854 612.317 183.717 608.454 188.482 608.454H494.185C498.95 608.454 502.812 612.317 502.812 617.082V664.056C502.812 668.821 498.95 672.682 494.185 672.682Z" stroke="black" stroke-width="20" stroke-miterlimit="10" stroke-linecap="round" stroke-linejoin="round"/>
<path d="M353.738 166.386L366.562 192.37C368.577 196.454 372.473 199.283 376.978 199.938L405.654 204.104C417.001 205.752 421.532 219.696 413.321 227.7L392.572 247.926C389.31 251.104 387.822 255.684 388.593 260.171L393.49 288.731C395.429 300.031 383.568 308.648 373.418 303.314L347.77 289.83C343.741 287.711 338.926 287.711 334.896 289.83L309.248 303.314C299.1 308.648 287.238 300.031 289.176 288.731L294.074 260.171C294.844 255.684 293.356 251.104 290.096 247.926L269.346 227.7C261.136 219.696 265.666 205.752 277.013 204.104L305.688 199.938C310.194 199.283 314.089 196.454 316.104 192.37L328.929 166.386C334.002 156.104 348.664 156.104 353.738 166.386Z" fill="#F9F7F8"/>
<path d="M392.574 247.927C389.307 251.101 387.827 255.686 388.587 260.167L393.494 288.727C395.427 300.034 383.574 308.647 373.414 303.314L362.867 297.767C365.134 294.487 366.227 290.314 365.454 285.781L359.667 252.034C358.76 246.739 360.52 241.327 364.374 237.566L388.894 213.674C392.2 210.447 393.76 206.394 393.84 202.381L405.654 204.101C417 205.753 421.534 219.701 413.32 227.701L392.574 247.927Z" fill="#EFEDEF"/>
<path d="M353.738 166.386L366.562 192.37C368.577 196.454 372.473 199.283 376.978 199.938L405.654 204.104C417.001 205.752 421.532 219.696 413.321 227.7L392.572 247.926C389.31 251.104 387.822 255.684 388.593 260.171L393.49 288.731C395.429 300.031 383.568 308.648 373.418 303.314L347.77 289.83C343.741 287.711 338.926 287.711 334.896 289.83L309.248 303.314C299.1 308.648 287.238 300.031 289.176 288.731L294.074 260.171C294.844 255.684 293.356 251.104 290.096 247.926L269.346 227.7C261.136 219.696 265.666 205.752 277.013 204.104L305.688 199.938C310.194 199.283 314.089 196.454 316.104 192.37L328.929 166.386C334.002 156.104 348.664 156.104 353.738 166.386Z" stroke="black" stroke-width="20" stroke-miterlimit="10" stroke-linecap="round" stroke-linejoin="round"/>
</g>
</g>
<defs>
<clipPath id="clip0_287_2">
<rect width="682.667" height="682.667" fill="white"/>
</clipPath>
</defs>
</svg>
