<svg width="192" height="36" viewBox="0 0 192 36" fill="none" xmlns="http://www.w3.org/2000/svg">
<g clip-path="url(#clip0_3_51)">
<path d="M39.5868 15.9001C39.5868 15.5001 39.3228 15.1834 38.8113 14.9667C38.6133 14.8834 38.4483 14.7334 38.3328 14.5667C38.2173 14.3834 38.1513 14.1667 38.1513 13.9501C38.1513 13.4167 38.5473 12.9501 39.0918 12.9001L42.2103 12.5834C42.3753 12.5667 42.5238 12.6334 42.6393 12.7334C42.7713 12.8501 42.8868 13.0167 42.9528 13.1834C42.9858 13.2834 43.0848 13.3667 43.1838 13.3667C43.2333 13.3667 43.2828 13.3501 43.3158 13.3334C44.0088 12.8501 44.8503 12.5834 45.7083 12.5834C46.8303 12.5834 47.7048 12.8334 48.3483 13.3334C48.4473 13.4167 48.5958 13.4667 48.7278 13.4667C48.8103 13.4667 48.8928 13.4501 48.9588 13.4001C49.9323 12.8501 51.0378 12.5501 52.1598 12.5667C53.5953 12.5667 54.6348 12.9167 55.2948 13.6167C55.9548 14.3167 56.2848 15.3667 56.2848 16.7834V21.8667C56.2848 22.2334 56.5323 22.5834 57.0273 22.8834C57.2088 22.9834 57.3408 23.1334 57.4398 23.3167C57.5388 23.5001 57.6048 23.7001 57.6048 23.9167C57.6048 24.4667 57.1758 24.9167 56.6313 24.9167H52.5888C52.0443 24.9167 51.5988 24.4667 51.5988 23.9334C51.5988 23.5667 51.7638 23.2001 52.0608 22.9834C52.2093 22.8501 52.3248 22.7501 52.4073 22.6667C52.5063 22.5667 52.5888 22.4501 52.6548 22.3167C52.7373 22.1834 52.7703 22.0334 52.7703 21.8834V17.7501C52.7703 16.8167 52.6548 16.1334 52.4403 15.7167C52.2258 15.3001 51.8628 15.1001 51.3348 15.1001C51.0048 15.1001 50.6418 15.2501 50.2458 15.5334C49.8663 15.8001 49.6848 16.2501 49.6848 16.8501V21.8834C49.6848 22.2334 49.9158 22.6001 50.3943 22.9834C50.6748 23.2001 50.8398 23.5501 50.8398 23.9167C50.8398 24.1834 50.7408 24.4334 50.5593 24.6167C50.3778 24.8001 50.1303 24.9001 49.8663 24.9001H45.9888C45.7248 24.9001 45.4773 24.8001 45.2958 24.6167C45.1143 24.4334 44.9988 24.1834 45.0153 23.9167C44.9988 23.5501 45.1803 23.1834 45.4608 22.9667C45.9393 22.5834 46.1868 22.2334 46.1868 21.8834V17.7501C46.1868 16.8167 46.0713 16.1334 45.8568 15.7167C45.6423 15.3001 45.2133 15.0667 44.7678 15.1001C44.4213 15.1001 44.0418 15.2667 43.6293 15.5834C43.2663 15.8501 43.0848 16.3001 43.0848 16.9334V21.9001C43.0848 22.2501 43.3158 22.6334 43.7778 23.0167C44.0583 23.2334 44.2233 23.5834 44.2233 23.9334C44.2233 24.2001 44.1243 24.4501 43.9428 24.6334C43.7613 24.8167 43.5138 24.9334 43.2498 24.9334H39.1413C38.5968 24.9334 38.1513 24.4834 38.1513 23.9334C38.1513 23.7001 38.2173 23.4834 38.3328 23.3001C38.4483 23.1167 38.6133 22.9501 38.8113 22.8667C39.3228 22.6167 39.5703 22.3001 39.5703 21.9001L39.5868 15.9001Z" fill="white"/>
<path d="M65.8878 15.6169C65.8878 15.3169 65.7228 15.0169 65.4093 14.7336C65.1453 14.5169 65.0133 14.1836 65.0133 13.8502C65.0133 13.3002 65.4588 12.8502 66.0033 12.8502H69.8643C70.1283 12.8502 70.3923 12.9502 70.5738 13.1502C70.7718 13.3336 70.8708 13.6002 70.8708 13.8669C70.8708 14.1002 70.8048 14.3169 70.6893 14.5169C70.5738 14.7169 70.3923 14.8669 70.1943 14.9669C69.9633 15.0836 69.7488 15.2336 69.5508 15.3836C69.3858 15.5169 69.2538 15.7002 69.1713 15.9169L64.8648 27.4169C64.7163 27.8336 64.5018 28.2336 64.2543 28.6002C64.0068 28.9669 63.7098 29.3002 63.3633 29.6002C62.6373 30.2336 61.7133 30.5836 60.7398 30.5836C59.9643 30.5836 59.3208 30.3836 58.8423 30.0002C58.3638 29.6002 58.1163 29.0002 58.1163 28.1836C58.0998 27.7836 58.2483 27.3836 58.5288 27.0836C58.7928 26.8002 59.1558 26.6502 59.5353 26.6502C59.8158 26.6502 60.0963 26.7002 60.3438 26.8169C60.5913 26.9169 60.8223 27.0669 61.0038 27.2669C61.0863 27.3669 61.2018 27.4502 61.3338 27.4669C61.4493 27.4502 61.5483 27.3836 61.5813 27.2669C61.8783 26.6836 62.1258 26.0669 62.3403 25.4502C62.4228 25.2169 62.4723 24.9669 62.4723 24.7336C62.4723 24.4669 62.4228 24.2169 62.3238 23.9669L59.2713 15.9169C59.1393 15.5502 58.7928 15.2336 58.2318 15.0002C58.0173 14.9002 57.8193 14.7502 57.6873 14.5502C57.5553 14.3502 57.4893 14.1169 57.4893 13.8669C57.4893 13.3002 57.9348 12.8502 58.4958 12.8502H62.6538C62.9178 12.8502 63.1818 12.9502 63.3633 13.1502C63.5613 13.3336 63.6603 13.6002 63.6603 13.8836C63.6603 14.2502 63.5118 14.6002 63.2313 14.8336C62.9013 15.1336 62.7363 15.4169 62.7363 15.7169C62.7363 15.7836 62.7528 15.8669 62.7693 15.9336L63.9903 19.5002C64.0398 19.6169 64.1553 19.6836 64.2873 19.6669C64.4193 19.6669 64.5183 19.5669 64.5843 19.4002L65.8713 15.8669C65.8878 15.7836 65.8878 15.7002 65.8878 15.6169Z" fill="white"/>
<path d="M79.1538 25.2166C78.6588 25.2166 78.1803 25.1666 77.7018 25.0666C77.1903 24.9666 76.6953 24.8166 76.2168 24.6166C75.7218 24.4166 75.2433 24.15 74.7813 23.85C74.3193 23.5333 73.8903 23.1666 73.5108 22.75C73.1148 22.3166 72.7683 21.8333 72.4878 21.3166C72.1743 20.75 71.9433 20.15 71.8113 19.5166C71.6463 18.8 71.5638 18.0833 71.5638 17.35C71.5638 15.5666 71.8938 14.0166 72.5538 12.6833C73.1808 11.3833 74.1708 10.3 75.4083 9.58331C76.6623 8.84997 78.1308 8.48331 79.8138 8.48331C80.1768 8.48331 80.5233 8.49997 80.8533 8.53331C81.1998 8.56664 81.5463 8.61664 81.8928 8.68331C82.2393 8.74997 82.5693 8.86664 82.8828 9.01664C83.1798 9.16664 83.4438 9.33331 83.6913 9.54997C83.9388 9.76664 84.1368 10.0333 84.2688 10.35C84.4173 10.7 84.4833 11.0666 84.4668 11.45V12.05C84.4668 12.9166 83.7738 13.6333 82.8993 13.6333C82.0248 13.6333 81.2493 13.1166 80.9193 12.3C80.8203 12.05 80.6718 11.8166 80.4738 11.65C80.2923 11.4833 80.0448 11.4 79.7973 11.4166C78.4113 11.4666 77.3388 11.9833 76.5798 12.95C75.8208 13.9333 75.4578 15.2833 75.4743 17.0166C75.4743 17.55 75.5238 18.1 75.6393 18.6166C75.8043 19.4333 76.2003 20.2 76.7778 20.8166C77.0088 21.0833 77.2893 21.3 77.6028 21.4666C77.8833 21.6166 78.1803 21.7333 78.4773 21.8166C78.7578 21.9 79.0548 21.9333 79.3518 21.9333C79.8963 21.95 80.4408 21.8833 80.9688 21.75C81.4638 21.6 81.9423 21.3833 82.3713 21.1C82.5858 20.9666 82.8168 20.9 83.0643 20.9C83.4108 20.8833 83.7408 21.0166 83.9718 21.2833C84.2028 21.55 84.3348 21.8833 84.3183 22.2333C84.3018 22.6833 84.1203 23.1166 83.7903 23.4166C83.4273 23.8166 82.9818 24.1333 82.4868 24.3666C81.9588 24.6333 81.3978 24.8333 80.8203 24.9833C80.2758 25.15 79.7148 25.2166 79.1538 25.2166Z" fill="white"/>
<path d="M87.0901 15.8336C87.0901 15.4336 86.8261 15.1169 86.3146 14.9002C86.1166 14.8169 85.9516 14.6669 85.8361 14.5002C85.7206 14.3169 85.6546 14.1169 85.6546 13.8836C85.6546 13.3336 86.0671 12.8836 86.5951 12.8169L89.7301 12.5002C89.8951 12.4836 90.0436 12.5336 90.1756 12.6502C90.3241 12.7669 90.4231 12.9169 90.4726 13.0836C90.4891 13.2002 90.6046 13.2669 90.7201 13.2669C90.7696 13.2669 90.8191 13.2502 90.8521 13.2169C91.4791 12.7502 92.2381 12.5002 93.0136 12.5002C93.6901 12.5002 94.2181 12.6836 94.5976 13.0669C94.9771 13.4502 95.1751 13.9836 95.1751 14.6502V14.9169C95.1751 15.7002 94.5481 16.3336 93.7726 16.3336C93.2116 16.3336 92.6671 16.1502 92.2381 15.8002C91.9081 15.5502 91.6441 15.4169 91.4296 15.4169C91.3141 15.4169 91.1821 15.4502 91.0831 15.5336C90.7531 15.7502 90.5881 16.1669 90.5881 16.7669V21.7669C90.5881 21.9836 90.6706 22.2002 90.8026 22.3669C90.9346 22.5336 91.1326 22.6502 91.3471 22.6669C91.6276 22.7002 91.8751 22.8502 92.0566 23.0669C92.2381 23.2836 92.3371 23.5502 92.3371 23.8336C92.3371 24.3836 91.9081 24.8336 91.3636 24.8336C91.3636 24.8336 91.3636 24.8336 91.3471 24.8336H86.6446C86.3806 24.8336 86.1331 24.7336 85.9516 24.5502C85.7536 24.3669 85.6546 24.1169 85.6546 23.8502C85.6546 23.6169 85.7206 23.4002 85.8361 23.2002C85.9516 23.0002 86.1331 22.8502 86.3311 22.7502C86.8426 22.5169 87.0901 22.2002 87.0901 21.8169V15.8336Z" fill="white"/>
<path d="M95.9345 19.0837C95.918 18.1837 96.0335 17.3003 96.281 16.4337C96.4955 15.6837 96.842 14.9837 97.304 14.367C97.7825 13.767 98.393 13.3003 99.086 13.0003C99.8945 12.6503 100.752 12.4837 101.627 12.5003C102.254 12.4837 102.897 12.5837 103.491 12.7837C104.481 13.0837 105.323 13.767 105.834 14.667C106.082 15.1003 106.263 15.5837 106.379 16.067C106.494 16.5837 106.544 17.117 106.544 17.6503C106.544 18.0837 106.362 18.5003 106.049 18.8003C105.735 19.117 105.306 19.2837 104.861 19.2837H100.307C100.109 19.2837 99.9275 19.3503 99.7955 19.4837C99.6635 19.6003 99.581 19.7837 99.581 19.967C99.614 20.317 99.6965 20.667 99.8285 21.0003C100.158 21.967 100.884 22.467 102.023 22.467C102.452 22.467 102.864 22.417 103.277 22.317C103.689 22.2003 104.102 22.0337 104.481 21.817C104.63 21.7337 104.795 21.7003 104.943 21.7003C105.224 21.7003 105.488 21.817 105.669 22.0337C105.867 22.2503 105.966 22.5337 105.966 22.8337C105.966 23.2337 105.735 23.617 105.29 23.967C104.778 24.3503 104.217 24.6337 103.607 24.8003C102.963 25.0003 102.303 25.1003 101.643 25.1003C99.7295 25.1003 98.294 24.5837 97.337 23.567C96.38 22.5503 95.9345 21.067 95.9345 19.0837ZM100.356 17.0837L102.122 16.967C102.303 16.967 102.468 16.8837 102.6 16.7503C102.732 16.6337 102.798 16.4503 102.798 16.2837C102.798 16.1503 102.765 16.0337 102.716 15.917C102.485 15.167 102.039 14.8003 101.396 14.8003C100.653 14.8003 100.142 15.2337 99.845 16.0837C99.7955 16.217 99.7625 16.367 99.746 16.517C99.746 16.8337 100.026 17.1003 100.356 17.0837Z" fill="white"/>
<path d="M115.503 11.9834V10.2834C115.503 9.88338 115.239 9.56672 114.728 9.33338C114.53 9.25005 114.365 9.10005 114.249 8.91672C114.134 8.73338 114.068 8.51672 114.068 8.30005C114.068 8.03338 114.167 7.76672 114.348 7.56672C114.53 7.36672 114.777 7.23338 115.041 7.21672L117.665 6.96672C118.044 6.93338 118.424 7.08338 118.655 7.40005C118.935 7.70005 119.084 8.10005 119.067 8.51672L119.084 21.8C119.084 22 119.15 22.2 119.298 22.35C119.447 22.5167 119.645 22.65 119.843 22.7334C120.057 22.8167 120.222 22.9667 120.354 23.15C120.486 23.3334 120.552 23.5667 120.552 23.8C120.552 24.0667 120.453 24.3167 120.272 24.5167C120.09 24.7167 119.843 24.8334 119.579 24.85L116.394 25.1167C116.229 25.1334 116.081 25.0834 115.949 24.9667C115.817 24.85 115.701 24.7 115.635 24.5334C115.602 24.4167 115.503 24.3334 115.388 24.3334C115.338 24.3334 115.289 24.35 115.256 24.3667C114.596 24.8334 113.82 25.1 113.012 25.1C111.378 25.1 110.108 24.5667 109.184 23.5167C108.26 22.4667 107.781 21 107.781 19.1667C107.765 18.2334 107.913 17.3167 108.194 16.45C108.458 15.6667 108.87 14.95 109.398 14.3334C109.926 13.75 110.57 13.2834 111.296 12.9834C112.088 12.65 112.929 12.5 113.787 12.5C113.952 12.5 114.117 12.5167 114.282 12.5334C114.447 12.55 114.612 12.5667 114.777 12.5667C114.959 12.5667 115.124 12.5167 115.272 12.4C115.421 12.3167 115.503 12.15 115.503 11.9834ZM114.018 22.5C114.282 22.5 114.53 22.45 114.777 22.3834C115.008 22.3334 115.19 22.2 115.322 22C115.454 21.8 115.52 21.5667 115.52 21.3334V15.9C115.52 15.6667 115.454 15.45 115.305 15.2667C115.173 15.0834 114.975 14.9667 114.744 14.95C114.629 14.9334 114.53 14.9334 114.414 14.9334C113.507 14.9334 112.797 15.2834 112.286 15.9667C111.774 16.65 111.527 17.6167 111.527 18.85C111.527 20.0667 111.725 20.9834 112.137 21.5834C112.533 22.2 113.16 22.5 114.018 22.5Z" fill="white"/>
<path d="M28.0699 35.2505C29.2579 35.2172 30.3469 32.8338 30.2809 27.2338C30.0994 10.2838 30.0004 7.38382 30.0004 7.38382C29.9674 6.13382 28.9279 5.13382 27.6904 5.16716H27.6739L4.62337 5.85049C3.38587 5.88382 2.39587 6.93382 2.42887 8.20049C2.42887 8.20049 2.47837 11.1005 3.27037 28.0338C3.53437 33.6172 4.75537 35.9338 5.94337 35.9005L28.0699 35.2505Z" fill="url(#paint0_radial_3_51)"/>
<path d="M30.2314 22.3672C30.0664 8.85049 30.0004 7.38382 30.0004 7.38382C29.9674 6.13382 28.9279 5.13382 27.6904 5.16716H27.6739L4.62337 5.85049C3.38587 5.88382 2.39587 6.93382 2.42887 8.20049C2.42887 8.20049 2.44537 9.66716 3.07237 23.2005C3.17137 23.3172 3.23737 23.3672 3.23737 23.3672C3.17137 15.0838 4.09537 11.7005 4.09537 11.7005C4.09537 11.7005 4.98637 12.3672 7.92337 12.4338C14.2099 12.5672 27.4099 8.46716 27.4099 8.46716C29.9839 14.4172 30.0829 22.5838 30.0829 22.5838C30.1324 22.5005 30.1819 22.4338 30.2314 22.3672Z" fill="#C9955D"/>
<path d="M25.8421 18.9835C25.8751 20.2168 24.9181 21.2501 23.6971 21.2835C22.4761 21.3168 21.4531 20.3501 21.4201 19.1168C21.3871 17.8835 22.3441 16.8501 23.5651 16.8168C24.7861 16.7835 25.8091 17.7501 25.8421 18.9835Z" fill="#C9955D"/>
<path d="M25.578 18.8336C25.611 19.9336 24.753 20.8336 23.6805 20.867C22.5915 20.9003 21.7005 20.0336 21.6675 18.9503C21.6345 17.8503 22.4925 16.9503 23.565 16.917C24.654 16.8836 25.545 17.7336 25.578 18.8336Z" fill="url(#paint1_radial_3_51)"/>
<path d="M27.0301 28.1669C27.0631 29.0169 26.3866 29.7336 25.5451 29.7669C24.7036 29.8002 23.9941 29.1169 23.9611 28.2669C23.9281 27.4169 24.6046 26.7002 25.4461 26.6669C26.3041 26.6336 26.9971 27.3169 27.0301 28.1669Z" fill="#F7B180"/>
<path d="M9.96921 28.6669C10.0022 29.5169 9.32571 30.2336 8.48421 30.2669C7.64271 30.3003 6.93321 29.6169 6.90021 28.7669C6.86721 27.9169 7.54371 27.2003 8.38521 27.1669C9.22671 27.1336 9.93621 27.8169 9.96921 28.6669Z" fill="#F7B180"/>
<path d="M7.24649 19.5338C7.27949 20.7672 8.3025 21.7338 9.5235 21.7005C10.7445 21.6672 11.7015 20.6338 11.6685 19.4005C11.6355 18.1672 10.6125 17.2005 9.39149 17.2338C8.17049 17.2672 7.21349 18.3005 7.24649 19.5338Z" fill="#C9955D"/>
<path d="M7.49442 19.3671C7.52742 20.4671 8.41842 21.3171 9.50742 21.3004C10.5964 21.2671 11.4379 20.3671 11.4214 19.2671C11.4049 18.1671 10.4974 17.3171 9.40842 17.3337C8.31942 17.3671 7.46142 18.2671 7.49442 19.3671Z" fill="url(#paint2_radial_3_51)"/>
<path d="M10.8439 18.317C11.0914 18.717 10.9924 19.2336 10.6459 19.4336C10.2994 19.6336 9.82093 19.4836 9.57343 19.067C9.32593 18.6503 9.42493 18.1503 9.77143 17.9503C10.1179 17.7503 10.5964 17.9003 10.8439 18.317Z" fill="white"/>
<path d="M25.0173 17.9001C25.2648 18.3168 25.1658 18.8168 24.8193 19.0335C24.4728 19.2501 23.9778 19.0835 23.7468 18.6668C23.5158 18.2501 23.5983 17.7501 23.9448 17.5501C24.2913 17.3501 24.7698 17.4835 25.0173 17.9001Z" fill="white"/>
<path d="M21.7834 28.5337C21.8164 28.7504 21.6679 28.9337 21.4699 28.967C21.4699 28.967 21.4699 28.967 21.4534 28.967C18.3844 29.417 15.2824 29.517 12.1969 29.2337C11.9824 29.217 11.8339 29.0337 11.8504 28.817C11.8669 28.6004 12.0484 28.4504 12.2629 28.467C15.2824 28.7337 18.3349 28.6504 21.3379 28.2004C21.5359 28.1837 21.7339 28.3337 21.7834 28.5337Z" fill="#836848"/>
<path d="M36.0391 2.48347L36.0886 2.5168C36.0886 2.5168 35.8081 2.5168 35.3626 2.5168C34.3066 2.55014 32.2771 2.73347 30.7591 3.4668L30.9076 3.43347C32.4586 3.05014 33.1021 3.6168 33.1021 3.6168C33.1021 3.6168 31.3036 4.6168 32.1121 6.80014C32.9206 8.98347 35.1646 19.0335 30.0826 24.5501C30.0991 24.3335 30.8251 15.7168 28.7296 9.6668H28.7131C28.0861 9.78347 14.3746 12.2335 8.12107 11.5501C5.13457 11.2335 4.24357 10.1668 4.24357 10.1668C4.24357 10.1668 3.30307 14.6835 2.65957 22.9001C2.57707 22.8001 -0.260934 19.8001 0.250566 13.1001C0.778566 6.28347 2.69257 3.73347 2.69257 3.73347L3.03907 5.20013L4.32607 3.2168L4.65607 4.70014L6.05857 3.15014L6.02557 4.3668C9.88657 2.88347 13.8796 1.75014 17.9386 0.950137C21.4696 0.266803 25.3306 -0.133197 28.8946 0.216803C31.5676 0.466803 34.0591 1.15014 36.1051 2.4668L36.0391 2.48347Z" fill="#201A14"/>
<path d="M29.7527 3.60011C29.3237 4.20011 30.2477 4.18344 31.0727 3.95011C31.6172 3.80011 31.9967 3.66677 32.0132 3.85011C32.0297 3.95011 31.9307 4.13344 31.7162 4.45011C31.6502 4.53344 31.6007 4.61677 31.5512 4.70011C31.3862 4.93344 31.2542 5.20011 31.1717 5.46677C31.0562 5.88344 31.1057 6.35011 31.2872 7.21677C31.6172 8.76677 32.4422 9.73344 32.5247 13.4668C32.6732 20.6834 30.6272 23.0834 30.6272 23.0834C30.6272 23.0834 30.6437 22.8168 30.6602 22.3168C30.7097 21.0334 30.7592 18.1501 30.5117 14.1168C30.3962 12.3334 29.9672 10.5834 29.2412 8.93344H29.2247C28.2512 9.15011 27.3107 9.33344 26.4197 9.50011L26.3372 9.51677C4.7717 13.6668 5.6627 8.88344 3.6332 9.71677C3.6332 9.71677 3.2867 9.30011 2.7422 15.2001C2.6102 16.6668 2.4782 18.5001 2.3132 20.8334C2.2967 21.0001 2.2472 21.0668 2.1482 21.0334C1.8017 20.9168 1.0097 19.4834 0.679696 16.7501C0.481696 15.0668 0.597196 13.1168 0.844696 11.3001V11.2834C1.0922 9.45011 1.4387 7.63344 1.9172 5.83344C2.1977 4.86677 2.4782 4.63344 2.5937 4.55011C2.6597 4.50011 2.6762 4.95011 2.7257 5.30011V5.31677C2.7257 5.35011 2.7257 5.36677 2.7422 5.40011C2.7587 5.45011 2.7587 5.50011 2.7752 5.53344C2.7752 5.55011 2.7917 5.56677 2.7917 5.56677C2.7917 5.56677 2.7917 5.56677 2.7917 5.58344C2.8247 5.68344 2.8742 5.75011 2.9567 5.71677C3.0722 5.68344 3.1547 5.60011 3.2207 5.50011C3.2537 5.46677 3.2702 5.43344 3.2867 5.40011L3.3197 5.35011C3.3197 5.33344 3.3362 5.33344 3.3362 5.33344V5.31677C3.5012 5.03344 3.6827 4.76677 3.8807 4.50011C4.1612 4.20011 4.2272 4.36677 4.2602 4.68344C4.2767 4.81677 4.2767 4.96677 4.3097 5.11677V5.16677C4.3097 5.16677 4.3097 5.16677 4.3097 5.18344C4.3097 5.25011 4.3427 5.31677 4.3757 5.36677C4.4747 5.46677 4.6232 5.36677 4.8047 5.13344C4.8872 5.03344 4.9532 4.91677 5.0192 4.80011C5.3327 4.23344 5.6132 3.96677 5.6792 4.01677C5.6957 4.03344 5.6957 4.13344 5.6792 4.23344C5.6627 4.46677 5.6627 4.80011 6.0422 4.88344H6.0752C6.2402 4.88344 6.6857 4.75011 7.3787 4.51677L7.4282 4.50011C9.5897 3.76677 14.0447 2.15011 19.7702 1.26677L19.8857 1.25011C20.2487 1.20011 20.6117 1.15011 20.9747 1.10011C20.9747 1.10011 27.4097 0.200105 32.7887 1.51677C34.1747 1.85011 34.7522 2.01677 34.8182 2.08344C34.8677 2.15011 34.6202 2.16677 34.2077 2.18344C33.0527 2.28344 30.6272 2.38344 29.7527 3.60011Z" fill="#44221B"/>
<path d="M31.0726 3.93349C31.4521 3.83349 31.7656 3.73349 31.9141 3.75016C31.9801 3.75016 32.0131 3.78349 32.0131 3.83349C31.9801 3.91683 31.9306 4.00016 31.8811 4.08349C31.7986 4.25016 31.6831 4.45016 31.5511 4.68349C31.4191 4.91682 31.2871 5.18349 31.1716 5.45016C30.8416 6.20016 30.6271 7.06683 30.9736 7.73349C31.6996 9.21683 32.7061 16.6335 31.3696 20.3168C31.3531 20.3668 31.0066 21.3168 30.6601 22.2835C30.7096 21.0002 30.7591 18.1168 30.5116 14.0835C30.3961 12.3002 29.9671 10.5502 29.2411 8.90016H29.2246C28.2511 9.11683 27.3106 9.30016 26.4196 9.46683L26.3371 9.48349C4.77164 13.6335 5.66264 8.85016 3.63314 9.68349C3.63314 9.68349 3.28664 9.26682 2.74214 15.1668C2.61014 16.6668 2.47814 18.5002 2.31314 20.8335C2.29664 21.0002 2.24714 21.0668 2.14814 21.0335C1.93364 20.6002 1.75214 20.1502 1.60364 19.6835C1.45514 19.3502 1.35614 19.0002 1.29014 18.6335C1.00964 16.9835 0.630139 13.9502 1.09214 11.5668C1.09214 11.5668 2.18114 5.56682 2.47814 5.41682C2.77514 5.26683 2.46164 6.78349 2.90714 6.53349C3.35264 6.28349 3.93014 4.93349 4.16114 4.98349C4.39214 5.03349 4.04564 6.28349 4.42514 6.20016C5.11814 6.05016 5.16764 5.01683 5.48114 4.96683C5.79464 4.91683 5.53064 6.41683 7.64264 5.13349C9.32564 4.11683 23.2846 -0.216508 31.0396 1.43349C31.0396 1.43349 33.3991 1.63349 34.8346 2.11683C34.8841 2.18349 34.6366 2.20016 34.2241 2.21683C33.0691 2.28349 30.9076 3.11683 29.7526 3.80016C29.0926 4.18349 30.2476 4.16682 31.0726 3.93349Z" fill="#4E2B1F"/>
<path d="M33.5479 2.2834C33.4984 2.26673 33.4324 2.25007 33.3829 2.2334C33.1519 2.15007 32.9044 2.10007 32.6569 2.05007C31.7164 1.86673 30.3799 1.71673 30.3799 1.71673C21.4534 0.150066 7.4779 5.40007 6.7849 5.6834C6.7024 5.71673 6.6199 5.75007 6.5539 5.76673C6.4879 5.7834 6.4219 5.80007 6.3724 5.81673C5.9764 5.8834 5.7949 5.71673 5.5804 5.40007C5.2999 4.9834 5.1349 6.15007 4.5409 6.36673C3.9469 6.5834 4.1449 5.46673 4.0789 5.26673C4.0129 5.06673 3.2374 6.76673 2.8744 6.6334C2.5114 6.50007 2.7919 5.51673 2.4949 5.6834C2.1979 5.85007 1.1254 11.8001 1.1254 11.8001V11.7834C1.3234 9.9834 1.6369 8.20007 2.0494 6.45007C2.2969 5.50007 2.5609 5.26673 2.6764 5.1834C2.7424 5.1334 2.7589 5.56673 2.8249 5.91673V5.9334C2.8249 5.96673 2.8249 5.9834 2.8414 6.01673C2.8414 6.06673 2.8579 6.10007 2.8744 6.15007C2.8744 6.16673 2.8744 6.1834 2.8909 6.1834C2.8909 6.1834 2.8909 6.1834 2.8909 6.20007C3.0064 6.4334 3.1879 6.26673 3.3034 6.11673C3.3364 6.0834 3.3529 6.05007 3.3694 6.01673L3.4024 5.96673L3.4189 5.9334V5.91673C3.5014 5.71673 4.2439 4.01673 4.3099 5.2834C4.3099 5.4334 4.3264 5.60007 4.3594 5.75007C4.3594 5.75007 4.3594 5.75007 4.3594 5.76673C4.3759 5.8334 4.3924 5.90007 4.4254 5.95007C4.5739 6.16673 4.8049 5.75007 4.8379 5.71673C4.8874 5.61673 5.8609 3.60007 5.6794 4.8334C5.6134 5.26673 5.7784 5.4334 6.0424 5.46673H6.0754C6.1249 5.46673 6.1909 5.46673 6.2404 5.46673C6.3064 5.46673 6.3559 5.45007 6.4219 5.4334C6.7354 5.35007 7.0489 5.2334 7.3459 5.0834L7.3789 5.06673C7.9069 4.90007 13.6489 2.9834 19.3084 1.65007L19.4074 1.6334C26.3044 0.316732 31.2049 1.26673 33.2839 1.85007C33.7459 1.9834 34.0759 2.0834 34.2574 2.15007C34.3564 2.1834 34.4059 2.20007 34.4059 2.20007C34.6369 2.30007 34.0264 2.40007 33.5479 2.2834Z" fill="#7C4C2B"/>
<path d="M3.53411 9.83354C3.53411 9.83354 3.03911 10.1169 2.84111 11.0669C2.64311 12.0169 2.56061 17.3669 2.56061 17.3669C2.56061 17.3669 3.08861 10.4169 3.53411 9.83354Z" fill="#7C4C2B"/>
<path d="M31.6996 4.017C31.6666 4.08367 31.5511 4.08367 31.5016 4.18367C30.6271 4.93367 30.2971 5.13367 29.3566 5.83367C27.8881 6.93367 26.2711 7.83367 24.5551 8.50034C19.7206 10.3837 16.1731 10.8837 13.5496 10.6503C8.96262 10.2337 7.46112 8.067 6.85062 6.367L6.65262 5.967C7.37862 7.667 9.32562 9.78367 13.5991 10.1503C15.7771 10.3337 19.2751 9.967 24.5881 8.067C26.0731 7.567 27.4921 6.85034 28.7791 5.93367C29.6206 5.35034 30.5281 4.767 31.6996 4.017C31.7491 4.017 31.6996 3.95034 31.6996 4.017Z" fill="#7C4C2B"/>
<path d="M34.2902 2.16688C34.0757 2.20021 33.8282 2.23355 33.5477 2.28355C32.6072 2.46688 31.6832 2.76688 30.8087 3.18355C25.6937 5.78355 16.8662 9.43354 8.83075 6.03355C16.8497 9.01688 26.4692 5.15021 31.8482 2.40021C32.1122 2.26688 32.3762 2.15021 32.6402 2.05021C32.8547 1.96688 33.0692 1.90021 33.3002 1.85021C33.7787 1.98355 34.1087 2.08355 34.2902 2.16688Z" fill="#7C4C2B"/>
<path d="M36.0723 2.50013C36.0723 2.50013 32.7888 2.41679 30.6273 3.51679C25.2153 6.30013 16.3383 9.78346 8.4678 5.90013C16.8498 9.25013 26.0238 5.61679 31.7493 2.70013C32.7063 2.25013 33.7458 1.93346 34.7853 1.78346C35.2308 2.00013 35.6598 2.23346 36.0723 2.50013Z" fill="#201A14"/>
<path d="M32.0133 3.85024C31.9803 3.93358 31.9308 4.01691 31.8813 4.10024C30.9903 4.86691 30.6603 5.06691 29.6868 5.80024C28.1688 6.93358 26.5188 7.85024 24.7533 8.53358C19.8033 10.4502 16.1568 10.9836 13.4673 10.7502C8.76484 10.3336 7.32934 7.98358 6.68584 6.25024L6.61984 6.00024C7.36234 7.73358 9.14434 9.93358 13.5168 10.3169C16.2063 10.5502 19.8528 10.0336 24.8028 8.10024C26.5518 7.41691 28.2183 6.50024 29.7363 5.36691C30.5778 4.73358 31.0728 4.45024 31.9308 3.75024C31.9803 3.76691 32.0133 3.80024 32.0133 3.85024Z" fill="#201A14"/>
<path d="M10.4478 6.03329C11.2563 6.18329 12.0648 6.28329 12.8733 6.31663C13.2858 6.33329 13.6818 6.36662 14.0943 6.36662H14.7048C14.9028 6.36662 15.1173 6.34996 15.3153 6.34996L15.9258 6.33329C16.1238 6.31663 16.3383 6.29996 16.5363 6.28329C16.9488 6.24996 17.3448 6.23329 17.7573 6.16663C18.1698 6.11663 18.5658 6.08329 18.9783 6.01663L20.1828 5.81663C20.3808 5.78329 20.5788 5.73329 20.7768 5.69996L21.3708 5.56663L21.9648 5.43329C22.1628 5.38329 22.3608 5.33329 22.5588 5.28329L23.7468 4.96663L24.9183 4.58329L25.4958 4.38329C25.6938 4.31663 25.8753 4.23329 26.0733 4.16663L27.2118 3.71663L27.4923 3.59996L27.7728 3.46663L28.3338 3.21663L29.4558 2.69996L28.3503 3.23329L27.7893 3.49996L27.5088 3.63329L27.2283 3.74996L26.0898 4.21663C25.8918 4.28329 25.7103 4.38329 25.5123 4.43329L24.9348 4.63329L23.7798 5.03329L22.5918 5.36662C22.3938 5.41663 22.1958 5.48329 21.9978 5.53329L21.4038 5.66663L20.8098 5.79996C20.6118 5.84996 20.4138 5.89996 20.2158 5.91663L19.0113 6.11662C18.6153 6.18329 18.2028 6.21663 17.7903 6.26663C17.3778 6.31663 16.9818 6.33329 16.5693 6.36662C16.3713 6.38329 16.1568 6.39996 15.9588 6.39996L15.3483 6.41663C15.1503 6.41663 14.9358 6.43329 14.7378 6.43329L14.1273 6.41663C13.7148 6.41663 13.3023 6.38329 12.9063 6.36662C12.0648 6.31662 11.2398 6.19996 10.4478 6.03329Z" fill="#7C4C2B"/>
<path d="M29.6043 4.68369C27.9048 5.58369 26.1393 6.36702 24.3408 7.05035C22.5423 7.75035 20.6943 8.30035 18.8133 8.73369C16.9323 9.13369 15.0018 9.36702 13.0713 9.18369C12.1143 9.10035 11.1573 8.86702 10.2663 8.48369C9.3753 8.10035 8.5833 7.51702 7.9563 6.78369C8.5998 7.51702 9.3918 8.08369 10.2993 8.45035C11.1903 8.81702 12.1308 9.05035 13.0878 9.11702C15.0018 9.30035 16.9323 9.05035 18.8133 8.65035C20.6943 8.23369 22.5423 7.68369 24.3408 7.00035C25.2483 6.66702 26.1393 6.30035 27.0138 5.91702C27.8883 5.53369 28.7463 5.11702 29.6043 4.68369Z" fill="#7C4C2B"/>
<path d="M25.7433 2.76671C24.7698 3.11671 23.7633 3.41671 22.7403 3.65005C21.7338 3.90005 20.7108 4.11671 19.6878 4.30005C18.6648 4.48338 17.6418 4.66671 16.6023 4.80005C16.0908 4.86671 15.5628 4.91671 15.0513 4.95005C14.7873 4.96671 14.5233 4.98338 14.2758 4.96671C14.1438 4.96671 14.0118 4.95005 13.8798 4.93338C13.7478 4.93338 13.6158 4.90005 13.5003 4.83338C13.6158 4.88338 13.7478 4.91671 13.8798 4.91671C14.0118 4.93338 14.1438 4.93338 14.2758 4.93338C14.5398 4.93338 14.7873 4.91671 15.0513 4.90005C15.5628 4.86671 16.0908 4.80005 16.6023 4.73338C17.1138 4.66671 17.6253 4.58338 18.1368 4.50005C18.6483 4.41671 19.1598 4.33338 19.6713 4.23338C20.6943 4.05005 21.7173 3.83338 22.7238 3.60005C23.7468 3.40005 24.7533 3.11671 25.7433 2.76671Z" fill="#7C4C2B"/>
<path d="M4.3096 7.30023C4.3921 7.5169 4.4911 7.7169 4.6396 7.90023C4.7716 8.08357 4.9036 8.2669 5.0686 8.4169C5.3821 8.73356 5.7286 9.0169 6.1246 9.25023C6.5041 9.48357 6.9166 9.70023 7.3291 9.8669C7.5436 9.95023 7.7581 10.0169 7.9561 10.1002L8.5996 10.3002L7.9396 10.1502C7.7251 10.0836 7.5106 10.0169 7.2961 9.93356L6.9826 9.80023L6.8176 9.73357L6.6691 9.6669L6.3556 9.50023L6.0751 9.33356C5.6956 9.10023 5.3326 8.80023 5.0191 8.4669C4.7056 8.13357 4.4581 7.73357 4.3096 7.30023Z" fill="#7C4C2B"/>
<path d="M4.60663 7.0002C4.67263 7.13353 4.77163 7.2502 4.87063 7.36686C4.96963 7.48353 5.06863 7.58353 5.18413 7.66686C5.41513 7.8502 5.66263 8.01687 5.92663 8.13353C6.19063 8.26687 6.47113 8.36686 6.75163 8.4502C6.90013 8.5002 7.03213 8.51687 7.18063 8.56687L7.62613 8.6502C7.47763 8.63353 7.32913 8.61686 7.18063 8.6002C7.03213 8.58353 6.88363 8.5502 6.73513 8.51686C6.43813 8.4502 6.15763 8.33353 5.89363 8.21687C5.62963 8.08353 5.36563 7.91687 5.15113 7.71687C4.92013 7.51687 4.73863 7.28353 4.60663 7.0002Z" fill="#7C4C2B"/>
<path d="M2.95683 7.48371C2.94033 7.90038 2.90733 8.33371 2.84133 8.75038C2.77533 9.16704 2.67633 9.58371 2.56083 10.0004C2.44533 10.417 2.23083 10.7837 2.13183 11.2004C2.01633 11.6004 1.93383 12.017 1.86783 12.4337C1.73583 13.267 1.66983 14.117 1.63683 14.967C1.62033 15.3837 1.62033 15.817 1.65333 16.2337C1.66983 16.6504 1.73583 17.0837 1.85133 17.4837C1.70283 17.0837 1.62033 16.667 1.60383 16.2337C1.58733 16.017 1.57083 15.8004 1.57083 15.6004C1.57083 15.4004 1.57083 15.167 1.57083 14.967C1.58733 14.117 1.68633 13.267 1.83483 12.4337C1.90083 12.017 1.99983 11.6004 2.11533 11.1837C2.23083 10.767 2.41233 10.3837 2.51133 9.98371C2.70933 9.15038 2.87433 8.31704 2.95683 7.48371Z" fill="#7C4C2B"/>
<path d="M21.1396 10.1168C22.0306 9.81683 22.9546 9.55016 23.8621 9.31683C24.7696 9.08349 25.7101 8.88349 26.6506 8.73349C27.1291 8.65016 27.5911 8.61683 28.0366 8.50016C28.4821 8.38349 28.9111 8.18349 29.2906 7.91683C29.6701 7.65016 29.9836 7.30016 30.2476 6.90016C30.3796 6.70016 30.4951 6.48349 30.5941 6.28349C30.6931 6.06683 30.7756 5.85016 30.8911 5.6335C30.8086 5.85016 30.7426 6.0835 30.6601 6.31683C30.5776 6.55016 30.4786 6.76683 30.3466 6.96683C30.1156 7.40016 29.7856 7.76683 29.3896 8.05016C28.9936 8.33349 28.5481 8.53349 28.0696 8.65016C27.8386 8.70016 27.5911 8.75016 27.3601 8.76683C27.1291 8.80016 26.8816 8.81683 26.6506 8.85016C25.7101 8.98349 24.7861 9.16683 23.8621 9.40016C22.9381 9.63349 22.0471 9.85016 21.1396 10.1168Z" fill="#7C4C2B"/>
<path d="M29.934 8.54994C30.3135 9.19994 30.627 9.88327 30.891 10.5833C31.155 11.2833 31.3035 12.0333 31.32 12.7999C31.3365 13.5499 31.32 14.2999 31.287 15.0499C31.254 15.7999 31.188 16.5499 31.1055 17.2999C31.155 16.5499 31.2045 15.7999 31.221 15.0499C31.2375 14.2999 31.254 13.5499 31.2375 12.7999C31.221 12.0499 31.0725 11.3166 30.825 10.5999C30.594 9.89994 30.2805 9.21661 29.934 8.54994Z" fill="#7C4C2B"/>
</g>
<path d="M128.344 17.512C128.632 17.0427 129.005 16.6747 129.464 16.408C129.933 16.1413 130.467 16.008 131.064 16.008V18.36H130.472C129.768 18.36 129.235 18.5253 128.872 18.856C128.52 19.1867 128.344 19.7627 128.344 20.584V25H126.104V16.136H128.344V17.512ZM140.813 20.376C140.813 20.696 140.791 20.984 140.749 21.24H134.269C134.322 21.88 134.546 22.3813 134.941 22.744C135.335 23.1067 135.821 23.288 136.397 23.288C137.229 23.288 137.821 22.9307 138.173 22.216H140.589C140.333 23.0693 139.842 23.7733 139.117 24.328C138.391 24.872 137.501 25.144 136.445 25.144C135.591 25.144 134.823 24.9573 134.141 24.584C133.469 24.2 132.941 23.6613 132.557 22.968C132.183 22.2747 131.997 21.4747 131.997 20.568C131.997 19.6507 132.183 18.8453 132.557 18.152C132.93 17.4587 133.453 16.9253 134.125 16.552C134.797 16.1787 135.57 15.992 136.445 15.992C137.287 15.992 138.039 16.1733 138.701 16.536C139.373 16.8987 139.89 17.416 140.253 18.088C140.626 18.7493 140.813 19.512 140.813 20.376ZM138.493 19.736C138.482 19.16 138.274 18.7013 137.869 18.36C137.463 18.008 136.967 17.832 136.381 17.832C135.826 17.832 135.357 18.0027 134.973 18.344C134.599 18.6747 134.37 19.1387 134.285 19.736H138.493ZM154.736 16.136L152.144 25H149.728L148.112 18.808L146.496 25H144.064L141.456 16.136H143.728L145.296 22.888L146.992 16.136H149.36L151.024 22.872L152.592 16.136H154.736ZM155.372 20.536C155.372 19.64 155.548 18.8453 155.9 18.152C156.262 17.4587 156.748 16.9253 157.356 16.552C157.974 16.1787 158.662 15.992 159.42 15.992C160.081 15.992 160.657 16.1253 161.148 16.392C161.649 16.6587 162.049 16.9947 162.348 17.4V16.136H164.604V25H162.348V23.704C162.06 24.12 161.66 24.4667 161.148 24.744C160.646 25.0107 160.065 25.144 159.404 25.144C158.657 25.144 157.974 24.952 157.356 24.568C156.748 24.184 156.262 23.6453 155.9 22.952C155.548 22.248 155.372 21.4427 155.372 20.536ZM162.348 20.568C162.348 20.024 162.241 19.56 162.028 19.176C161.814 18.7813 161.526 18.4827 161.164 18.28C160.801 18.0667 160.412 17.96 159.996 17.96C159.58 17.96 159.196 18.0613 158.844 18.264C158.492 18.4667 158.204 18.7653 157.98 19.16C157.766 19.544 157.66 20.0027 157.66 20.536C157.66 21.0693 157.766 21.5387 157.98 21.944C158.204 22.3387 158.492 22.6427 158.844 22.856C159.206 23.0693 159.59 23.176 159.996 23.176C160.412 23.176 160.801 23.0747 161.164 22.872C161.526 22.6587 161.814 22.36 162.028 21.976C162.241 21.5813 162.348 21.112 162.348 20.568ZM169.032 17.512C169.32 17.0427 169.693 16.6747 170.152 16.408C170.621 16.1413 171.154 16.008 171.752 16.008V18.36H171.16C170.456 18.36 169.922 18.5253 169.56 18.856C169.208 19.1867 169.032 19.7627 169.032 20.584V25H166.792V16.136H169.032V17.512ZM172.684 20.536C172.684 19.64 172.86 18.8453 173.212 18.152C173.575 17.4587 174.066 16.9253 174.684 16.552C175.303 16.1787 175.991 15.992 176.748 15.992C177.324 15.992 177.874 16.12 178.396 16.376C178.919 16.6213 179.335 16.952 179.644 17.368V13.16H181.916V25H179.644V23.688C179.367 24.1253 178.978 24.4773 178.476 24.744C177.975 25.0107 177.394 25.144 176.732 25.144C175.986 25.144 175.303 24.952 174.684 24.568C174.066 24.184 173.575 23.6453 173.212 22.952C172.86 22.248 172.684 21.4427 172.684 20.536ZM179.66 20.568C179.66 20.024 179.554 19.56 179.34 19.176C179.127 18.7813 178.839 18.4827 178.476 18.28C178.114 18.0667 177.724 17.96 177.308 17.96C176.892 17.96 176.508 18.0613 176.156 18.264C175.804 18.4667 175.516 18.7653 175.292 19.16C175.079 19.544 174.972 20.0027 174.972 20.536C174.972 21.0693 175.079 21.5387 175.292 21.944C175.516 22.3387 175.804 22.6427 176.156 22.856C176.519 23.0693 176.903 23.176 177.308 23.176C177.724 23.176 178.114 23.0747 178.476 22.872C178.839 22.6587 179.127 22.36 179.34 21.976C179.554 21.5813 179.66 21.112 179.66 20.568ZM187.496 25.144C186.771 25.144 186.12 25.016 185.544 24.76C184.968 24.4933 184.509 24.136 184.168 23.688C183.837 23.24 183.656 22.744 183.624 22.2H185.88C185.923 22.5413 186.088 22.824 186.376 23.048C186.675 23.272 187.043 23.384 187.48 23.384C187.907 23.384 188.237 23.2987 188.472 23.128C188.717 22.9573 188.84 22.7387 188.84 22.472C188.84 22.184 188.691 21.9707 188.392 21.832C188.104 21.6827 187.64 21.5227 187 21.352C186.339 21.192 185.795 21.0267 185.368 20.856C184.952 20.6853 184.589 20.424 184.28 20.072C183.981 19.72 183.832 19.2453 183.832 18.648C183.832 18.1573 183.971 17.7093 184.248 17.304C184.536 16.8987 184.941 16.5787 185.464 16.344C185.997 16.1093 186.621 15.992 187.336 15.992C188.392 15.992 189.235 16.2587 189.864 16.792C190.493 17.3147 190.84 18.024 190.904 18.92H188.76C188.728 18.568 188.579 18.2907 188.312 18.088C188.056 17.8747 187.709 17.768 187.272 17.768C186.867 17.768 186.552 17.8427 186.328 17.992C186.115 18.1413 186.008 18.3493 186.008 18.616C186.008 18.9147 186.157 19.144 186.456 19.304C186.755 19.4533 187.219 19.608 187.848 19.768C188.488 19.928 189.016 20.0933 189.432 20.264C189.848 20.4347 190.205 20.7013 190.504 21.064C190.813 21.416 190.973 21.8853 190.984 22.472C190.984 22.984 190.84 23.4427 190.552 23.848C190.275 24.2533 189.869 24.5733 189.336 24.808C188.813 25.032 188.2 25.144 187.496 25.144Z" fill="white"/>
<defs>
<radialGradient id="paint0_radial_3_51" cx="0" cy="0" r="1" gradientTransform="matrix(14.3451 -0.422448 -0.418223 -14.49 16.5845 20.5398)" gradientUnits="userSpaceOnUse">
<stop stop-color="#F9C387"/>
<stop offset="0.56" stop-color="#F9C086"/>
<stop offset="0.94" stop-color="#F8B782"/>
<stop offset="1" stop-color="#F8B581"/>
</radialGradient>
<radialGradient id="paint1_radial_3_51" cx="0" cy="0" r="1" gradientTransform="matrix(1.95942 -0.0577029 -0.0571259 -1.97921 23.6225 18.8904)" gradientUnits="userSpaceOnUse">
<stop stop-color="#333333"/>
<stop offset="0.46" stop-color="#313131"/>
<stop offset="0.71" stop-color="#292929"/>
<stop offset="0.9" stop-color="#1B1B1B"/>
<stop offset="1" stop-color="#111111"/>
</radialGradient>
<radialGradient id="paint2_radial_3_51" cx="0" cy="0" r="1" gradientTransform="matrix(-1.95855 0.05935 -0.0587565 -1.97833 9.4159 19.4447)" gradientUnits="userSpaceOnUse">
<stop stop-color="#333333"/>
<stop offset="0.46" stop-color="#313131"/>
<stop offset="0.71" stop-color="#292929"/>
<stop offset="0.9" stop-color="#1B1B1B"/>
<stop offset="1" stop-color="#111111"/>
</radialGradient>
<clipPath id="clip0_3_51">
<rect width="121" height="36" fill="white"/>
</clipPath>
</defs>
</svg>
