<?xml version="1.0" encoding="UTF-8" standalone="no"?>
<!-- Created with Inkscape (http://www.inkscape.org/) -->

<svg
   version="1.1"
   id="svg6696"
   xml:space="preserve"
   width="682.66669"
   height="682.66669"
   viewBox="0 0 682.66669 682.66669"
   xmlns="http://www.w3.org/2000/svg"
   xmlns:svg="http://www.w3.org/2000/svg"><defs
     id="defs6700"><clipPath
       clipPathUnits="userSpaceOnUse"
       id="clipPath6710"><path
         d="M 0,512 H 512 V 0 H 0 Z"
         id="path6708" /></clipPath></defs><g
     id="g6702"
     transform="matrix(1.3333333,0,0,-1.3333333,0,682.66667)"><g
       id="g6704"><g
         id="g6706"
         clip-path="url(#clipPath6710)"><g
           id="g6712"
           transform="translate(183.5503,227.252)"><path
             d="m 0,0 c -1.258,0 -2.534,0.136 -3.813,0.42 -82.081,18.24 -117.194,70.438 -132.196,111.015 -15.973,43.201 -12.741,81.993 -12.595,83.624 0.804,9.026 8.368,15.945 17.43,15.945 h 86.56 c 10.457,0 18.903,-8.567 18.026,-18.987 -0.755,-8.969 -8.274,-16.013 -17.437,-16.013 h -62.244 c -4.09,0 -7.284,-3.517 -6.904,-7.589 1.175,-12.597 3.986,-28.99 10.417,-45.979 C -85.159,75.942 -49.315,46.386 3.78,34.587 13.214,32.49 19.164,23.143 17.067,13.707 15.254,5.552 8.021,0.001 0,0"
             style="fill:#fe9738;fill-opacity:1;fill-rule:nonzero;stroke:none"
             id="path6714" /></g><g
           id="g6716"
           transform="translate(328.4497,227.252)"><path
             d="m 0,0 c 1.258,0 2.534,0.136 3.813,0.42 82.081,18.24 117.194,70.438 132.196,111.015 15.973,43.201 12.741,81.993 12.595,83.624 -0.804,9.026 -8.368,15.945 -17.43,15.945 h -86.56 c -10.457,0 -18.903,-8.567 -18.026,-18.987 0.755,-8.969 8.274,-16.013 17.437,-16.013 h 62.244 c 4.09,0 7.284,-3.517 6.904,-7.589 -1.175,-12.597 -3.986,-28.99 -10.417,-45.979 C 85.159,75.942 49.315,46.386 -3.78,34.587 -13.214,32.49 -19.164,23.143 -17.067,13.707 -15.254,5.552 -8.021,0.001 0,0"
             style="fill:#fe9738;fill-opacity:1;fill-rule:nonzero;stroke:none"
             id="path6718" /></g><g
           id="g6720"
           transform="translate(370.6387,7.4883)"><path
             d="m 0,0 h -229.277 c -3.574,0 -6.471,2.896 -6.471,6.47 V 41.7 c 0,3.574 2.897,6.471 6.471,6.471 L 0,48.171 c 3.574,0 6.47,-2.897 6.47,-6.471 V 6.47 C 6.47,2.896 3.574,0 0,0"
             style="fill:#5a5a5a;fill-opacity:1;fill-rule:nonzero;stroke:none"
             id="path6722" /></g><g
           id="g6724"
           transform="translate(377.1099,49.1924)"><path
             d="m 0,0 v -35.23 c 0,-3.581 -2.9,-6.47 -6.47,-6.47 h -20 c 3.57,0 6.47,2.889 6.47,6.47 V 0 c 0,3.569 -2.9,6.47 -6.47,6.47 h 20 C -2.9,6.47 0,3.569 0,0"
             style="fill:#444444;fill-opacity:1;fill-rule:nonzero;stroke:none"
             id="path6726" /></g><g
           id="g6728"
           transform="translate(335.8428,55.6592)"><path
             d="m 0,0 h -159.686 v 23.211 c 0,13.785 11.175,24.961 24.96,24.961 H -24.96 C -11.175,48.172 0,36.996 0,23.211 Z"
             style="fill:#9d9d9d;fill-opacity:1;fill-rule:nonzero;stroke:none"
             id="path6730" /></g><g
           id="g6732"
           transform="translate(335.8398,78.8721)"><path
             d="M 0,0 V -23.21 H -19.67 V 0 c 0,13.78 -11.18,24.96 -24.96,24.96 h 19.67 C -11.17,24.96 0,13.78 0,0"
             style="fill:#838383;fill-opacity:1;fill-rule:nonzero;stroke:none"
             id="path6734" /></g><g
           id="g6736"
           transform="translate(288.4766,196.7656)"><path
             d="M 0,0 11.172,18.442 H -76.125 L -64.953,0 c 7.797,-12.873 11.991,-28.314 11.991,-44.154 0,-9.677 -1.566,-19.263 -4.612,-28.242 l -6.97,-20.539 h 64.135 l -6.969,20.539 c -3.047,8.979 -4.613,18.565 -4.613,28.242 0,15.84 4.194,31.281 11.991,44.154"
             style="fill:#fe9738;fill-opacity:1;fill-rule:nonzero;stroke:none"
             id="path6738" /></g><g
           id="g6740"
           transform="translate(279.5601,175.8018)"><path
             d="m 0,0 c -2.02,-7.45 -3.07,-15.27 -3.07,-23.189 0,-9.681 1.56,-19.261 4.61,-28.241 l 6.97,-20.54 h -20.34 l -6.97,20.54 c -3.04,8.98 -4.61,18.56 -4.61,28.241 0,7.919 1.05,15.739 3.07,23.189 2.03,7.45 5.02,14.521 8.92,20.96 L -0.24,39.41 H 20.09 L 8.92,20.96 C 5.02,14.521 2.02,7.45 0,0"
             style="fill:#fe860a;fill-opacity:1;fill-rule:nonzero;stroke:none"
             id="path6742" /></g><g
           id="g6744"
           transform="translate(288.4766,196.7656)"><path
             d="M 0,0 11.172,18.442 H -76.125 L -64.953,0 c 7.797,-12.873 11.991,-28.314 11.991,-44.154 0,-9.677 -1.566,-19.263 -4.612,-28.242 l -6.97,-20.539 h 64.135 l -6.969,20.539 c -3.047,8.979 -4.613,18.565 -4.613,28.242 0,15.84 4.194,31.281 11.991,44.154 z"
             style="fill:none;stroke:#000000;stroke-width:15;stroke-linecap:round;stroke-linejoin:round;stroke-miterlimit:10;stroke-dasharray:none;stroke-opacity:1"
             id="path6746" /></g><g
           id="g6748"
           transform="translate(183.5503,227.252)"><path
             d="m 0,0 c -1.258,0 -2.534,0.136 -3.813,0.42 -82.081,18.24 -117.194,70.438 -132.196,111.015 -15.973,43.201 -12.741,81.993 -12.595,83.624 0.804,9.026 8.368,15.945 17.43,15.945 h 86.56 c 10.457,0 18.903,-8.567 18.026,-18.987 -0.755,-8.969 -8.274,-16.013 -17.437,-16.013 h -62.244 c -4.09,0 -7.284,-3.517 -6.904,-7.589 1.175,-12.597 3.986,-28.99 10.417,-45.979 C -85.159,75.942 -49.315,46.386 3.78,34.587 13.214,32.49 19.164,23.143 17.067,13.707 15.254,5.552 8.021,0.001 0,0 Z"
             style="fill:none;stroke:#000000;stroke-width:15;stroke-linecap:round;stroke-linejoin:round;stroke-miterlimit:10;stroke-dasharray:none;stroke-opacity:1"
             id="path6750" /></g><g
           id="g6752"
           transform="translate(426.3716,338.3008)"><path
             d="m 0,0 c -18.923,-39.96 -53.079,-65.657 -101.702,-76.462 -9.434,-2.097 -15.383,-11.444 -13.287,-20.88 1.813,-8.155 9.046,-13.706 17.067,-13.707 1.258,0 2.534,0.136 3.813,0.42 C -12.028,-92.389 23.085,-40.19 38.087,0.386 54.06,43.587 50.828,82.379 50.683,84.01 49.878,93.036 42.314,99.955 33.252,99.955 h -86.56 c -10.457,0 -18.903,-8.567 -18.026,-18.987 0.755,-8.969 8.274,-16.013 17.438,-16.013 H 8.347 c 4.09,0 7.284,-3.517 6.904,-7.589 -0.663,-7.101 -1.845,-15.41 -3.903,-24.351"
             style="fill:none;stroke:#000000;stroke-width:15;stroke-linecap:round;stroke-linejoin:round;stroke-miterlimit:10;stroke-dasharray:none;stroke-opacity:1"
             id="path6754" /></g><g
           id="g6756"
           transform="translate(256,199.9004)"><path
             d="M 0,0 V 0 C -72.594,0 -131.444,58.85 -131.444,131.443 V 262.888 H 131.444 V 131.443 C 131.444,58.85 72.594,0 0,0"
             style="fill:#fac600;fill-opacity:1;fill-rule:nonzero;stroke:none"
             id="path6758" /></g><g
           id="g6760"
           transform="translate(387.4399,462.792)"><path
             d="m 0,0 v -131.45 c 0,-72.59 -58.85,-131.44 -131.44,-131.44 -3.74,0 -7.45,0.16 -11.11,0.46 67.4,5.64 120.34,62.13 120.34,130.98 l 0,131.45 z"
             style="fill:#e8b801;fill-opacity:1;fill-rule:nonzero;stroke:none"
             id="path6762" /></g><g
           id="g6764"
           transform="translate(396.2031,462.7881)"><path
             d="m 0,0 h -280.406 c -5.109,0 -9.25,4.141 -9.25,9.249 V 32.47 c 0,5.108 4.141,9.249 9.25,9.249 H 0 c 5.108,0 9.25,-4.141 9.25,-9.249 V 9.249 C 9.25,4.141 5.108,0 0,0"
             style="fill:#fe9738;fill-opacity:1;fill-rule:nonzero;stroke:none"
             id="path6766" /></g><g
           id="g6768"
           transform="translate(405.4502,495.2617)"><path
             d="m 0,0 v -23.22 c 0,-5.11 -4.14,-9.25 -9.25,-9.25 h -21.26 c 5.11,0 9.25,4.14 9.25,9.25 V 0 c 0,5.101 -4.14,9.25 -9.25,9.25 H -9.25 C -4.14,9.25 0,5.101 0,0"
             style="fill:#fe860a;fill-opacity:1;fill-rule:nonzero;stroke:none"
             id="path6770" /></g><g
           id="g6772"
           transform="translate(205.8335,504.5068)"><path
             d="m 0,0 h 190.37 c 5.108,0 9.249,-4.141 9.249,-9.249 V -32.47 c 0,-5.108 -4.141,-9.249 -9.249,-9.249 H -90.037 c -5.108,0 -9.249,4.141 -9.249,9.249 v 23.221 c 0,5.108 4.141,9.249 9.249,9.249 h 54.871"
             style="fill:none;stroke:#000000;stroke-width:15;stroke-linecap:round;stroke-linejoin:round;stroke-miterlimit:10;stroke-dasharray:none;stroke-opacity:1"
             id="path6774" /></g><g
           id="g6776"
           transform="translate(256,199.9004)"><path
             d="M 0,0 V 0 C -72.594,0 -131.444,58.85 -131.444,131.443 V 262.888 H 131.444 V 131.443 C 131.444,58.85 72.594,0 0,0 Z"
             style="fill:none;stroke:#000000;stroke-width:15;stroke-linecap:round;stroke-linejoin:round;stroke-miterlimit:10;stroke-dasharray:none;stroke-opacity:1"
             id="path6778" /></g><g
           id="g6780"
           transform="translate(335.8428,55.6592)"><path
             d="m 0,0 h -159.686 v 23.211 c 0,13.785 11.175,24.961 24.96,24.961 H -24.96 C -11.175,48.172 0,36.996 0,23.211 Z"
             style="fill:none;stroke:#000000;stroke-width:15;stroke-linecap:round;stroke-linejoin:round;stroke-miterlimit:10;stroke-dasharray:none;stroke-opacity:1"
             id="path6782" /></g><g
           id="g6784"
           transform="translate(370.6387,7.4883)"><path
             d="m 0,0 h -229.277 c -3.574,0 -6.471,2.896 -6.471,6.47 V 41.7 c 0,3.574 2.897,6.471 6.471,6.471 L 0,48.171 c 3.574,0 6.47,-2.897 6.47,-6.471 V 6.47 C 6.47,2.896 3.574,0 0,0 Z"
             style="fill:none;stroke:#000000;stroke-width:15;stroke-linecap:round;stroke-linejoin:round;stroke-miterlimit:10;stroke-dasharray:none;stroke-opacity:1"
             id="path6786" /></g><g
           id="g6788"
           transform="translate(265.3037,387.2109)"><path
             d="m 0,0 9.618,-19.488 c 1.511,-3.063 4.433,-5.185 7.812,-5.676 l 21.507,-3.125 c 8.51,-1.236 11.908,-11.694 5.75,-17.697 L 29.125,-61.155 c -2.446,-2.384 -3.562,-5.819 -2.984,-9.184 l 3.673,-21.42 c 1.454,-8.475 -7.442,-14.938 -15.054,-10.937 l -19.236,10.113 c -3.022,1.589 -6.633,1.589 -9.656,0 l -19.236,-10.113 c -7.611,-4.001 -16.507,2.462 -15.054,10.937 l 3.674,21.42 c 0.577,3.365 -0.539,6.8 -2.984,9.184 l -15.562,15.169 c -6.158,6.003 -2.76,16.461 5.75,17.697 l 21.506,3.125 c 3.38,0.491 6.301,2.613 7.812,5.676 L -18.607,0 C -14.802,7.711 -3.806,7.711 0,0"
             style="fill:#f9f7f8;fill-opacity:1;fill-rule:nonzero;stroke:none"
             id="path6790" /></g><g
           id="g6792"
           transform="translate(294.4302,326.0547)"><path
             d="M 0,0 C -2.45,-2.38 -3.56,-5.819 -2.99,-9.18 L 0.69,-30.6 c 1.45,-8.48 -7.44,-14.94 -15.06,-10.94 l -7.91,4.16 c 1.7,2.46 2.52,5.59 1.94,8.99 l -4.34,25.31 c -0.68,3.971 0.64,8.03 3.53,10.851 L -2.76,25.69 c 2.48,2.42 3.65,5.46 3.71,8.47 l 8.86,-1.29 c 8.51,-1.239 11.91,-11.7 5.75,-17.7 z"
             style="fill:#efedef;fill-opacity:1;fill-rule:nonzero;stroke:none"
             id="path6794" /></g><g
           id="g6796"
           transform="translate(265.3037,387.2109)"><path
             d="m 0,0 9.618,-19.488 c 1.511,-3.063 4.433,-5.185 7.812,-5.676 l 21.507,-3.125 c 8.51,-1.236 11.908,-11.694 5.75,-17.697 L 29.125,-61.155 c -2.446,-2.384 -3.562,-5.819 -2.984,-9.184 l 3.673,-21.42 c 1.454,-8.475 -7.442,-14.938 -15.054,-10.937 l -19.236,10.113 c -3.022,1.589 -6.633,1.589 -9.656,0 l -19.236,-10.113 c -7.611,-4.001 -16.507,2.462 -15.054,10.937 l 3.674,21.42 c 0.577,3.365 -0.539,6.8 -2.984,9.184 l -15.562,15.169 c -6.158,6.003 -2.76,16.461 5.75,17.697 l 21.506,3.125 c 3.38,0.491 6.301,2.613 7.812,5.676 L -18.607,0 C -14.802,7.711 -3.806,7.711 0,0 Z"
             style="fill:none;stroke:#000000;stroke-width:15;stroke-linecap:round;stroke-linejoin:round;stroke-miterlimit:10;stroke-dasharray:none;stroke-opacity:1"
             id="path6798" /></g></g></g></g></svg>
