<svg width="28" height="28" viewBox="0 0 28 28" fill="none" xmlns="http://www.w3.org/2000/svg">
<g clip-path="url(#clip0_5_196)">
<path d="M27.4705 16.3852C27.183 15.9031 26.0087 14.4657 22.9723 16.2183L18.6116 18.7353C18.5174 18.7896 18.4227 18.8376 18.327 18.8794C18.3417 18.8352 18.3552 18.7901 18.3675 18.744C18.5159 18.1902 18.4295 17.5908 18.1306 17.0994C17.8426 16.6261 17.3933 16.3018 16.8655 16.186C15.3878 15.8619 13.9232 15.3562 12.7463 14.9499C12.3799 14.8234 12.0339 14.7039 11.7371 14.6076C10.3662 14.163 9.14704 14.7022 8.13532 15.2884L4.56253 17.3583L4.25196 16.8096C4.06826 16.4849 3.76836 16.2511 3.40758 16.1511C3.04676 16.0512 2.6693 16.0973 2.34468 16.2809L0.92838 17.0825C0.256817 17.4625 0.0196925 18.3182 0.399716 18.9897L4.56368 26.3472C4.82087 26.8016 5.29572 27.057 5.78397 27.057C6.01733 27.057 6.25374 26.9987 6.4709 26.8758L7.8872 26.0742C8.21183 25.8905 8.44567 25.5906 8.54569 25.2298C8.64572 24.8691 8.59956 24.4916 8.41586 24.167L8.14779 23.6933L8.75028 23.3455L15.1323 25.0556C15.5075 25.1561 15.8809 25.2061 16.2481 25.2061C16.9916 25.2061 17.7098 25.0013 18.3665 24.597L26.84 19.3793C27.7648 18.8098 28.0654 17.3827 27.4705 16.3852ZM7.28088 24.8793C7.2764 24.8955 7.26579 24.9179 7.24079 24.932L5.8245 25.7336C5.78414 25.7563 5.72879 25.7411 5.70593 25.7007L1.54203 18.3433C1.51922 18.303 1.53454 18.2476 1.5749 18.2248L2.99119 17.4232C3.00547 17.4152 3.01958 17.4125 3.03204 17.4125C3.0415 17.4125 3.05009 17.414 3.05709 17.4159C3.07328 17.4204 3.09565 17.431 3.10975 17.456L7.27372 24.8135C7.28783 24.8384 7.28542 24.8631 7.28088 24.8793ZM26.1518 18.2616L17.6783 23.4793C17.0028 23.8952 16.2606 23.999 15.4721 23.7878L8.8275 22.0074C8.65939 21.9623 8.48023 21.9858 8.32957 22.0729L7.50138 22.551L5.2091 18.5007L8.79332 16.4241C9.8869 15.7906 10.6225 15.626 11.3322 15.8562C11.6172 15.9486 11.9576 16.0661 12.318 16.1906C13.5271 16.6081 15.0318 17.1276 16.5844 17.4681C16.7587 17.5063 16.9095 17.6176 17.0093 17.7816C17.1229 17.9682 17.1558 18.1952 17.0997 18.4044C17.0599 18.5533 16.9431 18.9904 16.2619 18.9532C15.4485 18.7941 13.2595 18.1731 12.8932 18.075C12.5431 17.9811 12.1833 18.189 12.0894 18.5391C11.9957 18.8891 12.2034 19.2489 12.5535 19.3427C12.9105 19.4384 15.0329 20.0404 15.8178 20.2027C15.8976 20.222 16.4151 20.3164 16.5857 20.3437C17.5684 20.5009 18.4456 20.3466 19.2677 19.872L23.6284 17.3551C24.9556 16.589 25.9959 16.4749 26.3432 17.0575C26.594 17.4779 26.445 18.0811 26.1518 18.2616ZM15.8322 14.395C19.5408 14.395 22.5581 11.3778 22.5581 7.66914C22.5581 3.96046 19.5408 0.943237 15.8322 0.943237C12.1235 0.943237 9.10629 3.96046 9.10629 7.66914C9.10635 11.3778 12.1236 14.395 15.8322 14.395ZM15.8322 2.25568C18.8172 2.25568 21.2456 4.68414 21.2456 7.66909C21.2456 10.654 18.8171 13.0824 15.8322 13.0824C12.8472 13.0824 10.4188 10.654 10.4188 7.66909C10.4188 4.68414 12.8472 2.25568 15.8322 2.25568ZM13.3206 6.16775C13.3206 5.17304 14.1082 4.33337 15.176 4.08492V3.76708C15.176 3.40467 15.4698 3.11083 15.8322 3.11083C16.1946 3.11083 16.4885 3.40467 16.4885 3.76708V4.08509C17.3338 4.28164 18.0198 4.8494 18.2559 5.59791C18.3649 5.94359 18.1731 6.31218 17.8275 6.42123C17.482 6.53022 17.1133 6.33838 17.0042 5.99281C16.8992 5.65982 16.4629 5.32272 15.8322 5.32272C15.1822 5.32272 14.6331 5.70969 14.6331 6.16775C14.6331 6.62582 15.1822 7.01278 15.8322 7.01278C17.2171 7.01278 18.3438 7.98064 18.3438 9.17037C18.3438 10.1651 17.5562 11.0048 16.4885 11.2532V11.571C16.4885 11.9335 16.1946 12.2273 15.8322 12.2273C15.4698 12.2273 15.176 11.9335 15.176 11.571V11.2547C14.4192 11.0819 13.7928 10.6138 13.4959 9.96667C13.3447 9.63729 13.4892 9.2477 13.8187 9.09654C14.1481 8.94533 14.5376 9.08987 14.6889 9.41925C14.8499 9.77024 15.3201 10.0153 15.8323 10.0153C16.4823 10.0153 17.0314 9.62838 17.0314 9.17032C17.0314 8.71225 16.4822 8.32523 15.8323 8.32523C14.4473 8.32528 13.3206 7.35742 13.3206 6.16775Z" fill="#8559FF"/>
</g>
<defs>
<clipPath id="clip0_5_196">
<rect width="28" height="28" fill="white"/>
</clipPath>
</defs>
</svg>
