<svg width="28" height="28" viewBox="0 0 28 28" fill="none" xmlns="http://www.w3.org/2000/svg">
<path d="M6.66667 21.6154C6.86116 21.6154 7.04769 21.6883 7.18521 21.8182C7.32274 21.948 7.4 22.1241 7.4 22.3077C7.4 22.4913 7.32274 22.6674 7.18521 22.7972C7.04769 22.9271 6.86116 23 6.66667 23H3.73333C3.53884 23 3.35232 22.9271 3.21479 22.7972C3.07726 22.6674 3 22.4913 3 22.3077C3 22.1241 3.07726 21.948 3.21479 21.8182C3.35232 21.6883 3.53884 21.6154 3.73333 21.6154H6.66667ZM24.2667 21.6154C24.4612 21.6154 24.6477 21.6883 24.7852 21.8182C24.9227 21.948 25 22.1241 25 22.3077C25 22.4913 24.9227 22.6674 24.7852 22.7972C24.6477 22.9271 24.4612 23 24.2667 23H9.6C9.40551 23 9.21898 22.9271 9.08146 22.7972C8.94393 22.6674 8.86667 22.4913 8.86667 22.3077C8.86667 22.1241 8.94393 21.948 9.08146 21.8182C9.21898 21.6883 9.40551 21.6154 9.6 21.6154H24.2667ZM19.8667 17.4615C20.0612 17.4615 20.2477 17.5345 20.3852 17.6643C20.5227 17.7941 20.6 17.9702 20.6 18.1538C20.6 18.3375 20.5227 18.5135 20.3852 18.6434C20.2477 18.7732 20.0612 18.8462 19.8667 18.8462H9.6C9.40551 18.8462 9.21898 18.7732 9.08146 18.6434C8.94393 18.5135 8.86667 18.3375 8.86667 18.1538C8.86667 17.9702 8.94393 17.7941 9.08146 17.6643C9.21898 17.5345 9.40551 17.4615 9.6 17.4615H19.8667ZM6.66667 13.3077C6.86116 13.3077 7.04769 13.3806 7.18521 13.5105C7.32274 13.6403 7.4 13.8164 7.4 14C7.4 14.1836 7.32274 14.3597 7.18521 14.4895C7.04769 14.6194 6.86116 14.6923 6.66667 14.6923H3.73333C3.53884 14.6923 3.35232 14.6194 3.21479 14.4895C3.07726 14.3597 3 14.1836 3 14C3 13.8164 3.07726 13.6403 3.21479 13.5105C3.35232 13.3806 3.53884 13.3077 3.73333 13.3077H6.66667ZM24.2667 13.3077C24.4612 13.3077 24.6477 13.3806 24.7852 13.5105C24.9227 13.6403 25 13.8164 25 14C25 14.1836 24.9227 14.3597 24.7852 14.4895C24.6477 14.6194 24.4612 14.6923 24.2667 14.6923H9.6C9.40551 14.6923 9.21898 14.6194 9.08146 14.4895C8.94393 14.3597 8.86667 14.1836 8.86667 14C8.86667 13.8164 8.94393 13.6403 9.08146 13.5105C9.21898 13.3806 9.40551 13.3077 9.6 13.3077H24.2667ZM19.8667 9.15385C20.0612 9.15385 20.2477 9.22679 20.3852 9.35662C20.5227 9.48645 20.6 9.66254 20.6 9.84615C20.6 10.0298 20.5227 10.2059 20.3852 10.3357C20.2477 10.4655 20.0612 10.5385 19.8667 10.5385H9.6C9.40551 10.5385 9.21898 10.4655 9.08146 10.3357C8.94393 10.2059 8.86667 10.0298 8.86667 9.84615C8.86667 9.66254 8.94393 9.48645 9.08146 9.35662C9.21898 9.22679 9.40551 9.15385 9.6 9.15385H19.8667ZM6.66667 5C6.86116 5 7.04769 5.07294 7.18521 5.20277C7.32274 5.33261 7.4 5.5087 7.4 5.69231C7.4 5.87592 7.32274 6.05201 7.18521 6.18184C7.04769 6.31168 6.86116 6.38462 6.66667 6.38462H3.73333C3.53884 6.38462 3.35232 6.31168 3.21479 6.18184C3.07726 6.05201 3 5.87592 3 5.69231C3 5.5087 3.07726 5.33261 3.21479 5.20277C3.35232 5.07294 3.53884 5 3.73333 5H6.66667ZM24.2667 5C24.4612 5 24.6477 5.07294 24.7852 5.20277C24.9227 5.33261 25 5.5087 25 5.69231C25 5.87592 24.9227 6.05201 24.7852 6.18184C24.6477 6.31168 24.4612 6.38462 24.2667 6.38462H9.6C9.40551 6.38462 9.21898 6.31168 9.08146 6.18184C8.94393 6.05201 8.86667 5.87592 8.86667 5.69231C8.86667 5.5087 8.94393 5.33261 9.08146 5.20277C9.21898 5.07294 9.40551 5 9.6 5H24.2667Z" fill="#8559FF"/>
</svg>
