<svg width="40" height="40" viewBox="0 0 40 40" fill="none" xmlns="http://www.w3.org/2000/svg">
<g clip-path="url(#clip0_8_2264)">
<path d="M22.8461 17.7743H17.1505C16.3569 17.7743 15.7793 17.0215 15.9847 16.255L20.1658 0.650745C20.2687 0.266902 20.6165 0 21.0138 0H27.3906C27.9679 0 28.388 0.547608 28.2386 1.10518L24.0119 16.8797C23.8705 17.4074 23.3924 17.7743 22.8461 17.7743Z" fill="url(#paint0_linear_8_2264)"/>
<path d="M27.317 4.54588L24.0119 16.88C23.8699 17.4071 23.3923 17.7741 22.8456 17.7741H17.1499C16.357 17.7741 15.7789 17.0212 15.9844 16.2549L20.1656 0.65098C20.2684 0.266667 20.6166 0 21.0135 0H22.7711L25.3985 2.62745L27.317 4.54588Z" fill="url(#paint1_linear_8_2264)"/>
<path d="M28.2386 1.10518L24.0119 16.8797C23.8705 17.4074 23.3923 17.7743 22.8461 17.7743H21.3408L26.1033 0H27.3905C27.9679 0 28.388 0.547608 28.2386 1.10518Z" fill="url(#paint2_linear_8_2264)"/>
<path d="M27.317 4.54589L24.0119 16.88C23.87 17.4071 23.3923 17.7741 22.8457 17.7741H21.3406L25.3986 2.62746L27.317 4.54589Z" fill="url(#paint3_linear_8_2264)"/>
<path d="M21.0138 0H22.7716L18.009 17.7743H17.1505C16.3569 17.7743 15.7793 17.0215 15.9847 16.255L20.1658 0.650745C20.2687 0.266902 20.6165 0 21.0138 0Z" fill="url(#paint4_linear_8_2264)"/>
<path d="M24.1552 23.4098H15.8451C15.3965 23.4098 15.0053 23.1054 14.8948 22.6707L13.7754 18.261C13.5248 17.2739 13.7397 16.2466 14.365 15.4428C14.9904 14.6388 15.9331 14.1778 16.9516 14.1778H23.0488C24.0672 14.1778 25.01 14.6388 25.6354 15.4428C26.2607 16.2467 26.4755 17.2739 26.2249 18.261L25.1055 22.6707C24.9951 23.1053 24.6037 23.4098 24.1552 23.4098ZM16.6078 21.449H23.3926L24.3245 17.7785C24.4251 17.382 24.3388 16.9695 24.0876 16.6466C23.8364 16.3237 23.4578 16.1385 23.0487 16.1385H16.9515C16.5425 16.1385 16.1638 16.3237 15.9126 16.6466C15.6614 16.9695 15.5752 17.382 15.6758 17.7786L16.6078 21.449Z" fill="url(#paint5_linear_8_2264)"/>
<path d="M23.0487 14.1777H22.4707V16.1385H23.0487C23.4578 16.1385 23.8364 16.3237 24.0876 16.6466C24.3387 16.9695 24.4251 17.382 24.3244 17.7785L23.3926 21.449H22.4707V23.4098H24.1552C24.6037 23.4098 24.995 23.1054 25.1054 22.6707L26.2248 18.261C26.4754 17.2739 26.2606 16.2467 25.6353 15.4427C25.0099 14.6387 24.0672 14.1777 23.0487 14.1777Z" fill="url(#paint6_linear_8_2264)"/>
<path d="M20.0001 40C26.1232 40 31.087 35.0362 31.087 28.913C31.087 22.7898 26.1232 17.826 20.0001 17.826C13.8769 17.826 8.91309 22.7898 8.91309 28.913C8.91309 35.0362 13.8769 40 20.0001 40Z" fill="url(#paint7_linear_8_2264)"/>
<path d="M20.0002 37.7501C24.8808 37.7501 28.8373 33.7936 28.8373 28.913C28.8373 24.0324 24.8808 20.0759 20.0002 20.0759C15.1196 20.0759 11.1631 24.0324 11.1631 28.913C11.1631 33.7936 15.1196 37.7501 20.0002 37.7501Z" fill="url(#paint8_linear_8_2264)"/>
<path d="M20.0001 36.4998C24.1901 36.4998 27.5868 33.1031 27.5868 28.913C27.5868 24.723 24.1901 21.3263 20.0001 21.3263C15.81 21.3263 12.4133 24.723 12.4133 28.913C12.4133 33.1031 15.81 36.4998 20.0001 36.4998Z" fill="url(#paint9_linear_8_2264)"/>
<path d="M17.1544 17.7743H22.85C23.6436 17.7743 23.4956 16.2958 23.2902 15.5293L19.8346 0.650745C19.7318 0.266902 19.384 0 18.9866 0H12.6098C12.0326 0 11.6124 0.547608 11.7618 1.10518L15.9886 16.8797C16.1299 17.4074 16.6081 17.7743 17.1544 17.7743Z" fill="url(#paint10_linear_8_2264)"/>
<path d="M15.9884 16.8797C16.1298 17.4074 16.6079 17.7743 17.1542 17.7743H22.8498C23.6433 17.7743 24.221 17.0215 24.0156 16.255L22.224 9.56863H14.0293L15.9884 16.8797Z" fill="url(#paint11_linear_8_2264)"/>
<path d="M11.7616 1.10518L15.9883 16.8797C16.1298 17.4074 16.6079 17.7743 17.1542 17.7743H18.6594L13.8969 0H12.6097C12.0323 0 11.6122 0.547608 11.7616 1.10518Z" fill="url(#paint12_linear_8_2264)"/>
<path d="M18.9865 0H17.2288L21.9913 17.7743H22.8499C23.6434 17.7743 24.2211 17.0215 24.0157 16.255L19.8345 0.650745C19.7317 0.266902 19.3838 0 18.9865 0Z" fill="url(#paint13_linear_8_2264)"/>
<path d="M25.3223 38.6409C27.2705 37.5727 28.8631 35.9366 29.8767 33.9551L20.9151 24.9935L18.4053 26.902L19.6863 28.183L19.4804 32.799L25.3223 38.6409Z" fill="url(#paint14_linear_8_2264)"/>
<path d="M19.3425 26.769L19.0161 26.9716C18.9148 27.0391 18.8135 27.0616 18.7348 27.0616C18.4084 27.0616 18.1833 26.7128 18.1833 26.3639C18.1833 26.1276 18.2847 25.9025 18.5098 25.7675L19.9953 24.8671C20.0854 24.8108 20.1979 24.7884 20.3217 24.7884C20.6819 24.7884 21.0983 25.0022 21.0983 25.3398V32.4976C21.0983 32.8578 20.6593 33.0379 20.2204 33.0379C19.7815 33.0379 19.3426 32.8578 19.3426 32.4976L19.3425 26.769Z" fill="url(#paint15_linear_8_2264)"/>
<path d="M8.91309 28.913C8.91309 35.0362 13.8769 40 20.0001 40C26.1233 40 31.0871 35.0362 31.0871 28.913C31.0871 28.87 31.0859 28.8272 31.0855 28.7843H8.91465C8.91418 28.8272 8.91309 28.87 8.91309 28.913Z" fill="url(#paint16_linear_8_2264)"/>
<path d="M18.6596 17.7741H17.1545C16.6079 17.7741 16.1302 17.4071 15.9883 16.88L14.0291 9.56863H16.4612L18.6596 17.7741Z" fill="url(#paint17_linear_8_2264)"/>
<path d="M22.8502 17.7741H21.9914L19.793 9.56863H22.2243L24.0157 16.2549C24.2212 17.0212 23.6432 17.7741 22.8502 17.7741Z" fill="url(#paint18_linear_8_2264)"/>
</g>
<defs>
<linearGradient id="paint0_linear_8_2264" x1="24.0431" y1="4.42235" x2="21.9905" y2="8.98918" gradientUnits="userSpaceOnUse">
<stop stop-color="#F9F5F3"/>
<stop offset="1" stop-color="#D8E8F0"/>
</linearGradient>
<linearGradient id="paint1_linear_8_2264" x1="24.678" y1="7.58188" x2="21.8545" y2="8.94133" gradientUnits="userSpaceOnUse">
<stop stop-color="#678D98" stop-opacity="0"/>
<stop offset="0.9957" stop-color="#678D98" stop-opacity="0.996"/>
<stop offset="1" stop-color="#678D98"/>
</linearGradient>
<linearGradient id="paint2_linear_8_2264" x1="24.5861" y1="8.9302" x2="21.1873" y2="11.1263" gradientUnits="userSpaceOnUse">
<stop stop-color="#FD4755"/>
<stop offset="1" stop-color="#A72B2B"/>
</linearGradient>
<linearGradient id="paint3_linear_8_2264" x1="24.5199" y1="10.0518" x2="22.0624" y2="12.0388" gradientUnits="userSpaceOnUse">
<stop stop-color="#A72B2B" stop-opacity="0"/>
<stop offset="1" stop-color="#42210B"/>
</linearGradient>
<linearGradient id="paint4_linear_8_2264" x1="24.953" y1="2.40549" x2="22.4954" y2="5.22902" gradientUnits="userSpaceOnUse">
<stop stop-color="#B3DAFE"/>
<stop offset="1" stop-color="#0182FC"/>
</linearGradient>
<linearGradient id="paint5_linear_8_2264" x1="20.0002" y1="16.6275" x2="20.0002" y2="21.0196" gradientUnits="userSpaceOnUse">
<stop stop-color="#FEF0AE"/>
<stop offset="1" stop-color="#FBC56D"/>
</linearGradient>
<linearGradient id="paint6_linear_8_2264" x1="26.1312" y1="18.8907" x2="23.4253" y2="18.8123" gradientUnits="userSpaceOnUse">
<stop stop-color="#DC8758" stop-opacity="0"/>
<stop offset="0.9957" stop-color="#DC8758" stop-opacity="0.996"/>
<stop offset="1" stop-color="#DC8758"/>
</linearGradient>
<linearGradient id="paint7_linear_8_2264" x1="13.1645" y1="22.0774" x2="24.8573" y2="33.7703" gradientUnits="userSpaceOnUse">
<stop stop-color="#FEF0AE"/>
<stop offset="1" stop-color="#FBC56D"/>
</linearGradient>
<linearGradient id="paint8_linear_8_2264" x1="25.7398" y1="34.6526" x2="14.093" y2="23.0059" gradientUnits="userSpaceOnUse">
<stop stop-color="#FEF0AE"/>
<stop offset="1" stop-color="#FBC56D"/>
</linearGradient>
<linearGradient id="paint9_linear_8_2264" x1="14.4848" y1="23.3977" x2="23.5632" y2="32.4762" gradientUnits="userSpaceOnUse">
<stop stop-color="#FEF0AE"/>
<stop offset="1" stop-color="#FBC56D"/>
</linearGradient>
<linearGradient id="paint10_linear_8_2264" x1="16.9168" y1="6.93247" x2="19.6712" y2="12.0332" gradientUnits="userSpaceOnUse">
<stop stop-color="#F9F5F3"/>
<stop offset="1" stop-color="#D8E8F0"/>
</linearGradient>
<linearGradient id="paint11_linear_8_2264" x1="19.0433" y1="16.0523" x2="19.0433" y2="17.83" gradientUnits="userSpaceOnUse">
<stop stop-color="#678D98" stop-opacity="0"/>
<stop offset="0.9957" stop-color="#678D98" stop-opacity="0.996"/>
<stop offset="1" stop-color="#678D98"/>
</linearGradient>
<linearGradient id="paint12_linear_8_2264" x1="13.24" y1="5.96078" x2="21.24" y2="17.8824" gradientUnits="userSpaceOnUse">
<stop stop-color="#B3DAFE"/>
<stop offset="1" stop-color="#0182FC"/>
</linearGradient>
<linearGradient id="paint13_linear_8_2264" x1="17.0456" y1="3.40706" x2="25.0456" y2="15.3286" gradientUnits="userSpaceOnUse">
<stop stop-color="#FD4755"/>
<stop offset="1" stop-color="#A72B2B"/>
</linearGradient>
<linearGradient id="paint14_linear_8_2264" x1="24.2908" y1="32.0766" x2="19.1535" y2="30.9394" gradientUnits="userSpaceOnUse">
<stop stop-color="#DC8758" stop-opacity="0"/>
<stop offset="0.9957" stop-color="#DC8758" stop-opacity="0.996"/>
<stop offset="1" stop-color="#DC8758"/>
</linearGradient>
<linearGradient id="paint15_linear_8_2264" x1="18.4302" y1="28.1653" x2="20.94" y2="29.2111" gradientUnits="userSpaceOnUse">
<stop stop-color="#FBC56D"/>
<stop offset="1" stop-color="#C5715A"/>
</linearGradient>
<linearGradient id="paint16_linear_8_2264" x1="20.0001" y1="32.1569" x2="20.0001" y2="39.434" gradientUnits="userSpaceOnUse">
<stop stop-color="#DC8758" stop-opacity="0"/>
<stop offset="0.9957" stop-color="#DC8758" stop-opacity="0.996"/>
<stop offset="1" stop-color="#DC8758"/>
</linearGradient>
<linearGradient id="paint17_linear_8_2264" x1="16.3443" y1="14.7974" x2="16.3443" y2="17.9347" gradientUnits="userSpaceOnUse">
<stop stop-color="#0182FC" stop-opacity="0"/>
<stop offset="1" stop-color="#024C67"/>
</linearGradient>
<linearGradient id="paint18_linear_8_2264" x1="21.9253" y1="14.7974" x2="21.9253" y2="17.9347" gradientUnits="userSpaceOnUse">
<stop stop-color="#A72B2B" stop-opacity="0"/>
<stop offset="1" stop-color="#42210B"/>
</linearGradient>
<clipPath id="clip0_8_2264">
<rect width="40" height="40" rx="6" fill="white"/>
</clipPath>
</defs>
</svg>
