<svg width="28" height="28" viewBox="0 0 28 28" fill="none" xmlns="http://www.w3.org/2000/svg">
<path d="M14 1C13.6583 1 13.381 1.27728 13.381 1.61905C13.381 1.96081 13.6583 2.2381 14 2.2381C20.4855 2.2381 25.7619 7.51451 25.7619 14C25.7619 14.3418 26.0392 14.619 26.381 14.619C26.7227 14.619 27 14.3418 27 14C27 6.83178 21.1691 1 14 1Z" fill="#8559FF"/>
<path d="M14 25.7619C7.51451 25.7619 2.2381 20.4855 2.2381 14C2.2381 13.6582 1.96081 13.381 1.61905 13.381C1.27728 13.381 1 13.6582 1 14C1 21.1682 6.83098 27 14 27C14.3418 27 14.619 26.7227 14.619 26.3809C14.619 26.0392 14.3418 25.7619 14 25.7619Z" fill="#8559FF"/>
<path d="M14 4.30157C8.65264 4.30157 4.30157 8.65264 4.30157 14C4.30157 19.3473 8.65264 23.6984 14 23.6984C19.3473 23.6984 23.6984 19.3473 23.6984 14C23.6984 8.65264 19.3473 4.30157 14 4.30157ZM14 22.4603C9.33456 22.4603 5.53967 18.6654 5.53967 14C5.53967 9.33456 9.33456 5.53967 14 5.53967C18.6654 5.53967 22.4603 9.33456 22.4603 14C22.4603 18.6654 18.6654 22.4603 14 22.4603Z" fill="#8559FF"/>
<path d="M19.2957 11.8059L16.02 11.3296L14.5545 8.36088C14.3482 7.93851 13.6518 7.93851 13.4454 8.36088L11.98 11.3296L8.70423 11.8059C8.47047 11.8398 8.27702 12.0034 8.20448 12.2275C8.13193 12.4516 8.19158 12.6974 8.36085 12.8619L10.7306 15.172L10.1729 18.4349C10.1326 18.6671 10.2277 18.9024 10.4179 19.0403C10.6081 19.1789 10.8628 19.1974 11.0708 19.0878L14 17.5474L16.9292 19.0878C17.0195 19.1354 17.1194 19.1587 17.2177 19.1587C17.3467 19.1587 17.4741 19.1192 17.5821 19.0403C17.7723 18.9024 17.8674 18.6671 17.8271 18.4349L17.2693 15.172L19.6391 12.8619C19.8084 12.6974 19.868 12.4516 19.7955 12.2275C19.723 12.0034 19.5295 11.8398 19.2957 11.8059ZM16.1715 14.5127C16.0248 14.6545 15.9587 14.8601 15.9942 15.0608L16.3956 17.408L14.2886 16.2997C14.1983 16.2521 14.0983 16.2287 14 16.2287C13.9016 16.2287 13.8017 16.2521 13.7114 16.2997L11.6044 17.408L12.0058 15.0608C12.0413 14.8601 11.9752 14.6545 11.8285 14.5127L10.1229 12.8506L12.4798 12.508C12.6813 12.479 12.8554 12.3524 12.9457 12.1695L14 10.0342L15.0543 12.1695C15.1446 12.3524 15.3187 12.479 15.5202 12.508L17.8771 12.8506L16.1715 14.5127Z" fill="#8559FF"/>
</svg>
