<svg width="195" height="59" viewBox="0 0 195 59" fill="none" xmlns="http://www.w3.org/2000/svg">
<path d="M50.3161 26.9642C50.3161 26.4976 50.0042 26.1281 49.3999 25.8753C49.166 25.7781 48.971 25.6031 48.8346 25.4086C48.6981 25.1947 48.6201 24.942 48.6201 24.6892C48.6201 24.0669 49.088 23.5225 49.7313 23.4641L53.4158 23.0947C53.6107 23.0752 53.7861 23.153 53.9226 23.2697C54.0786 23.4058 54.215 23.6002 54.293 23.7947C54.332 23.9114 54.449 24.0086 54.5659 24.0086C54.6244 24.0086 54.6829 23.9891 54.7219 23.9697C55.5407 23.4058 56.5349 23.0947 57.5486 23.0947C58.8742 23.0947 59.9074 23.3864 60.6677 23.9697C60.7847 24.0669 60.9601 24.1253 61.1161 24.1253C61.2135 24.1253 61.311 24.1058 61.389 24.0475C62.5392 23.4058 63.8453 23.0558 65.1709 23.0752C66.8669 23.0752 68.0951 23.4836 68.8749 24.3003C69.6546 25.117 70.0445 26.342 70.0445 27.9948V33.9255C70.0445 34.3533 70.3369 34.7617 70.9218 35.1117C71.1362 35.2284 71.2922 35.4034 71.4091 35.6173C71.5261 35.8312 71.6041 36.0645 71.6041 36.3173C71.6041 36.959 71.0972 37.484 70.4539 37.484H65.6778C65.0344 37.484 64.5081 36.959 64.5081 36.3367C64.5081 35.9089 64.703 35.4811 65.0539 35.2284C65.2294 35.0728 65.3659 34.9561 65.4633 34.8589C65.5803 34.7422 65.6778 34.6061 65.7557 34.4506C65.8532 34.295 65.8922 34.12 65.8922 33.945V29.1226C65.8922 28.0337 65.7557 27.2365 65.5023 26.7503C65.2489 26.2642 64.82 26.0309 64.1962 26.0309C63.8063 26.0309 63.3774 26.2059 62.9096 26.5364C62.4612 26.8476 62.2467 27.3726 62.2467 28.0726V33.945C62.2467 34.3533 62.5197 34.7811 63.085 35.2284C63.4164 35.4811 63.6114 35.8895 63.6114 36.3173C63.6114 36.6284 63.4944 36.9201 63.2799 37.134C63.0655 37.3479 62.7731 37.4645 62.4612 37.4645H57.88C57.5681 37.4645 57.2757 37.3479 57.0612 37.134C56.8468 36.9201 56.7103 36.6284 56.7298 36.3173C56.7103 35.8895 56.9248 35.4617 57.2562 35.2089C57.8215 34.7617 58.1139 34.3533 58.1139 33.945V29.1226C58.1139 28.0337 57.9775 27.2365 57.724 26.7503C57.4706 26.2642 56.9637 25.992 56.4374 26.0309C56.028 26.0309 55.5796 26.2253 55.0923 26.5948C54.6634 26.9059 54.449 27.4309 54.449 28.1698V33.9644C54.449 34.3728 54.7219 34.82 55.2677 35.2673C55.5991 35.52 55.7941 35.9284 55.7941 36.3367C55.7941 36.6478 55.6771 36.9395 55.4627 37.1534C55.2482 37.3673 54.9558 37.5034 54.6439 37.5034H49.7898C49.1465 37.5034 48.6201 36.9784 48.6201 36.3367C48.6201 36.0645 48.6981 35.8117 48.8346 35.5978C48.971 35.3839 49.166 35.1895 49.3999 35.0922C50.0042 34.8006 50.2966 34.4311 50.2966 33.9644L50.3161 26.9642Z" fill="white"/>
<path d="M81.3904 26.6339C81.3904 26.2839 81.1955 25.9339 80.8251 25.6033C80.5132 25.3505 80.3572 24.9616 80.3572 24.5727C80.3572 23.931 80.8836 23.406 81.5269 23.406H86.0886C86.4005 23.406 86.7124 23.5227 86.9269 23.756C87.1608 23.9699 87.2778 24.281 87.2778 24.5922C87.2778 24.8644 87.1998 25.1172 87.0633 25.3505C86.9269 25.5838 86.7124 25.7589 86.4785 25.8755C86.2056 26.0116 85.9522 26.1866 85.7182 26.3616C85.5233 26.5172 85.3673 26.7311 85.2698 26.9839L80.1818 40.4009C80.0063 40.8871 79.7529 41.3538 79.4605 41.7815C79.1681 42.2093 78.8172 42.5982 78.4078 42.9482C77.55 43.6872 76.4583 44.0955 75.3082 44.0955C74.3919 44.0955 73.6317 43.8622 73.0663 43.4149C72.501 42.9482 72.2086 42.2482 72.2086 41.2954C72.1891 40.8287 72.3645 40.3621 72.6959 40.012C73.0078 39.6815 73.4367 39.5065 73.8851 39.5065C74.2165 39.5065 74.5479 39.5648 74.8403 39.7009C75.1327 39.8176 75.4056 39.9926 75.6201 40.2259C75.7176 40.3426 75.854 40.4398 76.01 40.4593C76.1464 40.4398 76.2634 40.3621 76.3024 40.2259C76.6533 39.5454 76.9457 38.8259 77.1991 38.1064C77.2966 37.8342 77.3551 37.5425 77.3551 37.2703C77.3551 36.9592 77.2966 36.6675 77.1796 36.3758L73.5732 26.9839C73.4172 26.5561 73.0078 26.1866 72.345 25.9144C72.0916 25.7977 71.8577 25.6227 71.7017 25.3894C71.5457 25.1561 71.4678 24.8838 71.4678 24.5922C71.4678 23.931 71.9941 23.406 72.6569 23.406H77.5695C77.8814 23.406 78.1934 23.5227 78.4078 23.756C78.6417 23.9699 78.7587 24.281 78.7587 24.6116C78.7587 25.0394 78.5832 25.4477 78.2518 25.72C77.862 26.07 77.667 26.4005 77.667 26.7505C77.667 26.8283 77.6865 26.9256 77.706 27.0033L79.1486 31.1646C79.2071 31.3007 79.3435 31.3785 79.4995 31.359C79.6554 31.359 79.7724 31.2423 79.8504 31.0479L81.371 26.9256C81.3904 26.8283 81.3904 26.7311 81.3904 26.6339Z" fill="white"/>
<path d="M97.0639 37.8341C96.4791 37.8341 95.9137 37.7757 95.3484 37.6591C94.744 37.5424 94.1592 37.3674 93.5939 37.134C93.009 36.9007 92.4437 36.5896 91.8979 36.2396C91.352 35.8701 90.8452 35.4423 90.3968 34.9562C89.9289 34.4506 89.5195 33.8867 89.1881 33.2839C88.8177 32.6228 88.5448 31.9228 88.3889 31.1839C88.1939 30.3477 88.0964 29.5116 88.0964 28.656C88.0964 26.5754 88.4863 24.767 89.2661 23.2114C90.0069 21.6947 91.1766 20.4308 92.6386 19.5946C94.1202 18.7391 95.8552 18.3113 97.8437 18.3113C98.2725 18.3113 98.6819 18.3307 99.0718 18.3696C99.4812 18.4085 99.8906 18.4668 100.3 18.5446C100.709 18.6224 101.099 18.7585 101.47 18.9335C101.821 19.1085 102.132 19.303 102.425 19.5558C102.717 19.8085 102.951 20.1197 103.107 20.4891C103.283 20.8975 103.361 21.3253 103.341 21.7725V22.4725C103.341 23.4837 102.522 24.3198 101.489 24.3198C100.456 24.3198 99.5397 23.717 99.1498 22.7642C99.0328 22.4725 98.8574 22.2003 98.6234 22.0058C98.409 21.8114 98.1166 21.7142 97.8242 21.7336C96.1866 21.7919 94.9195 22.3947 94.0227 23.5225C93.126 24.6698 92.6971 26.2448 92.7166 28.2671C92.7166 28.8894 92.7751 29.531 92.9116 30.1338C93.1065 31.0866 93.5744 31.9811 94.2567 32.7006C94.5296 33.0117 94.861 33.2645 95.2314 33.4589C95.5628 33.6339 95.9137 33.7701 96.2646 33.8673C96.596 33.9645 96.9469 34.0034 97.2978 34.0034C97.9411 34.0228 98.5845 33.9451 99.2083 33.7895C99.7931 33.6145 100.358 33.3617 100.865 33.0312C101.119 32.8756 101.392 32.7978 101.684 32.7978C102.093 32.7784 102.483 32.9339 102.756 33.245C103.029 33.5562 103.185 33.9451 103.166 34.3534C103.146 34.8784 102.932 35.384 102.542 35.734C102.113 36.2007 101.587 36.5701 101.002 36.8424C100.378 37.1535 99.7151 37.3868 99.0328 37.5618C98.3895 37.7563 97.7267 37.8341 97.0639 37.8341Z" fill="white"/>
<path d="M106.441 26.8865C106.441 26.4199 106.129 26.0504 105.524 25.7976C105.29 25.7004 105.096 25.5254 104.959 25.3309C104.823 25.117 104.745 24.8837 104.745 24.6115C104.745 23.9698 105.232 23.4448 105.856 23.367L109.56 22.9975C109.755 22.9781 109.93 23.0364 110.086 23.1725C110.262 23.3087 110.379 23.4837 110.437 23.6781C110.457 23.8142 110.593 23.892 110.729 23.892C110.788 23.892 110.846 23.8726 110.885 23.8337C111.626 23.2892 112.523 22.9975 113.439 22.9975C114.238 22.9975 114.862 23.2114 115.311 23.6587C115.759 24.1059 115.993 24.7281 115.993 25.5059V25.8171C115.993 26.731 115.252 27.4699 114.336 27.4699C113.673 27.4699 113.03 27.256 112.523 26.8477C112.133 26.556 111.821 26.4004 111.568 26.4004C111.431 26.4004 111.275 26.4393 111.158 26.5365C110.768 26.7893 110.573 27.2754 110.573 27.9755V33.809C110.573 34.0618 110.671 34.3145 110.827 34.509C110.983 34.7034 111.217 34.8396 111.47 34.859C111.802 34.8979 112.094 35.0729 112.308 35.3257C112.523 35.5785 112.64 35.8896 112.64 36.2201C112.64 36.8618 112.133 37.3868 111.49 37.3868C111.49 37.3868 111.49 37.3868 111.47 37.3868H105.914C105.602 37.3868 105.31 37.2702 105.096 37.0563C104.862 36.8424 104.745 36.5507 104.745 36.2396C104.745 35.9674 104.823 35.7146 104.959 35.4812C105.096 35.2479 105.31 35.0729 105.544 34.9562C106.148 34.684 106.441 34.3145 106.441 33.8673V26.8865Z" fill="white"/>
<path d="M116.89 30.6782C116.87 29.6282 117.007 28.5976 117.299 27.5865C117.553 26.7114 117.962 25.8948 118.508 25.1753C119.073 24.4753 119.794 23.9308 120.613 23.5808C121.568 23.1725 122.582 22.978 123.615 22.9975C124.356 22.978 125.116 23.0947 125.818 23.328C126.988 23.678 127.982 24.4753 128.586 25.5253C128.879 26.0309 129.093 26.5948 129.23 27.1587C129.366 27.7615 129.425 28.3837 129.425 29.006C129.425 29.5115 129.21 29.9977 128.84 30.3477C128.469 30.7171 127.963 30.9116 127.436 30.9116H122.056C121.822 30.9116 121.607 30.9893 121.451 31.1449C121.296 31.281 121.198 31.4949 121.198 31.7088C121.237 32.1172 121.335 32.5255 121.49 32.9144C121.88 34.0422 122.738 34.6256 124.083 34.6256C124.59 34.6256 125.077 34.5672 125.565 34.4506C126.052 34.3144 126.54 34.12 126.988 33.8672C127.163 33.77 127.358 33.7311 127.534 33.7311C127.865 33.7311 128.177 33.8672 128.391 34.12C128.625 34.3728 128.742 34.7033 128.742 35.0534C128.742 35.52 128.469 35.9673 127.943 36.3756C127.339 36.8229 126.676 37.1534 125.955 37.3479C125.194 37.5812 124.415 37.6979 123.635 37.6979C121.373 37.6979 119.677 37.0951 118.547 35.9089C117.416 34.7228 116.89 32.9922 116.89 30.6782ZM122.114 28.3448L124.2 28.2087C124.415 28.2087 124.61 28.1115 124.766 27.9559C124.921 27.8198 124.999 27.6059 124.999 27.4115C124.999 27.2559 124.96 27.1198 124.902 26.9837C124.629 26.1087 124.103 25.6809 123.342 25.6809C122.465 25.6809 121.861 26.1864 121.51 27.1781C121.451 27.3337 121.412 27.5087 121.393 27.6837C121.393 28.0532 121.724 28.3643 122.114 28.3448Z" fill="white"/>
<path d="M140.01 22.3949V20.4115C140.01 19.9448 139.698 19.5754 139.094 19.3031C138.86 19.2059 138.665 19.0309 138.529 18.817C138.392 18.6031 138.314 18.3503 138.314 18.0975C138.314 17.7864 138.431 17.4753 138.646 17.242C138.86 17.0086 139.152 16.8531 139.464 16.8336L142.564 16.5419C143.012 16.503 143.461 16.6781 143.734 17.0475C144.065 17.3975 144.24 17.8642 144.221 18.3503L144.24 33.848C144.24 34.0813 144.318 34.3147 144.494 34.4897C144.669 34.6841 144.903 34.8397 145.137 34.9369C145.391 35.0341 145.586 35.2091 145.741 35.423C145.897 35.6369 145.975 35.9092 145.975 36.1814C145.975 36.4925 145.858 36.7842 145.644 37.0175C145.43 37.2509 145.137 37.387 144.825 37.4064L141.063 37.7176C140.868 37.737 140.692 37.6787 140.536 37.5425C140.381 37.4064 140.244 37.2314 140.166 37.037C140.127 36.9009 140.01 36.8036 139.874 36.8036C139.815 36.8036 139.757 36.8231 139.718 36.8425C138.938 37.387 138.022 37.6981 137.066 37.6981C135.137 37.6981 133.635 37.0759 132.544 35.8508C131.452 34.6258 130.887 32.9146 130.887 30.7757C130.867 29.6868 131.043 28.6173 131.374 27.6061C131.686 26.6922 132.173 25.8561 132.797 25.1366C133.421 24.4561 134.181 23.9116 135.039 23.5616C135.975 23.1727 136.969 22.9977 137.983 22.9977C138.178 22.9977 138.373 23.0171 138.568 23.0366C138.762 23.056 138.957 23.0755 139.152 23.0755C139.367 23.0755 139.562 23.0171 139.737 22.881C139.913 22.7838 140.01 22.5893 140.01 22.3949ZM138.256 34.6647C138.568 34.6647 138.86 34.6064 139.152 34.5286C139.425 34.4702 139.64 34.3147 139.796 34.0813C139.952 33.848 140.03 33.5758 140.03 33.3035V26.9645C140.03 26.6922 139.952 26.4394 139.776 26.2256C139.62 26.0117 139.386 25.8755 139.113 25.8561C138.977 25.8367 138.86 25.8367 138.723 25.8367C137.651 25.8367 136.813 26.245 136.209 27.0422C135.604 27.8395 135.312 28.9673 135.312 30.4062C135.312 31.8257 135.546 32.8952 136.033 33.5952C136.501 34.3147 137.242 34.6647 138.256 34.6647Z" fill="white"/>
<path d="M147.555 35.0146C147.613 33.6924 148.744 32.6618 150.089 32.7201C151.434 32.7785 152.448 33.9063 152.389 35.248C152.331 36.5897 151.2 37.6008 149.855 37.5425C149.251 37.5231 148.685 37.2703 148.256 36.8425C147.788 36.3563 147.535 35.6952 147.555 35.0146Z" fill="white"/>
<path d="M156.229 26.8283C156.229 26.3617 155.937 25.9922 155.313 25.7394C155.079 25.6422 154.884 25.4672 154.748 25.2727C154.611 25.0588 154.533 24.8061 154.533 24.5533C154.533 24.2421 154.65 23.9505 154.845 23.7366C155.04 23.5032 155.333 23.3671 155.625 23.3477L159.31 22.9782C159.505 22.9588 159.68 23.0366 159.816 23.1532C159.972 23.2893 160.109 23.4838 160.187 23.6782C160.226 23.7949 160.343 23.8921 160.46 23.8921C160.518 23.8921 160.577 23.8727 160.616 23.8532C161.454 23.2893 162.429 22.9782 163.442 22.9782C164.768 22.9782 165.801 23.2699 166.561 23.8532C166.678 23.9505 166.854 24.0088 167.01 24.0088C167.107 24.0088 167.205 23.9894 167.283 23.931C168.433 23.2893 169.739 22.9393 171.065 22.9588C172.761 22.9588 173.989 23.3671 174.769 24.1838C175.548 25.0005 175.919 26.2255 175.938 27.8784V33.8091C175.938 34.2369 176.231 34.6452 176.816 34.9758C177.011 35.0925 177.186 35.2675 177.303 35.4814C177.42 35.6953 177.498 35.9286 177.498 36.1814C177.498 36.8231 176.991 37.3481 176.348 37.3481H171.572C170.928 37.3481 170.402 36.8425 170.402 36.2008C170.402 35.773 170.597 35.3452 170.948 35.0925C171.123 34.9563 171.26 34.8202 171.357 34.723C171.474 34.6063 171.572 34.4702 171.65 34.3341C171.747 34.1785 171.786 34.0035 171.786 33.8285V29.0062C171.786 27.9173 171.65 27.12 171.396 26.6339C171.143 26.1478 170.714 25.9144 170.09 25.9144C169.7 25.9144 169.271 26.0894 168.803 26.42C168.355 26.7311 168.141 27.2561 168.141 27.9561V33.8285C168.141 34.2369 168.413 34.6647 168.979 35.1119C169.31 35.3647 169.505 35.773 169.505 36.2008C169.505 36.5119 169.388 36.8036 169.174 37.0175C168.959 37.2314 168.667 37.3481 168.355 37.3481H163.774C163.462 37.3481 163.169 37.2314 162.955 37.0175C162.741 36.8036 162.624 36.5119 162.624 36.2008C162.604 35.773 162.799 35.3452 163.15 35.0925C163.715 34.6452 164.008 34.2369 164.008 33.8285V29.0062C164.008 27.9173 163.871 27.12 163.618 26.6339C163.364 26.1478 162.858 25.8755 162.331 25.9144C161.922 25.9144 161.473 26.1089 160.986 26.4783C160.557 26.7894 160.343 27.3145 160.343 28.0339V33.8285C160.343 34.2369 160.616 34.6841 161.162 35.1314C161.493 35.3841 161.688 35.7925 161.688 36.2008C161.688 36.5119 161.571 36.8036 161.356 37.0175C161.142 37.2314 160.85 37.3675 160.538 37.3675H155.684C155.372 37.3675 155.079 37.2509 154.865 37.037C154.65 36.8231 154.514 36.5314 154.514 36.2203C154.514 35.948 154.592 35.6953 154.728 35.4814C154.865 35.2675 155.06 35.0925 155.294 34.9758C155.898 34.6841 156.19 34.3147 156.19 33.848L156.229 26.8283Z" fill="white"/>
<path d="M178.629 30.6004C178.609 29.5504 178.746 28.5198 179.038 27.5087C179.291 26.6337 179.701 25.817 180.247 25.0975C180.812 24.3975 181.533 23.853 182.352 23.503C183.307 23.1141 184.321 22.9197 185.354 22.9391C186.095 22.9197 186.855 23.0363 187.557 23.2697C188.727 23.6197 189.721 24.4169 190.325 25.467C190.618 25.9725 190.832 26.5364 190.969 27.1003C191.105 27.7031 191.163 28.3254 191.163 28.9476C191.163 29.4532 190.949 29.9393 190.579 30.2893C190.208 30.6588 189.701 30.8532 189.175 30.8532H183.834C183.6 30.8532 183.385 30.931 183.229 31.0866C183.073 31.2227 182.976 31.4366 182.976 31.6505C183.015 32.0588 183.112 32.4672 183.268 32.8561C183.658 34.0033 184.516 34.5672 185.861 34.5672C186.368 34.5672 186.855 34.5283 187.343 34.3922C187.83 34.2561 188.317 34.0616 188.766 33.8089C188.941 33.7116 189.136 33.6727 189.312 33.6727C189.643 33.6727 189.955 33.8089 190.169 34.0616C190.403 34.3144 190.52 34.645 190.52 34.995C190.52 35.4617 190.247 35.9089 189.721 36.3173C189.117 36.7645 188.454 37.0951 187.732 37.2895C186.972 37.5229 186.192 37.6395 185.413 37.6395C183.151 37.6395 181.455 37.0367 180.325 35.8506C179.194 34.6644 178.629 32.9144 178.629 30.6004ZM183.853 28.267L185.939 28.1309C186.153 28.1309 186.368 28.0337 186.504 27.8781C186.66 27.742 186.738 27.5281 186.738 27.3337C186.738 27.1781 186.699 27.042 186.641 26.9059C186.368 26.0309 185.842 25.6031 185.081 25.6031C184.204 25.6031 183.6 26.1086 183.249 27.1003C183.19 27.2559 183.151 27.4309 183.132 27.6059C183.171 27.9754 183.483 28.2865 183.853 28.267C183.873 28.267 183.873 28.267 183.853 28.267Z" fill="white"/>
<path d="M36.7091 49.5401C38.1127 49.5012 39.3994 46.7206 39.3214 40.1871C39.107 20.4115 38.99 17.028 38.99 17.028C38.951 15.5697 37.7229 14.403 36.2608 14.4419H36.2413L9.00753 15.2391C7.54544 15.278 6.37578 16.503 6.41477 17.9809C6.41477 17.9809 6.47325 21.3643 7.40898 41.1204C7.72089 47.6345 9.16348 50.3374 10.5671 50.2985L36.7091 49.5401Z" fill="url(#paint0_radial_288_113)"/>
<path d="M39.2629 34.5091C39.068 18.7392 38.99 17.028 38.99 17.028C38.951 15.5697 37.7229 14.403 36.2608 14.4419H36.2413L9.00753 15.2391C7.54544 15.278 6.37578 16.503 6.41477 17.9809C6.41477 17.9809 6.43426 19.692 7.17505 35.4814C7.29202 35.6175 7.36999 35.6758 7.36999 35.6758C7.29202 26.0116 8.38371 22.0643 8.38371 22.0643C8.38371 22.0643 9.43641 22.8421 12.9064 22.9199C20.3338 23.0754 35.9294 18.292 35.9294 18.292C38.9705 25.2338 39.0875 34.7619 39.0875 34.7619C39.146 34.6647 39.2044 34.5869 39.2629 34.5091Z" fill="#C9955D"/>
<path d="M34.0773 30.5618C34.1163 32.0007 32.9856 33.2063 31.543 33.2452C30.1004 33.2841 28.8918 32.1563 28.8528 30.7173C28.8138 29.2784 29.9445 28.0728 31.3871 28.0339C32.8297 27.995 34.0383 29.1229 34.0773 30.5618Z" fill="#C9955D"/>
<path d="M33.7653 30.3867C33.8043 31.6701 32.7906 32.7201 31.5235 32.759C30.2368 32.7979 29.1841 31.7867 29.1451 30.5228C29.1061 29.2394 30.1199 28.1894 31.387 28.1505C32.6736 28.1116 33.7263 29.1033 33.7653 30.3867Z" fill="url(#paint1_radial_288_113)"/>
<path d="M35.4809 41.2758C35.5198 42.2675 34.7206 43.1037 33.7264 43.1426C32.7321 43.1814 31.8939 42.3842 31.8549 41.3925C31.8159 40.4008 32.6152 39.5647 33.6094 39.5258C34.6231 39.4869 35.4419 40.2841 35.4809 41.2758Z" fill="#F7B180"/>
<path d="M15.3236 41.8593C15.3626 42.851 14.5633 43.6872 13.5691 43.726C12.5749 43.7649 11.7366 42.9677 11.6977 41.976C11.6587 40.9843 12.4579 40.1482 13.4522 40.1093C14.4464 40.0704 15.2846 40.8676 15.3236 41.8593Z" fill="#F7B180"/>
<path d="M12.1069 31.2034C12.1459 32.6424 13.3546 33.7702 14.7972 33.7313C16.2398 33.6924 17.3704 32.4868 17.3315 31.0479C17.2925 29.6089 16.0838 28.4811 14.6412 28.52C13.1986 28.5589 12.0679 29.7645 12.1069 31.2034Z" fill="#C9955D"/>
<path d="M12.3995 31.0088C12.4385 32.2922 13.4912 33.2839 14.7778 33.2644C16.0645 33.2255 17.0587 32.1755 17.0392 30.8921C17.0197 29.6088 15.9475 28.6171 14.6609 28.6365C13.3742 28.6754 12.3605 29.7254 12.3995 31.0088Z" fill="url(#paint2_radial_288_113)"/>
<path d="M16.3569 29.7838C16.6493 30.2505 16.5323 30.8533 16.1229 31.0867C15.7135 31.32 15.1482 31.145 14.8558 30.6589C14.5634 30.1727 14.6803 29.5894 15.0897 29.3561C15.4991 29.1227 16.0645 29.2977 16.3569 29.7838Z" fill="white"/>
<path d="M33.1025 29.2977C33.3949 29.7838 33.2779 30.3672 32.8685 30.62C32.4592 30.8727 31.8743 30.6783 31.6014 30.1922C31.3285 29.706 31.4259 29.1227 31.8353 28.8893C32.2447 28.656 32.81 28.8116 33.1025 29.2977Z" fill="white"/>
<path d="M29.2816 41.7036C29.3206 41.9564 29.1451 42.1703 28.9112 42.2092C28.9112 42.2092 28.9112 42.2092 28.8917 42.2092C25.2657 42.7342 21.6008 42.8509 17.9553 42.5203C17.7019 42.5009 17.5264 42.287 17.5459 42.0342C17.5654 41.7814 17.7798 41.6064 18.0333 41.6258C21.6008 41.937 25.2072 41.8397 28.7552 41.3147C28.9892 41.2953 29.2231 41.4703 29.2816 41.7036Z" fill="#836848"/>
<path d="M46.1248 11.3111L46.1833 11.35C46.1833 11.35 45.8519 11.35 45.3256 11.35C44.0779 11.3889 41.6801 11.6028 39.8866 12.4584L40.0621 12.4195C41.8945 11.9722 42.6548 12.6334 42.6548 12.6334C42.6548 12.6334 40.5299 13.8001 41.4852 16.3474C42.4404 18.8947 45.0916 30.62 39.0873 37.0563C39.1068 36.8035 39.9646 26.7505 37.4888 19.6919H37.4693C36.7285 19.828 20.5286 22.6864 13.1402 21.8892C9.61173 21.5197 8.55903 20.2753 8.55903 20.2753C8.55903 20.2753 7.44784 25.5449 6.68756 35.1313C6.59009 35.0146 3.23704 31.5145 3.84137 23.6976C4.46519 15.7446 6.72655 12.7695 6.72655 12.7695L7.13593 14.4806L8.6565 12.1667L9.04639 13.8973L10.7034 12.0889L10.6644 13.5084C15.2261 11.7778 19.9438 10.4555 24.7394 9.52217C28.9112 8.72493 33.4729 8.25825 37.6837 8.66659C40.8418 8.95827 43.7855 9.75551 46.2028 11.2917L46.1248 11.3111Z" fill="#201A14"/>
<path d="M38.6974 12.6139C38.1906 13.3139 39.2823 13.2945 40.257 13.0223C40.9003 12.8473 41.3487 12.6917 41.3682 12.9056C41.3877 13.0223 41.2707 13.2362 41.0173 13.6056C40.9393 13.7028 40.8808 13.8001 40.8223 13.8973C40.6274 14.1695 40.4714 14.4806 40.374 14.7918C40.2375 15.2779 40.296 15.8223 40.5104 16.8335C40.9003 18.6419 41.875 19.7697 41.9725 24.1254C42.1479 32.545 39.7306 35.3451 39.7306 35.3451C39.7306 35.3451 39.7501 35.034 39.7696 34.4507C39.8281 32.9534 39.8866 29.5894 39.5942 24.8837C39.4577 22.8031 38.9509 20.7614 38.0931 18.8363H38.0736C36.9234 19.0891 35.8122 19.303 34.7595 19.4974L34.6621 19.5169C9.18283 24.3587 10.2355 18.778 7.83771 19.7502C7.83771 19.7502 7.42832 19.2641 6.78501 26.1476C6.62905 27.8588 6.47309 29.9978 6.27815 32.7201C6.25866 32.9145 6.20017 32.9923 6.08321 32.9534C5.67382 32.8173 4.73809 31.145 4.3482 27.956C4.11427 25.9921 4.25073 23.717 4.54314 21.5975V21.5781C4.83556 19.4391 5.24494 17.3196 5.81028 15.2195C6.14169 14.0917 6.47309 13.8195 6.60956 13.7223C6.68753 13.6639 6.70703 14.189 6.76551 14.5973V14.6168C6.76551 14.6556 6.76551 14.6751 6.78501 14.714C6.8045 14.7723 6.8045 14.8306 6.82399 14.8695C6.82399 14.889 6.84349 14.9084 6.84349 14.9084C6.84349 14.9084 6.84349 14.9084 6.84349 14.9279C6.88248 15.0445 6.94096 15.1223 7.03843 15.0834C7.17489 15.0445 7.27237 14.9473 7.35034 14.8306C7.38933 14.7918 7.40883 14.7529 7.42832 14.714L7.46731 14.6556C7.46731 14.6362 7.48681 14.6362 7.48681 14.6362V14.6168C7.68175 14.2862 7.89619 13.9751 8.13012 13.6639C8.46153 13.3139 8.53951 13.5084 8.5785 13.8778C8.59799 14.0334 8.59799 14.2084 8.63698 14.3834V14.4417C8.63698 14.4417 8.63698 14.4417 8.63698 14.4612C8.63698 14.539 8.67597 14.6168 8.71496 14.6751C8.83192 14.7918 9.00737 14.6751 9.22181 14.4029C9.31928 14.2862 9.39726 14.1501 9.47524 14.014C9.84563 13.3528 10.177 13.0417 10.255 13.1C10.2745 13.1195 10.2745 13.2362 10.255 13.3528C10.2355 13.6251 10.2355 14.014 10.6839 14.1112H10.7229C10.9178 14.1112 11.4442 13.9556 12.2629 13.6834L12.3214 13.6639C14.8752 12.8084 20.1387 10.9222 26.9033 9.89161L27.0397 9.87217C27.4686 9.81383 27.8975 9.7555 28.3264 9.69716C28.3264 9.69716 35.9292 8.64713 42.2844 10.1833C43.9219 10.5722 44.6042 10.7666 44.6822 10.8444C44.7407 10.9222 44.4483 10.9416 43.9609 10.9611C42.5963 11.0778 39.7306 11.1944 38.6974 12.6139Z" fill="#44221B"/>
<path d="M40.2569 13.0028C40.7053 12.8861 41.0757 12.7695 41.2511 12.7889C41.3291 12.7889 41.3681 12.8278 41.3681 12.8861C41.3291 12.9834 41.2706 13.0806 41.2121 13.1778C41.1147 13.3723 40.9782 13.6056 40.8222 13.8778C40.6663 14.1501 40.5103 14.4612 40.3739 14.7723C39.984 15.6473 39.7306 16.6585 40.1399 17.4363C40.9977 19.1669 42.1869 27.8199 40.6078 32.1172C40.5883 32.1756 40.1789 33.2839 39.7695 34.4118C39.828 32.9145 39.8865 29.5505 39.5941 24.8448C39.4576 22.7642 38.9508 20.7225 38.093 18.7974H38.0735C36.9234 19.0502 35.8122 19.2641 34.7595 19.4585L34.662 19.478C9.18274 24.3198 10.2354 18.7391 7.83763 19.7113C7.83763 19.7113 7.42824 19.2252 6.78492 26.1087C6.62897 27.8588 6.47301 29.9977 6.27807 32.72C6.25857 32.9145 6.20009 32.9923 6.08312 32.9534C5.8297 32.4478 5.61526 31.9228 5.43981 31.3783C5.26436 30.9894 5.14739 30.5811 5.06941 30.1533C4.73801 28.2282 4.28963 24.6892 4.83548 21.9086C4.83548 21.9086 6.12211 14.9084 6.47301 14.7334C6.82391 14.5584 6.45352 16.3279 6.97987 16.0362C7.50622 15.7445 8.18853 14.1695 8.46145 14.2278C8.73437 14.2862 8.32499 15.7445 8.77336 15.6473C9.59213 15.4723 9.65061 14.2667 10.021 14.2084C10.3914 14.1501 10.0795 15.9001 12.5748 14.4028C14.5632 13.2167 31.0555 8.16099 40.2179 10.086C40.2179 10.086 43.0056 10.3194 44.7016 10.8833C44.7601 10.9611 44.4677 10.9805 43.9803 11C42.6157 11.0777 40.062 12.05 38.6973 12.8472C37.9176 13.2945 39.2822 13.275 40.2569 13.0028Z" fill="#4E2B1F"/>
<path d="M43.1811 11.0777C43.1226 11.0582 43.0447 11.0388 42.9862 11.0193C42.7132 10.9221 42.4208 10.8638 42.1284 10.8055C41.0172 10.5916 39.4382 10.4166 39.4382 10.4166C28.8917 8.58872 12.3799 14.7139 11.5611 15.0445C11.4636 15.0834 11.3662 15.1222 11.2882 15.1417C11.2102 15.1611 11.1322 15.1806 11.0737 15.2C10.6059 15.2778 10.3914 15.0834 10.138 14.7139C9.80661 14.2278 9.61166 15.5889 8.90986 15.8417C8.20806 16.0945 8.442 14.7917 8.36402 14.5583C8.28604 14.325 7.3698 16.3084 6.94092 16.1528C6.51205 15.9973 6.84345 14.85 6.49255 15.0445C6.14165 15.2389 4.87451 22.1808 4.87451 22.1808V22.1613C5.10845 20.0613 5.47884 17.9807 5.9662 15.9389C6.25862 14.8306 6.57053 14.5583 6.70699 14.4611C6.78497 14.4028 6.80446 14.9083 6.88244 15.3167V15.3361C6.88244 15.375 6.88244 15.3945 6.90194 15.4334C6.90194 15.4917 6.92143 15.5306 6.94092 15.5889C6.94092 15.6084 6.94092 15.6278 6.96042 15.6278C6.96042 15.6278 6.96042 15.6278 6.96042 15.6473C7.09688 15.9195 7.31132 15.725 7.44778 15.55C7.48677 15.5111 7.50626 15.4723 7.52576 15.4334L7.56475 15.375L7.58424 15.3361V15.3167C7.68171 15.0834 8.55896 13.1 8.63694 14.5778C8.63694 14.7528 8.65644 14.9472 8.69542 15.1222C8.69542 15.1222 8.69542 15.1222 8.69542 15.1417C8.71492 15.2195 8.73441 15.2972 8.7734 15.3556C8.94885 15.6084 9.22177 15.1222 9.26076 15.0834C9.31925 14.9667 10.4694 12.6138 10.255 14.0528C10.177 14.5583 10.3719 14.7528 10.6839 14.7917H10.7228C10.7813 14.7917 10.8593 14.7917 10.9178 14.7917C10.9958 14.7917 11.0543 14.7722 11.1322 14.7528C11.5026 14.6556 11.873 14.5194 12.2239 14.3444L12.2629 14.325C12.8867 14.1305 19.6708 11.8944 26.3574 10.3388L26.4744 10.3193C34.623 8.78317 40.4129 9.89154 42.8692 10.5721C43.415 10.7277 43.8049 10.8443 44.0194 10.9221C44.1363 10.961 44.1948 10.9805 44.1948 10.9805C44.4677 11.0971 43.7465 11.2138 43.1811 11.0777Z" fill="#7C4C2B"/>
<path d="M7.72073 19.8865C7.72073 19.8865 7.1359 20.217 6.90196 21.3254C6.66803 22.4338 6.57056 28.6756 6.57056 28.6756C6.57056 28.6756 7.19438 20.567 7.72073 19.8865Z" fill="#7C4C2B"/>
<path d="M40.9979 13.1C40.9589 13.1778 40.8224 13.1778 40.7639 13.2944C39.7307 14.1695 39.3408 14.4028 38.2296 15.2195C36.4946 16.5029 34.5842 17.5529 32.5568 18.3307C26.8449 20.528 22.6536 21.1113 19.554 20.8391C14.1345 20.353 12.3605 17.8251 11.6392 15.8417L11.4053 15.3751C12.263 17.3585 14.5634 19.828 19.6124 20.2558C22.1857 20.4697 26.3185 20.0419 32.5957 17.8251C34.3502 17.2418 36.0268 16.4057 37.5473 15.3362C38.5416 14.6556 39.6138 13.975 40.9979 13.1C41.0563 13.1 40.9979 13.0222 40.9979 13.1Z" fill="#7C4C2B"/>
<path d="M44.0585 10.9417C43.805 10.9806 43.5126 11.0195 43.1812 11.0778C42.07 11.2917 40.9783 11.6417 39.9451 12.1279C33.9018 15.1613 23.4723 19.4197 13.9785 15.453C23.4528 18.9336 34.8181 14.4224 41.1733 11.214C41.4852 11.0584 41.7971 10.9223 42.109 10.8056C42.3624 10.7084 42.6159 10.6306 42.8888 10.5723C43.4541 10.7278 43.844 10.8445 44.0585 10.9417Z" fill="#7C4C2B"/>
<path d="M46.1638 11.3305C46.1638 11.3305 42.2844 11.2333 39.7306 12.5167C33.3364 15.764 22.8484 19.828 13.5496 15.2973C23.4527 19.2057 34.2917 14.9667 41.0562 11.5639C42.1869 11.0388 43.4151 10.6694 44.6432 10.4944C45.1696 10.7472 45.6764 11.0194 46.1638 11.3305Z" fill="#201A14"/>
<path d="M41.3682 12.9055C41.3292 13.0027 41.2707 13.0999 41.2122 13.1972C40.1595 14.0916 39.7696 14.325 38.6195 15.1806C36.826 16.5028 34.8765 17.5723 32.7906 18.3695C26.9423 20.6057 22.634 21.228 19.4564 20.9557C13.9005 20.4696 12.2045 17.7279 11.4442 15.7056L11.3662 15.4139C12.2435 17.4362 14.3489 20.0029 19.5149 20.4502C22.6925 20.7224 27.0008 20.1196 32.8491 17.864C34.9155 17.0667 36.8844 15.9972 38.6779 14.675C39.6722 13.9361 40.257 13.6055 41.2707 12.7888C41.3292 12.8083 41.3682 12.8472 41.3682 12.9055Z" fill="#201A14"/>
<path d="M15.8889 15.453C16.8441 15.628 17.7994 15.7446 18.7546 15.7835C19.242 15.803 19.7098 15.8419 20.1972 15.8419H20.9185C21.1524 15.8419 21.4058 15.8224 21.6398 15.8224L22.3611 15.803C22.595 15.7835 22.8484 15.7641 23.0824 15.7446C23.5697 15.7058 24.0376 15.6863 24.525 15.6085C25.0123 15.5502 25.4802 15.5113 25.9675 15.4335L27.3906 15.2002C27.6246 15.1613 27.8585 15.103 28.0924 15.0641L28.7942 14.9085L29.496 14.7529C29.73 14.6946 29.9639 14.6363 30.1978 14.5779L31.6014 14.2085L32.9855 13.7613L33.6679 13.5279C33.9018 13.4501 34.1162 13.3529 34.3502 13.2751L35.6953 12.7501L36.0267 12.614L36.3581 12.4584L37.0209 12.1668L38.3465 11.564L37.0404 12.1862L36.3776 12.4973L36.0462 12.6529L35.7148 12.789L34.3697 13.3335C34.1357 13.4112 33.9213 13.5279 33.6874 13.5862L33.005 13.8196L31.6404 14.2863L30.2368 14.6752C30.0029 14.7335 29.769 14.8113 29.535 14.8696L28.8332 15.0252L28.1314 15.1807C27.8975 15.2391 27.6636 15.2974 27.4296 15.3169L26.0065 15.5502C25.5387 15.628 25.0513 15.6669 24.5639 15.7252C24.0766 15.7835 23.6087 15.803 23.1214 15.8419C22.8874 15.8613 22.634 15.8808 22.4001 15.8808L21.6788 15.9002C21.4448 15.9002 21.1914 15.9196 20.9575 15.9196L20.2362 15.9002C19.7488 15.9002 19.2615 15.8613 18.7936 15.8419C17.7994 15.7835 16.8246 15.6474 15.8889 15.453Z" fill="#7C4C2B"/>
<path d="M38.522 13.8779C36.5141 14.928 34.4282 15.8419 32.3033 16.6391C30.1784 17.4558 27.995 18.0975 25.7727 18.6031C23.5503 19.0697 21.2694 19.342 18.9886 19.1281C17.8579 19.0309 16.7272 18.7586 15.6745 18.3114C14.6218 17.8642 13.6861 17.1836 12.9453 16.328C13.7056 17.1836 14.6413 17.8447 15.7135 18.2725C16.7662 18.7003 17.8774 18.9725 19.0081 19.0503C21.2694 19.2642 23.5503 18.9725 25.7727 18.5058C27.995 18.0197 30.1784 17.378 32.3033 16.5808C33.3755 16.1919 34.4282 15.7641 35.4614 15.3169C36.4946 14.8696 37.5083 14.3835 38.522 13.8779Z" fill="#7C4C2B"/>
<path d="M33.9602 11.6416C32.8101 12.0499 31.6209 12.4 30.4123 12.6722C29.2231 12.9639 28.0144 13.2166 26.8058 13.4305C25.5971 13.6444 24.3885 13.8583 23.1603 14.0139C22.556 14.0917 21.9322 14.15 21.3278 14.1889C21.0159 14.2083 20.704 14.2278 20.4116 14.2083C20.2556 14.2083 20.0997 14.1889 19.9437 14.1695C19.7878 14.1695 19.6318 14.1306 19.4954 14.0528C19.6318 14.1111 19.7878 14.15 19.9437 14.15C20.0997 14.1695 20.2556 14.1695 20.4116 14.1695C20.7235 14.1695 21.0159 14.15 21.3278 14.1306C21.9322 14.0917 22.556 14.0139 23.1603 13.9361C23.7646 13.8583 24.369 13.7611 24.9733 13.6639C25.5776 13.5667 26.182 13.4694 26.7863 13.3528C27.9949 13.1389 29.2036 12.8861 30.3928 12.6139C31.6014 12.3805 32.7906 12.0499 33.9602 11.6416Z" fill="#7C4C2B"/>
<path d="M8.63696 16.9307C8.73444 17.1834 8.8514 17.4168 9.02685 17.6307C9.18281 17.8446 9.33876 18.0585 9.53371 18.2335C9.9041 18.6029 10.3135 18.9335 10.7814 19.2057C11.2297 19.478 11.7171 19.7307 12.2044 19.9252C12.4579 20.0224 12.7113 20.1002 12.9452 20.1974L13.7055 20.4308L12.9257 20.2558C12.6723 20.178 12.4189 20.1002 12.1655 20.003L11.7951 19.8474L11.6001 19.7696L11.4247 19.6919L11.0543 19.4974L10.7229 19.303C10.2745 19.0307 9.84562 18.6807 9.47522 18.2918C9.10483 17.9029 8.81241 17.4362 8.63696 16.9307Z" fill="#7C4C2B"/>
<path d="M8.98804 16.5808C9.06601 16.7364 9.18298 16.8725 9.29995 17.0086C9.41692 17.1447 9.53388 17.2614 9.67034 17.3586C9.94327 17.5725 10.2357 17.767 10.5476 17.9031C10.8595 18.0586 11.1909 18.1753 11.5223 18.2725C11.6978 18.3309 11.8537 18.3503 12.0292 18.4086L12.5555 18.5059C12.3801 18.4864 12.2046 18.467 12.0292 18.4475C11.8537 18.4281 11.6783 18.3892 11.5028 18.3503C11.1519 18.2725 10.8205 18.1364 10.5086 18.0003C10.1967 17.8447 9.88478 17.6503 9.63135 17.4169C9.35843 17.1836 9.14399 16.9114 8.98804 16.5808Z" fill="#7C4C2B"/>
<path d="M7.03841 17.1445C7.01892 17.6307 6.97993 18.1362 6.90195 18.6224C6.82397 19.1085 6.70701 19.5946 6.57055 20.0807C6.43408 20.5669 6.18066 20.9946 6.06369 21.4808C5.92723 21.9474 5.82976 22.4336 5.75178 22.9197C5.59582 23.8919 5.51785 24.8836 5.47886 25.8753C5.45936 26.3615 5.45936 26.867 5.49835 27.3532C5.51785 27.8393 5.59582 28.3449 5.73228 28.8115C5.55683 28.3449 5.45936 27.8587 5.43987 27.3532C5.42037 27.1004 5.40088 26.8476 5.40088 26.6143C5.40088 26.3809 5.40088 26.1087 5.40088 25.8753C5.42037 24.8836 5.53734 23.8919 5.71279 22.9197C5.79077 22.4336 5.90773 21.9474 6.0442 21.4613C6.18066 20.9752 6.3951 20.528 6.51206 20.0613C6.746 19.089 6.94094 18.1168 7.03841 17.1445Z" fill="#7C4C2B"/>
<path d="M28.5212 20.217C29.5739 19.867 30.6656 19.5559 31.7378 19.2837C32.81 19.0114 33.9212 18.7781 35.0324 18.6031C35.5977 18.5059 36.1436 18.467 36.6699 18.3309C37.1963 18.1948 37.7031 17.9614 38.1515 17.6503C38.5999 17.3392 38.9703 16.9308 39.2822 16.4641C39.4381 16.2308 39.5746 15.978 39.6916 15.7447C39.8085 15.4919 39.906 15.2391 40.0425 14.9863C39.945 15.2391 39.867 15.5113 39.7695 15.7836C39.6721 16.0558 39.5551 16.3086 39.3991 16.5419C39.1262 17.0475 38.7363 17.4753 38.2685 17.8059C37.8006 18.1364 37.2743 18.3698 36.7089 18.5059C36.436 18.5642 36.1436 18.6225 35.8706 18.642C35.5977 18.6809 35.3053 18.7003 35.0324 18.7392C33.9212 18.8948 32.8295 19.1087 31.7378 19.3809C30.6461 19.6531 29.5934 19.9059 28.5212 20.217Z" fill="#7C4C2B"/>
<path d="M38.9119 18.3892C39.3602 19.1475 39.7306 19.9448 40.0425 20.7615C40.3545 21.5781 40.5299 22.4532 40.5494 23.3476C40.5689 24.2227 40.5494 25.0977 40.5104 25.9727C40.4714 26.8477 40.3934 27.7228 40.296 28.5978C40.3545 27.7228 40.4129 26.8477 40.4324 25.9727C40.4519 25.0977 40.4714 24.2227 40.4519 23.3476C40.4324 22.4726 40.257 21.617 39.9646 20.7809C39.6916 19.9642 39.3212 19.167 38.9119 18.3892Z" fill="#7C4C2B"/>
<defs>
<radialGradient id="paint0_radial_288_113" cx="0" cy="0" r="1" gradientTransform="matrix(16.9484 -0.49287 -0.494123 -16.9054 23.1394 32.3772)" gradientUnits="userSpaceOnUse">
<stop stop-color="#F9C387"/>
<stop offset="0.56" stop-color="#F9C086"/>
<stop offset="0.94" stop-color="#F8B782"/>
<stop offset="1" stop-color="#F8B581"/>
</radialGradient>
<radialGradient id="paint1_radial_288_113" cx="0" cy="0" r="1" gradientTransform="matrix(2.31501 -0.067322 -0.0674932 -2.30914 31.455 30.453)" gradientUnits="userSpaceOnUse">
<stop stop-color="#333333"/>
<stop offset="0.46" stop-color="#313131"/>
<stop offset="0.71" stop-color="#292929"/>
<stop offset="0.9" stop-color="#1B1B1B"/>
<stop offset="1" stop-color="#111111"/>
</radialGradient>
<radialGradient id="paint2_radial_288_113" cx="0" cy="0" r="1" gradientTransform="matrix(-2.31399 0.0692437 -0.0694197 -2.30812 14.6697 31.0993)" gradientUnits="userSpaceOnUse">
<stop stop-color="#333333"/>
<stop offset="0.46" stop-color="#313131"/>
<stop offset="0.71" stop-color="#292929"/>
<stop offset="0.9" stop-color="#1B1B1B"/>
<stop offset="1" stop-color="#111111"/>
</radialGradient>
</defs>
</svg>
