<svg width="142" height="42" viewBox="0 0 142 42" fill="none" xmlns="http://www.w3.org/2000/svg">
<path d="M36.6406 19.1818C36.6406 18.8471 36.4134 18.5822 35.9733 18.401C35.803 18.3313 35.661 18.2058 35.5617 18.0663C35.4623 17.913 35.4055 17.7317 35.4055 17.5505C35.4055 17.1043 35.7462 16.7139 36.2147 16.6721L38.8977 16.4071C39.0397 16.3932 39.1674 16.449 39.2668 16.5326C39.3804 16.6302 39.4797 16.7697 39.5365 16.9091C39.5649 16.9927 39.6501 17.0625 39.7353 17.0625C39.7779 17.0625 39.8204 17.0485 39.8488 17.0346C40.4451 16.6302 41.1691 16.4071 41.9073 16.4071C42.8726 16.4071 43.625 16.6163 44.1786 17.0346C44.2638 17.1043 44.3915 17.1461 44.5051 17.1461C44.5761 17.1461 44.6471 17.1322 44.7039 17.0903C45.5414 16.6302 46.4925 16.3793 47.4579 16.3932C48.6929 16.3932 49.5873 16.686 50.1551 17.2716C50.7229 17.8572 51.0069 18.7356 51.0069 19.9207V24.1733C51.0069 24.4801 51.2198 24.7729 51.6457 25.0238C51.8018 25.1075 51.9154 25.233 52.0006 25.3863C52.0858 25.5397 52.1425 25.707 52.1425 25.8883C52.1425 26.3484 51.7734 26.7249 51.305 26.7249H47.827C47.3585 26.7249 46.9752 26.3484 46.9752 25.9022C46.9752 25.5955 47.1172 25.2887 47.3727 25.1075C47.5005 24.9959 47.5998 24.9123 47.6708 24.8426C47.756 24.7589 47.827 24.6613 47.8837 24.5498C47.9547 24.4382 47.9831 24.3127 47.9831 24.1873V20.7294C47.9831 19.9486 47.8838 19.377 47.6992 19.0284C47.5147 18.6798 47.2023 18.5125 46.7481 18.5125C46.4642 18.5125 46.1518 18.638 45.8111 18.875C45.4846 19.0981 45.3285 19.4746 45.3285 19.9765V24.1873C45.3285 24.4801 45.5272 24.7868 45.9389 25.1075C46.1802 25.2887 46.3222 25.5815 46.3222 25.8883C46.3222 26.1114 46.237 26.3205 46.0809 26.4739C45.9247 26.6273 45.7118 26.7109 45.4846 26.7109H42.1486C41.9214 26.7109 41.7085 26.6273 41.5524 26.4739C41.3962 26.3205 41.2968 26.1114 41.311 25.8883C41.2968 25.5815 41.453 25.2748 41.6943 25.0935C42.106 24.7729 42.3189 24.4801 42.3189 24.1873V20.7294C42.3189 19.9486 42.2196 19.377 42.035 19.0284C41.8505 18.6798 41.4814 18.4846 41.0981 18.5125C40.8 18.5125 40.4735 18.6519 40.1186 18.9169C39.8063 19.1399 39.6501 19.5164 39.6501 20.0462V24.2012C39.6501 24.494 39.8488 24.8147 40.2463 25.1354C40.4877 25.3166 40.6296 25.6094 40.6296 25.9022C40.6296 26.1253 40.5444 26.3345 40.3883 26.4878C40.2321 26.6412 40.0192 26.7388 39.7921 26.7388H36.2573C35.7888 26.7388 35.4055 26.3623 35.4055 25.9022C35.4055 25.707 35.4623 25.5258 35.5617 25.3724C35.661 25.219 35.803 25.0796 35.9733 25.0099C36.4134 24.8007 36.6264 24.5358 36.6264 24.2012L36.6406 19.1818Z" fill="#5E2CED"/>
<path d="M59.2689 18.9447C59.2689 18.6938 59.127 18.4428 58.8572 18.2058C58.6301 18.0245 58.5165 17.7457 58.5165 17.4668C58.5165 17.0067 58.8998 16.6302 59.3683 16.6302H62.6901C62.9173 16.6302 63.1444 16.7139 63.3006 16.8812C63.4709 17.0346 63.5561 17.2577 63.5561 17.4807C63.5561 17.6759 63.4993 17.8572 63.3999 18.0245C63.3006 18.1918 63.1444 18.3173 62.9741 18.401C62.7753 18.4986 62.5908 18.6241 62.4204 18.7495C62.2785 18.8611 62.1649 19.0145 62.0939 19.1957L58.3888 28.8163C58.261 29.1649 58.0764 29.4995 57.8635 29.8062C57.6506 30.113 57.395 30.3918 57.0969 30.6428C56.4723 31.1726 55.6773 31.4654 54.8398 31.4654C54.1726 31.4654 53.6189 31.2981 53.2072 30.9774C52.7956 30.6428 52.5826 30.1409 52.5826 29.4577C52.5684 29.123 52.6962 28.7884 52.9375 28.5374C53.1646 28.3004 53.477 28.1749 53.8035 28.1749C54.0448 28.1749 54.2861 28.2167 54.4991 28.3143C54.712 28.398 54.9107 28.5235 55.0669 28.6908C55.1379 28.7745 55.2373 28.8442 55.3508 28.8581C55.4502 28.8442 55.5354 28.7884 55.5638 28.6908C55.8193 28.2028 56.0322 27.6869 56.2168 27.171C56.2878 26.9758 56.3303 26.7667 56.3303 26.5715C56.3303 26.3484 56.2878 26.1393 56.2026 25.9301L53.5763 19.1957C53.4628 18.889 53.1646 18.6241 52.682 18.4289C52.4974 18.3452 52.3271 18.2197 52.2135 18.0524C52.0999 17.8851 52.0432 17.6899 52.0432 17.4807C52.0432 17.0067 52.4265 16.6302 52.9091 16.6302H56.4865C56.7136 16.6302 56.9408 16.7139 57.0969 16.8812C57.2673 17.0346 57.3525 17.2577 57.3525 17.4947C57.3525 17.8014 57.2247 18.0942 56.9834 18.2894C56.6994 18.5404 56.5575 18.7774 56.5575 19.0284C56.5575 19.0842 56.5717 19.1539 56.5859 19.2097L57.6364 22.1934C57.679 22.291 57.7783 22.3468 57.8919 22.3329C58.0055 22.3329 58.0906 22.2492 58.1474 22.1098L59.2547 19.1539C59.2689 19.0842 59.2689 19.0145 59.2689 18.9447Z" fill="#5E2CED"/>
<path d="M70.6825 26.9758C70.2566 26.9758 69.8449 26.934 69.4332 26.8503C68.9931 26.7667 68.5673 26.6412 68.1556 26.4739C67.7297 26.3066 67.318 26.0835 66.9205 25.8325C66.523 25.5676 66.1539 25.2609 65.8274 24.9123C65.4867 24.5498 65.1886 24.1454 64.9473 23.7132C64.6776 23.2391 64.4788 22.7372 64.3653 22.2074C64.2233 21.6078 64.1523 21.0083 64.1523 20.3948C64.1523 18.9029 64.4362 17.6062 65.0041 16.4908C65.5435 15.4033 66.3953 14.497 67.46 13.8974C68.5389 13.2839 69.8023 12.9772 71.2503 12.9772C71.5626 12.9772 71.8607 12.9911 72.1446 13.019C72.4428 13.0469 72.7409 13.0887 73.039 13.1445C73.3371 13.2003 73.621 13.2979 73.8907 13.4234C74.1463 13.5489 74.3734 13.6883 74.5863 13.8695C74.7993 14.0508 74.9696 14.2739 75.0832 14.5388C75.211 14.8316 75.2677 15.1383 75.2536 15.459V15.961C75.2536 16.686 74.6573 17.2855 73.9049 17.2855C73.1525 17.2855 72.4853 16.8533 72.2014 16.1701C72.1162 15.961 71.9885 15.7658 71.8181 15.6263C71.662 15.4869 71.449 15.4172 71.2361 15.4311C70.0436 15.473 69.1209 15.9052 68.4679 16.7139C67.8149 17.5365 67.5026 18.6659 67.5168 20.1159C67.5168 20.5621 67.5593 21.0222 67.6587 21.4545C67.8007 22.1377 68.1414 22.779 68.6382 23.2949C68.837 23.518 69.0783 23.6993 69.348 23.8387C69.5894 23.9642 69.8449 24.0618 70.1004 24.1315C70.3418 24.2012 70.5973 24.2291 70.8528 24.2291C71.3213 24.243 71.7897 24.1873 72.244 24.0757C72.6699 23.9502 73.0816 23.769 73.4507 23.5319C73.6352 23.4204 73.834 23.3646 74.0469 23.3646C74.345 23.3507 74.6289 23.4622 74.8277 23.6853C75.0264 23.9084 75.14 24.1873 75.1258 24.4801C75.1116 24.8565 74.9554 25.219 74.6715 25.47C74.3592 25.8046 73.9759 26.0695 73.55 26.2647C73.0958 26.4878 72.6131 26.6551 72.1162 26.7806C71.6478 26.9201 71.1651 26.9758 70.6825 26.9758Z" fill="#7B4B2C"/>
<path d="M77.5107 19.126C77.5107 18.7914 77.2836 18.5265 76.8435 18.3452C76.6732 18.2755 76.5312 18.15 76.4318 18.0106C76.3325 17.8572 76.2757 17.6899 76.2757 17.4947C76.2757 17.0346 76.6306 16.6581 77.0848 16.6023L79.7821 16.3374C79.924 16.3235 80.0518 16.3653 80.1654 16.4629C80.2931 16.5605 80.3783 16.686 80.4209 16.8254C80.4351 16.923 80.5345 16.9788 80.6338 16.9788C80.6764 16.9788 80.719 16.9649 80.7474 16.937C81.2868 16.5466 81.9399 16.3374 82.6071 16.3374C83.1891 16.3374 83.6434 16.4908 83.9699 16.8115C84.2964 17.1322 84.4667 17.5783 84.4667 18.1361V18.3591C84.4667 19.0145 83.9273 19.5443 83.2601 19.5443C82.7774 19.5443 82.309 19.3909 81.9399 19.0981C81.6559 18.889 81.4288 18.7774 81.2443 18.7774C81.1449 18.7774 81.0313 18.8053 80.9461 18.875C80.6622 19.0563 80.5203 19.4049 80.5203 19.9068V24.0897C80.5203 24.2709 80.5912 24.4522 80.7048 24.5916C80.8184 24.731 80.9887 24.8286 81.1733 24.8426C81.4146 24.8705 81.6275 24.9959 81.7837 25.1772C81.9399 25.3585 82.025 25.5815 82.025 25.8186C82.025 26.2787 81.6559 26.6551 81.1875 26.6551C81.1875 26.6551 81.1875 26.6551 81.1733 26.6551H77.1274C76.9003 26.6551 76.6873 26.5715 76.5312 26.4181C76.3608 26.2647 76.2757 26.0556 76.2757 25.8325C76.2757 25.6373 76.3325 25.4561 76.4318 25.2887C76.5312 25.1214 76.6874 24.9959 76.8577 24.9123C77.2978 24.7171 77.5107 24.4522 77.5107 24.1315V19.126Z" fill="#7B4B2C"/>
<path d="M85.1197 21.8449C85.1055 21.0919 85.2049 20.353 85.4179 19.6279C85.6024 19.0005 85.9005 18.4149 86.298 17.899C86.7097 17.3971 87.2349 17.0067 87.8312 16.7557C88.5268 16.4629 89.265 16.3235 90.0173 16.3374C90.5568 16.3235 91.1104 16.4071 91.6215 16.5745C92.4733 16.8254 93.1972 17.3971 93.6373 18.15C93.8503 18.5125 94.0064 18.9169 94.1058 19.3212C94.2052 19.7534 94.2477 20.1996 94.2477 20.6458C94.2477 21.0083 94.0916 21.3569 93.8219 21.6078C93.5521 21.8727 93.183 22.0122 92.7998 22.0122H88.8817C88.7113 22.0122 88.5552 22.0679 88.4416 22.1795C88.328 22.2771 88.2571 22.4305 88.2571 22.5838C88.2854 22.8766 88.3564 23.1694 88.47 23.4483C88.7539 24.257 89.3785 24.6753 90.3581 24.6753C90.7271 24.6753 91.082 24.6334 91.4369 24.5498C91.7918 24.4522 92.1467 24.3127 92.4733 24.1315C92.601 24.0618 92.743 24.0339 92.8707 24.0339C93.1121 24.0339 93.3392 24.1315 93.4954 24.3127C93.6657 24.494 93.7509 24.731 93.7509 24.982C93.7509 25.3166 93.5521 25.6373 93.1688 25.9301C92.7288 26.2508 92.2461 26.4878 91.7209 26.6273C91.1672 26.7946 90.5994 26.8782 90.0315 26.8782C88.3848 26.8782 87.1498 26.446 86.3264 25.5955C85.503 24.745 85.1197 23.5041 85.1197 21.8449ZM88.9243 20.1717L90.4432 20.0741C90.5994 20.0741 90.7413 20.0044 90.8549 19.8929C90.9685 19.7953 91.0253 19.6419 91.0253 19.5025C91.0253 19.3909 90.9969 19.2933 90.9543 19.1957C90.7555 18.5683 90.3722 18.2615 89.8186 18.2615C89.1798 18.2615 88.7397 18.6241 88.4842 19.3351C88.4416 19.4467 88.4132 19.5722 88.399 19.6977C88.399 19.9626 88.6403 20.1857 88.9243 20.1717Z" fill="#7B4B2C"/>
<path d="M101.956 15.9052V14.483C101.956 14.1484 101.729 13.8835 101.289 13.6883C101.119 13.6186 100.977 13.4931 100.877 13.3397C100.778 13.1864 100.721 13.0051 100.721 12.8238C100.721 12.6008 100.806 12.3777 100.962 12.2104C101.119 12.043 101.332 11.9315 101.559 11.9176L103.816 11.7084C104.142 11.6805 104.469 11.806 104.668 12.0709C104.909 12.3219 105.037 12.6565 105.023 13.0051L105.037 24.1175C105.037 24.2849 105.093 24.4522 105.221 24.5777C105.349 24.7171 105.519 24.8286 105.69 24.8983C105.874 24.9681 106.016 25.0935 106.13 25.2469C106.243 25.4003 106.3 25.5955 106.3 25.7907C106.3 26.0138 106.215 26.2229 106.059 26.3902C105.903 26.5575 105.69 26.6551 105.463 26.6691L102.723 26.8922C102.581 26.9061 102.453 26.8643 102.339 26.7667C102.226 26.6691 102.127 26.5436 102.07 26.4042C102.041 26.3066 101.956 26.2369 101.857 26.2369C101.814 26.2369 101.772 26.2508 101.743 26.2647C101.175 26.6551 100.508 26.8782 99.8126 26.8782C98.4072 26.8782 97.3141 26.4321 96.5191 25.5537C95.7242 24.6753 95.3125 23.4483 95.3125 21.9146C95.2983 21.1338 95.426 20.3669 95.6674 19.6419C95.8945 18.9866 96.2494 18.387 96.7037 17.8711C97.1579 17.3832 97.7116 16.9928 98.3362 16.7418C99.0176 16.4629 99.7416 16.3374 100.48 16.3374C100.622 16.3374 100.764 16.3514 100.906 16.3653C101.048 16.3793 101.19 16.3932 101.332 16.3932C101.488 16.3932 101.63 16.3514 101.757 16.2538C101.885 16.1841 101.956 16.0446 101.956 15.9052ZM100.679 24.7031C100.906 24.7031 101.119 24.6613 101.332 24.6055C101.53 24.5637 101.686 24.4522 101.8 24.2849C101.914 24.1175 101.97 23.9223 101.97 23.7271V19.1818C101.97 18.9866 101.914 18.8053 101.786 18.6519C101.672 18.4986 101.502 18.401 101.303 18.387C101.204 18.3731 101.119 18.3731 101.019 18.3731C100.238 18.3731 99.628 18.6659 99.188 19.2375C98.7479 19.8092 98.5349 20.6179 98.5349 21.6497C98.5349 22.6675 98.7053 23.4343 99.0602 23.9363C99.4009 24.4522 99.9404 24.7031 100.679 24.7031Z" fill="#7B4B2C"/>
<path d="M107.45 24.9541C107.493 24.006 108.316 23.267 109.295 23.3089C110.275 23.3507 111.013 24.1594 110.971 25.1214C110.928 26.0835 110.105 26.8085 109.125 26.7667C108.685 26.7527 108.273 26.5715 107.961 26.2647C107.62 25.9162 107.436 25.4421 107.45 24.9541Z" fill="#7B4B2C"/>
<path d="M113.767 19.0842C113.767 18.7495 113.554 18.4846 113.1 18.3034C112.93 18.2337 112.788 18.1082 112.688 17.9687C112.589 17.8154 112.532 17.6341 112.532 17.4529C112.532 17.2298 112.617 17.0206 112.759 16.8673C112.901 16.6999 113.114 16.6023 113.327 16.5884L116.01 16.3235C116.152 16.3095 116.28 16.3653 116.379 16.449C116.493 16.5466 116.592 16.686 116.649 16.8254C116.677 16.9091 116.763 16.9788 116.848 16.9788C116.89 16.9788 116.933 16.9649 116.961 16.9509C117.572 16.5466 118.282 16.3235 119.02 16.3235C119.985 16.3235 120.737 16.5326 121.291 16.9509C121.376 17.0206 121.504 17.0625 121.618 17.0625C121.689 17.0625 121.76 17.0485 121.816 17.0067C122.654 16.5466 123.605 16.2956 124.57 16.3095C125.805 16.3095 126.7 16.6023 127.268 17.1879C127.835 17.7735 128.105 18.6519 128.119 19.8371V24.0897C128.119 24.3964 128.332 24.6892 128.758 24.9262C128.9 25.0099 129.028 25.1354 129.113 25.2887C129.198 25.4421 129.255 25.6094 129.255 25.7907C129.255 26.2508 128.886 26.6273 128.417 26.6273H124.939C124.471 26.6273 124.088 26.2647 124.088 25.8046C124.088 25.4979 124.23 25.1911 124.485 25.0099C124.613 24.9123 124.712 24.8147 124.783 24.745C124.868 24.6613 124.939 24.5637 124.996 24.4661C125.067 24.3546 125.096 24.2291 125.096 24.1036V20.6458C125.096 19.865 124.996 19.2933 124.812 18.9447C124.627 18.5962 124.315 18.4289 123.861 18.4289C123.577 18.4289 123.264 18.5543 122.924 18.7914C122.597 19.0145 122.441 19.3909 122.441 19.8929V24.1036C122.441 24.3964 122.64 24.7031 123.051 25.0238C123.293 25.2051 123.435 25.4979 123.435 25.8046C123.435 26.0277 123.349 26.2369 123.193 26.3902C123.037 26.5436 122.824 26.6273 122.597 26.6273H119.261C119.034 26.6273 118.821 26.5436 118.665 26.3902C118.509 26.2369 118.423 26.0277 118.423 25.8046C118.409 25.4979 118.551 25.1911 118.807 25.0099C119.218 24.6892 119.431 24.3964 119.431 24.1036V20.6458C119.431 19.865 119.332 19.2933 119.147 18.9447C118.963 18.5962 118.594 18.401 118.211 18.4289C117.912 18.4289 117.586 18.5683 117.231 18.8332C116.919 19.0563 116.763 19.4327 116.763 19.9486V24.1036C116.763 24.3964 116.961 24.7171 117.359 25.0378C117.6 25.219 117.742 25.5118 117.742 25.8046C117.742 26.0277 117.657 26.2369 117.501 26.3902C117.345 26.5436 117.132 26.6412 116.904 26.6412H113.37C113.143 26.6412 112.93 26.5575 112.773 26.4042C112.617 26.2508 112.518 26.0417 112.518 25.8186C112.518 25.6234 112.575 25.4421 112.674 25.2887C112.773 25.1354 112.915 25.0099 113.086 24.9262C113.526 24.7171 113.739 24.4522 113.739 24.1175L113.767 19.0842Z" fill="#7B4B2C"/>
<path d="M130.078 21.7891C130.064 21.0362 130.164 20.2972 130.376 19.5722C130.561 18.9447 130.859 18.3591 131.257 17.8433C131.668 17.3413 132.194 16.9509 132.79 16.6999C133.485 16.4211 134.224 16.2817 134.976 16.2956C135.515 16.2817 136.069 16.3653 136.58 16.5326C137.432 16.7836 138.156 17.3553 138.596 18.1082C138.809 18.4707 138.965 18.875 139.064 19.2794C139.164 19.7116 139.206 20.1578 139.206 20.6039C139.206 20.9665 139.05 21.315 138.78 21.566C138.511 21.8309 138.142 21.9703 137.758 21.9703H133.869C133.698 21.9703 133.542 22.0261 133.429 22.1377C133.315 22.2353 133.244 22.3886 133.244 22.542C133.272 22.8348 133.343 23.1276 133.457 23.4065C133.741 24.2291 134.366 24.6334 135.345 24.6334C135.714 24.6334 136.069 24.6055 136.424 24.5079C136.779 24.4103 137.134 24.2709 137.46 24.0897C137.588 24.0199 137.73 23.9921 137.858 23.9921C138.099 23.9921 138.326 24.0897 138.482 24.2709C138.653 24.4522 138.738 24.6892 138.738 24.9402C138.738 25.2748 138.539 25.5955 138.156 25.8883C137.716 26.209 137.233 26.446 136.708 26.5854C136.154 26.7527 135.586 26.8364 135.019 26.8364C133.372 26.8364 132.137 26.4042 131.313 25.5537C130.49 24.7031 130.078 23.4483 130.078 21.7891ZM133.883 20.1159L135.402 20.0183C135.558 20.0183 135.714 19.9486 135.814 19.8371C135.927 19.7395 135.984 19.5861 135.984 19.4467C135.984 19.3351 135.955 19.2375 135.913 19.1399C135.714 18.5125 135.331 18.2058 134.777 18.2058C134.138 18.2058 133.698 18.5683 133.443 19.2794C133.4 19.3909 133.372 19.5164 133.358 19.6419C133.386 19.9068 133.613 20.1299 133.883 20.1159C133.897 20.1159 133.897 20.1159 133.883 20.1159Z" fill="#7B4B2C"/>
<path d="M26.7318 35.3694C27.7539 35.3415 28.6908 33.3477 28.634 28.6629C28.4779 14.483 28.3927 12.057 28.3927 12.057C28.3643 11.0113 27.47 10.1747 26.4053 10.2026H26.3911L6.55932 10.7742C5.49462 10.8021 4.64286 11.6805 4.67125 12.7402C4.67125 12.7402 4.71384 15.1662 5.39525 29.3322C5.62238 34.003 6.67288 35.9411 7.69499 35.9132L26.7318 35.3694Z" fill="url(#paint0_radial_423_156)"/>
<path d="M28.5914 24.5916C28.4495 13.284 28.3927 12.057 28.3927 12.057C28.3643 11.0113 27.47 10.1747 26.4053 10.2026H26.3911L6.55932 10.7742C5.49462 10.8021 4.64286 11.6805 4.67125 12.7402C4.67125 12.7402 4.68545 13.9672 5.22489 25.2887C5.31007 25.3863 5.36685 25.4282 5.36685 25.4282C5.31007 18.4986 6.10504 15.6682 6.10504 15.6682C6.10504 15.6682 6.87163 16.2259 9.39851 16.2817C14.8072 16.3932 26.1639 12.9633 26.1639 12.9633C28.3785 17.9409 28.4637 24.7729 28.4637 24.7729C28.5063 24.7031 28.5489 24.6474 28.5914 24.5916Z" fill="#C9955D"/>
<path d="M24.8153 21.7612C24.8437 22.793 24.0203 23.6574 22.9698 23.6853C21.9193 23.7132 21.0392 22.9045 21.0108 21.8727C20.9824 20.841 21.8058 19.9765 22.8563 19.9486C23.9068 19.9207 24.7869 20.7294 24.8153 21.7612Z" fill="#C9955D"/>
<path d="M24.5882 21.6357C24.6166 22.5559 23.8784 23.3089 22.9556 23.3367C22.0187 23.3646 21.2521 22.6396 21.2237 21.7333C21.1953 20.8131 21.9335 20.0602 22.8563 20.0323C23.7932 20.0044 24.5598 20.7155 24.5882 21.6357Z" fill="url(#paint1_radial_423_156)"/>
<path d="M25.8374 29.4437C25.8658 30.1548 25.2838 30.7543 24.5598 30.7822C23.8358 30.8101 23.2254 30.2385 23.197 29.5274C23.1686 28.8163 23.7506 28.2167 24.4746 28.1889C25.2128 28.161 25.809 28.7326 25.8374 29.4437Z" fill="#F7B180"/>
<path d="M11.1588 29.862C11.1872 30.5731 10.6052 31.1726 9.88116 31.2005C9.15716 31.2284 8.54674 30.6567 8.51835 29.9457C8.48995 29.2346 9.07199 28.635 9.79598 28.6071C10.52 28.5793 11.1304 29.1509 11.1588 29.862Z" fill="#F7B180"/>
<path d="M8.81646 22.2213C8.84485 23.2531 9.725 24.0618 10.7755 24.0339C11.826 24.006 12.6494 23.1415 12.621 22.1098C12.5926 21.078 11.7124 20.2693 10.6619 20.2972C9.61144 20.3251 8.78807 21.1895 8.81646 22.2213Z" fill="#C9955D"/>
<path d="M9.0294 22.0819C9.05779 23.0021 9.82438 23.7132 10.7613 23.6993C11.6982 23.6714 12.4222 22.9185 12.408 21.9982C12.3938 21.078 11.6131 20.3669 10.6761 20.3809C9.7392 20.4087 9.00101 21.1617 9.0294 22.0819Z" fill="url(#paint2_radial_423_156)"/>
<path d="M11.9112 21.2035C12.1241 21.5381 12.039 21.9703 11.7408 22.1377C11.4427 22.305 11.031 22.1795 10.8181 21.8309C10.6052 21.4823 10.6903 21.0641 10.9885 20.8967C11.2866 20.7294 11.6983 20.8549 11.9112 21.2035Z" fill="white"/>
<path d="M24.1055 20.8549C24.3184 21.2035 24.2333 21.6218 23.9352 21.803C23.637 21.9843 23.2112 21.8449 23.0124 21.4963C22.8137 21.1477 22.8847 20.7294 23.1828 20.5621C23.4809 20.3948 23.8926 20.5063 24.1055 20.8549Z" fill="white"/>
<path d="M21.3231 29.7505C21.3515 29.9317 21.2237 30.0851 21.0534 30.113C21.0534 30.113 21.0534 30.113 21.0392 30.113C18.3987 30.4894 15.7299 30.5731 13.0753 30.3361C12.8907 30.3221 12.7629 30.1687 12.7771 29.9875C12.7913 29.8062 12.9475 29.6807 13.132 29.6947C15.7299 29.9178 18.3562 29.8481 20.9398 29.4716C21.1102 29.4577 21.2805 29.5831 21.3231 29.7505Z" fill="#836848"/>
<path d="M33.5884 7.95778L33.631 7.98567C33.631 7.98567 33.3897 7.98567 33.0064 7.98567C32.0978 8.01355 30.3517 8.16693 29.0457 8.78041L29.1735 8.75252C30.5079 8.43184 31.0615 8.9059 31.0615 8.9059C31.0615 8.9059 29.5142 9.74247 30.2098 11.569C30.9054 13.3955 32.836 21.803 28.4637 26.4181C28.4779 26.2369 29.1025 19.0284 27.2996 13.9671H27.2854C26.746 14.0647 14.9491 16.1143 9.56885 15.5427C6.99938 15.2778 6.2328 14.3854 6.2328 14.3854C6.2328 14.3854 5.42363 18.1639 4.86999 25.0378C4.79901 24.9541 2.35731 22.4444 2.79738 16.8394C3.25165 11.1368 4.89838 9.0035 4.89838 9.0035L5.1965 10.2305L6.30378 8.57127L6.5877 9.81218L7.79436 8.5155L7.76597 9.53332C11.0878 8.29241 14.5232 7.3443 18.0154 6.67504C21.0534 6.10338 24.3752 5.76876 27.4416 6.06156C29.7413 6.2707 31.8849 6.84236 33.6452 7.94384L33.5884 7.95778Z" fill="#201A14"/>
<path d="M28.1798 8.89195C27.8107 9.39389 28.6056 9.37995 29.3154 9.18475C29.7839 9.05927 30.1104 8.94772 30.1246 9.10109C30.1388 9.18475 30.0536 9.33812 29.8691 9.60304C29.8123 9.67275 29.7697 9.74247 29.7271 9.81218C29.5852 10.0074 29.4716 10.2305 29.4006 10.4536C29.3012 10.8021 29.3438 11.1925 29.5 11.9175C29.7839 13.2142 30.4937 14.0229 30.5647 17.1461C30.6924 23.1834 28.9321 25.1911 28.9321 25.1911C28.9321 25.1911 28.9463 24.9681 28.9605 24.5498C29.0031 23.4762 29.0457 21.0641 28.8328 17.6899C28.7334 16.198 28.3643 14.734 27.7397 13.3537H27.7255C26.8879 13.5349 26.0788 13.6883 25.3122 13.8277L25.2412 13.8417C6.68707 17.3134 7.45366 13.3118 5.70755 14.009C5.70755 14.009 5.40944 13.6604 4.94097 18.5962C4.8274 19.8231 4.71383 21.3569 4.57188 23.3089C4.55768 23.4483 4.51509 23.5041 4.42992 23.4762C4.1318 23.3786 3.45039 22.1795 3.16647 19.8929C2.99612 18.4846 3.0955 16.8533 3.30843 15.3335V15.3196C3.52137 13.7859 3.81949 12.2661 4.23117 10.7603C4.4725 9.95161 4.71384 9.75641 4.81321 9.68669C4.86999 9.64487 4.88419 10.0213 4.92677 10.3141V10.3281C4.92677 10.356 4.92677 10.3699 4.94097 10.3978C4.95517 10.4396 4.95517 10.4814 4.96936 10.5093C4.96936 10.5233 4.98356 10.5372 4.98356 10.5372C4.98356 10.5372 4.98356 10.5372 4.98356 10.5512C5.01195 10.6348 5.05454 10.6906 5.12552 10.6627C5.22489 10.6348 5.29587 10.5651 5.35265 10.4814C5.38104 10.4536 5.39524 10.4257 5.40944 10.3978L5.43783 10.356C5.43783 10.342 5.45202 10.342 5.45202 10.342V10.3281C5.59398 10.091 5.75014 9.86795 5.92049 9.64487C6.16182 9.39389 6.21861 9.53332 6.247 9.79824C6.26119 9.90978 6.26119 10.0353 6.28959 10.1608V10.2026C6.28959 10.2026 6.28959 10.2026 6.28959 10.2165C6.28959 10.2723 6.31798 10.3281 6.34637 10.3699C6.43155 10.4535 6.55931 10.3699 6.71547 10.1747C6.78644 10.091 6.84323 9.99344 6.90001 9.89584C7.16974 9.42178 7.41107 9.19869 7.46785 9.24052C7.48205 9.25447 7.48205 9.33812 7.46785 9.42178C7.45365 9.61698 7.45366 9.89584 7.78016 9.96555H7.80855C7.95051 9.96555 8.33381 9.85401 8.93004 9.65881L8.97262 9.64487C10.8323 9.03138 14.6652 7.67892 19.5912 6.93995L19.6906 6.92601C20.0029 6.88418 20.3152 6.84235 20.6275 6.80053C20.6275 6.80053 26.1639 6.04761 30.7918 7.1491C31.9843 7.42795 32.4811 7.56738 32.5379 7.62315C32.5805 7.67892 32.3676 7.69287 32.0127 7.70681C31.019 7.79047 28.9321 7.87412 28.1798 8.89195Z" fill="#44221B"/>
<path d="M29.3154 9.17081C29.6419 9.08715 29.9117 9.00349 30.0394 9.01744C30.0962 9.01744 30.1246 9.04532 30.1246 9.08715C30.0962 9.15686 30.0536 9.22658 30.011 9.29629C29.94 9.43572 29.8407 9.60304 29.7271 9.79823C29.6135 9.99343 29.5 10.2165 29.4006 10.4396C29.1167 11.067 28.9321 11.7921 29.2303 12.3498C29.8549 13.5907 30.7208 19.7953 29.571 22.8766C29.5568 22.9185 29.2586 23.7132 28.9605 24.5219C29.0031 23.4483 29.0457 21.0362 28.8328 17.662C28.7334 16.1701 28.3643 14.7061 27.7397 13.3258H27.7255C26.8879 13.507 26.0787 13.6604 25.3122 13.7998L25.2412 13.8138C6.68707 17.2855 7.45365 13.2839 5.70755 13.9811C5.70755 13.9811 5.40943 13.6325 4.94096 18.5683C4.8274 19.8231 4.71383 21.3569 4.57187 23.3089C4.55767 23.4483 4.51508 23.5041 4.42991 23.4762C4.24536 23.1137 4.08921 22.7372 3.96144 22.3468C3.83368 22.0679 3.7485 21.7751 3.69172 21.4684C3.45039 20.0881 3.12388 17.5505 3.52137 15.5566C3.52137 15.5566 4.4583 10.5372 4.71383 10.4117C4.96936 10.2862 4.69963 11.555 5.08292 11.3459C5.46621 11.1367 5.96307 10.0074 6.16182 10.0492C6.36056 10.091 6.06244 11.1367 6.38895 11.067C6.98518 10.9415 7.02777 10.0771 7.29749 10.0353C7.56722 9.99344 7.34008 11.2483 9.15716 10.1747C10.6052 9.32418 22.6149 5.69904 29.287 7.07938C29.287 7.07938 31.3171 7.2467 32.5521 7.65104C32.5947 7.70681 32.3818 7.72075 32.0269 7.73469C31.0331 7.79047 29.1735 8.48761 28.1798 9.05926C27.6119 9.37995 28.6056 9.36601 29.3154 9.17081Z" fill="#4E2B1F"/>
<path d="M31.4448 7.79047C31.4022 7.77653 31.3455 7.76258 31.3029 7.74864C31.1041 7.67893 30.8912 7.6371 30.6783 7.59527C29.8691 7.4419 28.7192 7.31641 28.7192 7.31641C21.0392 6.00579 9.01522 10.3978 8.41899 10.6348C8.34801 10.6627 8.27703 10.6906 8.22024 10.7045C8.16346 10.7185 8.10668 10.7324 8.06409 10.7464C7.72339 10.8021 7.56723 10.6627 7.38268 10.3978C7.14135 10.0492 6.99939 11.0252 6.48834 11.2065C5.97728 11.3877 6.14763 10.4536 6.09085 10.2862C6.03407 10.1189 5.36686 11.5411 5.05455 11.4296C4.74223 11.318 4.98357 10.4954 4.72804 10.6348C4.47251 10.7742 3.54977 15.7518 3.54977 15.7518V15.7379C3.72013 14.2321 3.98985 12.7402 4.34475 11.2762C4.55769 10.4814 4.78482 10.2862 4.88419 10.2165C4.94098 10.1747 4.95517 10.5372 5.01196 10.83V10.844C5.01196 10.8718 5.01196 10.8858 5.02615 10.9137C5.02615 10.9555 5.04035 10.9834 5.05455 11.0252C5.05455 11.0392 5.05455 11.0531 5.06874 11.0531C5.06874 11.0531 5.06874 11.0531 5.06874 11.067C5.16811 11.2622 5.32427 11.1228 5.42364 10.9973C5.45203 10.9694 5.46623 10.9416 5.48042 10.9137L5.50882 10.8718L5.52301 10.844V10.83C5.59399 10.6627 6.23281 9.24053 6.28959 10.3002C6.28959 10.4257 6.30379 10.5651 6.33218 10.6906C6.33218 10.6906 6.33218 10.6906 6.33218 10.7045C6.34638 10.7603 6.36057 10.8161 6.38897 10.8579C6.51673 11.0392 6.71547 10.6906 6.74387 10.6627C6.78645 10.579 7.62401 8.89195 7.46786 9.92373C7.41107 10.2862 7.55303 10.4257 7.78017 10.4536H7.80856C7.85115 10.4536 7.90793 10.4536 7.95052 10.4536C8.00731 10.4536 8.04989 10.4396 8.10668 10.4257C8.3764 10.356 8.64612 10.2584 8.90165 10.1329L8.93004 10.1189C9.38431 9.9795 14.3245 8.37607 19.1937 7.26064L19.2789 7.2467C25.2128 6.14521 29.429 6.93996 31.2177 7.42796C31.6152 7.5395 31.8991 7.62316 32.0553 7.67893C32.1404 7.70681 32.183 7.72076 32.183 7.72076C32.3818 7.80441 31.8565 7.88807 31.4448 7.79047Z" fill="#7C4C2B"/>
<path d="M5.62237 14.1066C5.62237 14.1066 5.19649 14.3436 5.02614 15.1383C4.85579 15.9331 4.78481 20.4087 4.78481 20.4087C4.78481 20.4087 5.23908 14.5946 5.62237 14.1066Z" fill="#7C4C2B"/>
<path d="M29.8549 9.24052C29.8265 9.2963 29.7271 9.2963 29.6845 9.37995C28.9321 10.0074 28.6482 10.1747 27.8391 10.7603C26.5756 11.6805 25.1844 12.4334 23.708 12.9911C19.5486 14.5667 16.4965 14.985 14.2393 14.7898C10.2929 14.4412 9.00102 12.6286 8.47577 11.2065L8.30542 10.8718C8.93004 12.294 10.6052 14.0647 14.2819 14.3715C16.1558 14.5249 19.1653 14.2181 23.7364 12.6286C25.0141 12.2104 26.2349 11.6108 27.3422 10.844C28.0662 10.356 28.847 9.86795 29.8549 9.24052C29.8975 9.24052 29.8549 9.18475 29.8549 9.24052Z" fill="#7C4C2B"/>
<path d="M32.0836 7.69287C31.8991 7.72076 31.6862 7.74864 31.4448 7.79047C30.6357 7.94384 29.8407 8.19481 29.0883 8.54339C24.6875 10.7185 17.0927 13.772 10.1793 10.9276C17.0785 13.4234 25.3548 10.1886 29.9826 7.88807C30.2098 7.77653 30.4369 7.67893 30.664 7.59527C30.8486 7.52556 31.0331 7.46979 31.2319 7.42796C31.6436 7.5395 31.9275 7.62316 32.0836 7.69287Z" fill="#7C4C2B"/>
<path d="M33.6168 7.97173C33.6168 7.97173 30.7918 7.90201 28.9321 8.82224C24.2759 11.1507 16.6384 14.0647 9.86697 10.8161C17.0785 13.6186 24.9715 10.579 29.8975 8.13904C30.7208 7.76258 31.6152 7.49767 32.5095 7.37218C32.8928 7.55344 33.2619 7.74864 33.6168 7.97173Z" fill="#201A14"/>
<path d="M30.1246 9.10109C30.0962 9.17081 30.0536 9.24052 30.011 9.31024C29.2444 9.95161 28.9605 10.1189 28.123 10.7324C26.8169 11.6805 25.3973 12.4474 23.8784 13.019C19.6196 14.6225 16.4823 15.0686 14.1683 14.8734C10.1225 14.5249 8.88743 12.5589 8.33379 11.1089L8.27701 10.8997C8.91583 12.3498 10.449 14.1902 14.2109 14.5109C16.5249 14.7061 19.6622 14.2739 23.921 12.6565C25.4257 12.0849 26.8595 11.318 28.1655 10.3699C28.8895 9.84006 29.3154 9.60304 30.0536 9.01744C30.0962 9.03138 30.1246 9.05927 30.1246 9.10109Z" fill="#201A14"/>
<path d="M11.5705 10.9276C12.2661 11.0531 12.9617 11.1367 13.6573 11.1646C14.0122 11.1786 14.3529 11.2065 14.7078 11.2065H15.233C15.4034 11.2065 15.5879 11.1925 15.7583 11.1925L16.2835 11.1786C16.4539 11.1646 16.6384 11.1507 16.8088 11.1367C17.1637 11.1089 17.5044 11.0949 17.8593 11.0391C18.2142 10.9973 18.5549 10.9694 18.9098 10.9137L19.9461 10.7464C20.1164 10.7185 20.2868 10.6766 20.4572 10.6487L20.9682 10.5372L21.4793 10.4257C21.6496 10.3838 21.82 10.342 21.9903 10.3002L23.0124 10.0353L24.0203 9.71458L24.5172 9.54727C24.6875 9.49149 24.8437 9.42178 25.0141 9.36601L25.9936 8.98955L26.2349 8.89195L26.4762 8.78041L26.9589 8.57127L27.9242 8.13904L26.9731 8.58521L26.4904 8.80829L26.2491 8.91984L26.0078 9.01744L25.0283 9.40784C24.8579 9.46361 24.7017 9.54727 24.5314 9.58909L24.0345 9.75641L23.0408 10.091L22.0187 10.3699C21.8484 10.4117 21.678 10.4675 21.5077 10.5093L20.9966 10.6209L20.4855 10.7324C20.3152 10.7742 20.1448 10.8161 19.9745 10.83L18.9382 10.9973C18.5975 11.0531 18.2426 11.081 17.8877 11.1228C17.5328 11.1646 17.1921 11.1786 16.8372 11.2065C16.6668 11.2204 16.4823 11.2343 16.3119 11.2343L15.7867 11.2483C15.6163 11.2483 15.4318 11.2622 15.2614 11.2622L14.7362 11.2483C14.3813 11.2483 14.0264 11.2204 13.6857 11.2065C12.9617 11.1646 12.2519 11.067 11.5705 10.9276Z" fill="#7C4C2B"/>
<path d="M28.052 9.79824C26.5898 10.5512 25.0708 11.2065 23.5235 11.7781C21.9761 12.3637 20.3862 12.8238 18.7678 13.1864C17.1495 13.521 15.4886 13.7162 13.8276 13.5628C13.0043 13.4931 12.1809 13.2979 11.4143 12.9772C10.6477 12.6565 9.96633 12.1685 9.42688 11.555C9.98052 12.1685 10.6619 12.6426 11.4427 12.9493C12.2093 13.2561 13.0185 13.4513 13.8418 13.507C15.4886 13.6604 17.1495 13.4513 18.7678 13.1166C20.3862 12.7681 21.9761 12.308 23.5235 11.7363C24.3042 11.4574 25.0708 11.1507 25.8232 10.83C26.5756 10.5093 27.3138 10.1608 28.052 9.79824Z" fill="#7C4C2B"/>
<path d="M24.7301 8.19481C23.8926 8.48761 23.0266 8.73858 22.1465 8.93378C21.2805 9.14293 20.4004 9.32418 19.5202 9.47756C18.6401 9.63093 17.7599 9.7843 16.8656 9.89584C16.4255 9.95161 15.9712 9.99344 15.5312 10.0213C15.304 10.0353 15.0769 10.0492 14.8639 10.0353C14.7504 10.0353 14.6368 10.0213 14.5232 10.0074C14.4097 10.0074 14.2961 9.9795 14.1967 9.92373C14.2961 9.96555 14.4097 9.99344 14.5232 9.99344C14.6368 10.0074 14.7504 10.0074 14.8639 10.0074C15.0911 10.0074 15.304 9.99344 15.5312 9.9795C15.9712 9.95161 16.4255 9.89584 16.8656 9.84007C17.3056 9.7843 17.7457 9.71458 18.1858 9.64487C18.6259 9.57515 19.0659 9.50544 19.506 9.42178C20.3862 9.26841 21.2663 9.08715 22.1323 8.89195C23.0124 8.72464 23.8784 8.48761 24.7301 8.19481Z" fill="#7C4C2B"/>
<path d="M6.28958 11.9873C6.36056 12.1685 6.44574 12.3358 6.5735 12.4892C6.68707 12.6426 6.80064 12.796 6.9426 12.9214C7.21232 13.1864 7.51043 13.4234 7.85114 13.6186C8.17764 13.8138 8.53254 13.995 8.88744 14.1345C9.07199 14.2042 9.25654 14.26 9.42689 14.3297L9.98053 14.497L9.41269 14.3715C9.22815 14.3157 9.0436 14.26 8.85905 14.1902L8.58933 14.0787L8.44737 14.0229L8.3196 13.9672L8.04988 13.8277L7.80855 13.6883C7.48204 13.4931 7.16973 13.2421 6.90001 12.9633C6.63028 12.6844 6.41734 12.3498 6.28958 11.9873Z" fill="#7C4C2B"/>
<path d="M6.54512 11.7363C6.6019 11.8478 6.68708 11.9454 6.77226 12.043C6.85743 12.1406 6.94261 12.2243 7.04198 12.294C7.24072 12.4474 7.45366 12.5868 7.6808 12.6844C7.90793 12.7959 8.14926 12.8796 8.39059 12.9493C8.51836 12.9911 8.63193 13.0051 8.75969 13.0469L9.14298 13.1166C9.01522 13.1027 8.88745 13.0887 8.75969 13.0748C8.63193 13.0609 8.50416 13.033 8.3764 13.0051C8.12087 12.9493 7.87954 12.8517 7.65241 12.7541C7.42527 12.6426 7.19813 12.5031 7.01359 12.3358C6.81484 12.1685 6.65869 11.9733 6.54512 11.7363Z" fill="#7C4C2B"/>
<path d="M5.1255 12.1406C5.11131 12.4892 5.08292 12.8517 5.02613 13.2003C4.96935 13.5489 4.88417 13.8974 4.7848 14.246C4.68543 14.5946 4.50088 14.9013 4.41571 15.2499C4.31634 15.5845 4.24536 15.9331 4.18857 16.2817C4.075 16.9788 4.01822 17.6899 3.98983 18.401C3.97563 18.7495 3.97563 19.1121 4.00402 19.4606C4.01822 19.8092 4.075 20.1717 4.17438 20.5063C4.04661 20.1717 3.97563 19.8231 3.96144 19.4606C3.94724 19.2794 3.93304 19.0981 3.93304 18.9308C3.93304 18.7635 3.93304 18.5683 3.93304 18.401C3.94724 17.6899 4.03242 16.9788 4.16018 16.2817C4.21696 15.9331 4.30214 15.5845 4.40151 15.2359C4.50088 14.8874 4.65704 14.5667 4.74221 14.2321C4.91257 13.5349 5.05452 12.8378 5.1255 12.1406Z" fill="#7C4C2B"/>
<path d="M20.7695 14.3436C21.5361 14.0926 22.331 13.8696 23.1118 13.6744C23.8926 13.4792 24.7018 13.3118 25.5109 13.1864C25.9226 13.1166 26.3201 13.0888 26.7034 12.9912C27.0867 12.8936 27.4558 12.7262 27.7823 12.5032C28.1088 12.2801 28.3785 11.9873 28.6056 11.6526C28.7192 11.4853 28.8186 11.3041 28.9038 11.1368C28.9889 10.9555 29.0599 10.7742 29.1593 10.593C29.0883 10.7742 29.0315 10.9694 28.9605 11.1646C28.8896 11.3598 28.8044 11.5411 28.6908 11.7084C28.4921 12.0709 28.2082 12.3777 27.8675 12.6147C27.5267 12.8517 27.1435 13.019 26.7318 13.1166C26.533 13.1585 26.3201 13.2003 26.1213 13.2142C25.9226 13.2421 25.7097 13.2561 25.5109 13.284C24.7018 13.3955 23.9068 13.5489 23.1118 13.7441C22.3168 13.9393 21.5502 14.1205 20.7695 14.3436Z" fill="#7C4C2B"/>
<path d="M28.3359 13.033C28.6624 13.5768 28.9322 14.1484 29.1593 14.734C29.3864 15.3196 29.5142 15.947 29.5284 16.5884C29.5426 17.2158 29.5284 17.8433 29.5 18.4707C29.4716 19.0981 29.4148 19.7255 29.3438 20.353C29.3864 19.7255 29.429 19.0981 29.4432 18.4707C29.4574 17.8433 29.4716 17.2158 29.4574 16.5884C29.4432 15.961 29.3154 15.3475 29.1025 14.748C28.9038 14.1624 28.634 13.5907 28.3359 13.033Z" fill="#7C4C2B"/>
<defs>
<radialGradient id="paint0_radial_423_156" cx="0" cy="0" r="1" gradientTransform="matrix(12.3419 -0.353407 -0.359823 -12.1219 16.8502 23.0629)" gradientUnits="userSpaceOnUse">
<stop stop-color="#F9C387"/>
<stop offset="0.56" stop-color="#F9C086"/>
<stop offset="0.94" stop-color="#F8B782"/>
<stop offset="1" stop-color="#F8B581"/>
</radialGradient>
<radialGradient id="paint1_radial_423_156" cx="0" cy="0" r="1" gradientTransform="matrix(1.68581 -0.0482725 -0.0491489 -1.65575 22.9058 21.6832)" gradientUnits="userSpaceOnUse">
<stop stop-color="#333333"/>
<stop offset="0.46" stop-color="#313131"/>
<stop offset="0.71" stop-color="#292929"/>
<stop offset="0.9" stop-color="#1B1B1B"/>
<stop offset="1" stop-color="#111111"/>
</radialGradient>
<radialGradient id="paint2_radial_423_156" cx="0" cy="0" r="1" gradientTransform="matrix(-1.68506 0.0496505 -0.0505518 -1.65502 10.6826 22.1468)" gradientUnits="userSpaceOnUse">
<stop stop-color="#333333"/>
<stop offset="0.46" stop-color="#313131"/>
<stop offset="0.71" stop-color="#292929"/>
<stop offset="0.9" stop-color="#1B1B1B"/>
<stop offset="1" stop-color="#111111"/>
</radialGradient>
</defs>
</svg>
